<svg xmlns="http://www.w3.org/2000/svg" viewBox="0 0 1650.5 1826.33"><defs><style>.cls-1{isolation:isolate;}.cls-2{fill:#c3ffb3;}.cls-3{fill:#fff6f0;}.cls-4{fill:#ffb3a5;}.cls-5{fill:#95847a;}.cls-6{fill:#7f6e66;}.cls-7{fill:#ffafa4;}.cls-8{fill:#ff8685;}.cls-9{fill:#edd4c8;}.cls-10{fill:#fff;}.cls-11,.cls-18{fill:#49c00f;}.cls-12{fill:#414042;}.cls-13{fill:#89d81a;}.cls-14{fill:#58595b;}.cls-15{fill:#ff5a72;}.cls-16{fill:#ff929d;}.cls-17{fill:#231f20;}.cls-18{opacity:0.38;mix-blend-mode:multiply;}</style></defs><title>Delivery</title><g class="cls-1"><g id="Layer_1" data-name="Layer 1"><circle class="cls-2" cx="825.25" cy="825.25" r="825.25"/><path class="cls-3" d="M1847.86,1164.94c-.86-18.71-2.23-24.58-11.34-41.21-11.07-20.21-38.88-26.34-58.24-37.17-41.42-23.17-75.68-67.82-110.92-99.64a572.45,572.45,0,0,1-94-109c-26.81-40.57-46.88-85.07-72.91-126.09-46-72.48-124.36-140.43-216.68-121.35-53.71,11.11-91.74,57.48-133.68,89.25-48.39,36.66-100,68.84-150.35,102.65-102.9,69-196.31,150.8-273.79,247.85l-.12.19c-33.54,4.44-72,16.32-83.66,46.76-16.83,43.82-3.92,105.15,21.2,143.28,29.26,44.43,78.68,62.2,130.11,61.39l7.79-.12c32.18,62.34,83.82,110.94,147.33,143.84,28.95,15,58.58,29.53,90,38.53,13.94,4,29,7.69,43.49,8.54,18.35,1.06,36.15,8.85,55.21,12.12a432.76,432.76,0,0,0,62.32,5.53c29.19.58,58.34-2.34,87.36-5.14,46.75-4.51,93.64-6.55,139.83-13.9,7.58-3.43,15.19-6.8,22.73-10.32C1495,1479.66,1538,1454.32,1578,1424a496.25,496.25,0,0,0,53.38-46.56c8.53-8.64,16.25-19.14,25.33-27.1,12-10.55,23-20.11,38.6-20.9C1784.76,1324.86,1851.91,1253.63,1847.86,1164.94Z" transform="translate(-424.75 -101.49)"/><path class="cls-4" d="M763.78,1090.82c33.33-37.09,120.68-64.47,188.26-80.68,105.14-25.22,218.43-29.9,326.09-25.21,113.37,4.93,220.56,31.34,329.75,62.27,40.26,11.4,80.43,24.72,116.21,46.41,4.17-15.53,8.19-32.76.88-47.07-3.21-6.28-8.33-11.33-13.36-16.27-24.64-24.16-50.31-47.51-74.19-72.4q-18.35-19.11-34.89-39.85c-6.26-7.86-29.17-30.16-29.17-40.15-26.81-40.57-46.88-85.07-72.91-126.09-46-72.48-124.36-140.43-216.68-121.35-53.71,11.11-91.74,57.48-133.68,89.25-48.39,36.66-100,68.84-150.35,102.65-89.54,60.08-171.88,129.8-242.8,210.83C758.51,1057.69,759.69,1066.59,763.78,1090.82Z" transform="translate(-424.75 -101.49)"/><path class="cls-5" d="M1830.89,916.55c-.05-.36-5.64-30.95-5.69-31.31-6.43-44.57-20.79-91.21-35.93-133.34-7.91-22-18.15-49.23-29.72-74.7-14-21.16-28.62-41.92-44.36-61.82-29.25-37-61.94-71.26-98.37-101.25-30.25-24.9-63-46.45-97.33-65.36-101.93-56.22-244.12-73.38-358.27-56.95-121.54,17.49-230.5,79.78-323.37,157.85-57.38,48.24-99.75,122.27-132.63,193.5-37.38,81-46.45,149.47-41.81,239.48,1,19.06.06,64,18.43,78.92,11.25,9.12,30.93,5,47.52,1.14,12.64,4.14,19.81-2.77,29.38-12.94,2-2.16,1.48-7.64,3.67-9.41,7.28-5.89,49.9-25.5,59.3-27.77A481,481,0,0,0,890,990.86c2.55-1,5.2-1.84,7.77-2.8,5.85-39.41,25.57-55.27,34.74-94,2.81-11.87,12.77-29.17,10-17.32,0,.16,15.75-14.11,15.72-14,2.85.66,9.21.65,10,4.47,6.16,28.1-6.83,72.57.08,100.49,111.27-24,238-18.88,346.63-14.63,41.92,1.63,71.19,3.74,112.25,11.29-.25-12.94,11.48-23.08,10.08-36-.56-5.11,4.77-9.46,9.46-9.46,5.51,0,8.91,4.38,9.47,9.46,1.53,14.1,12.1,26.26,12.3,40.42,50.07,10.25,94.43,25.46,139.66,43.33a11.29,11.29,0,0,1,7.46-1.24c17.11,2.85,34.24,5.86,50.88,10.87,16,4.83,36.84,11.92,45.17,27.83a9.1,9.1,0,0,1,.79,6.9,10.72,10.72,0,0,1-2,7.49,35.41,35.41,0,0,1,1.86,16.9c-2.37,16.06,12.17,29.78,27.86,21.42,18.72-10,43.22-5.58,59.66-17.61,14.78-10.81,13.75-34.06,15.94-50.43C1822.15,986.78,1837.84,963.65,1830.89,916.55Z" transform="translate(-424.75 -101.49)"/><path class="cls-6" d="M1830.89,916.55c-.05-.36-5.64-30.95-5.69-31.31-1.56-10.77-3.59-21.67-6-32.59A187.31,187.31,0,0,1,1774,837.82c-37.11-17.78-66.88-47.71-89.55-81.62-14.22-21.27-26-44-38.71-66.17a305.89,305.89,0,0,1,4.26,50.58c-.06,27.7-4.89,64.89-32.93,78.64-35.37,17.36-79-10.17-104.27-33.51-34.57-31.87-58.39-74.08-81.51-114.46-17.17-30-33.92-61.89-56.1-88.9.83,7.63,1.56,15.27,2.27,22.88,5.12,55,19.6,118.8-3.55,171.68-25.68,58.67-110.25,81.93-176.57,80.43-33.84-.76-31.21-.12-56,0-24.28.13-46.67-5-72.45-14.44-61.54-22.61-43-135.4-35.57-183.71,5.21-33.73,13.79-66.82,24-99.38-18,20.08-31.54,44.27-43.76,68.22-13.69,26.82-26.5,54-39.29,81.23-12.34,26.31-25.24,52.6-41.45,76.78-13.68,20.42-30.57,41.9-53.33,52.63-14.52,6.84-31.55,11.34-47,4.87C819,837.92,810.86,825.5,806,812.2c-12.57-34.48-7.8-75.73-2.2-111.1q2.8-17.69,7.07-35.13c-17.31,27.92-30.16,58.64-41.37,89.72C761.81,777.06,754.7,798.63,747,820c-6.36,17.61-12.56,36.16-23.65,51.48-6.47,8.94-15.32,17.9-27,18.52-9.5.5-17.78-4.85-23.61-12A72.17,72.17,0,0,1,667,870c-4.95,35.25-5.72,71.74-3.61,112.7,1,19.06.06,64,18.43,78.92,11.25,9.12,30.93,5,47.52,1.14,12.64,4.14,19.81-2.77,29.38-12.94,2-2.16,1.48-7.64,3.67-9.41,7.28-5.89,49.9-25.5,59.3-27.77A481,481,0,0,0,890,990.86c2.55-1,5.2-1.84,7.77-2.8,5.85-39.41,25.57-55.27,34.74-94,2.81-11.87,12.77-29.17,10-17.32,0,.16,15.75-14.11,15.72-14,2.85.66,9.21.65,10,4.47,6.16,28.1-6.83,72.57.08,100.49,111.27-24,238-18.88,346.63-14.63,41.92,1.63,71.19,3.74,112.25,11.29-.25-12.94,11.48-23.08,10.08-36-.56-5.11,4.77-9.46,9.46-9.46,5.51,0,8.91,4.38,9.47,9.46,1.53,14.1,12.1,26.26,12.3,40.42,50.07,10.25,94.43,25.46,139.66,43.33a11.29,11.29,0,0,1,7.46-1.24c17.11,2.85,34.24,5.86,50.88,10.87,16,4.83,36.84,11.92,45.17,27.83a9.1,9.1,0,0,1,.79,6.9,10.72,10.72,0,0,1-2,7.49,35.55,35.55,0,0,1,1.86,16.9c-2.37,16.06,12.17,29.78,27.86,21.42,18.72-10,43.22-5.58,59.66-17.61,14.78-10.81,13.75-34.06,15.94-50.43C1822.15,986.78,1837.84,963.65,1830.89,916.55Z" transform="translate(-424.75 -101.49)"/><ellipse class="cls-7" cx="552.94" cy="1080.36" rx="86.76" ry="65.51"/><ellipse class="cls-7" cx="1080.84" cy="1093.73" rx="86.76" ry="65.51"/><ellipse class="cls-8" cx="823.21" cy="1027.99" rx="35.23" ry="20.35"/><path class="cls-9" d="M1160.21,406.28C876.9,447.51,596,737.21,689.39,1038.58c.37,1.21,2.51,1.06,2.32-.31C672.07,890.32,708.2,742.71,803.26,625.73,894.89,513,1023,444.05,1161.81,411.38,1171.67,409.05,1169.73,404.89,1160.21,406.28Z" transform="translate(-424.75 -101.49)"/><path class="cls-4" d="M1761.29,1135.22c19.45,14.17,29.83,39.1,28.33,63.11s-14.14,46.68-32.38,62.36-41.72,24.64-65.61,27.45c-2.49-19.37,14-99.24,15-111.7.8-10.14,4.78-37,11-45.14C1726.83,1119.13,1751.89,1128.38,1761.29,1135.22Z" transform="translate(-424.75 -101.49)"/><path class="cls-4" d="M777.72,1269.53c-32.89-3.85-62.72-27.31-74.21-58.38s-13.85-74.29,8.63-98.61c6.56-7.1,35.09-18.84,45.11-9.46,8.26,7.72,5.57,41.58,6.72,52.73C765,1166.2,772.67,1268.94,777.72,1269.53Z" transform="translate(-424.75 -101.49)"/><path class="cls-10" d="M1243.37,1605.91c2.16-14,14.37-23.83,25.7-32.27l74.72-55.72c-4.75,3.55-31.33-.49-38-.22-13.74.55-27.44,1.7-41.15,2.73-26.2,2-67-7.34-92.93-5.42-29.9,2.22,4.69,32.24,16.66,45.39A253.3,253.3,0,0,0,1243.37,1605.91Z" transform="translate(-424.75 -101.49)"/><path class="cls-11" d="M991,1575a1178,1178,0,0,0-116.13,251.19c86.19,69.48,203.53,83.63,314.14,88.46,96.24,4.21,168.93,2.69,263.94-13.18,8.84-1.48,54.19-14.44,58.27-22.41,2-3.83-2.33-29.32-2.24-33.62,1.87-87.36-23.79-142.87-61.72-221.59,25.56,21.46,51.91,43.37,83.52,54.06,38.3,13,80,8.07,120.17,3,2.63-39,35.36-68.3,65.65-93a50.38,50.38,0,0,0-87.79-15.49q-64.5-16.8-127.51-38.84c-29.49-10.32-59.37-21.62-90.61-22.37-66.08-1.6-123.12,43.2-173.79,85.65-28.87-7-54.54-46.43-78.09-64.56-17.45-13.41-64.41-36.23-100.64-28.17C1017.88,1513.08,1011.34,1541.88,991,1575Z" transform="translate(-424.75 -101.49)"/><path class="cls-3" d="M1728.51,1604.78c12.62,5.43,25.43,11.73,34.14,22.36s12.18,26.71,4.7,38.24c-.84,1.28-1.94,2.58-3.45,2.78-1.81.25-3.37-1.13-4.77-2.31a33.07,33.07,0,0,0-35.68-3.87c-15.61,8.16-58.83,47.35-54.77,2.32C1671.47,1633.32,1693.67,1589.8,1728.51,1604.78Z" transform="translate(-424.75 -101.49)"/><path class="cls-4" d="M1703.39,1656.38a55.66,55.66,0,0,1-10-46.13c-14.3,12.23-23.07,35.38-24.75,54-3.39,37.62,26.21,16.46,45.15,3.72A95.51,95.51,0,0,1,1703.39,1656.38Z" transform="translate(-424.75 -101.49)"/><path class="cls-12" d="M1091.85,1510.74c-6.61,8.49-7.2,20.54-3.88,30.78s10,19,17.09,27.13c61.24,70.55,152.55,106,240.52,137.42,43.45,15.51,88.06,30.86,134.2,30.81,5.57,0,11.71,0,15.93,3.6,4.9,4.22,5.18,11.58,5.08,18q-.19,11.92-.38,23.84c0,2.42-.13,5-1.57,7-2.1,2.84-6.15,3.2-9.69,3.24-43.82.48-87.17-8.19-130.14-16.83-17.43-3.5-34.9-7-51.81-12.47s-33.34-12.89-49.52-20.47c-48.46-22.68-96.62-47.44-137.22-82.28-30.37-26.06-56.44-58.25-72-95.37-4.89-11.69-18-38.43-10.2-50.86C1047.75,1499.3,1078.58,1507.54,1091.85,1510.74Z" transform="translate(-424.75 -101.49)"/><path class="cls-13" d="M1513.31,1899.06c.44,4.18,1.06,8.72,4.06,11.66,2.12,2.07,5.09,3,8,3.78,52.68,14.52,108.51,9.4,162.91,4.17l103.54-10q-3.24-112.17-17.68-223.63c-69.07.58-138.08,3.88-207,7.75-19,1.07-68-6.48-74.26,17.8-3.24,12.6-2,20.06,1.51,30.21,4.74,13.68,10.33,31.61,10.9,46Q1507.43,1843.08,1513.31,1899.06Z" transform="translate(-424.75 -101.49)"/><path class="cls-11" d="M1672.23,1717.4c35.26.79,70.21-1.34,105.14-4.28-1.09-9.35-2.07-18.71-3.28-28-69.07.58-138.08,3.88-207,7.75-19,1.07-68-6.48-74.27,17.8A49.56,49.56,0,0,0,1491,1726C1550.83,1718,1612,1716.06,1672.23,1717.4Z" transform="translate(-424.75 -101.49)"/><path class="cls-10" d="M1510,1863.52c56.93,1.16,272.6-16.35,278.59-16.38-1.63-29.75-3-52.26-5.75-81.94-49.63,2.59-235.07,20-278.2,15.23.27,2.21.49,4.37.57,6.45Q1506.73,1825.25,1510,1863.52Z" transform="translate(-424.75 -101.49)"/><path class="cls-14" d="M1501.84,1742.72c-83.34-16.47-165.65-32.33-245.17-63.54-75.93-29.8-150.06-72.45-182.28-151.39-2.31-5.66-10.94-2.21-8.8,3.49,28.1,75,93.85,122.84,164.83,154.49,83.76,37.35,177.09,67.8,268.69,77.18C1512.24,1764.29,1514.7,1745.26,1501.84,1742.72Z" transform="translate(-424.75 -101.49)"/><ellipse class="cls-10" cx="946.47" cy="1559.8" rx="66.41" ry="29.28"/><polygon class="cls-10" points="602.93 1611.7 508.63 1564.06 520.55 1533.29 613.85 1576.96 602.93 1611.7"/><polygon class="cls-10" points="590.02 1661.33 495.73 1613.68 507.64 1582.91 600.94 1626.59 590.02 1661.33"/><path class="cls-10" d="M1488.81,1540.06c-9.63,33.27-19.89,65.89-34.53,97.38-5.64,12.13,12.62,19.07,18.85,7.84,17.29-31.17,31.07-64.09,38-99.17C1513.71,1533.35,1492.52,1527.23,1488.81,1540.06Z" transform="translate(-424.75 -101.49)"/><path class="cls-10" d="M1524.57,1550.09c-5.74,34.6-21.54,61.68-34.08,93.62-5.29,13.47,12,22.6,21.26,12.42,24.21-26.56,33.7-68,37.45-102.72C1550.91,1537.52,1527.2,1534.27,1524.57,1550.09Z" transform="translate(-424.75 -101.49)"/><path class="cls-15" d="M1338.88,1165.77c-6.44-5.64-21.4-1.46-29-1.15-17.94.71-35.89,1.37-53.84,1.7-31.89.58-65.56,5-97.17.83-5.4-.71-8.94,3-10.16,7.51a20.73,20.73,0,0,0-1.81,1.82,116.82,116.82,0,0,0-2.32,25.62c1.5,4.41,1.22,11.51,1.16,18,.59,5.31,1.35,10.61,2.23,15.91a94.49,94.49,0,0,0,9,20.89,89.05,89.05,0,0,0,43.44,37.15c40,15.6,107.86,9,133.88-29C1347.61,1245.68,1354.37,1179.33,1338.88,1165.77Z" transform="translate(-424.75 -101.49)"/><path class="cls-16" d="M1266.7,1233.86c-38.79-3.15-76.8,3.6-113.34,15.91,1.15,2.43,2.27,4.87,3.63,7.17a89.05,89.05,0,0,0,43.44,37.15c40,15.6,107.86,9,133.88-29a55.67,55.67,0,0,0,6.19-13.79C1316.77,1242.35,1292.14,1235.93,1266.7,1233.86Z" transform="translate(-424.75 -101.49)"/><path class="cls-10" d="M1306.18,1167.31c-20.64-3.9-26.45,2.46-47.5,2-23.4-.51-36.93-.45-60.22-2.68-12.62-1.21-16.94,11.24-6.06,16.16,28.28,12.79,86.17,11.44,113.11.67C1312.22,1180.78,1313.8,1168.75,1306.18,1167.31Z" transform="translate(-424.75 -101.49)"/><path class="cls-17" d="M1152.33,1175.53c60.51,1.52,121.08-.34,181.6-.21,2.94,0,5.91.15,8.85.1a5.32,5.32,0,0,0,1,0c.09,0,.24.07.33,0-2.19.93-4.33-4.68-5.35-3.7-.17.17.4,6,.41,7.33.08,16.66-.29,34.38-3.56,50.75-3.87,19.39-13,37.73-29.37,49.46-19.1,13.66-43.93,18.22-67,16.14-26.75-2.4-55.06-15-69.3-38.66-15.75-26.22-14.28-58.12-12.83-87.53.4-8.12-12.22-8.1-12.62,0-1.4,28.48-2.2,57.91,9.7,84.5,10.77,24.06,31.85,40.12,56.47,48.45,44.93,15.21,104.38,3.6,127.59-41.36,9.44-18.3,11.64-38.3,12.76-58.54.49-8.92,1.08-17.95.71-26.89-.24-5.71-.86-11.61-7.55-12.56-7.53-1.08-15.76-.19-23.32-.16q-24.59.11-49.15.31c-39.79.28-79.63.87-119.42-.13-8.12-.2-8.12,12.42,0,12.62Z" transform="translate(-424.75 -101.49)"/><path class="cls-17" d="M1685,1260.65c-9.94,66.84-53.07,122-106.16,161.58-53.76,40-117.71,67.62-183.51,80.16-79.22,15.1-162,16.52-242,6.56-80.6-10-161-33.26-231.4-74.31-65.07-37.93-117.15-95.83-136.14-169.92a275.28,275.28,0,0,1-5.56-27.87c-.76-5.09-7.14-7.8-11.65-6.61-5.43,1.43-7.36,6.61-6.61,11.64,11.73,78.77,58.22,146.14,122.77,191.51,68.4,48.09,151.75,75.55,233.58,89.38,83.91,14.19,169.89,14.66,254.06,2.47,70.15-10.17,138-34.42,197.31-73.6,58.06-38.34,109.5-92.56,128.32-161.1a210.17,210.17,0,0,0,5.19-24.86c.76-5.09-1.28-10.11-6.61-11.64-4.45-1.28-10.89,1.56-11.64,6.61Z" transform="translate(-424.75 -101.49)"/><path class="cls-17" d="M696.74,1066c-24.23-71.68-30.14-148.1-14.61-222.32,15.4-73.53,49.38-142.25,93.17-202.94,80.15-111.06,203.59-191.09,337.36-219.93,68.11-14.69,140.08-15.85,209.22-8.66,69.92,7.26,139.39,25.47,202.42,56.92,91.34,45.58,163.84,119.29,217,205.67,30.12,48.94,53.42,102.08,66.57,158.11a436.7,436.7,0,0,1,1.35,195.11,481,481,0,0,1-14.86,51.87c-4,11.54,14.29,16.5,18.25,5,23.32-67.34,31.41-139.26,22.05-210-8.08-61.15-28.23-120-56.94-174.51a649.79,649.79,0,0,0-88.29-127c-33-37.29-70.39-70.06-112.65-96.56C1515,438.06,1445,413.17,1373.43,400.42a730.92,730.92,0,0,0-218.68-5.86c-69.94,8.87-137.65,31.34-199.6,64.91A590.07,590.07,0,0,0,789.52,592.41C739.9,650,700.23,718.09,676.72,790.51c-23.42,72.15-28.6,149.15-13.64,223.59A461.13,461.13,0,0,0,678.49,1071c3.88,11.48,22.17,6.55,18.25-5Z" transform="translate(-424.75 -101.49)"/><path class="cls-17" d="M745,1057.26a1143.07,1143.07,0,0,0,14.32,114c.89,5,7,7.88,11.64,6.61,5.31-1.46,7.5-6.59,6.61-11.64a1092.87,1092.87,0,0,1-13.64-108.94c-.9-12.08-19.84-12.17-18.93,0Z" transform="translate(-424.75 -101.49)"/><path class="cls-17" d="M1730.4,1107.81c24.14-17.18,56.12-17.85,78.93,2.25,21.21,18.7,29.4,46.62,28.87,74.18-1,50.44-33.39,94-76.85,117.32a160.36,160.36,0,0,1-81.08,18.93c-12.18-.4-12.17,18.53,0,18.93,57.79,1.89,115.11-25.59,149.06-72.51,34.47-47.66,41.28-123.75-3.67-167.5a81.67,81.67,0,0,0-104.82-8c-9.84,7-.4,23.43,9.56,16.35Z" transform="translate(-424.75 -101.49)"/><path class="cls-17" d="M745.94,1055.33c-30.08-.83-61,5-85,24.15-18.73,15-30.46,37.24-34.88,60.61-9.83,51.9,8.54,110.64,47.72,146.35a163.23,163.23,0,0,0,120.67,41.82c12.07-.9,12.17-19.84,0-18.93-62.91,4.66-123.41-32.55-143.66-92.68-12.8-38-13.85-87.12,16.22-117.27,20.66-20.73,50.73-25.9,78.9-25.12,12.19.34,12.18-18.59,0-18.93Z" transform="translate(-424.75 -101.49)"/><path class="cls-17" d="M1811.1,1092.15c-.2-2.5-.41-5-.61-7.49a4.72,4.72,0,0,0-.55-2.43,5.68,5.68,0,0,0-3.33-3.34,4.74,4.74,0,0,0-2.43-.54,6.37,6.37,0,0,0-4.47,1.85,6.21,6.21,0,0,0-1.84,4.46c.2,2.5.41,5,.62,7.49a4.62,4.62,0,0,0,.54,2.43,6.45,6.45,0,0,0,5.76,3.88,6.4,6.4,0,0,0,4.47-1.84,6.23,6.23,0,0,0,1.84-4.47Z" transform="translate(-424.75 -101.49)"/><path class="cls-17" d="M1707.23,1061.69c.93,40.52-11.3,80.47-15.63,120.54-.55,5.09,4.74,9.47,9.47,9.47,5.57,0,8.91-4.36,9.46-9.47,4.33-40.1,16.56-80,15.63-120.54-.28-12.16-19.21-12.21-18.93,0Z" transform="translate(-424.75 -101.49)"/><path class="cls-17" d="M746.82,1050.26a963.39,963.39,0,0,1,98.6-37.94c15.74-5.1,32.12-8.75,47.71-14.21,5.22-1.82,8.44-6.21,11.33-10.7,7.84-12.23,13.36-26.18,19.12-39.45,7.51-17.29,14.69-34.73,22.27-52,5.6-12.72,11-25.94,18.86-37.5,1.25-1.84-.74,1.58.38-.42,1-1.72,1.73-.59-.13-.12-3.08.78-6.61.19-8.18-1.91,1.5,2,.07-.34.32.48.32,1,.62,2,.87,3,.3,1.21.51,2.45.72,3.68.09.54.17,1.09.25,1.63-.31-2.17.15,1.57.19,1.94,3.14,31.23-1.75,63.49,4.19,94.44.95,4.94,2.56,10.22,6.34,13.76a12.73,12.73,0,0,0,8.68,3.46c7.63,0,16.07-2.75,23.59-4,35.68-5.94,71.63-10.14,107.69-12.83,71.7-5.34,143.79-4.65,215.46.75q26.93,2,53.75,5,13.13,1.44,26.22,3.11,6,.76,11.9,1.57c4.13.57,8.94,2.19,13.12,1.11,12.35-3.21,12.68-25.94,14.1-35.71,2.18-15.08,2.69-31.81,7.94-46.23-.85,2.33.8-.39-.39.64-2.94,2.54-4.29,5.09-10.3,1.83-1.77-1-.74-1.25-1.56-1.42s-.49-.9.1.27c.23.46.49.9.72,1.36s.86,1.94.07.05c.32.76.61,1.56.89,2.35,2.63,7.61,4.59,15.43,6.51,23.25,3.93,16,6.75,32.81,12.8,48.2,3.22,8.17,6.68,12,15.61,13.81,15.33,3.07,30.65,6.22,45.92,9.58,58.32,12.83,115.79,29.23,170.43,53.58,14.3,6.37,28.39,13.19,42.31,20.33,10.83,5.54,20.41-10.78,9.56-16.35a826.62,826.62,0,0,0-171.26-64.9c-30.41-7.83-61.15-14.33-91.93-20.5l-2.4-.47q-4.45-1.16-.67.26c.14.2,2.13,1.23,1.1.77,1.78.79.57,1-.21-.77-1-2.29.17.78-.79-1.92q-1-2.7-1.81-5.43c-2.55-8.34-4.55-16.84-6.58-25.31-3.61-15.06-5.87-32.61-13.35-46.38-3.31-6.1-10.05-10.81-16.93-6.6-5.41,3.33-6.91,10.61-8.12,16.37-3.52,16.66-4.86,33.72-7.77,50.49-.56,3.22-1.14,6.46-2,9.63-.28,1.09-.63,2.16-.93,3.25-.45,1.65,1.17-.83-.44.94.4-.44,6.07-6.14,6.48-3.6,0-.12-4.57-.64-5.24-.73q-6.49-.88-13-1.74-14.4-1.87-28.84-3.48a1504.94,1504.94,0,0,0-218.32-8.71q-54.19,1.89-108.12,8.26-27.18,3.25-54.23,7.66c-2.11.35-21.22,4-21.3,3.76-.24-.78,5.79,2.3,4.34,1.57.12.06,1.56,1.9.74.92-.47-.56-1.15-2.77-.14,0a41.62,41.62,0,0,1-1.68-6.59c-.1-.53-.17-1.07-.26-1.6-.44-2.79.22,2-.12-1-.2-1.76-.37-3.52-.51-5.29-.62-7.81-.8-15.66-.93-23.5-.29-17.1.06-34.25-1.07-51.32-.66-10.09-.8-28.79-13-32.48-11.85-3.57-18.88,10.67-23.29,19.08C925.72,890.81,914,924.61,899,956.79c-2.91,6.27-5.88,12.56-9.38,18.53-.62,1-1.26,2.08-1.91,3.11-.43.68-2.58,3.23-.61,1-.51.57-1.07,1.13-1.57,1.72-1,1.23,1.73-1.69.79-.61-.14.16,4.87-1.29-1,.05-34,7.86-67.65,20.43-100.07,33.09q-24.29,9.48-48.06,20.21c-4.7,2.11-5.73,8.85-3.4,12.95,2.75,4.83,8.32,5.48,13,3.4Z" transform="translate(-424.75 -101.49)"/><path class="cls-17" d="M967.56,853.81c24-127.79,65.55-255.76,139.44-363.87a570.23,570.23,0,0,1,71.63-85.86c5.81-5.69-3.11-14.61-8.92-8.92-95.87,93.91-153.79,220.41-189.49,348.14-9.87,35.33-18.05,71.11-24.83,107.15-1.49,7.94,10.67,11.34,12.17,3.36Z" transform="translate(-424.75 -101.49)"/><path class="cls-17" d="M1290,402.81c80.09,107.62,121.63,239.13,138.32,371.11,4.76,37.71,7.54,75.65,8.67,113.64.25,8.1,12.87,8.13,12.62,0-4-135.09-28.77-272.22-89.3-394a638.2,638.2,0,0,0-59.42-97.11c-4.79-6.44-15.75-.16-10.89,6.37Z" transform="translate(-424.75 -101.49)"/><path class="cls-17" d="M1309.16,411.82c56.13.79,105.67,34.29,147.07,69.25A602.26,602.26,0,0,1,1556,589.56c58.41,81.21,98.7,175.36,118.47,273.35a651.76,651.76,0,0,1,12.2,165.24c-.46,8.11,12.16,8.09,12.62,0,5.73-102.07-13.73-205.3-52.42-299.72-38.63-94.24-96.71-181.7-173.49-249.16-45.76-40.2-101-79.18-164.26-80.07-8.13-.11-8.13,12.51,0,12.62Z" transform="translate(-424.75 -101.49)"/><path class="cls-17" d="M1151.09,396.6c-99.18,23.3-190.47,77.72-258.94,153.07C819.06,630.1,775,733.13,765,841.21A504.33,504.33,0,0,0,782.42,1027c2.25,7.79,14.43,4.48,12.17-3.35-30.26-104.75-24.17-218.57,15.84-319.91,37.29-94.45,105.5-175.12,190.78-229.88a492.64,492.64,0,0,1,153.24-65.13c7.9-1.85,4.55-14-3.36-12.16Z" transform="translate(-424.75 -101.49)"/><ellipse class="cls-17" cx="631.98" cy="999.56" rx="55.86" ry="60.93"/><ellipse class="cls-17" cx="1007.73" cy="999.56" rx="55.86" ry="60.93"/><circle class="cls-10" cx="1025.55" cy="1079.71" r="11.78" transform="translate(-759.87 373.16) rotate(-22.5)"/><circle class="cls-10" cx="1468.88" cy="1079.71" r="11.78" transform="translate(-757.99 1253.41) rotate(-45)"/><path class="cls-10" d="M1825,1433.84a33.3,33.3,0,0,0-20.29,19.4,33.34,33.34,0,0,0-20.3-19.4,33.3,33.3,0,0,0,20.3-19.39A33.26,33.26,0,0,0,1825,1433.84Z" transform="translate(-424.75 -101.49)"/><path class="cls-10" d="M1751.93,1376.69a33.2,33.2,0,0,0-20.28,19.4,33.33,33.33,0,0,0-20.31-19.4,33.38,33.38,0,0,0,20.31-19.4A33.26,33.26,0,0,0,1751.93,1376.69Z" transform="translate(-424.75 -101.49)"/><path class="cls-10" d="M1772.36,1483.7a62.21,62.21,0,0,0-37.94,36.28,62.33,62.33,0,0,0-38-36.28,62.33,62.33,0,0,0,38-36.28A62.21,62.21,0,0,0,1772.36,1483.7Z" transform="translate(-424.75 -101.49)"/><path class="cls-11" d="M851.28,383.43c167.88-163.59,415.7-200.23,628.81-111.1,33.21,13.89,66.63,29.89,96.86,49.53,161.44,104,253,302.56,234.33,493.7-.63,6.48-1.62,13.45-6.16,18.11-12.07,12.34-31.69-2.76-42.31-16.37C1658.71,683.77,1500.62,593.63,1332.69,572S989,597.69,854.52,700.55c-37.49,28.67-78.26,62.27-118,97.08-11.9,10.41-32.91,20.92-43.11,3.32-7-12-6.59-53-6.63-66.31-.21-85.35,35.24-165,77.59-238.82A513.93,513.93,0,0,1,851.28,383.43Z" transform="translate(-424.75 -101.49)"/><path class="cls-10" d="M914.78,604.23c77.39-48.76,172.72-91.76,263.38-104,93.61-12.66,184.27,2.62,274.07,31.27,45.08,14.38,87,38.67,128.14,62.16,27.75,15.83,53.26,35.48,76.8,57.13,4-117.27-34.58-235.55-100-332.14a7.88,7.88,0,0,1-.42-9c-24.61-14.19-50.67-26.42-76.66-37.29-163.86-68.54-348.22-62.62-501,18.1-21.76,24.47-42.65,53.94-52.92,84.7-21.3,63.81-34.58,123.77-47.82,189.46-3.44,17.07,6.95,42.7,5.95,60C894.31,617.58,904.45,610.74,914.78,604.23Z" transform="translate(-424.75 -101.49)"/><path class="cls-18" d="M709.39,781.62c16.74-12,29.83-28.57,44.66-42.73,17.58-16.8,35.78-32.95,54.9-48,39.18-30.84,81.53-59.37,126.5-81.09,86.28-41.68,181.83-81.6,277.1-88.77,88.68-6.68,180.9,18.39,265.82,45.84,43.13,13.94,83.63,33.61,119.77,61.09,36.65,27.87,70.43,59.49,105.51,89.28,32,27.2,63.79,55.07,91.53,86.72,5.14,5.87,10.23,11.94,15.16,18.2a62,62,0,0,0,.94-6.6c4-40.84,8,10.49-3.91-28.67-42.61-139.74-249.13-273-393.71-303.36-95.65-20.1-166-27.42-262.47-11.93C1055.53,487,963,531.73,880.2,582.38,810.09,625.28,738.46,699.58,691,766.46c-.25,5.14-4.48,8.67-.71,25.56A85.35,85.35,0,0,0,709.39,781.62Z" transform="translate(-424.75 -101.49)"/><path class="cls-18" d="M782.51,738.22c-15.44,14.31-29.74,29.69-45,44.2a164.16,164.16,0,0,1-17.13,14.37c25.1-16.86,45.72-39.58,66.08-62.13C785.16,735.85,783.82,737,782.51,738.22Z" transform="translate(-424.75 -101.49)"/><path class="cls-18" d="M1745.13,785.9c-32.57-30.93-68.34-58.22-102.18-87.69-30.83-26.85-61.07-53.26-98.56-70.55-20.2-9.31-41.8-15.93-62.82-23.14-22.06-7.57-44.25-14.81-66.66-21.27-44.17-12.73-88.84-21.87-134.82-24.09-46.56-2.25-93.31,1.92-139,10.76-86.59,16.74-172,49.45-246.76,96.46-17.58,11-35,22.82-50.59,36.61-10.35,9.16-20,19.08-29.4,29.19,13.68-11,27.15-21.64,40.21-31.63C989,597.69,1164.76,550.46,1332.69,572s326,111.73,430.12,245.26c7.28,9.34,18.8,19.36,29.21,20.77A424,424,0,0,0,1745.13,785.9Z" transform="translate(-424.75 -101.49)"/><path class="cls-17" d="M1663.76,723.07c33,29.78,64.35,61.49,96,92.66,9.2,9.06,17.89,20.1,29.52,26.19,14.34,7.51,26.34-.75,29-15.86,2.11-11.91-16.13-17-18.25-5-.17.93-1.33,6-1.53,5.85s2-1,1.92-.74l.66.17a13.09,13.09,0,0,1-2-.54c-3-1.4-7.06-4.73-10-7.46-10-9.17-19.38-19.17-29.13-28.63-27.55-26.75-54.35-54.26-82.86-80-9-8.15-22.46,5.2-13.39,13.38Z" transform="translate(-424.75 -101.49)"/><path class="cls-17" d="M691.37,804.4c6.57,9.33,15.86,14.63,27.25,10.5,9.93-3.59,17.63-11.9,25.47-18.64q9-7.71,18-15.36c15.64-13.3,31.45-26.39,47.61-39,42.1-32.94,88.4-64,136.28-89.51,58.83-31.41,121.67-55.34,187.1-68.69a585.37,585.37,0,0,1,228.12-1.19c95.26,18.5,184.4,59.63,265,113.06q17.46,11.57,34.39,23.87c9.88,7.16,19.34-9.26,9.55-16.34-80.71-58.41-170.51-105.75-267.39-130.61a611.85,611.85,0,0,0-236.25-13.62c-68,9.42-133.88,30.63-195.86,60C918.5,643.43,869.32,673.9,823,708.12c-33.07,24.43-64.93,50.64-95.8,77.79-4.13,3.63-14.44,16.1-19.49,8.94-7-9.88-23.38-.44-16.35,9.55Z" transform="translate(-424.75 -101.49)"/><path class="cls-17" d="M705.56,797.69C695.67,680.12,719.91,560.88,789,463.76c36.33-51.05,83.46-93,135.73-127.19,54.73-35.8,114.62-63.55,177.88-80.38,130.48-34.71,269.16-19.27,392.35,34.45,89.2,38.9,168.66,99.07,221.87,181.37,58.64,90.71,81.54,198.87,83.3,305.75.25,15.26.08,30.53-.43,45.78-.41,12.19,18.52,12.17,18.93,0,3.8-114-12.83-231.26-68.32-332.36-48.37-88.13-124.6-156.77-213.91-201.9-120.53-60.91-259.56-85.6-393-61.56-65.85,11.86-129.41,35.52-187.81,68C898,327.86,844.18,368.15,800.94,418.2c-80.06,92.68-118,212.29-116.55,333.94.18,15.2,1,30.4,2.24,45.55,1,12,20,12.16,18.93,0Z" transform="translate(-424.75 -101.49)"/><path class="cls-17" d="M713.65,792.82c53.83-61.71,112.82-119.62,179.71-167.16,65.3-46.42,137.73-82.43,215.42-102.62,80.8-21,165.32-24.89,247.5-9.7,81.71,15.1,159.64,47.26,229.41,92.21a685.7,685.7,0,0,1,98.74,77.37c32.18,30.34,62.17,63.35,85.94,100.76,6.6,10.39,12.87,21,19.1,31.58s22.54,1,16.35-9.55c-12.66-21.56-25.58-43-40.8-62.88a584.73,584.73,0,0,0-43.8-50.17,714.69,714.69,0,0,0-98-84.47c-69.36-49.65-148.25-86.78-231.3-106.63a592.06,592.06,0,0,0-254.66-4.48C1056,513.39,978.89,546.6,909.6,591.74c-70,45.62-132.17,102.45-188.33,164.11q-10.63,11.67-21,23.59c-8,9.14,5.36,22.58,13.39,13.38Z" transform="translate(-424.75 -101.49)"/><path class="cls-17" d="M958.27,304.25C933.85,335.46,918,372.7,905.66,410.11c-14.37,43.68-23.78,88.95-29.68,134.51a710.92,710.92,0,0,0-5.81,73.75c-.21,8.12,12.41,8.12,12.62,0a735.73,735.73,0,0,1,15-128.77c8.62-42.14,20.37-84.25,38.31-123.44,8.51-18.59,18.44-36.85,31.07-53,4.94-6.32-3.93-15.31-8.93-8.92Z" transform="translate(-424.75 -101.49)"/><path class="cls-17" d="M1561.25,327.39c49.1,75.1,77.24,163.83,90,252.2a631,631,0,0,1,6.18,70.26c.26,8.11,12.88,8.14,12.62,0a687,687,0,0,0-60.83-261A510.62,510.62,0,0,0,1572.15,321c-4.43-6.78-15.36-.46-10.9,6.36Z" transform="translate(-424.75 -101.49)"/><path class="cls-17" d="M1030.45,320.36h25.44q12.42,0,18.62,6.66t6.21,19.53v53.61q0,12.87-6.21,19.54t-18.62,6.66h-25.44Zm25.13,90.85a8,8,0,0,0,6.29-2.42c1.46-1.61,2.19-4.24,2.19-7.87V345.8c0-3.64-.73-6.26-2.19-7.88a8.08,8.08,0,0,0-6.29-2.42h-8.47v75.71Z" transform="translate(-424.75 -101.49)"/><path class="cls-17" d="M1091.93,320.36h45.43V335.5h-28.77v28h22.87v15.15h-22.87v32.55h28.77v15.15h-45.43Z" transform="translate(-424.75 -101.49)"/><path class="cls-17" d="M1146.9,320.36h16.66v90.85H1191v15.15H1146.9Z" transform="translate(-424.75 -101.49)"/><path class="cls-17" d="M1199,320.36h16.65v106H1199Z" transform="translate(-424.75 -101.49)"/><path class="cls-17" d="M1223.67,320.36h16.81l10.9,82.23h.31l10.9-82.23h15.3l-16.06,106h-22.1Z" transform="translate(-424.75 -101.49)"/><path class="cls-17" d="M1285.91,320.36h45.43V335.5h-28.77v28h22.87v15.15h-22.87v32.55h28.77v15.15h-45.43Z" transform="translate(-424.75 -101.49)"/><path class="cls-17" d="M1340.88,320.36h24.68q12.87,0,18.78,6t5.9,18.4v6.51q0,16.5-10.9,20.9v.3a13,13,0,0,1,8.55,7.42q2.5,5.61,2.51,15v18.63a68.9,68.9,0,0,0,.3,7.34,18.61,18.61,0,0,0,1.51,5.53h-17a24.45,24.45,0,0,1-1.21-4.84,73.9,73.9,0,0,1-.3-8.19V394c0-4.85-.78-8.22-2.35-10.14s-4.27-2.88-8.1-2.88h-5.76v45.43h-16.65Zm22.71,45.43q5,0,7.5-2.58c1.66-1.72,2.5-4.59,2.5-8.63V346.4c0-3.84-.69-6.61-2-8.33s-3.51-2.57-6.43-2.57h-7.58v30.29Z" transform="translate(-424.75 -101.49)"/><path class="cls-17" d="M1414.78,381.23l-20.14-60.87h17.72l11.36,38.92h.3l11.36-38.92h16.2l-20.14,60.87v45.13h-16.66Z" transform="translate(-424.75 -101.49)"/><path class="cls-17" d="M1029.42,1658.92c-11.28,54.53-19.7,109.77-28.36,164.77-2,12.45-3.9,24.9-5.71,37.37-.74,5.1,1.26,10.11,6.61,11.64,4.44,1.28,10.91-1.55,11.64-6.61,8-55.14,17.2-110.16,27-165,2.22-12.4,4.48-24.8,7-37.14,2.45-11.89-15.79-17-18.26-5Z" transform="translate(-424.75 -101.49)"/><path class="cls-17" d="M1435.31,1615.3a468.58,468.58,0,0,0,25.53,62.64c8.72,17.94,13.23,40.42,16.89,61.58,2.07,12,20.31,6.9,18.25-5-3.83-22.14-8.29-44.07-18-64.47-9.35-19.63-17.77-38.94-24.41-59.75-3.69-11.56-22-6.62-18.25,5Z" transform="translate(-424.75 -101.49)"/><path class="cls-17" d="M1228.7,1752.24c-.76,41.23,3.49,82.5,2.19,123.72-.39,12.18,18.54,12.17,18.93,0,1.3-41.22-3-82.49-2.19-123.72.22-12.18-18.71-12.18-18.93,0Z" transform="translate(-424.75 -101.49)"/><path class="cls-17" d="M1229.4,1624.89q.25,12.77.3,25.53c0,4.95,4.33,9.69,9.46,9.46a9.62,9.62,0,0,0,9.47-9.46q-.06-12.76-.3-25.53c-.1-5-4.28-9.7-9.46-9.47s-9.57,4.16-9.47,9.47Z" transform="translate(-424.75 -101.49)"/><path class="cls-17" d="M1062.45,1524.85c38.1,55.28,88.29,100.36,146.23,134.1,55.84,32.51,117.15,54.71,179.16,72.2,35,9.87,70.35,18.26,105.8,26.29,11.86,2.69,16.92-15.56,5-18.25-121.45-27.5-248.84-60.26-346-142.5a415.71,415.71,0,0,1-73.84-81.4c-6.87-10-23.28-.51-16.35,9.56Z" transform="translate(-424.75 -101.49)"/><path class="cls-17" d="M1018.34,1528.75c27.14,64.58,72.42,120.87,128.93,162.17,30.85,22.54,65.5,39,100.55,53.94a866.16,866.16,0,0,0,112.82,39.1,813.4,813.4,0,0,0,133.06,24.3c12.12,1.17,12-17.76,0-18.93-76.4-7.42-151.66-26.79-222.87-55.3-34.33-13.74-68.82-29.18-99.77-49.57a368.35,368.35,0,0,1-75.56-66.84c-24.17-28-44.57-59.79-58.9-93.9-2-4.75-6.25-8-11.65-6.61-4.45,1.17-8.59,6.93-6.61,11.64Z" transform="translate(-424.75 -101.49)"/><path class="cls-17" d="M1494.42,1741.43c-3.59,57.74,1.71,115.81,4.6,173.47.21,4.12,2.79,8.06,7,9.13,16.85,4.32,36,3.3,53.23,3.57,29.52.47,59.06.13,88.58-.5s59.29-1.56,88.89-3.13c17.63-.93,36.87-.62,54.13-4.85,7.26-1.78,10.08-6.45,10.64-13.65.74-9.44,0-19.11-.34-28.55-1.31-33.81-3.57-67.6-5.84-101.36q-1.65-24.7-3.44-49.4c-1.06-14.77,1.43-37.91-14-45.61-7.6-3.79-17.41-3-25.74-3.14-7.39-.13-14.79-.13-22.19-.06-17.54.16-35.07.71-52.59,1.46q-54.72,2.32-109.33,7c-24.57,2.12-50,3.53-74.13,8.83a34,34,0,0,0-8.07,2.67c-10.9,5.43-1.32,21.77,9.56,16.35-1.66.82-1.64.49.46,0,1.3-.33,2.6-.65,3.92-.93,3.87-.8,7.79-1.4,11.7-2,4.29-.62,9.17-1.23,14.84-1.88q9.73-1.12,19.48-2.07c33.64-3.32,67.37-5.72,101.12-7.58,33.12-1.83,66.32-3.27,99.5-3,6.54.06,13.5-.35,20,.54,4.62.64,4.55,3.07,4.93,7.34.27,3,.44,6,.66,9.06q1.59,21.64,3.08,43.28c2.34,33.81,4.59,67.64,6.29,101.5.61,12.16,1.2,24.35,1.35,36.53,0,3.58-.11,7.14-.14,10.71,0,3.07.72-1.4,0,.42.68-1.67,3.24-5.63,5.38-5.38-1.37-.16-3.9.94-5.31,1.18-.65.12-1.31.2-2,.3,2.05-.31,1-.12-.29,0-1.75.19-3.49.4-5.24.57-9.62,1-19.28,1.6-28.93,2.17-27.06,1.6-54.17,2.55-81.27,3.26-49.28,1.29-99.55,3.57-148.72-1.07-1.33-.13-2.22-.31-.21,0-.63-.1-1.28-.17-1.9-.29-1-.21-2-.38-3-.63l7,9.12c-2.89-57.66-8.19-115.73-4.6-173.47.75-12.17-18.18-12.12-18.93,0Z" transform="translate(-424.75 -101.49)"/><path class="cls-17" d="M1487.52,1703.16a1204.48,1204.48,0,0,1,159.18-14.82q40.29-1.06,80.6.54,20.15.8,40.24,2.28c3.42.25,10.17-.62,12.7,2,1.36,1.44,1.75,6.1,2.14,7.85q1.15,5.13,2.25,10.28,9.64,45,15.85,90.64c.7,5.11,7.18,7.79,11.65,6.62,5.47-1.45,7.3-6.61,6.61-11.65q-5.9-43-14.76-85.5c-2.46-11.69-3.25-28.48-14.76-35.25-5-2.9-10.93-3.14-16.49-3.58q-10.37-.82-20.76-1.43a1215,1215,0,0,0-172.77,1.89q-48.57,4-96.72,11.83c-5.08.82-7.81,7.09-6.61,11.64,1.42,5.39,6.62,7.42,11.65,6.61Z" transform="translate(-424.75 -101.49)"/><path class="cls-17" d="M1247.47,1610.89c-4.25-18.16-23.31-29.28-40.63-32-19.92-3.14-40.73,6.27-49.83,24.75-2.26,4.58-1.24,10.24,3.39,13,4.18,2.44,10.68,1.21,12.95-3.4a27.51,27.51,0,0,1,13-13.23,32.65,32.65,0,0,1,8.67-2.76,42.37,42.37,0,0,1,4.3-.19c.7,0,1.4.07,2.1.11,3.12.18-1.45-.39,1.39.18,7,1.42,11.58,2.84,17.32,6.57a12.66,12.66,0,0,1,2.8,2.08c1,.91,2.88,2.81,3.2,3.2-.49-.6.91,1.35.9,1.33.42.66.77,1.35,1.15,2s-.15-.81.33.72c.28.9.54,1.8.76,2.72,1.16,5,6.85,7.92,11.64,6.61a9.63,9.63,0,0,0,6.61-11.65Z" transform="translate(-424.75 -101.49)"/><path class="cls-17" d="M1147.29,1529c21.39,27.91,45.17,53,73.69,73.69,4.13,3,10.55.7,13-3.4,2.8-4.78.75-9.93-3.4-13-25.61-18.63-48.07-42.33-66.9-66.89-3.1-4-8.14-6.21-12.94-3.4-4,2.33-6.53,8.87-3.4,13Z" transform="translate(-424.75 -101.49)"/><path class="cls-17" d="M1247,1621.13c5.12-12.77,11.73-28.76,26.41-31.37a16.84,16.84,0,0,1,6.57.42c3.72,1.33,7.34,3.82,10.64,6a123.45,123.45,0,0,1,17.21,13.8c8.84,8.38,22.25-5,13.38-13.38a146.27,146.27,0,0,0-22.69-17.83c-9.44-5.91-18.92-9.45-30.14-7.24-22.07,4.35-32.11,25.84-39.64,44.6-1.9,4.74,2.08,10.39,6.61,11.64,5.4,1.48,9.73-1.85,11.65-6.61Z" transform="translate(-424.75 -101.49)"/><path class="cls-17" d="M1268.12,1591.78c22.31-22.41,50-38.6,72.39-60.85,8.65-8.6-4.73-22-13.39-13.39-22.42,22.26-50.08,38.45-72.39,60.85-8.6,8.64,4.78,22,13.39,13.39Z" transform="translate(-424.75 -101.49)"/><path class="cls-17" d="M1325.57,1607.85a487.1,487.1,0,0,0,40.55-38.8c13.13-14.17,26.58-29.63,34.62-47.38,2.1-4.66,1.33-10.18-3.4-13-4.06-2.37-10.83-1.29-12.95,3.39-7.59,16.78-20.08,31.15-32.53,44.49a487.51,487.51,0,0,1-39.68,37.86c-3.88,3.33-3.41,10,0,13.39,3.85,3.85,9.49,3.33,13.39,0Z" transform="translate(-424.75 -101.49)"/><path class="cls-17" d="M1016.67,1529.82c-29.68,28.73-53,63.85-72.88,99.87-22,40-40.08,82.26-54.68,125.48a719.9,719.9,0,0,0-19.74,69.4c-2.72,11.85,15.52,16.92,18.25,5,19.06-83.1,52.35-166.11,100.85-236.49a327.78,327.78,0,0,1,41.58-49.91c8.77-8.49-4.62-21.86-13.38-13.38Z" transform="translate(-424.75 -101.49)"/><path class="cls-17" d="M1409.71,1523.37c36.13,4.49,71.73,14.62,106.85,23.86,39,10.26,77.92,21.2,117.4,29.58,11.89,2.53,17-15.72,5-18.25-40.18-8.53-79.76-19.7-119.46-30.13-36.18-9.49-72.64-19.36-109.83-24-5.11-.64-9.41,4.81-9.46,9.46-.06,5.64,4.41,8.84,9.46,9.47Z" transform="translate(-424.75 -101.49)"/><path class="cls-17" d="M1464.74,1658.66c31.55,9.6,60.63,25.95,92.18,35.55,11.68,3.55,16.67-14.71,5-18.25-31.55-9.6-60.63-26-92.18-35.55-11.68-3.55-16.67,14.71-5,18.25Z" transform="translate(-424.75 -101.49)"/><path class="cls-17" d="M1665,1678.08c5.59-15.68,11.66-30.56,20.23-45,8.22-13.83,18.31-26.34,32.85-33.16,4.62-2.18,5.81-8.82,3.39-13-2.77-4.74-8.3-5.58-13-3.4-17,8-29.5,23.21-39,38.92s-16.56,33.17-22.76,50.55c-1.72,4.81,1.94,10.36,6.61,11.64,5.24,1.44,9.92-1.78,11.64-6.61Z" transform="translate(-424.75 -101.49)"/><path class="cls-17" d="M1596.62,1681.6c11.81-35.6,25.34-72.16,49.63-101.35,3.27-3.92,3.84-9.53,0-13.38-3.36-3.36-10.1-3.95-13.39,0-26.51,31.85-41.59,70.78-54.49,109.7-3.84,11.59,14.43,16.56,18.25,5Z" transform="translate(-424.75 -101.49)"/><path class="cls-17" d="M1655.4,1667.16c2.69,10.2,6.51,24.16,18.28,26.95,9.3,2.21,22.08-1.7,29.28-7.74a55.3,55.3,0,0,0,7.13-7.92c2.29-2.81,4.09-5,6.46-5.94,3.67-1.43,9.21.85,13.19,1.93l18.4,5c11.77,3.18,16.79-15.08,5-18.26-10.47-2.82-21.44-7.06-32.29-7.93-9.38-.75-17.71,4.08-23.56,11.09-2.08,2.49-4,5.09-6.28,7.39a5.6,5.6,0,0,1-2.29,1.7,47.12,47.12,0,0,1-5,1.37,26.5,26.5,0,0,1-4.78.93s-1.23.35-1.33-.11c0,.12,1.46,1.88.93,0s-2-3.77-2.69-5.69c-.88-2.57-1.57-5.18-2.25-7.8-3.1-11.77-21.36-6.78-18.26,5Z" transform="translate(-424.75 -101.49)"/><path class="cls-17" d="M1706.23,1609.54c16.84,4.21,33.91,10.14,46,22.62a43.07,43.07,0,0,1,10.8,18.11c1,3.65,1.51,7.5.06,11.06a7,7,0,0,1-4.19,3.66c-11.76,3.15-6.77,21.41,5,18.25,12.31-3.3,19.43-15.59,18.94-27.92-.46-11.6-5.73-22.41-12.8-31.39-14.41-18.3-36.85-27.16-58.8-32.65-11.82-3-16.86,15.3-5,18.26Z" transform="translate(-424.75 -101.49)"/><path class="cls-17" d="M1652.86,1569.5c.07-.36.29-1.64-.11-.64-.17.44.8-.77.5-.59a5.41,5.41,0,0,1,1.56-.81c3.71-.78,8,.9,11.57,1.82a204.67,204.67,0,0,1,20.28,6.24c11.71,4.42,22.53,11,28.26,22.29,2.33,4.56,8.72,5.87,12.95,3.4,4.63-2.71,5.73-8.38,3.4-13-8.59-16.84-25.63-26.17-42.83-32.17-9-3.13-18.6-6.23-28.06-7.34-10.84-1.28-23.52,3.9-25.77,15.72-1,5,1.4,10.21,6.61,11.64,4.62,1.27,10.68-1.56,11.64-6.61Z" transform="translate(-424.75 -101.49)"/><path class="cls-17" d="M1091.83,1534.39a44.31,44.31,0,0,1,8.93-5.09l-2.26,1a44.65,44.65,0,0,1,10.93-3l-2.52.33.71-.09a10.44,10.44,0,0,0,6.69-2.77,9.46,9.46,0,0,0,0-13.38c-1.72-1.58-4.26-3.08-6.69-2.78a52.87,52.87,0,0,0-25.35,9.47,10.3,10.3,0,0,0-4.34,5.66,9.46,9.46,0,0,0,6.61,11.64c2.33.53,5.27.53,7.29-.95Z" transform="translate(-424.75 -101.49)"/><path class="cls-17" d="M1039.29,1530.3a37,37,0,0,1-.87-4.31l.34,2.52a26.35,26.35,0,0,1,0-6.4l-.33,2.52a21.78,21.78,0,0,1,1.48-5.45l-1,2.26a22.92,22.92,0,0,1,2.68-4.56l-1.48,1.91a26,26,0,0,1,4.59-4.55l-1.92,1.48a32.69,32.69,0,0,1,7.08-4l-2.26.95.87-.35a10.25,10.25,0,0,0,5.65-4.35,9.46,9.46,0,0,0-3.39-13c-2.12-1.12-5-1.86-7.3-1-7.64,3-14.22,7.43-18.9,14.29-5.38,7.9-5.89,18-3.5,27,1.27,4.78,6.81,8.17,11.64,6.61a9.64,9.64,0,0,0,6.61-11.64Z" transform="translate(-424.75 -101.49)"/><path class="cls-17" d="M1190,1562.46a250,250,0,0,0,51.18,6.36,157.59,157.59,0,0,0,24.67-1.1c8.07-1.14,16-5.33,24.24-4.48s8-11.79,0-12.62c-7.8-.8-14.83,2.4-22.3,4-8,1.75-16.55,1.67-24.72,1.59a232.94,232.94,0,0,1-49.71-5.94c-7.91-1.81-11.28,10.35-3.36,12.17Z" transform="translate(-424.75 -101.49)"/><path class="cls-17" d="M1200,1527.1q1.67,13.83,3.34,27.65a6.91,6.91,0,0,0,1.85,4.46,6.38,6.38,0,0,0,4.46,1.85c3.08-.14,6.73-2.8,6.31-6.31q-1.66-13.83-3.34-27.65a6.84,6.84,0,0,0-1.85-4.46,6.38,6.38,0,0,0-4.46-1.85c-3.08.13-6.73,2.8-6.31,6.31Z" transform="translate(-424.75 -101.49)"/><path class="cls-17" d="M1244.68,1529.05a160.26,160.26,0,0,0-1.47,30.49c.16,3.29,2.78,6.46,6.3,6.3,3.28-.14,6.5-2.77,6.31-6.3-.24-4.72-.28-9.44-.08-14.16.09-2.26.24-4.52.43-6.78.1-1.13.21-2.25.34-3.38.07-.66.15-1.31.23-2,0-.28.07-.56.1-.84-.1.74-.1.74,0,0a7,7,0,0,0-.63-4.86,6.44,6.44,0,0,0-3.77-2.9c-3-.67-7.28.91-7.76,4.41Z" transform="translate(-424.75 -101.49)"/><path class="cls-17" d="M1284.09,1526.62q-1.78,13.22-3.58,26.42a7,7,0,0,0,.63,4.86,6.44,6.44,0,0,0,3.77,2.9c3,.68,7.29-.91,7.77-4.4q1.78-13.22,3.58-26.43a7,7,0,0,0-.64-4.86,6.38,6.38,0,0,0-3.77-2.9c-3-.67-7.29.91-7.76,4.41Z" transform="translate(-424.75 -101.49)"/><path class="cls-17" d="M1460.53,1003.62l-97.91,15.59a13.69,13.69,0,0,1-15.52-11.6h0a13.7,13.7,0,0,1,11.6-15.53l77.76-11.24,23.91-2.86c11.35.18,16.26,7.19,22.66,15.23l7.74,11.42C1489.17,1015,1474.84,1004.06,1460.53,1003.62Z" transform="translate(-424.75 -101.49)"/><path class="cls-17" d="M1017.05,1009.72l97.91,15.6a13.72,13.72,0,0,0,15.53-11.61h0a13.71,13.71,0,0,0-11.61-15.53l-77.75-11.24-23.91-2.86c-11.35.18-16.27,7.19-22.66,15.23l-7.74,11.42C988.41,1021.1,1002.75,1010.16,1017.05,1009.72Z" transform="translate(-424.75 -101.49)"/></g></g></svg>