<svg id="OBJECTS" xmlns="http://www.w3.org/2000/svg" viewBox="0 0 427.6 408.29"><defs><style>.cls-1{fill:#e79b15;}.cls-2{fill:#873a04;}.cls-3{fill:#b75e09;}.cls-4{fill:#e69a15;}.cls-5{fill:#d7b284;}.cls-6{fill:#a89074;}.cls-7{fill:#cb7b00;}.cls-8{fill:#fe492b;}.cls-9{fill:#662b02;}.cls-10{fill:#c25b0a;}.cls-11{fill:#c35c0a;}</style></defs><title>perfect</title><path class="cls-1" d="M432.14,71.41a.73.73,0,0,1-.46.72,9.07,9.07,0,0,1-1.32.48c-3.34.92-6.67,1.86-10,2.72a1.23,1.23,0,0,0-1,1.17c-.87,5.54-2,11-3.09,16.53-.13.65-.3,1.28-.48,1.92-.09.33-.2.71-.65.71s-.54-.38-.64-.71c-.65-2.13-1.3-4.25-1.77-6.42-.8-3.65-1.45-7.33-2.05-11-.18-1.14-.18-1.15-1.24-1.34-4.14-.76-8.21-1.81-12.29-2.83a9.53,9.53,0,0,1-1.66-.56c-.85-.43-.87-1.2-.07-1.72a6.52,6.52,0,0,1,.84-.41,83.12,83.12,0,0,1,12.35-4.28,1.57,1.57,0,0,0,1.38-1.52A96,96,0,0,1,413,51.79a9.82,9.82,0,0,1,.79-1.82c.44-.78,1.11-.73,1.46.1a21.63,21.63,0,0,1,.92,3.38,76.81,76.81,0,0,1,2,12.44c.1,1.28.09,1,1.22,1.31,3.57,1,7.22,1.61,10.72,2.83.51.18,1,.41,1.5.64A.86.86,0,0,1,432.14,71.41Z" transform="translate(-38.88 -46.08)"/><path class="cls-1" d="M419.53,425c-1.7,0-3.33-.07-4.95,0-1.95.09-3.89-.16-5.83-.24a1.8,1.8,0,0,1-.46-.1c-.36-.09-.68-.25-.71-.66a.85.85,0,0,1,.57-.81,7.41,7.41,0,0,1,2-.67c2.25-.47,4.55-.66,6.82-1,.65-.08,1.3-.18,1.92-.27.11-.48-.23-.63-.43-.84-2-2.17-4.07-4.31-5.94-6.6-.59-.73-1.16-1.47-1.72-2.22-.25-.34-.6-.71-.29-1.15s.85-.25,1.29-.13a5.68,5.68,0,0,1,1.44.76,50,50,0,0,1,5.57,4.26c.35.29.71.56,1.09.86a1.9,1.9,0,0,0,.22-1.23c.13-2.92.23-5.84.52-8.75a16.2,16.2,0,0,1,.33-2,2.08,2.08,0,0,1,.49-1c.29-.28.54-.27.76.09a3.27,3.27,0,0,1,.35,1,22.15,22.15,0,0,1,.37,3.25c.17,3.66.4,7.31.37,11a.62.62,0,0,0,.27.65l2.83-3.39c1.09-1.33,2.24-2.6,3.43-3.83a12.52,12.52,0,0,1,2.66-2.09c.38-.23.78-.41,1.17,0s.23.8,0,1.17c-.63,1-1.26,2-1.91,2.94-1.47,2.16-2.95,4.3-4.42,6.45.17.37.48.22.72.21,1.94-.09,3.89-.2,5.83-.31a15.4,15.4,0,0,1,2.8.11,7.23,7.23,0,0,1,1.14.25c.35.1.67.28.72.68s-.23.64-.55.82a8.09,8.09,0,0,1-2.07.78c-1.36.34-2.76.48-4.15.71s-3,.43-4.52.55c-.69.06-.77.22-.33.76,1.59,2,3.2,3.92,4.82,5.87a19,19,0,0,1,2.33,3.5,2.71,2.71,0,0,1,.39,1.33c0,.23,0,.48-.3.58s-.37-.06-.51-.19l-1.39-1.27q-4.06-3.85-7.83-8c-.25-.28-.44-.64-.84-.77-.33.12-.2.39-.21.59-.17,3.19-.13,6.39-.41,9.58a29.21,29.21,0,0,1-.43,3.6,3.14,3.14,0,0,1-.53,1.28c-.49.65-1,.62-1.29-.13a11.36,11.36,0,0,1-.79-3.64c-.16-2.1-.16-4.2-.17-6.31a4.74,4.74,0,0,0-.09-1.4c-.4,0-.51.31-.69.53-1.72,2.07-3.53,4.05-5.37,6-.08.08-.15.18-.23.25-.31.28-.61.76-1.07.44s-.18-.8,0-1.18a13.71,13.71,0,0,1,1.84-3.11c1.56-2.15,3.15-4.26,4.73-6.39A3.31,3.31,0,0,0,419.53,425Z" transform="translate(-38.88 -46.08)"/><path class="cls-1" d="M443.25,141.17h2.64a37,37,0,0,1,5.94.47c.42.07.84.16,1.25.27s.71.22.72.66-.37.46-.65.57a8,8,0,0,1-1.82.4c-2.17.26-4.36.18-6.54.25-.49,0-1.19-.21-1.42.23s.38.93.68,1.34c1.94,2.64,4,5.17,5.9,7.86.55.79,1.09,1.61,1.61,2.43a2.34,2.34,0,0,1,.41,1.09c0,.54-.29.79-.82.64a3.18,3.18,0,0,1-1.42-1q-1.71-1.83-3.39-3.71c-1-1.08-1.89-2.18-2.85-3.25-.2-.22-.34-.53-.79-.53a4.75,4.75,0,0,0-.08,1.46c0,2.41,0,4.83,0,7.24a17.47,17.47,0,0,1-.36,3.14,4.25,4.25,0,0,1-.2.78c-.08.22-.19.46-.47.47a.65.65,0,0,1-.55-.38,7.43,7.43,0,0,1-.73-2.57,49.53,49.53,0,0,1-.38-8.52c0-1.07,0-2.14,0-3.22-.4,0-.45.3-.57.48q-2.42,3.51-4.82,7a6.64,6.64,0,0,1-1.36,1.44.72.72,0,0,1-.86.16c-.34-.19-.31-.52-.22-.83a12.23,12.23,0,0,1,.54-1.54,83.11,83.11,0,0,1,4.76-9.24,2.64,2.64,0,0,0,.53-1.15c-.29-.25-.61-.13-.9-.13-3,0-6,.14-9-.19a2.39,2.39,0,0,1-1.22-.34c-.4-.31-.39-.67.07-.91a4.86,4.86,0,0,1,1.68-.44,70.89,70.89,0,0,1,7.56-.76,1.28,1.28,0,0,0,.82-.2,5,5,0,0,0-1-1.68,48.47,48.47,0,0,1-3.83-6c-.33-.62-.6-1.27-.87-1.91a.57.57,0,0,1,.17-.74c.24-.16.47,0,.65.1a5.71,5.71,0,0,1,.82.65,53.28,53.28,0,0,1,5,5.68c.66.81,1.31,1.63,1.94,2.42.47-.16.34-.49.34-.72,0-1.09,0-2.18,0-3.27a85.68,85.68,0,0,1,.54-10.5,10.21,10.21,0,0,1,.62-2.49c.1-.25.23-.52.57-.5a.79.79,0,0,1,.63.47,3.56,3.56,0,0,1,.29,1.48c.07,1.59.17,3.19.18,4.78,0,2.23.33,4.44.24,6.66,0,.14,0,.31.31.46.33-.46.7-.94,1-1.43,1.5-2.19,3-4.36,4.72-6.39.25-.3.5-.6.77-.89s.61-.53,1-.3.41.64.28,1a14.19,14.19,0,0,1-.65,1.63,51.74,51.74,0,0,1-4.08,6.67c-1.06,1.54-2.09,3.1-3.13,4.66A6.61,6.61,0,0,0,443.25,141.17Z" transform="translate(-38.88 -46.08)"/><path class="cls-1" d="M453.53,221a47,47,0,0,1-1.31-6.31c-.3-2-.62-4.08-.89-6.13-.09-.66-.41-.89-1-1-3.11-.74-6.2-1.52-9.3-2.29a4.62,4.62,0,0,1-1.1-.38c-.51-.27-.54-.56,0-.84a22.42,22.42,0,0,1,2.31-1.13c2.05-.85,4.1-1.69,6.18-2.48a2.9,2.9,0,0,0,2-2.28c.72-3.16,1.38-6.32,2.09-9.47a46.23,46.23,0,0,1,1.32-4.49c.09-.28.12-.67.54-.64s.44.4.53.68a20.51,20.51,0,0,1,.63,3.8q.75,5.56,1.41,11.13a1.13,1.13,0,0,0,.82,1l6.85,3a6.36,6.36,0,0,1,1.64.89c.42.37.37.63-.18.82a5.75,5.75,0,0,1-.92.18c-2.27.3-4.55.65-6.83.87a1.6,1.6,0,0,0-1.57,1.4c-.53,2-.87,4-1.21,6s-.68,4.23-1.18,6.31A1.9,1.9,0,0,1,453.53,221Z" transform="translate(-38.88 -46.08)"/><path class="cls-1" d="M420.78,209.58a16.47,16.47,0,0,1-1.55,8.52,6.12,6.12,0,0,1-2,2.4,3.62,3.62,0,0,1-3.12.51,5.7,5.7,0,0,1-3.36-2.36A16.36,16.36,0,0,1,408.3,213a42.34,42.34,0,0,1-1-7.52,15.18,15.18,0,0,1,.88-5.62,6.88,6.88,0,0,1,2.12-3,4.12,4.12,0,0,1,5.19-.19,9,9,0,0,1,2.93,3.71A25.21,25.21,0,0,1,420.78,209.58Zm-4.38.56a17.76,17.76,0,0,0-1.72-8.19,4.15,4.15,0,0,0-.78-1.16,1.22,1.22,0,0,0-2,.28,3.27,3.27,0,0,0-.38,1.1,19.88,19.88,0,0,0,1.23,11.1,3.78,3.78,0,0,0,1,1.43,1.22,1.22,0,0,0,2-.36,4.12,4.12,0,0,0,.43-1.45A23.46,23.46,0,0,0,416.4,210.14Z" transform="translate(-38.88 -46.08)"/><path class="cls-1" d="M369.1,100.73c-1.79.12-3.48.32-5.17.58a10.61,10.61,0,0,1-4.52-.18,3.49,3.49,0,0,1-.77-.26c-.45-.24-.46-.64,0-.89a3.69,3.69,0,0,1,1.35-.35c2.2-.29,4.4-.55,6.61-.81,1-.13,2.07-.24,3.1-.35.11-.43-.21-.53-.39-.68a78.38,78.38,0,0,1-5.78-5.45,8.32,8.32,0,0,1-.95-1.18c-.21-.29-.38-.64-.07-1s.6-.1.86.05a14.11,14.11,0,0,1,1.88,1.18,49.77,49.77,0,0,1,3.91,3.33c.25.25.52.46.78.68.39-.17.24-.48.24-.73a76.87,76.87,0,0,0-.62-8,4.08,4.08,0,0,1,.09-1.74c.1-.31.21-.62.58-.64a.8.8,0,0,1,.88.62,7.13,7.13,0,0,1,.22,1c.36,2.67.71,5.33.91,8,0,.22.06.44.1.74.49-.21.58-.62.74-.94.9-1.77,1.93-3.47,3-5.17a12.62,12.62,0,0,1,1.85-2.39c.23-.23.49-.45.83-.27s.3.59.16.92a18.28,18.28,0,0,1-1.11,2.57c-1.34,2.33-2.68,4.66-4,7a3,3,0,0,0-.61,1.53,22.8,22.8,0,0,0,3.15-.37c2.06-.24,4.12-.36,6.18-.41a4,4,0,0,1,1.49.24.59.59,0,0,1,.45.48.56.56,0,0,1-.41.63,12.36,12.36,0,0,1-1.66.54,45.23,45.23,0,0,1-5.91.74A4.35,4.35,0,0,0,375,100c.09.44.45.58.69.81a45.84,45.84,0,0,1,5.4,5.66c.33.43.87.89.43,1.43s-1,0-1.45-.23a8.7,8.7,0,0,1-1.79-1.3q-2.08-1.87-4.07-3.87a2.16,2.16,0,0,0-1-.77,3,3,0,0,0,0,1.33c.33,2.91.77,5.8.85,8.72a3.93,3.93,0,0,1-.08,1.28.55.55,0,0,1-.49.44.54.54,0,0,1-.47-.3,6.37,6.37,0,0,1-.77-2.31c-.39-2.23-.73-4.46-1-6.71-.08-.69-.2-1.37-.32-2.15-.54.27-.65.75-.85,1.13a57,57,0,0,1-4.37,7.18,4.42,4.42,0,0,1-.93,1,.54.54,0,0,1-.65,0,.5.5,0,0,1-.14-.54,7.6,7.6,0,0,1,.9-2.39c1-1.85,2.05-3.67,3.05-5.53A10.12,10.12,0,0,0,369.1,100.73Z" transform="translate(-38.88 -46.08)"/><path class="cls-1" d="M414.46,129.65a19.69,19.69,0,0,1-.85,6.1,7.09,7.09,0,0,1-3.9,4.41,3.44,3.44,0,0,1-3.83-.49,7,7,0,0,1-1.78-2.13,15.33,15.33,0,0,1-1.68-5.79,19.13,19.13,0,0,1,.89-8.29,9.37,9.37,0,0,1,2-3.51,5.73,5.73,0,0,1,3.09-1.76,2.88,2.88,0,0,1,3.1,1.11,12.87,12.87,0,0,1,2.33,4.91A22.69,22.69,0,0,1,414.46,129.65Zm-4.55.73a22.37,22.37,0,0,0-.28-3.83,18.75,18.75,0,0,0-.7-2.94.8.8,0,0,0-.75-.63.87.87,0,0,0-.73.5,4,4,0,0,0-.53,1.54,20.36,20.36,0,0,0,.6,9.21c.18.54.3,1.26,1,1.22s.92-.75,1.07-1.36A14.42,14.42,0,0,0,409.91,130.38Z" transform="translate(-38.88 -46.08)"/><path class="cls-1" d="M423.23,283.26c.23-.52.68-.62,1-.83,2.14-1.27,4.41-2.3,6.62-3.45a2.19,2.19,0,0,0,1.24-1.68c.6-3,1.25-5.94,2.06-8.87.12-.41.09-1.08.65-1.08s.5.62.64,1a76.11,76.11,0,0,1,2,7.44,2.28,2.28,0,0,0,1.41,1.8c1.33.55,2.63,1.17,4,1.69a4.28,4.28,0,0,1,.84.39c.34.21.39.48,0,.7a10.41,10.41,0,0,1-2.78,1.22,3.62,3.62,0,0,0-2.89,3.26c-.66,3.31-1.58,6.58-2.41,9.86-.13.53-.3,1-.48,1.56a.44.44,0,0,1-.41.36c-.23,0-.34-.19-.41-.37a8.27,8.27,0,0,1-.3-.88c-.88-3-1.81-6-2.62-9.09a1.94,1.94,0,0,0-1.77-1.65c-1.81-.29-3.6-.65-5.4-1C423.88,283.6,423.5,283.62,423.23,283.26Z" transform="translate(-38.88 -46.08)"/><path class="cls-1" d="M448.44,369.94a20.47,20.47,0,0,1-1.12,6.57,5.12,5.12,0,0,1-3.49,3.19,5.35,5.35,0,0,1-5.85-2.39,14.82,14.82,0,0,1-1.79-5.16,17,17,0,0,1,.35-8,8.68,8.68,0,0,1,2.11-3.86c2.18-2.26,4.94-2.18,7,.2a11.24,11.24,0,0,1,2.08,4.16A18.61,18.61,0,0,1,448.44,369.94ZM440,368.26c0,.35,0,.7.06,1.05a11.82,11.82,0,0,0,1.46,4.88,1.17,1.17,0,0,0,1.94.35,2.76,2.76,0,0,0,.66-.81,6.84,6.84,0,0,0,.82-2.53,19.63,19.63,0,0,0-.24-5.57,2.43,2.43,0,0,0-2-2,2.21,2.21,0,0,0-2.12,1.53A6.79,6.79,0,0,0,440,368.26Z" transform="translate(-38.88 -46.08)"/><path class="cls-1" d="M464.85,289.2a8.92,8.92,0,0,1-1.11,4.39,5.42,5.42,0,0,1-1.15,1.46,2.6,2.6,0,0,1-3.84-.25,4.7,4.7,0,0,1-.89-1.36,17.31,17.31,0,0,1-1.42-8.31,6,6,0,0,1,1.47-3.49,2.89,2.89,0,0,1,4.34-.28,6.46,6.46,0,0,1,1.57,2.29A12.89,12.89,0,0,1,464.85,289.2Z" transform="translate(-38.88 -46.08)"/><path class="cls-1" d="M393,164a11,11,0,0,1,.55-3.56,3.87,3.87,0,0,1,1.13-1.74,2.36,2.36,0,0,1,3.66.39,3.54,3.54,0,0,1,.51.91,10.66,10.66,0,0,1-.1,8.08,2.71,2.71,0,0,1-2.57,2,2.8,2.8,0,0,1-2.52-2.11A9.77,9.77,0,0,1,393,164Z" transform="translate(-38.88 -46.08)"/><path class="cls-1" d="M386.69,52.44a7.66,7.66,0,0,1,1.73-5.07,2.63,2.63,0,0,1,2.82-1.2,2.93,2.93,0,0,1,2.17,2.47,10.21,10.21,0,0,1-.17,5.29A5.3,5.3,0,0,1,392,56a2.89,2.89,0,0,1-4.91-1A7,7,0,0,1,386.69,52.44Z" transform="translate(-38.88 -46.08)"/><path class="cls-1" d="M448,328.51a5.21,5.21,0,0,1,1.11-3.6,2.14,2.14,0,0,1,3.64.06,7.69,7.69,0,0,1,1.29,3,8.82,8.82,0,0,1-.23,5.06,2.67,2.67,0,0,1-1.44,1.61,2.33,2.33,0,0,1-3.2-1.28A10.66,10.66,0,0,1,448,328.51Z" transform="translate(-38.88 -46.08)"/><path class="cls-1" d="M431.93,97.73a7.26,7.26,0,0,1-.34,2.06,3.51,3.51,0,0,1-1,1.66,1.92,1.92,0,0,1-3.11-.29,6.83,6.83,0,0,1-1.12-6.2,4,4,0,0,1,.26-.65,2.28,2.28,0,0,1,4-.57A5.53,5.53,0,0,1,431.93,97.73Z" transform="translate(-38.88 -46.08)"/><path class="cls-1" d="M432.45,246.89a4.88,4.88,0,0,1,.79-3,1.5,1.5,0,0,1,1.45-.8,1.55,1.55,0,0,1,1.32,1.16,6.61,6.61,0,0,1-.63,5.27,1.37,1.37,0,0,1-2.5-.15,2.7,2.7,0,0,1-.2-.54A10.44,10.44,0,0,1,432.45,246.89Z" transform="translate(-38.88 -46.08)"/><path class="cls-1" d="M76.68,360.86a.49.49,0,0,1,.42.37,10.91,10.91,0,0,1,.43,1.45c.81,4.4,1.66,8.8,2.29,13.24.11.77.25,1.54.29,2.31a2,2,0,0,0,1.21,1.83c1.7.79,3.43,1.48,5.19,2.12,1.39.5,2.79,1,4.17,1.51.36.13.85.18.85.67s-.4.65-.75.83c-1.35.69-2.71,1.36-4.06,2.06-1.69.89-3.35,1.83-5,2.69a2.37,2.37,0,0,0-1.32,1.91c-.77,4.85-1.92,9.62-2.83,14.44-.13.69-.34,1.36-.51,2a.78.78,0,0,1-.61.64c-.41.07-.53-.28-.67-.54a23.49,23.49,0,0,1-1.63-3.87c-1.43-4.12-2.93-8.22-4.29-12.36a3.75,3.75,0,0,0-2.74-2.67c-2.94-.91-5.88-1.81-8.74-3-.47-.18-.93-.38-1.39-.61a.68.68,0,0,1-.49-.71c0-.33.37-.38.62-.46,1.69-.59,3.37-1.2,5.08-1.74,2.45-.77,4.9-1.52,7.31-2.44a2.46,2.46,0,0,0,1.67-2c1.21-5.52,2.85-10.92,4.53-16.31a7.79,7.79,0,0,1,.45-1.07A.7.7,0,0,1,76.68,360.86Z" transform="translate(-38.88 -46.08)"/><path class="cls-1" d="M80.17,234.37c-.1.29-.37.37-.61.5a41.48,41.48,0,0,1-4.29,1.82c-.26.1-.51.21-.77.29a1.42,1.42,0,0,0-1,1.16c-.88,3.55-1.8,7.09-2.7,10.64-.38,1.51-.74,3-1.12,4.53a3.29,3.29,0,0,1-.28.76c-.26.47-.61.47-.87,0a4.1,4.1,0,0,1-.36-1c-1.17-4-2.35-7.9-3.48-11.87a1.36,1.36,0,0,0-1.13-1.12c-2.3-.6-4.66-.89-7-1.33a11,11,0,0,1-1.14-.25c-.46-.15-.49-.44-.08-.75a8.85,8.85,0,0,1,.8-.47c2.36-1.37,4.82-2.54,7.25-3.78,2.12-1.08,2.1-1.1,2.61-3.41.71-3.26,1.41-6.54,2.3-9.77a7.75,7.75,0,0,1,.24-.78c.1-.28.12-.67.53-.65s.46.39.57.66a36.69,36.69,0,0,1,1.51,5c.44,1.74.88,3.47,1.27,5.22a1.67,1.67,0,0,0,1,1.28c1.76.83,3.52,1.65,5.35,2.33a7.76,7.76,0,0,1,1.06.49A.52.52,0,0,1,80.17,234.37Z" transform="translate(-38.88 -46.08)"/><path class="cls-1" d="M90.09,287.52a1.29,1.29,0,0,0,1,0,63.85,63.85,0,0,1,9.65-.86,4.18,4.18,0,0,1,1.83.31.61.61,0,0,1,.07,1.16,5.56,5.56,0,0,1-1.19.47,28.18,28.18,0,0,1-5.76.89l-3.51.33c0,.42.3.56.51.75a52.18,52.18,0,0,1,6.48,6.73,3.67,3.67,0,0,1,.58.87.74.74,0,0,1-.08.77.59.59,0,0,1-.74.16,5.33,5.33,0,0,1-.85-.37,12.24,12.24,0,0,1-2-1.43c-1.72-1.53-3.38-3.12-5-4.76a3,3,0,0,0-.86-.75,1.69,1.69,0,0,0,0,1.19c.45,3.39.85,6.8,1,10.22a9.26,9.26,0,0,1,0,1.29c0,.35-.15.73-.54.82s-.63-.26-.77-.58a10.52,10.52,0,0,1-.75-2.45c-.56-3.07-.92-6.17-1.35-9.25,0-.26-.1-.51-.17-.86a2.73,2.73,0,0,0-.85,1.2,66.82,66.82,0,0,1-5.09,8.38,5.18,5.18,0,0,1-1,1.13A.63.63,0,0,1,80,303c-.23-.14-.21-.4-.16-.63a9.24,9.24,0,0,1,1.07-2.83l4.29-7.78c.16-.29.44-.55.34-1q-3.13.25-6.24.73a11.43,11.43,0,0,1-5-.32l-.56-.19a.6.6,0,0,1-.47-.59.68.68,0,0,1,.53-.57,8.57,8.57,0,0,1,1.6-.33c3.44-.43,6.87-.93,10.33-1.21a.88.88,0,0,0,.62-.21c-.07-.37-.38-.51-.62-.69-2.36-1.93-4.46-4.13-6.62-6.26a5.45,5.45,0,0,1-1.18-1.59.62.62,0,0,1,.07-.76.6.6,0,0,1,.76-.06,14.89,14.89,0,0,1,2.38,1.46,54.39,54.39,0,0,1,4.63,3.94c.27.26.49.61.91.68.27-.21.15-.5.14-.75-.14-3.12-.34-6.23-.75-9.32a4.69,4.69,0,0,1,.11-2c.11-.34.24-.71.66-.71a.92.92,0,0,1,1,.66,6.12,6.12,0,0,1,.23,1c.39,2.77.75,5.56,1,8.35,0,.61.12,1.22.19,1.94.5-.26.58-.66.75-1,1.05-2.05,2.23-4,3.42-6A16.54,16.54,0,0,1,95,274.75a6.47,6.47,0,0,1,.73-.75.64.64,0,0,1,.76-.13.59.59,0,0,1,.25.72c-.12.41-.26.81-.41,1.21a33.79,33.79,0,0,1-2.45,4.65c-1.15,2-2.27,4-3.38,6A2.35,2.35,0,0,0,90.09,287.52Z" transform="translate(-38.88 -46.08)"/><path class="cls-1" d="M38.89,167.09a16.74,16.74,0,0,1,.72-5.11,8.78,8.78,0,0,1,1.47-2.91,4.48,4.48,0,0,1,6.41-1,9.76,9.76,0,0,1,3,3.64,21.8,21.8,0,0,1,1.6,15.91,9.74,9.74,0,0,1-1.7,3.31,4.36,4.36,0,0,1-6.9.56A12.71,12.71,0,0,1,40.25,176,31.61,31.61,0,0,1,38.89,167.09Zm4.43-1a15.74,15.74,0,0,0,2.36,8.66c.22.34.39.83.94.74s.72-.54.83-1c0-.16.08-.31.11-.46A17.58,17.58,0,0,0,47,165a14.16,14.16,0,0,0-.95-2,1.38,1.38,0,0,0-1.46-.74c-.62,0-.82.53-1,1A9.45,9.45,0,0,0,43.32,166.12Z" transform="translate(-38.88 -46.08)"/><path class="cls-1" d="M58.46,315.26a20.52,20.52,0,0,1-1.08,7.46,11.88,11.88,0,0,1-1.32,2.46,5.12,5.12,0,0,1-7.68,1,9.44,9.44,0,0,1-2.24-2.67,20.48,20.48,0,0,1-2.28-14.65,10.8,10.8,0,0,1,3-5.7,5.28,5.28,0,0,1,7.21-.37,10.88,10.88,0,0,1,3.54,5.9,20.23,20.23,0,0,1,.64,3.44C58.35,313.27,58.41,314.44,58.46,315.26Zm-4,.52a25.94,25.94,0,0,0-.33-3.83,8.22,8.22,0,0,0-1.07-3.3,2.23,2.23,0,0,0-3.87-.19,5.79,5.79,0,0,0-1.16,3,17.67,17.67,0,0,0,1.53,8.87,5.59,5.59,0,0,0,1.22,1.83,1.63,1.63,0,0,0,2.74-.34,5.65,5.65,0,0,0,.59-1.64A16.31,16.31,0,0,0,54.45,315.78Z" transform="translate(-38.88 -46.08)"/><path class="cls-1" d="M69,130.08a20.76,20.76,0,0,1-.62,5.95,5.47,5.47,0,0,1-1.65,2.76,4,4,0,0,1-5.48,0,7.65,7.65,0,0,1-1.77-2.45,12.3,12.3,0,0,1-1.15-8.48,11.71,11.71,0,0,1,2.49-4.58,3.7,3.7,0,0,1,4.37-.87,5.79,5.79,0,0,1,3.15,3.7A13.2,13.2,0,0,1,69,130.08Z" transform="translate(-38.88 -46.08)"/><path class="cls-1" d="M77.33,71.94a9.72,9.72,0,0,1-.94,4.67,6,6,0,0,1-1.45,2,3.68,3.68,0,0,1-5,.05,4.47,4.47,0,0,1-1.39-1.85A16.75,16.75,0,0,1,68,66a5.27,5.27,0,0,1,1.41-2.38,3.2,3.2,0,0,1,4.15-.51A6.3,6.3,0,0,1,76,65.89,12.56,12.56,0,0,1,77.33,71.94Zm-6.61-1.67a7.37,7.37,0,0,0,.36,2.64c.15.42.41.81.88.84s.74-.4.89-.81a6.07,6.07,0,0,0-.25-4.64.83.83,0,0,0-.92-.56.9.9,0,0,0-.72.68A5.51,5.51,0,0,0,70.72,70.27Z" transform="translate(-38.88 -46.08)"/><path class="cls-1" d="M111.38,414a10.74,10.74,0,0,1-2,6.71,3.76,3.76,0,0,1-4.57,1.27,4.11,4.11,0,0,1-2-2.65,7.56,7.56,0,0,1-.37-1.94c-.16-2.95-.11-5.87,1.44-8.51a4,4,0,0,1,3.21-2.26,2.9,2.9,0,0,1,2.72,1.26,8.33,8.33,0,0,1,1.38,3.81C111.28,412.41,111.31,413.15,111.38,414Zm-3.13-1.41c0-.44-.06-1.21-.13-2a5.88,5.88,0,0,0-.24-1.25c-.3-.92-1-1.08-1.68-.43a2.61,2.61,0,0,0-.7,1.32,22.37,22.37,0,0,0-.79,5.63A6.69,6.69,0,0,0,105,418a1.14,1.14,0,0,0,2,.53,3,3,0,0,0,.9-1.72A17,17,0,0,0,108.25,412.58Z" transform="translate(-38.88 -46.08)"/><path class="cls-1" d="M53,104.72a9.43,9.43,0,0,1-.83,4.09,2.65,2.65,0,0,1-4.76.62,6.12,6.12,0,0,1-1.18-2.26,15.65,15.65,0,0,1-.6-4,4.65,4.65,0,0,1,1-3,2.74,2.74,0,0,1,4-.53,6.2,6.2,0,0,1,2.22,4.1A8.84,8.84,0,0,1,53,104.72Z" transform="translate(-38.88 -46.08)"/><path class="cls-1" d="M74.84,189a14.59,14.59,0,0,1,.32-3.37,4.79,4.79,0,0,1,.41-1.09,1.85,1.85,0,0,1,2.6-.75,3,3,0,0,1,1.27,1.32,11.14,11.14,0,0,1,1.17,7.23,4.78,4.78,0,0,1-.52,1.53,2.33,2.33,0,0,1-3.91.45,3.56,3.56,0,0,1-.86-1.76c-.11-.53-.23-1.06-.3-1.6S74.9,189.68,74.84,189Z" transform="translate(-38.88 -46.08)"/><path class="cls-1" d="M96.22,336.49a6,6,0,0,1,.59-2.94,2.33,2.33,0,0,1,4-.39,9.73,9.73,0,0,1,2.22,5,6.36,6.36,0,0,1,.05,1.63,2.76,2.76,0,0,1-2.32,2.69,2.67,2.67,0,0,1-3.14-1.39A8.77,8.77,0,0,1,96.22,336.49Z" transform="translate(-38.88 -46.08)"/><path class="cls-1" d="M68,426.35A4.65,4.65,0,0,1,67.7,428a2.88,2.88,0,0,1-5.23.64,7.09,7.09,0,0,1-1-4.12,6.4,6.4,0,0,1,.39-2.17,2.75,2.75,0,0,1,2.07-2,2.6,2.6,0,0,1,2.53,1.36A8.32,8.32,0,0,1,68,426.35Z" transform="translate(-38.88 -46.08)"/><path class="cls-1" d="M176.4,425.81a23.87,23.87,0,0,1,5.51-14.7,40.57,40.57,0,0,1,6.28-6.42c.57-.43.37-.85.23-1.33-1.21-4.2-2.46-8.38-3.64-12.58q-2.33-8.32-4.58-16.68-3-10.87-5.89-21.77c-.83-3.08-1.6-6.19-2.49-9.25-1.25-4.26-2.64-8.49-3.89-12.75-1.61-5.49-3.19-11-4.61-16.54-2.63-10.23-5.31-20.44-8.28-30.57-1.75-6-3.38-12-5.07-18-2-7.2-4.1-14.39-6.13-21.59s-4.05-14.48-6.08-21.72-4.06-14.4-6.06-21.61c-1.81-6.49-3.57-13-5.39-19.48-2.42-8.67-4.91-17.32-7.31-26-3.55-12.81-7-25.63-10.56-38.44-.43-1.57-.92-3.14-1.34-4.72-.33-1.28-.49-1,.8-1.55,4-1.88,8.26-3.18,12.4-4.74,5.11-1.93,10.22-3.82,15.34-5.72,6.1-2.26,12.35-4.06,18.56-6,10.42-3.24,20.83-6.5,31.26-9.68,8.12-2.48,16.28-4.83,24.41-7.29,6.9-2.09,13.83-4,20.78-6,5.52-1.51,11.06-3,16.59-4.45,6.06-1.61,12.11-3.25,18.18-4.83s12.07-3.11,18.12-4.62q9.52-2.37,19.07-4.68c6.09-1.48,12.24-2.71,18.36-4.06a2.06,2.06,0,0,1,2.3,1.5q1.13,3.25,2.23,6.53c2.57,7.56,5.11,15.13,7.7,22.68,2.72,8,5.49,15.92,8.23,23.87q4.88,14.14,9.75,28.29,3.84,11.16,7.64,22.34,3.54,10.33,7.08,20.68,3.17,9.22,6.3,18.47c1.94,5.68,3.91,11.35,5.84,17s3.85,11.36,5.78,17c2.07,6.09,4.17,12.16,6.24,18.25s4.05,12,6.08,17.93c1.94,5.68,3.91,11.35,5.83,17,2.37,7,4.69,14,7.09,21,1.23,3.58,2.58,7.11,3.91,10.64a58.57,58.57,0,0,1,2.31,8.08,2.48,2.48,0,0,1-1.41,3.11,8.67,8.67,0,0,1-1.48.7,1,1,0,0,0-.84,1.17c.05.93-.08,1.87,0,2.8a2.55,2.55,0,0,1-1.13,2.29,15.84,15.84,0,0,1-3.72,1.93,221.52,221.52,0,0,1-21.21,7.65c-2,.64-4,1.52-6,2.33-3,1.22-6,2.33-9.07,3.43s-6.15,2.24-9.23,3.32-6.12,2.11-9.18,3.15c-4.79,1.64-9.6,3.23-14.34,5-4.05,1.52-8.14,2.91-12.24,4.3s-8.31,2.91-12.41,4.51c-4.82,1.89-9.66,3.76-14.52,5.55s-9.62,3.41-14.42,5.14q-7.57,2.75-15.14,5.55c-4.68,1.73-9.38,3.39-14.08,5.05-5.92,2.09-11.79,4.29-17.68,6.43-5.35,1.94-10.72,3.82-16,5.92-2.93,1.16-5.84,2.38-8.79,3.5-3.68,1.39-7.39,2.71-11.08,4.06-.26.1-.53.17-.77.29-5.16,2.75-10,5.84-13.64,10.6a18.66,18.66,0,0,0-4,8.49,8.57,8.57,0,0,0,2.56,8,1.18,1.18,0,0,0,1,.4,11.33,11.33,0,0,0,3.39-.85c3.68-1.49,7.36-3,11.06-4.44q10.11-4,20.24-7.94l35.42-13.69c8-3.09,16-6.25,24-9.29,9.06-3.44,18-7.17,27.15-10.46,10-3.6,19.83-7.47,29.75-11.2,5.43-2,10.82-4.2,16.2-6.36,9-3.62,18.05-7.13,27.08-10.67,6.23-2.45,12.46-4.92,18.66-7.47,3.31-1.37,6.67-2.63,10-4a65.8,65.8,0,0,0,6.14-2.86c.93-.48,1-.69.65-1.67s-1.1-2.06-1.57-3.13c-.13-.28-.54-.62-.18-.93s.64.11.92.28a22.45,22.45,0,0,1,4.87,4,6.43,6.43,0,0,1,1.39,2.28c.55,1.7.08,2.8-1.58,3.45-3.62,1.43-7.26,2.82-10.89,4.24q-14.81,5.76-29.61,11.55c-11.61,4.55-23.18,9.18-34.8,13.69-7.27,2.82-14.56,5.56-21.83,8.36-5.53,2.13-11.11,4.1-16.64,6.23-5.19,2-10.36,4.1-15.51,6.23-7.45,3.09-15,5.92-22.52,8.82q-24.16,9.3-48.32,18.61c-6.69,2.58-13.32,5.3-20.07,7.71-2.9,1-5.81,2.06-8.79,2.83a23.49,23.49,0,0,1-5.53.84A6,6,0,0,1,182,437.3a12.15,12.15,0,0,1-5-7.45A11.14,11.14,0,0,1,176.4,425.81Z" transform="translate(-38.88 -46.08)"/><path class="cls-2" d="M183.41,438.82a9.5,9.5,0,0,1-10.32-4.31,41.25,41.25,0,0,1-3.22-7.37c-2.31-6.7-76.12-252.48-78.74-261.94-.82-3-1.7-5.92-2.42-8.91-2.21-9.25-5-18.34-7.41-27.53-.85-3.22-.15-5.82,2.5-7.88a41.13,41.13,0,0,1,7.5-4.51,70.48,70.48,0,0,1,9.41-3.82c1.94-.6,4-.83,5.9-1.46.41-.13.84-.2,1.23-.36.58-.23.84-.07,1,.54.33,1.32.69,2.64,1.12,3.93,1.21,3.7,2.46,7.39,3.7,11.09,2.23,6.69,4.28,13.43,6.27,20.2,1.86,6.31,10.64,36,11.28,38.1,1.09,3.62,2,7.27,3.12,10.9,2.23,7.54,11.77,41.77,12.81,45.32,1.33,4.52,2.75,9,4.06,13.55,2.09,7.22,31.64,111,33.26,117.14,1.75,6.58,3.62,13.14,5.23,19.77.79,3.25,1.56,6.51,2.05,9.83,0,.15,0,.31.08.46.3,1.14.29,1.12-.66,1.67A34.35,34.35,0,0,0,181,412.74a23.44,23.44,0,0,0-4.56,12.58c-.37,5.52,1.56,10,6.4,13l.49.31S183.35,438.69,183.41,438.82Z" transform="translate(-38.88 -46.08)"/><path class="cls-3" d="M198,400.46a.78.78,0,0,1-.53.92l-1.82.8a46.93,46.93,0,0,0-9.46,5.53c-.61.46-.83.42-1.05-.33-.41-1.34-.74-2.71-1.15-4.05-2-6.49-4-13-5.9-19.45-2.62-8.73-5.19-17.48-7.8-26.21q-4.8-16-9.62-32c-2.22-7.42-4.41-14.86-6.63-22.28q-3.52-11.76-7.06-23.51c-2.54-8.51-5-17-7.57-25.54-2.65-8.93-5.32-17.84-7.95-26.77-3.42-11.59-6.79-23.18-10.21-34.76q-4-13.74-8.14-27.45c-2-6.65-4.08-13.26-5.86-20-1.75-6.55-4-12.94-5.77-19.49-.94-3.49-1.91-7-2.87-10.48l-.06-.22c-.28-1.26-.28-1.29.92-1.67,1.67-.53,3.35-1,5-1.55,2.15-.68,4.31-1.36,6.45-2.07.51-.17.8-.14,1,.41s.51,1.31.69,2c1.06,3.92,2.37,7.76,3.58,11.62,3.49,11.15,6.78,22.37,10.11,33.57q4.19,14.06,8.34,28.12,3.27,11,6.52,22,3.52,11.82,7,23.63,3.24,10.86,6.46,21.73,4.65,15.69,9.29,31.37,5.45,18.33,10.89,36.63,4,13.51,8,27c3,10.09,6,20.16,8.89,30.27,1.51,5.28,2.92,10.59,4.44,15.87.55,1.91,1.15,3.8,1.72,5.7A6.83,6.83,0,0,1,198,400.46Z" transform="translate(-38.88 -46.08)"/><path class="cls-1" d="M164.31,410.68l-1.13-3.48c-.77-2.45-1.48-4.92-2.36-7.33a2.09,2.09,0,0,1,.55-2.48,27.93,27.93,0,0,1,5.37-4.46,37.07,37.07,0,0,1,11.31-4.56c.8-.19.81-.18,1.08.56.89,2.54,1.54,5.14,2.31,7.71.16.54-.07.69-.5.82a25,25,0,0,0-5.49,2.27c-4.5,2.58-8.37,5.8-10.78,10.52A3.64,3.64,0,0,1,164.31,410.68Z" transform="translate(-38.88 -46.08)"/><path class="cls-1" d="M158.77,392.72a20.49,20.49,0,0,1-1-2.76c-.18-.47.15-.79.45-1.11a21.56,21.56,0,0,1,3.38-2.87,30.06,30.06,0,0,1,11.64-5.44c.88-.18,1.77-.27,2.65-.42a.56.56,0,0,1,.7.45c0,.07,0,.14.07.22.12.69.76,1.41.49,2s-1.23.49-1.88.69A42.53,42.53,0,0,0,162,389.79,21.18,21.18,0,0,0,158.77,392.72Z" transform="translate(-38.88 -46.08)"/><path class="cls-1" d="M86.6,146.47a1.42,1.42,0,0,1,.59-1.21,38.79,38.79,0,0,1,5-4.2,41.25,41.25,0,0,1,10.19-5.38,4.67,4.67,0,0,0,.66-.23c.59-.3.86,0,1,.51.46,1.45.94,2.89,1.38,4.34.23.74.38,1.51.59,2.26.17.6,0,.9-.63,1.15a79.53,79.53,0,0,0-13.07,7.2c-1.13.77-2.22,1.58-3.31,2.4-.37.27-.64.32-.78-.17C87.62,150.94,87,148.72,86.6,146.47Z" transform="translate(-38.88 -46.08)"/><path class="cls-1" d="M91,162.77a1.34,1.34,0,0,1-.18-.22c-.85-1.89-.85-2.19.71-3.51a42.37,42.37,0,0,1,14.89-8.3c.34-.11.69-.16,1-.25.51-.14.81,0,.93.54a14.17,14.17,0,0,0,.47,1.57c.18.53.16.87-.51,1a11.47,11.47,0,0,0-1.66.54A59.66,59.66,0,0,0,92.16,162,3.25,3.25,0,0,1,91,162.77Z" transform="translate(-38.88 -46.08)"/><path class="cls-4" d="M105.25,111.9a.76.76,0,0,1,.86.63c.13.45.25.9.39,1.34q3.81,12.1,7.61,24.19c1.07,3.42,2.22,6.81,3.21,10.26,3.31,11.53,6.87,23,10.25,34.49,2.32,7.88,4.68,15.75,7,23.63q5,17,10.1,33.93T154.8,274.3q3.6,12.09,7.16,24.2c2.67,9,5.37,18,8,27q3.74,12.54,7.44,25.09c2.69,9.07,5.42,18.13,8.05,27.22,2.35,8.16,4.79,16.29,7.16,24.44.12.41.52.9.12,1.32a3.25,3.25,0,0,1-1.72.94c-.43.09-.45-.35-.53-.62-.43-1.42-.83-2.84-1.25-4.26l-10.62-35.73c-2.79-9.37-5.61-18.73-8.39-28.1-3.45-11.61-6.86-23.24-10.31-34.85q-4.71-15.84-9.46-31.68-3.84-12.88-7.67-25.75-4-13.27-7.95-26.53c-2-6.56-4-13.12-5.94-19.69q-4.44-14.82-8.85-29.66c-1.63-5.45-3.36-10.87-4.91-16.34-2.82-9.93-6.31-19.65-9.29-29.53-.77-2.58-1.49-5.17-2.3-7.73-.55-1.72-.24-1.51,1.22-2A2.22,2.22,0,0,1,105.25,111.9Z" transform="translate(-38.88 -46.08)"/><path class="cls-5" d="M415.47,319.44c-.18,1.6-.36,3.22-.53,4.83A28.94,28.94,0,0,0,416,337a18.59,18.59,0,0,0,1.61,3.62c.58,1,1.11,2,1.64,3a1.84,1.84,0,0,1-.82,2.82C416,347.59,190.27,435.51,189.07,436c-3.47,1.31-6.21.11-7.61-3.35a17.36,17.36,0,0,1-1.23-6,25.91,25.91,0,0,1,1.06-8.19c.74-2.47,3.7-11.91,17.09-15.68,2.8-.71,214-82.14,216.3-83.09C414.92,319.51,415.13,319.28,415.47,319.44Z" transform="translate(-38.88 -46.08)"/><path class="cls-6" d="M248,404.69a6.37,6.37,0,0,1-.81,0,.53.53,0,0,1-.5-.42.53.53,0,0,1,.27-.6,10.2,10.2,0,0,1,.93-.48,350.4,350.4,0,0,1,34.57-13.85c4.72-1.6,9.41-3.3,14.12-4.92a69.88,69.88,0,0,1,7.65-2.12c.63-.14,1.32-.5,2,0-.24.75-.93,1-1.53,1.34-2.23,1.2-4.58,2.14-6.88,3.19-5.61,2.55-11.34,4.77-17.08,7-4.94,1.9-10,3.56-15,5.18-3.89,1.24-7.76,2.57-11.64,3.87-1.66.55-3.31,1.14-5,1.57C248.58,404.58,248.16,404.65,248,404.69Z" transform="translate(-38.88 -46.08)"/><path class="cls-6" d="M330.49,363.17c.65.06,1.33-.13,1.5.58s-.44.86-.87,1.09c-.62.33-1.26.63-1.9.9-5.6,2.36-11.3,4.43-17,6.58-5,1.89-10.11,3.64-15.12,5.57-3.3,1.28-6.62,2.52-10,3.51-.63.18-1.29.3-1.93.44a.38.38,0,0,1-.41-.16.32.32,0,0,1,.1-.42,8,8,0,0,1,.9-.74,36.08,36.08,0,0,1,7.06-3.59c4.87-2,9.75-3.92,14.65-5.81,5.81-2.23,11.58-4.57,17.5-6.54,1.4-.46,2.84-.82,4.27-1.2A10.17,10.17,0,0,1,330.49,363.17Z" transform="translate(-38.88 -46.08)"/><path class="cls-6" d="M376.77,351.63c0,.46-.41.65-.7.88a8.84,8.84,0,0,1-2,1.13,211.16,211.16,0,0,1-19.72,7.61c-4.9,1.58-9.7,3.44-14.55,5.16-1.17.41-2.36.78-3.55,1.15a9,9,0,0,1-1.14.26c-.21,0-.5.14-.61-.16s.16-.42.34-.55c.38-.28.76-.54,1.16-.79a43.85,43.85,0,0,1,4.37-2.24c6.31-2.88,12.8-5.34,19.27-7.83,4.44-1.71,9-3.07,13.57-4.35.74-.21,1.51-.35,2.28-.49A1.37,1.37,0,0,1,376.77,351.63Z" transform="translate(-38.88 -46.08)"/><path class="cls-6" d="M202,411.29a3.22,3.22,0,0,1,1.43-1.36,59.13,59.13,0,0,1,5.69-3.24c3.6-1.87,7.31-3.48,11-5.06,2.54-1.08,5-2.32,7.64-3.23a65,65,0,0,1,9.95-3,9.14,9.14,0,0,1,1.27-.14c.55,0,1.2-.07,1.36.6s-.4.89-.86,1.1a19.37,19.37,0,0,1-3,1.29c-2.82.79-5.56,1.79-8.32,2.76-4.64,1.62-9.16,3.51-13.66,5.48-3.68,1.61-7.4,3.11-11.15,4.54A1.88,1.88,0,0,1,202,411.29Z" transform="translate(-38.88 -46.08)"/><path class="cls-6" d="M215.79,416.85a4.07,4.07,0,0,1,.56,0c.35.06.74.13.82.54s-.3.51-.55.68a13.58,13.58,0,0,1-2.29,1.14c-3.56,1.49-7.1,3-10.67,4.47-5,2-10,3.81-15.16,5.45a10.52,10.52,0,0,1-2.28.48c-.3,0-.7.16-.86-.16s.21-.63.45-.86a11.13,11.13,0,0,1,1.92-1.33,54.05,54.05,0,0,1,7.35-3.55c4.68-1.83,9.31-3.8,14.12-5.26,1.79-.54,3.6-1,5.41-1.45A10,10,0,0,1,215.79,416.85Z" transform="translate(-38.88 -46.08)"/><path class="cls-6" d="M366.23,361.69c.15-.5.56-.69.89-.93a36.86,36.86,0,0,1,4.95-2.87c7.67-3.89,15.47-7.51,23.43-10.8a11.82,11.82,0,0,1,3.14-.87c.44-.05,1.05-.22,1.25.31s-.26,1-.7,1.22c-.76.48-1.52.95-2.32,1.36a60.35,60.35,0,0,1-5.79,2.48c-4.83,1.87-9.48,4.17-14.25,6.17-3.05,1.29-6.1,2.56-9.22,3.68A2,2,0,0,1,366.23,361.69Z" transform="translate(-38.88 -46.08)"/><path class="cls-6" d="M252.28,396.88a3.42,3.42,0,0,1,1.4-1.31,40.6,40.6,0,0,1,6.17-3c6-2.47,11.88-5.07,17.94-7.31a11.06,11.06,0,0,1,2.13-.61c.26,0,.58-.09.74.19s-.14.5-.34.65a12.27,12.27,0,0,1-1.37.88,102.68,102.68,0,0,1-16.05,6.93c-3.2,1.09-6.37,2.28-9.55,3.43A1.84,1.84,0,0,1,252.28,396.88Z" transform="translate(-38.88 -46.08)"/><path class="cls-6" d="M369,349.45a1.41,1.41,0,0,1,.92-.65,167.94,167.94,0,0,1,17-6.65c2.45-.77,4.95-1.37,7.45-2a4,4,0,0,1,1.51-.09c.23,0,.48.09.53.36a.47.47,0,0,1-.3.47,14.11,14.11,0,0,1-1.46.72c-2.63,1-5.27,1.91-7.95,2.76-4,1.28-8,2.61-12,3.88-1.3.41-2.63.73-3.95,1A2.94,2.94,0,0,1,369,349.45Z" transform="translate(-38.88 -46.08)"/><path class="cls-6" d="M334.57,373.14c-.39,0-.55,0-.64-.15s0-.38.18-.48a16.13,16.13,0,0,1,1.57-1c3.7-1.91,7.48-3.68,11.35-5.22a36.06,36.06,0,0,1,6.15-2.21c.38-.08.76-.15,1.15-.21s.59-.07.69.25-.19.39-.37.52a15.33,15.33,0,0,1-2.64,1.5c-5.21,2.38-10.35,4.91-15.86,6.55Z" transform="translate(-38.88 -46.08)"/><path class="cls-6" d="M316.36,378.41h-.58c-.47-.07-.59-.36-.26-.72a6.71,6.71,0,0,1,1.8-1.28,42.86,42.86,0,0,1,7.56-3.09,49.43,49.43,0,0,1,5.38-1.55,5.5,5.5,0,0,1,1.62-.13c.2,0,.39.06.47.28a.48.48,0,0,1-.21.6,13.88,13.88,0,0,1-1.79,1.1,70.47,70.47,0,0,1-13.06,4.64C316.91,378.35,316.52,378.38,316.36,378.41Z" transform="translate(-38.88 -46.08)"/><path class="cls-6" d="M199.13,419.65a4.91,4.91,0,0,1-1.7,1.13,60.47,60.47,0,0,1-6.4,2.48,10.67,10.67,0,0,1-1.25.26.44.44,0,0,1-.49-.24.45.45,0,0,1,.13-.53,2.51,2.51,0,0,1,.55-.42,22.72,22.72,0,0,1,7.94-2.89A1.29,1.29,0,0,1,199.13,419.65Z" transform="translate(-38.88 -46.08)"/><path class="cls-7" d="M176.41,424.9a16.1,16.1,0,0,1,1.25-6.12,34.76,34.76,0,0,1,2.91-5.86A20.92,20.92,0,0,1,186.1,407c3.16-2.29,6.32-4.57,10.08-5.82a2.73,2.73,0,0,0,.68-.44.79.79,0,0,1,1.31.35.56.56,0,0,1,0,.12c.56,1.91,1,2.27-1.28,3.3a40,40,0,0,0-8.61,5.58,18.68,18.68,0,0,0-3.56,4.16,41.38,41.38,0,0,0-3.75,6.6,11.36,11.36,0,0,0-.12,9.73,7,7,0,0,0,1.05,1.68,4.8,4.8,0,0,0,4.76,1.83,41.38,41.38,0,0,0,6.73-1.93c4-1.4,8-3.09,12-4.61.22-.08.44-.16.65-.26a.51.51,0,0,1,.76.29,21.32,21.32,0,0,1,1.34,3.49c.15.53-.2.67-.57.83-2.09.87-4.16,1.78-6.26,2.61a59.45,59.45,0,0,1-13.34,3.8,13.35,13.35,0,0,1-3.84.17,5.11,5.11,0,0,1-1.76-.56,10.21,10.21,0,0,1-5-6.17A22.63,22.63,0,0,1,176.41,424.9Z" transform="translate(-38.88 -46.08)"/><path class="cls-8" d="M247.87,439.1a31.17,31.17,0,0,1-.57,6.74,9.27,9.27,0,0,1-.43,1.45,1,1,0,0,1-1.77.17,6.83,6.83,0,0,1-.61-1.13c-1.1-2.19-2.19-4.39-3.31-6.57-.3-.58-.54-1.5-1.17-1.49s-.72,1-1,1.55a113.12,113.12,0,0,1-5.41,11.27c-.47.8-1,1.6-1.46,2.39a2,2,0,0,1-.73.74.74.74,0,0,1-1.19-.45A6,6,0,0,1,230,452a143.64,143.64,0,0,0-1.53-17.57,140.56,140.56,0,0,0-5.85-24.88c-.7-2.25-.82-1.7,1.28-2.57,3.42-1.42,7-2.28,10.55-3.43,1.37-.45,2.75-.88,4.08-1.44.56-.23.84-.09,1.08.46q1.2,2.79,2.12,5.69c1.11,3.53,2.23,7.06,3.3,10.6a83,83,0,0,1,2.5,13.9A50,50,0,0,1,247.87,439.1Z" transform="translate(-38.88 -46.08)"/><path class="cls-9" d="M312.27,334.63a6.82,6.82,0,0,1-.79-.07,1.11,1.11,0,0,0-1.3.61,5.88,5.88,0,0,1-3.4,2.58c-.76.23-.94.08-1-.71a70.17,70.17,0,0,0-2.15-12.21,148.18,148.18,0,0,0-7.12-22.13A73.94,73.94,0,0,0,293,295a11.46,11.46,0,0,0-2.6-3.46c-.47-.37-.33-.64,0-.93a2.59,2.59,0,0,1,1.45-.59,6.55,6.55,0,0,1,3.26.27,1.68,1.68,0,0,0,2-.41,10.86,10.86,0,0,1,3.33-2.12c3.88-1.69,7.56-1.14,11.09,1a14.7,14.7,0,0,1,3.8,3.45,64.82,64.82,0,0,1,5,7,10.49,10.49,0,0,0,2.76,3.17c.5.36,1.31.36,1.52.94s-.29,1.16-.41,1.76a13.91,13.91,0,0,0,0,4.73,62.48,62.48,0,0,1,.9,8.41,20.83,20.83,0,0,1-1.86,9.77C320.94,332.5,317.06,334.32,312.27,334.63Zm6.89-12.18c-.09-1.1-.15-2.2-.28-3.29a48.38,48.38,0,0,0-3.15-12,88.68,88.68,0,0,0-5-11.22,14.25,14.25,0,0,0-3.13-4.07,5.18,5.18,0,0,0-4.77-1.32c-1.82.44-2.18,1-1.57,2.8,1,2.83,2,5.63,3,8.49,1.71,5.28,3.35,10.59,5,15.89,1.27,4,2.58,8.06,4,12,.43,1.17.69,1.29,1.88.94a5.17,5.17,0,0,0,3-2.58A10.57,10.57,0,0,0,319.16,322.45Z" transform="translate(-38.88 -46.08)"/><path class="cls-9" d="M347.67,321.76c-.21-3.51-1.61-6.64-3.16-9.72-.66-1.31-.68-1.28-2.07-.86-2.42.72-4.73,1.69-7.08,2.58-1,.39-1,.43-.79,1.56a31.31,31.31,0,0,0,3.66,9.73c.11.19.2.39.31.6-1,1-2.14.74-3.27.58a13.82,13.82,0,0,1-1.53-.41c-1.08-.29-1.08-.28-1.73.58-.4.53-.78,1.07-1.2,1.58a6.73,6.73,0,0,1-2.88,2c-.29.1-.61.21-.85-.08s-.09-.5,0-.75c1.6-4.62,1.42-9.39,1.1-14.14-.34-4.93-.82-9.85-1.25-14.77-.5-5.71-1.35-11.38-2.19-17.05a4.2,4.2,0,0,0-2.34-3.6c-.58-.27-.58-.55-.07-1a3.9,3.9,0,0,1,2.52-1,6.2,6.2,0,0,1,2.22.28.91.91,0,0,0,1.2-.46,6.9,6.9,0,0,1,3-2.55c1-.44,1.27-.27,1.23.8a8.25,8.25,0,0,0,.91,4.08,277.54,277.54,0,0,0,15.55,26.91,36.82,36.82,0,0,0,7.18,8.61c.5.43,1.05.81,1.56,1.23s.48.68,0,1a4.68,4.68,0,0,1-1,.45,6.6,6.6,0,0,1-2.2.41,9.49,9.49,0,0,0-2.49-.05c-.82.22-.87,1.32-1.46,1.91A4.19,4.19,0,0,1,347.67,321.76Zm-17.62-37.39-.3.07c.09.91.14,1.82.29,2.72.84,4.95,1.71,9.9,2.57,14.85.43,2.44.85,4.87,1.31,7.29.19,1,.34,1.13,1.32.79,1.79-.63,3.57-1.29,5.34-2,1.61-.62,1.43-.57.74-1.92q-5.06-9.88-10.13-19.77C330.83,285.74,330.43,285.06,330.05,284.37Z" transform="translate(-38.88 -46.08)"/><path class="cls-9" d="M346.84,268.7c-1,2.12-.41,3.8,1,5.38,2.66,2.89,5.37,5.72,8.22,8.43.63.6,1.25,1.21,2,2,.1-1.1.22-2,.26-2.88q.24-6.08.44-12.16a8.4,8.4,0,0,0-.16-2.24,3,3,0,0,0-1.59-2.3c-.58-.27-.58-.53-.12-1a4.16,4.16,0,0,1,3.06-1,1.29,1.29,0,0,0,1.27-.68,3.88,3.88,0,0,1,3.38-1.74c.64,0,.84.28.61.8a30.29,30.29,0,0,0-2,9.8c-.43,5.59-.4,11.19-.55,16.79a8.11,8.11,0,0,0,.51,3c2,5.4,4,10.75,6.14,16.06a4.6,4.6,0,0,0,3.12,3.14c.5.12.48.42.32.8a2.19,2.19,0,0,1-.63.84,4.94,4.94,0,0,1-4.16,1.25c-.83-.15-1.28-.06-1.7.69a4.17,4.17,0,0,1-2.73,1.94,3.48,3.48,0,0,1-2.34-.13c-.76-.32-.81-.6-.2-1.19a2.8,2.8,0,0,0,.8-1.9,10.84,10.84,0,0,0-.44-3.92c-1-3.38-2.36-6.64-3.65-9.92-.81-2-1.67-4.08-2.51-6.12a4.88,4.88,0,0,0-1-1.55c-4-4.25-8-8.55-12.37-12.5a23.61,23.61,0,0,0-3.72-2.74,9.37,9.37,0,0,0-3-1.29c-.59-.11-.64-.36-.28-.82a4.17,4.17,0,0,1,1.67-1.27,7.25,7.25,0,0,1,4.51-.57c.59.14.83,0,1.1-.52A4.82,4.82,0,0,1,346.84,268.7Z" transform="translate(-38.88 -46.08)"/><path class="cls-10" d="M228.45,370.85c-.38,0-.52-.44-.8-.7a.53.53,0,0,1-.06-.81c.63-.85,45.35-60.17,57.1-75.62,4.81-6.31,9.45-12.76,14.25-19.09,10.12-13.36,45.46-60.44,45.79-60.79s.48.16.8.34a1.6,1.6,0,0,1,.6.62c0,.15-.06.24-.13.38-.27.56-24.56,33.12-28.85,38.89-4.84,6.51-79.72,105.74-83.66,110.61-1.47,1.82-2.84,3.72-4.25,5.58C229.05,370.5,228.9,370.79,228.45,370.85Z" transform="translate(-38.88 -46.08)"/><path class="cls-10" d="M331.8,227.54a4.86,4.86,0,0,1-1.1-1.91c-.22-.49.14-.83.4-1.17,1.17-1.5,2.32-3,3.5-4.48,2.31-2.89,4.63-5.78,7-8.64.3-.36.5-1.22,1.28-.65a1.54,1.54,0,0,1,.36,2.16c-.63.85-1.31,1.66-2,2.5q-4.53,5.85-9,11.71C332.12,227.2,332,227.32,331.8,227.54Z" transform="translate(-38.88 -46.08)"/><path class="cls-10" d="M246.69,359.06l4.07-1.89q12.35-5.76,24.71-11.49c.52-.24,1-.45,1.59-.66a.82.82,0,0,1,1.15.31c.26.5,0,.84-.47,1.07-.66.37-1.31.73-2,1.05-4.27,2-8.55,4-12.82,6l-17.23,8.11a7.76,7.76,0,0,1-2.37.82c-.79.09-1.07-.25-.8-1a3.59,3.59,0,0,1,.46-.8c9.21-13.68,18.46-27.34,28.61-40.37a22,22,0,0,1,3.07-3.26c6.34-5.39,14.81-1.65,17.08,4.63a12.26,12.26,0,0,1-1.05,10.69,10.32,10.32,0,0,1-6.8,5.24c-5.44,1.29-9.9-2.76-10.74-7.29a8.66,8.66,0,0,1,6.6-9.84,6,6,0,0,1,7.22,5.9,3.83,3.83,0,0,1-2.42,3.49,2.71,2.71,0,0,1-2.53-.25,1.18,1.18,0,0,1-.62-1c-.07-.61.26-1,.83-.86a1.82,1.82,0,0,0,2.42-1,2.61,2.61,0,0,0-.5-3,4.17,4.17,0,0,0-4.48-1.15,6.58,6.58,0,0,0-4.22,8.36,6.91,6.91,0,0,0,9.84,3.88,9.38,9.38,0,0,0,5.09-7.72,9.49,9.49,0,0,0-2.12-7.55A8.6,8.6,0,0,0,276.6,318a21,21,0,0,0-4.77,4.91q-10,13.36-19.45,27.1c-1.9,2.75-3.71,5.58-5.55,8.38a6,6,0,0,0-.31.55Z" transform="translate(-38.88 -46.08)"/><path class="cls-10" d="M269.23,334.41l-10.37,14.15.14.18c.42-.19.85-.35,1.25-.56,3.3-1.7,6.58-3.42,9.87-5.11.67-.35,1.35-.65,2-.95a.65.65,0,0,1,.9.3c.23.4,0,.68-.26.91a6.4,6.4,0,0,1-.79.48l-13.83,7.25c-.78.41-1.6.75-2.41,1.09-.36.16-.77.34-1.11,0s0-.74.2-1.05c.51-.77,1-1.55,1.57-2.29l12.66-17.3c.11-.14.21-.28.33-.42s.47-.56.88-.4.33.49.36.8A22.87,22.87,0,0,0,271,334a10.14,10.14,0,0,0,4.81,6.67,7.55,7.55,0,0,1,.89.58.66.66,0,0,1,.25.82.69.69,0,0,1-.67.35,3.48,3.48,0,0,1-1.75-.53,9.67,9.67,0,0,1-3.55-3.66A23.43,23.43,0,0,1,269.23,334.41Z" transform="translate(-38.88 -46.08)"/><path class="cls-10" d="M280.06,309.15a2.59,2.59,0,0,1,2.69-2.63,2.81,2.81,0,0,1,3,2.85,2.9,2.9,0,0,1-2.7,2.87A3,3,0,0,1,280.06,309.15Z" transform="translate(-38.88 -46.08)"/><path class="cls-10" d="M291,314.77a2.51,2.51,0,0,1-2.6-2.58,2.82,2.82,0,0,1,2.61-2.68,2.79,2.79,0,0,1,2.61,2.8A2.64,2.64,0,0,1,291,314.77Z" transform="translate(-38.88 -46.08)"/><path class="cls-10" d="M295.67,316.51a2.73,2.73,0,0,1,2.54,2.82,2.34,2.34,0,0,1-2.46,2.36,2.65,2.65,0,0,1-2.69-2.78A2.51,2.51,0,0,1,295.67,316.51Z" transform="translate(-38.88 -46.08)"/><path class="cls-10" d="M296.56,325.73c1.14,0,1.79.56,1.81,1.61a1.69,1.69,0,0,1-1.83,1.92,1.45,1.45,0,0,1-1.63-1.6C294.88,326.45,295.48,325.75,296.56,325.73Z" transform="translate(-38.88 -46.08)"/><path class="cls-10" d="M311.58,274.55A4.28,4.28,0,0,0,313,274l25.55-11.89,1.09-.46c.55-.22,1.19-.5,1.5.2s-.37.91-.82,1.14c-1.66.83-3.31,1.66-5,2.44l-24.44,11.44a7.43,7.43,0,0,1-2.36.81c-.67.07-.93-.22-.7-.84a4,4,0,0,1,.51-.92c8.57-12.73,17.18-25.44,26.62-37.56a20.38,20.38,0,0,1,3-3.15c5.39-4.45,12.12-1.85,14.81,2.57,2.38,3.9,2.15,7.89,0,11.81a9.51,9.51,0,0,1-5.88,4.8,8.32,8.32,0,0,1-10.51-9.3,7.7,7.7,0,0,1,6.39-6.59,5.49,5.49,0,0,1,6.49,5.93,3.31,3.31,0,0,1-4,2.9,1.42,1.42,0,0,1-1.17-1.11c-.11-.6.2-1,.78-.86a1.69,1.69,0,0,0,2.21-.89,2.34,2.34,0,0,0-.4-2.81A3.68,3.68,0,0,0,343,240.4a6.07,6.07,0,0,0-4.5,7.81,6.43,6.43,0,0,0,9.24,3.71,8.53,8.53,0,0,0,4.51-6,9.16,9.16,0,0,0-1.49-7.8,8,8,0,0,0-11.29-1.7,17.09,17.09,0,0,0-3.73,3.72q-10,13.32-19.45,27.09c-1.39,2-2.73,4.12-4.08,6.19A2.47,2.47,0,0,0,311.58,274.55Z" transform="translate(-38.88 -46.08)"/><path class="cls-10" d="M332.69,251.63c-3.3,4.51-6.47,8.83-9.68,13.23a1.9,1.9,0,0,0,1.32-.42q4.59-2.35,9.16-4.73c.55-.28,1.09-.58,1.66-.81.41-.17.88-.32,1.14.24s-.15.72-.48.95c-.15.1-.31.18-.46.26l-13.11,6.88c-.63.32-1.28.59-1.93.86-.39.16-.86.47-1.21,0s.08-.74.29-1.06c.41-.63.82-1.25,1.27-1.86q5-6.88,10.09-13.75l2-2.78c.21-.29.43-.62.84-.53s.46.59.47,1a9.74,9.74,0,0,0,2.16,6.11,9.86,9.86,0,0,0,2.82,2.36c.43.25,1.11.51.77,1.16s-.93.34-1.43.16a8,8,0,0,1-4-3.65A22.07,22.07,0,0,1,332.69,251.63Z" transform="translate(-38.88 -46.08)"/><path class="cls-10" d="M345.33,225.66a2.61,2.61,0,0,1,2.76,2.69,2.65,2.65,0,1,1-5.29-.28A2.35,2.35,0,0,1,345.33,225.66Z" transform="translate(-38.88 -46.08)"/><path class="cls-10" d="M353.25,228.4a2.77,2.77,0,0,1,2.22,2.73,2.6,2.6,0,0,1-2.7,2.21,2.44,2.44,0,0,1-2.19-2.67A2.72,2.72,0,0,1,353.25,228.4Z" transform="translate(-38.88 -46.08)"/><path class="cls-10" d="M354.93,237.3a2.31,2.31,0,0,1,2.32-2.36,2.57,2.57,0,0,1,2.49,2.43,2.22,2.22,0,0,1-2.26,2.39A2.44,2.44,0,0,1,354.93,237.3Z" transform="translate(-38.88 -46.08)"/><path class="cls-10" d="M358.21,243.5a1.47,1.47,0,0,1,1.63,1.63,1.59,1.59,0,0,1-1.74,1.72,1.43,1.43,0,0,1-1.47-1.63A1.55,1.55,0,0,1,358.21,243.5Z" transform="translate(-38.88 -46.08)"/><path class="cls-10" d="M187.16,243c1.73-2,3.47-4,5.19-6,4.51-5.25,9-10.53,13.51-15.78,5.24-6.08,10.59-12.06,15.76-18.21,4.61-5.46,9.35-10.81,14-16.22,5.39-6.25,10.75-12.52,16.14-18.76q5.76-6.66,11.55-13.29a4.55,4.55,0,0,1,1.14-1.09.86.86,0,0,1,1.1.07.75.75,0,0,1,.06,1.07c-.57.78-1.15,1.56-1.78,2.31q-10.34,12.39-20.9,24.61c-6.86,8-13.68,15.94-20.59,23.84-7.69,8.81-15.37,17.62-23.16,26.33-5.32,6-10.55,12-15.82,18-.56.63-1.12,1.25-1.69,1.87a3.91,3.91,0,0,1-.69.6.75.75,0,0,1-.88,0,.66.66,0,0,1-.2-.83,13.11,13.11,0,0,1,.54-1.21c2.8-5.35,5.4-10.8,7.7-16.4a94.52,94.52,0,0,0,5.72-18.13,41.34,41.34,0,0,0,1-10.64,24.73,24.73,0,0,0-1-6c-2.2-6.8-8.3-9.77-15-7.3-4.87,1.78-7.67,6.43-7.4,11.78a8.92,8.92,0,0,0,6.95,8.13,6.28,6.28,0,0,0,6.36-2,4.47,4.47,0,0,0,0-6,2.72,2.72,0,0,0-3.47-.58,2.13,2.13,0,0,0-.43,3.37c.36.35,1,.61.58,1.26a1.49,1.49,0,0,1-1.66.53,3.2,3.2,0,0,1-2.42-2.82c-.39-3.27,2-5.74,5.43-5.63a6.6,6.6,0,0,1,6.13,8.13,8.88,8.88,0,0,1-6.2,6.81c-5.91,2.1-12.11-1.79-13.8-6.89a15.08,15.08,0,0,1,2.21-14.43,14.86,14.86,0,0,1,9.84-5.67,12.72,12.72,0,0,1,7.77.83,15.44,15.44,0,0,1,8.34,9.59,30.65,30.65,0,0,1,1.06,12,64.66,64.66,0,0,1-5.76,21.21c-1.57,3.55-3.27,7-5,10.51-.14.27-.25.55-.37.83Z" transform="translate(-38.88 -46.08)"/><path class="cls-10" d="M272,156.92a2.79,2.79,0,0,1-.75,1.23c-3.14,3.76-6.25,7.54-9.41,11.28q-9.56,11.32-19.15,22.62-8.61,10.13-17.28,20.21-9,10.52-17.95,21Q196.9,245.73,186.05,258c-.53.59-1.08,1.16-1.64,1.72a5.68,5.68,0,0,1-.69.61c-.34.26-.72.39-1.08,0a.79.79,0,0,1,0-1.08,13.28,13.28,0,0,1,1-1.26c4.08-4.75,8.19-9.47,12.25-14.24q16-18.82,32.07-37.69,13.73-16.11,27.46-32.22c4.24-5,8.52-9.89,12.8-14.82.81-.93,1.71-1.78,2.57-2.66a.71.71,0,0,1,.85-.18A.8.8,0,0,1,272,156.92Z" transform="translate(-38.88 -46.08)"/><path class="cls-10" d="M187.3,185a3.29,3.29,0,0,1,2.47-.52,14.73,14.73,0,0,1,9.69,4.31c3.2,3.17,4.75,7.14,5.69,11.44a10.69,10.69,0,0,0,.74,3c.1-1.4.21-2.8.28-4.21a94.94,94.94,0,0,1,.85-12.26c.6-3.45,1.63-6.69,4.1-9.3a9,9,0,0,1,2.65-1.95c.33-.16.69-.45,1.18-.06-4.1,4.58-5.06,9.38-.73,14.36a9,9,0,0,0,5.83,3.1c2.18.27,3.22,0,6.47-1.37.33.36.07.64-.13.91a7.52,7.52,0,0,1-5.6,2.86,10.52,10.52,0,0,1-10.67-6.67,3,3,0,0,0-.61-1.3,13.07,13.07,0,0,0-.6,3.71c-.21,4-.36,8-.6,12a36.79,36.79,0,0,1-1.89,9.84,16.87,16.87,0,0,1-3.43,5.76,1.62,1.62,0,0,1-.18.19c-.44.35-.91,1.09-1.4.77s.09-1,.25-1.49a25.09,25.09,0,0,0,1-5.05c.57-5.45.43-10.85-1.71-16a19.24,19.24,0,0,0-9.09-10.28,14.16,14.16,0,0,0-3.72-1.34C187.84,185.37,187.52,185.37,187.3,185Z" transform="translate(-38.88 -46.08)"/><path class="cls-10" d="M163.79,190.74a2.42,2.42,0,0,1-2-1.59,2.31,2.31,0,0,1,.39-2.7,2.51,2.51,0,0,1,2.87-.81,2.31,2.31,0,0,0,2-.13c3.94-1.54,7.91-3,11.84-4.58q11.79-4.73,23.66-9.21c7.27-2.72,14.57-5.35,21.8-8.16,6.48-2.53,12.88-5.29,19.34-7.9,5.39-2.18,10.81-4.3,16.22-6.44a2.75,2.75,0,0,1,1.41-.31.86.86,0,0,1,.77.62.71.71,0,0,1-.42.87c-.55.29-1.12.53-1.68.77-13.23,5.62-26.62,10.85-40,16q-25.9,10-51.77,20.14a1.82,1.82,0,0,0-1.29,1.3A2.88,2.88,0,0,1,163.79,190.74Z" transform="translate(-38.88 -46.08)"/><path class="cls-10" d="M235.86,171.42c-.69,0-1.37,0-2.06,0a4.07,4.07,0,0,1-3.91-2.82,3.2,3.2,0,0,1,1.67-3.88,2,2,0,0,1,2.1.26c.39.41.3.78-.24,1a2.34,2.34,0,0,1-.38.09,1.31,1.31,0,0,0-1.26,1.16,1.74,1.74,0,0,0,.89,1.78,4.38,4.38,0,0,0,2.94.51c1.1-.14,2.18-.35,3.26-.53l1.18-.17a.72.72,0,0,1,.76.42c.16.29-.09.49-.26.68q-3.7,4-7.59,7.75c-.57.56-.8.5-1.22-.19a11.36,11.36,0,0,0-2.2-2.63,6.68,6.68,0,0,0-10.87,6.9,6.52,6.52,0,0,0,2.89,4.11,4.85,4.85,0,0,0,4.68.3,3.87,3.87,0,0,0,1.42-5.74,2.61,2.61,0,0,0-1.77-1A1.87,1.87,0,0,0,224,180a2,2,0,0,0-.15,2.13,1.62,1.62,0,0,0,.28.45c.31.34.39.68,0,1a.93.93,0,0,1-1.21.06,3.39,3.39,0,0,1-1.2-3.53,4.1,4.1,0,0,1,5.25-2.72,5.37,5.37,0,0,1,2.92,7.7,6.45,6.45,0,0,1-9.06,2.66,9.4,9.4,0,0,1-4.52-9.2,8.81,8.81,0,0,1,6.84-7.53c3.36-.72,6.15.45,8.49,2.86a4.16,4.16,0,0,1,.5.61c.29.46.57.46.93.07.94-1,1.9-2,2.86-2.93Z" transform="translate(-38.88 -46.08)"/><path class="cls-10" d="M179.16,225.73a11.81,11.81,0,0,1-8-3.51,18.43,18.43,0,0,1-5.57-10.71,3.74,3.74,0,0,1,.21-2.07c.09-.21.22-.39.48-.38a.47.47,0,0,1,.46.41c.12.46.21.94.31,1.41a16.32,16.32,0,0,0,5.53,9.39,11.84,11.84,0,0,0,6.67,2.58,7.71,7.71,0,0,0,2.74-.35c1.61-.43,2.11,0,1.93,1.71a53.71,53.71,0,0,1-1.24,7,52.73,52.73,0,0,1-3.13,9.67,17.1,17.1,0,0,1-1.87,3.34c-.27.35-.62.95-1.14.64s-.09-.8.08-1.18a59.94,59.94,0,0,0,3.68-13.35,31.69,31.69,0,0,0,.62-3.78c.05-.89.06-.89-.79-.88Z" transform="translate(-38.88 -46.08)"/><path class="cls-10" d="M177.72,231.21a31.36,31.36,0,0,1-2.37,10.1,12.94,12.94,0,0,1-.83,1.5.53.53,0,0,1-.67.29c-.3-.14-.23-.44-.14-.69a25.85,25.85,0,0,0,1.17-4.6,40.62,40.62,0,0,0,.68-6c0-.68-.15-.93-.9-1.1a13.8,13.8,0,0,1-8.52-6,21.56,21.56,0,0,1-3.7-10.6,8,8,0,0,1,.17-2.49c.06-.29.23-.64.61-.56s.33.38.35.65a24.52,24.52,0,0,0,1.38,6.44,16.59,16.59,0,0,0,7.37,9.32,12.59,12.59,0,0,0,3.94,1.46c1.37.26,1.46.35,1.46,1.68Z" transform="translate(-38.88 -46.08)"/><path class="cls-10" d="M244,168.56a2.6,2.6,0,0,1-2.56-2.77,2.94,2.94,0,0,1,3-2.58,2.76,2.76,0,0,1,2.5,2.73A2.89,2.89,0,0,1,244,168.56Z" transform="translate(-38.88 -46.08)"/><path class="cls-10" d="M252.59,161.31a2.46,2.46,0,0,1-2.32,2.41,2.37,2.37,0,0,1-2.15-2.13,2.43,2.43,0,0,1,2.35-2.36A2.14,2.14,0,0,1,252.59,161.31Z" transform="translate(-38.88 -46.08)"/><path class="cls-10" d="M213.75,197.09a2.32,2.32,0,0,1,2.18,2.37,2.15,2.15,0,0,1-2,2.2,2.37,2.37,0,0,1-2.27-2.3A2.2,2.2,0,0,1,213.75,197.09Z" transform="translate(-38.88 -46.08)"/><path class="cls-10" d="M205.4,185.32a2,2,0,0,1-2.14,2,2.24,2.24,0,0,1,0-4.47A2.4,2.4,0,0,1,205.4,185.32Z" transform="translate(-38.88 -46.08)"/><path class="cls-10" d="M255.42,159.5a1.58,1.58,0,0,1-1.53-1.65,1.92,1.92,0,0,1,1.92-1.65,1.73,1.73,0,0,1,1.49,1.6A1.93,1.93,0,0,1,255.42,159.5Z" transform="translate(-38.88 -46.08)"/><path class="cls-9" d="M222.09,280.91c1.48.15,2.79.13,4.1.35a20.19,20.19,0,0,1,13,7.62,38.33,38.33,0,0,1,7.5,17,53,53,0,0,1,1,8.79A39.17,39.17,0,0,1,241,337.16c-1.85,2.85-3.86,5.6-6,8.25q-6.51,8.1-13.09,16.14c-.75.92-1.57,1.79-2.39,2.65-.62.64-.77.59-1.1-.17-.12-.29-.19-.59-.33-.87a2.52,2.52,0,0,1,.07-2.37,9.67,9.67,0,0,0,.37-7.71c-2.51-7.07-4.85-14.19-7.22-21.3q-8.81-26.49-17.66-53c-1-3.09-2.1-6.18-3.1-9.28-.74-2.32-2-3-4.11-1.47-.59.43-.8.2-1.06-.34-.49-1-.52-1,.18-1.87,4.27-5.17,8.52-10.36,12.84-15.49a11,11,0,0,1,11.63-3.86c5.31,1.23,9,4.59,11.46,9.27a26.28,26.28,0,0,1,2.83,16A40,40,0,0,1,222.09,280.91Zm5.37,59.24a.7.7,0,0,0,.6-.27,25.51,25.51,0,0,0,5.32-10.09,43.36,43.36,0,0,0,1-6.52,36.09,36.09,0,0,0-5.64-23.2,18.34,18.34,0,0,0-2.24-2.95,11.12,11.12,0,0,0-6.4-3.43c-2.38-.4-4.18.54-5.89,2a1.81,1.81,0,0,0-.55,2.23c1,2.92,1.93,5.86,2.89,8.8q3.84,11.69,7.66,23.37C225.33,333.43,226.39,336.79,227.46,340.15Zm-14.23-66.87a30.58,30.58,0,0,0-.41-4.87,25.65,25.65,0,0,0-1.81-6.6,7.91,7.91,0,0,0-1.89-2.68,5,5,0,0,0-7.12.13,2.15,2.15,0,0,0-.51,2.58c1.86,5.13,3.71,10.28,5.4,15.47.7,2.14,1.43,4.27,2.15,6.39.25.7.44.74,1,.24a5.13,5.13,0,0,0,1-1.39A18,18,0,0,0,213.23,273.28Z" transform="translate(-38.88 -46.08)"/><path class="cls-9" d="M308.13,121.12c.4.59.8,1.15.34,1.9a5.27,5.27,0,0,0-.46,3.85,77,77,0,0,0,2.75,9.8,76,76,0,0,1,3.53,18.66A42.39,42.39,0,0,1,311.76,172c-.07.2-.13.42-.18.59.18.3.41.21.61.16,4.71-1.19,8.27.53,11,4.34a28.44,28.44,0,0,1,3.23,6.06c3,7.57,5.93,15.19,8.75,22.85a27.06,27.06,0,0,0,1.06,2.56c.51,1,1.05,1.23,2.15.83.29-.1.56-.35.8,0s.49.67.22,1.09a14,14,0,0,1-.85,1.17c-3.5,4.32-6.89,8.73-10.24,13.16-.18.24-.29.56-.64.63-.84-.91-.89-1-.4-1.89a4.91,4.91,0,0,0,.49-2.69,22.38,22.38,0,0,0-1-5.32,234.3,234.3,0,0,0-9.94-27.18A14.66,14.66,0,0,0,314.8,185a4.13,4.13,0,0,0-4.63-1.39,7.49,7.49,0,0,0-3.11,1.94c-1.38,1.32-2.56,2.81-3.85,4.2a1.7,1.7,0,0,0-.23,1.84c2.3,8.06,4.88,16,7.49,24,1.89,5.74,3.74,11.49,5.61,17.23a13.12,13.12,0,0,0,.46,1.24c.5,1.11,1,1.26,2.08.66.18-.1.35-.23.53-.34.88,1.06.88,1.07.23,1.92L307,252.11a1.44,1.44,0,0,1-.3.24c-.38-.21-.5-.62-.73-.93a.8.8,0,0,1,0-1.08c1.52-2,1.38-4.18.74-6.43-1.46-5.18-3.29-10.24-4.9-15.37C297.93,216,293.92,203.48,290,191c-3.15-10-6.25-19.95-9.38-29.92-.17-.55-.34-1.1-.56-1.63a1.77,1.77,0,0,0-2.74-1.05l-.45.21c-.69-1-.71-1.06.06-1.92q5-5.58,10-11.13a12.48,12.48,0,0,1,1.67-1.77c.47.77.89,1.32.38,2.22a3.75,3.75,0,0,0,.08,3.09c1.27,3.85,2.52,7.71,3.8,11.56,1.76,5.27,3.33,10.6,5.22,15.82.54,1.48.62,1.51,1.81.52a12.26,12.26,0,0,0,3.78-5.5,30,30,0,0,0,1.47-12.38,66,66,0,0,0-3.55-16.5c-.5-1.41-1.12-2.78-1.72-4.15a6.5,6.5,0,0,0-.66-1.14,1.82,1.82,0,0,0-2.15-.88c-.29.09-.6.22-.83-.14a.83.83,0,0,1,0-1.09l1.56-1.8c3.19-3.66,6-7.64,9.26-11.23A3.29,3.29,0,0,1,308.13,121.12Z" transform="translate(-38.88 -46.08)"/><path class="cls-9" d="M273.33,284.81a37.3,37.3,0,0,1-1,9.6,17.33,17.33,0,0,1-5.93,9.64,9.18,9.18,0,0,1-7.62,1.8,14.16,14.16,0,0,1-7.78-4.2,46.22,46.22,0,0,1-6-7.71,111,111,0,0,1-13.86-30A178,178,0,0,1,226,244.38c-1-5.64-2-11.27-1.81-17.06a25.25,25.25,0,0,1,2.53-11,16.71,16.71,0,0,1,6.19-6.72,9.9,9.9,0,0,1,5.74-1.23,14.49,14.49,0,0,1,9.16,4,34.67,34.67,0,0,1,6.07,7.47,99.72,99.72,0,0,1,10.09,21.5,224.21,224.21,0,0,1,7.27,25.27A89.13,89.13,0,0,1,273.33,284.81Zm-9,4.83a30.87,30.87,0,0,0-.81-6.28,273.87,273.87,0,0,0-7.35-27.72c-2.78-9.1-5.84-18.11-9.48-26.92a56.29,56.29,0,0,0-4.82-10,11.62,11.62,0,0,0-1.8-2.1,3.5,3.5,0,0,0-5.81,2,17.68,17.68,0,0,0-.12,4.87,118.62,118.62,0,0,0,3.13,16.08c2.23,8.95,5,17.74,7.91,26.47,1.67,4.92,3.22,9.89,5.24,14.69a64.78,64.78,0,0,0,6,11.47,9.24,9.24,0,0,0,2,2.26,3.41,3.41,0,0,0,5.44-1.49A9,9,0,0,0,264.34,289.64Z" transform="translate(-38.88 -46.08)"/><path class="cls-9" d="M301.85,251.14a29.23,29.23,0,0,1-1.34,8.52A18,18,0,0,1,296.1,267a9.33,9.33,0,0,1-8.49,2.63c-3.17-.44-5.63-2.17-7.86-4.33a37.62,37.62,0,0,1-5.62-7.49,115,115,0,0,1-9.51-19.9,205.58,205.58,0,0,1-7.94-25.35,84.83,84.83,0,0,1-2.48-22.16,19.41,19.41,0,0,1,3.57-11.43,13.66,13.66,0,0,1,9.58-5.76,9.54,9.54,0,0,1,5.13,1,15.93,15.93,0,0,1,4.77,3.28,42.16,42.16,0,0,1,6.95,9.47,102.24,102.24,0,0,1,7.26,16.58,207.14,207.14,0,0,1,9.44,35.48A79.93,79.93,0,0,1,301.85,251.14Zm-8.79,2.75a33.26,33.26,0,0,0-.93-7.21c-1.48-7.59-3.68-15-5.86-22.39-2.71-9.22-5.67-18.36-9.23-27.3a100.54,100.54,0,0,0-4.89-11.28,16,16,0,0,0-2.35-3.51c-1.09-1.14-2.33-1.95-4-1.38s-2.18,2-2.34,3.52a19.85,19.85,0,0,0,.06,4.36,138,138,0,0,0,4.1,20.34q1.62,5.81,3.42,11.54c2.57,8.25,5.17,16.5,8.42,24.52a57.58,57.58,0,0,0,6,11.33,6.84,6.84,0,0,0,2.33,2.3,3.31,3.31,0,0,0,4.75-1.62A7.06,7.06,0,0,0,293.06,253.89Z" transform="translate(-38.88 -46.08)"/><path class="cls-10" d="M312.44,123.25a1.85,1.85,0,0,1,.29,2.26,4.41,4.41,0,0,0-.46,3,56.44,56.44,0,0,0,2.42,9,84.83,84.83,0,0,1,3.68,16.35,42.26,42.26,0,0,1-.94,16c-.3,1.08-.3,1.06-1.4,1.08-.91,0-1.82.07-2.8.11.45-1.45,1-2.79,1.32-4.21a46.64,46.64,0,0,0-.12-20.06c-1-4.53-2.32-8.95-3.56-13.41-.45-1.66-.84-3.33-1.28-5a2.46,2.46,0,0,1,.68-2.75C311,124.92,311.68,124.09,312.44,123.25Z" transform="translate(-38.88 -46.08)"/><path class="cls-10" d="M317.74,233.39a33.69,33.69,0,0,1-1.64-4.49c-1.4-4.59-3-9.12-4.43-13.7-1.55-4.91-2.9-9.89-4.35-14.83-.86-3-1.7-5.93-2.64-8.86a1.85,1.85,0,0,1,.56-2.21c.84-.78,1.58-1.66,2.4-2.45a9.8,9.8,0,0,1,2.83-1.93,3,3,0,0,1,3.71.92c-2.91,1.43-4.66,4.08-6.79,6.33a1.4,1.4,0,0,0-.29,1.55c2.57,7.92,5.1,15.86,7.65,23.78,1.34,4.15,2.63,8.32,4.09,12.43A2.52,2.52,0,0,1,317.74,233.39Z" transform="translate(-38.88 -46.08)"/><path class="cls-10" d="M292.87,146c.6.79.92,1.41.41,2.34a3.45,3.45,0,0,0,.05,2.83c1.14,3.47,2.29,7,3.42,10.43q1.86,5.72,3.71,11.44c.54,1.65.46,1.89-1.1,3.09a15.82,15.82,0,0,1-1.15-3.07c-2.2-7.76-5.33-15.22-7.6-23a1.76,1.76,0,0,1,.43-2.11A23.67,23.67,0,0,0,292.87,146Z" transform="translate(-38.88 -46.08)"/><path class="cls-10" d="M323.87,175.91a11,11,0,0,1,3.11,2.83,28.56,28.56,0,0,1,3.89,6.89q4.23,10.35,8,20.86c.12.36.37.69,0,1.1-.74.87-1.29.86-1.78-.18a52.93,52.93,0,0,1-2.18-5.82,186.92,186.92,0,0,0-7.1-18.38,46.89,46.89,0,0,0-3.51-6.21A1.71,1.71,0,0,1,323.87,175.91Z" transform="translate(-38.88 -46.08)"/><path class="cls-10" d="M310.93,254.29a.76.76,0,0,1-.59-.45c-1-1.49-1-1.48.12-2.93,3.67-4.84,7.5-9.57,11.29-14.33.9-1.12,1.19-1.06,1.95.14.45.71.09,1.12-.29,1.63-2.74,3.68-5.63,7.24-8.48,10.83C313.59,250.87,312.27,252.57,310.93,254.29Z" transform="translate(-38.88 -46.08)"/><path class="cls-10" d="M246,297.32c1.65,2.52,3.64,4.5,4.3,7.41a57.37,57.37,0,0,1,1.75,13.74,37.61,37.61,0,0,1-4.21,16.64,77.07,77.07,0,0,1-7.13,10.81c-2.46,3.28-5.06,6.46-7.71,9.59-2.42,2.86-4.58,5.94-7.07,8.74-.68.76-1.35,1.52-2.06,2.24-.54.55-.74.5-1-.17-.11-.24-.17-.51-.29-.74a1.52,1.52,0,0,1,.31-1.9c3.21-3.87,6.42-7.74,9.57-11.66a99.58,99.58,0,0,0,10.32-15,48.07,48.07,0,0,0,5.55-15.36,46.24,46.24,0,0,0-.64-18c-.38-1.63-.89-3.22-1.41-4.82A2.72,2.72,0,0,1,246,297.32Z" transform="translate(-38.88 -46.08)"/><path class="cls-10" d="M221.61,252.61a9.19,9.19,0,0,1,2.06,2,25.07,25.07,0,0,1,5.26,14,31.66,31.66,0,0,1-1.18,10.46c-.16.6-.34.91-1,.84a25.6,25.6,0,0,0-2.65,0C227.65,270.32,226.26,261.33,221.61,252.61Z" transform="translate(-38.88 -46.08)"/><path class="cls-10" d="M228.41,337.59c-1.22-3.7-2.32-7.18-3.51-10.63-2.34-6.75-4.74-13.47-7.1-20.21-.91-2.58-1.76-5.17-2.68-7.74a1.14,1.14,0,0,1,.33-1.4,8.81,8.81,0,0,1,4-2.2,3.44,3.44,0,0,1,2.45.25c-.09.38-.46.35-.71.43a6.58,6.58,0,0,0-2.69,1.84,1.93,1.93,0,0,0-.48,2.17c1.17,3.42,2.28,6.86,3.4,10.3,2.66,8.12,5.29,16.26,8,24.37C229.83,336,229.12,336.63,228.41,337.59Z" transform="translate(-38.88 -46.08)"/><path class="cls-10" d="M209.77,281.42c-.4-.22-.43-.66-.54-1-1.31-4.2-3-8.28-4.39-12.45-.66-1.95-1.39-3.89-2.07-5.84-.39-1.12-.37-1.13.56-1.88,1.74-1.39,2.89-1.43,4.77,0a9.19,9.19,0,0,0-2,1.63,1.65,1.65,0,0,0-.35,1.9c1.56,4.35,3.08,8.71,4.61,13.08C211.16,279.13,211.14,279.28,209.77,281.42Z" transform="translate(-38.88 -46.08)"/><path class="cls-10" d="M261.51,307.5c.5-.12,1-.21,1.5-.37a15.63,15.63,0,0,0,9.3-7.56,25.63,25.63,0,0,0,3-12.33,97.89,97.89,0,0,0-3-24.22c-.69-2.83-1.35-5.66-2.21-8.44a.58.58,0,0,1,0-.53c.39.11.41.51.59.78a30.24,30.24,0,0,1,3.95,10,97.64,97.64,0,0,1,3,24.35,35.83,35.83,0,0,1-1.16,8.24,18,18,0,0,1-4.19,7.41c-2.69,3.07-6,3.93-9.92,3.11a9,9,0,0,1-.89-.25Z" transform="translate(-38.88 -46.08)"/><path class="cls-10" d="M249.74,213c4.16,3,7.72,6.38,8.63,11.78A50.83,50.83,0,0,0,249.74,213Z" transform="translate(-38.88 -46.08)"/><path class="cls-10" d="M260.28,293.92a6,6,0,0,1-3-2.43,29.7,29.7,0,0,1-2.55-4.32,104.2,104.2,0,0,1-4.07-9.62c-2-5.13-4-10.25-5.56-15.55-1.4-4.82-2.76-9.66-3.94-14.54-1-4.07-2.21-8.08-3.18-12.15a85.89,85.89,0,0,1-2.05-11.71,14,14,0,0,1,0-3,4,4,0,0,1,1.12-2.48,1.89,1.89,0,0,1,2.76.31.39.39,0,0,1,0,.48c-1.86,2.52-1.44,5.39-1.1,8.17a126.88,126.88,0,0,0,3.45,16.7c2.37,9.13,5.21,18.12,8.25,27.05,1.34,3.92,2.63,7.86,4.19,11.7A70.47,70.47,0,0,0,260,293.24C260,293.39,260.1,293.54,260.28,293.92Z" transform="translate(-38.88 -46.08)"/><path class="cls-10" d="M302.17,233.66c.18,0,.21.17.24.28,1,3,2,6,2.84,9.09a9.16,9.16,0,0,1-.6,7.31,1.46,1.46,0,0,0,0,1.51c.25.47.47,1,.76,1.39a4.25,4.25,0,0,1,.62,3,23.94,23.94,0,0,1-2.78,9.3,18.57,18.57,0,0,1-2.91,3.75,9.14,9.14,0,0,1-7.88,2.57,9.36,9.36,0,0,1-3.11-.78c0-.39.21-.34.36-.36,6.07-.84,10.1-4.28,12.36-9.85a27.24,27.24,0,0,0,1.72-10.11,73.74,73.74,0,0,0-1.09-12.23q-.33-2.16-.63-4.32C302.05,234.05,302,233.82,302.17,233.66Z" transform="translate(-38.88 -46.08)"/><path class="cls-10" d="M289.18,193a73.16,73.16,0,0,0-9.9-15.09,2.12,2.12,0,0,1,1.17.66,30.12,30.12,0,0,1,6.92,8.61A21.12,21.12,0,0,1,289.18,193Z" transform="translate(-38.88 -46.08)"/><path class="cls-10" d="M288,255.9a12.5,12.5,0,0,1-3.64-4.36,85.87,85.87,0,0,1-5-11.22A229.23,229.23,0,0,1,269.2,208c-1-4.6-2.45-9.11-3.27-13.76-.42-2.39-.66-4.8-.86-7.22a7.93,7.93,0,0,1,.56-3.76,1.81,1.81,0,0,1,3-.89c.73.49.78.83.21,1.55a4.68,4.68,0,0,0-1,2.42,28.14,28.14,0,0,0,.46,7.77,180.85,180.85,0,0,0,6.26,26.07q3.54,11.52,7.58,22.85a81.55,81.55,0,0,0,5.16,11.58C287.53,255.06,287.74,255.48,288,255.9Z" transform="translate(-38.88 -46.08)"/><path class="cls-11" d="M373.64,309.28a4.64,4.64,0,0,1-2.71-2.22,114.34,114.34,0,0,1-4.47-11.44c-.72-2-1.35-4-2.09-6a9.62,9.62,0,0,1-.55-4.28c.38-4.31.56-8.62.8-12.94.12-2.15.29-4.31.49-6.46a3.82,3.82,0,0,1,4.08-3.16c.45.06.74.2.49.77-1.55,3.63-1.91,7.52-2.11,11.38-.26,5.11-.41,10.23-.41,15.34a8.12,8.12,0,0,0,.49,2.84c1.75,4.85,3.54,9.69,5.49,14.46A4.51,4.51,0,0,1,373.64,309.28Z" transform="translate(-38.88 -46.08)"/><path class="cls-11" d="M374.19,310.26a4.7,4.7,0,0,0,2.7,2.05c.53.1.46.48.32.81a2.72,2.72,0,0,1-1.25,1.32,5.09,5.09,0,0,1-3.79.73c-.71-.17-1.11-.11-1.5.56a4.56,4.56,0,0,1-2.61,1.9,3.73,3.73,0,0,1-2.57-.19c-.43-.16-.55-.46-.17-.79a14.63,14.63,0,0,0,2.16-2.49.78.78,0,0,1,.77-.38,2.27,2.27,0,0,0,.52,0,5.84,5.84,0,0,0,4.85-2.75A8.76,8.76,0,0,1,374.19,310.26Z" transform="translate(-38.88 -46.08)"/><path class="cls-11" d="M356.54,281.23a18.4,18.4,0,0,1-2.77-2.56,66.82,66.82,0,0,1-5-5.72c-.85-1.05-.79-1.2.49-1.72A6.44,6.44,0,0,1,350,271c1.12-.29,1.15-.26.92.92a3.88,3.88,0,0,0,.85,3.21,40,40,0,0,0,4.13,4.79C356.17,280.21,356.67,280.45,356.54,281.23Z" transform="translate(-38.88 -46.08)"/><path class="cls-11" d="M326,305.17a1.37,1.37,0,0,1,.37,1.16c.27,4.75.57,9.5.54,14.27a22.76,22.76,0,0,1-1.07,7.42,2.41,2.41,0,0,0,.66,2.77c.52.46.35.79,0,1.22a9.45,9.45,0,0,1-2,2.09c-2.65,1.9-5.52,3.14-8.88,2.7a.94.94,0,0,0-1.07.52,6.12,6.12,0,0,1-3.35,2.65c-.84.29-1,.14-1-.73a7.61,7.61,0,0,1,.59-3.36.76.76,0,0,1,.93-.47,11.66,11.66,0,0,0,12.6-7.87,32.66,32.66,0,0,0,1.55-12.9c-.09-1.63-.22-3.26-.29-4.89A13.5,13.5,0,0,1,326,305.17Z" transform="translate(-38.88 -46.08)"/><path class="cls-11" d="M318.13,292.9a38.15,38.15,0,0,1,6.65,9,5.37,5.37,0,0,1-2.44-1.65,15.8,15.8,0,0,1-2.09-3.21C319.53,295.69,318.87,294.29,318.13,292.9Z" transform="translate(-38.88 -46.08)"/><path class="cls-11" d="M306.8,292.74c-1.79,1.13-1.84,1.16-1.12,3.09,3.66,9.83,6.43,20,9.76,29.91.28.83.59,1.66.85,2.5s0,1-1,1.32c-.67.24-.85-.1-1-.62-2-6.4-4.39-12.65-6.2-19.11-1.58-5.65-3.34-11.24-5-16.85-.42-1.42-.09-1.77,1.34-1.51A3.93,3.93,0,0,1,306.8,292.74Z" transform="translate(-38.88 -46.08)"/><path class="cls-11" d="M340.88,328.63a6,6,0,0,1-2.52-.58c-1.32-.72-1.23-.47-2,.56-.41.58-.83,1.15-1.28,1.68a6.15,6.15,0,0,1-2.91,2c-.68.21-1,0-.77-.71a21,21,0,0,0,.93-3.85c.05-.44.31-.55.75-.48a26.45,26.45,0,0,0,3.56.18,8.67,8.67,0,0,0,2.43-.55c.62-.17.74-.56.45-1.11-.21-.39-.4-.78-.62-1.17a30.09,30.09,0,0,1-3.1-8.82c-.11-.5-.13-.83.47-1,2.15-.52,4.15-1.5,6.26-2.12.33-.1.71-.36,1,0a2.39,2.39,0,0,1,.6,1.43c0,.32-.35.35-.58.44-1.24.48-2.48.93-3.71,1.42s-1.2.49-.94,1.63a32.83,32.83,0,0,0,3.41,9.27c.68,1.17.51,1.53-.88,1.72A4.89,4.89,0,0,1,340.88,328.63Z" transform="translate(-38.88 -46.08)"/><path class="cls-11" d="M336.59,276.92a1.31,1.31,0,0,1,.15.82,9.3,9.3,0,0,0,1.1,4.44c3.32,6.78,7.13,13.28,11.07,19.7a116.82,116.82,0,0,0,7,10.73c.08.1.17.21,0,.42a7.73,7.73,0,0,1-1.78-1.65,69.45,69.45,0,0,1-6.25-8.68c-3.47-5.67-7.06-11.28-10.11-17.2a38.85,38.85,0,0,1-2.84-6.68c-.35-1.15-.34-1.23.71-1.69A1.61,1.61,0,0,1,336.59,276.92Z" transform="translate(-38.88 -46.08)"/><path class="cls-11" d="M352.09,324.07c.08-1.45.15-2.77.22-4.08a.5.5,0,0,1,.6-.52l1.19,0a6.66,6.66,0,0,0,5.12-2c.46-.46.74-.45,1.19,0s1.11.87,1.65,1.32.48.65-.06,1a5.33,5.33,0,0,1-2.1.74,9,9,0,0,1-3,0,.89.89,0,0,0-1.11.61,5.13,5.13,0,0,1-3,2.8A5.39,5.39,0,0,1,352.09,324.07Z" transform="translate(-38.88 -46.08)"/><path class="cls-11" d="M332.72,292.32c.34.56.7,1.09,1,1.65.63,1.16,1.24,2.34,1.85,3.5a3.62,3.62,0,0,1,.38,1.12c.48,2.77,1,5.54,1.48,8.31.23,1.24.24,1.24-1,1.65l-.26.07c-1,.32-1,.32-1.27-.77-.16-.73-.32-1.46-.47-2.2-.81-4.19-1.34-8.42-1.91-12.65A.57.57,0,0,1,332.72,292.32Z" transform="translate(-38.88 -46.08)"/><path class="cls-9" d="M169.93,159.4c.38-4.06.6-8,.81-12,.07-1.37.17-2.73.28-4.09a2.35,2.35,0,0,0-.5-1.72c-3.1-4.07-6.14-8.18-9.48-12.06a24.21,24.21,0,0,0-3-3c-.75-.61-1.6-1.08-2.34-1.73a4.93,4.93,0,0,0-2.66-1.09,1.81,1.81,0,0,1-.95-.33,1.78,1.78,0,0,1,.71-1.27,5.38,5.38,0,0,1,4.26-1.43,9,9,0,0,1,3.37.6c.63.29.9.16,1.1-.54.61-2.11,2.24-3.19,4.21-3.85a2.93,2.93,0,0,1,.78-.1c1,0,1.16.11.82,1.07a3.61,3.61,0,0,0-.08,2.34,15.67,15.67,0,0,0,.73,2,42.69,42.69,0,0,0,3.74,6.54c3.5,4.87,6.84,9.86,10.48,14.63,1.08,1.4,2.15,2.8,3.23,4.19.26.34.54.65.94,1.13a17.66,17.66,0,0,0-.34-4.22q-1.28-8.76-2.62-17.52a48.26,48.26,0,0,0-1.52-7.24,20.84,20.84,0,0,0-1.15-3,4.52,4.52,0,0,0-2.32-2.41c-.71-.29-.73-.68-.11-1.15a5.37,5.37,0,0,1,5.57-1,1,1,0,0,0,1.39-.39,5.21,5.21,0,0,1,4.18-2.19,2.88,2.88,0,0,1,2.08.72c.35.32.45.68,0,1-1.53,1-1.79,2.56-2,4.14a33.9,33.9,0,0,0,.08,7.4q1,9.6,2.07,19.2c.7,6.31,1.57,12.6,2.47,18.88.11.79.19,1.58.32,2.36a.8.8,0,0,1-.61,1c-1,.33-1.91.68-2.86,1a1.17,1.17,0,0,1-1.38-.5c-1-1.26-2.11-2.5-3.14-3.76l-10.15-12.39a5.65,5.65,0,0,1-.34-.56,2.2,2.2,0,0,0-.42,1.51c-.29,7.23-1.05,14.42-1.94,21.6a1.13,1.13,0,0,1-.79,1.08c-3,1.06-2.11,1.43-3.92-1.1l-10.44-14.5q-6-8.37-12.06-16.75a23.54,23.54,0,0,0-5.5-5.85,17,17,0,0,0-5.37-3c-.62-.16-.78-.6-.53-1.24a3.29,3.29,0,0,1,1.73-1.75,8.43,8.43,0,0,1,5.92-.65c1.05.27,1,.24,1.5-.69a6.62,6.62,0,0,1,4.74-3.67c1-.22,1.25.06.93,1a7.14,7.14,0,0,0,.12,4.17,24.67,24.67,0,0,0,3,7c3.11,5,6.54,9.74,9.9,14.55q3,4.28,6,8.53C169.17,158.72,169.32,159.16,169.93,159.4Z" transform="translate(-38.88 -46.08)"/><path class="cls-9" d="M245.41,121c.3.19.65.06,1,.07a8.62,8.62,0,0,1,5.31,1.73,7.87,7.87,0,0,0,4.08,2c.58,0,.55.5.49.89a17.88,17.88,0,0,0,0,3.43,26.85,26.85,0,0,0,1.88,8.62,10.91,10.91,0,0,0,3,4.27,8.35,8.35,0,0,0,4.46,1.82c.7.08,1.15-.07,1.34-.87a5,5,0,0,1,1.51-2.45,4.47,4.47,0,0,1,3.66-1.19,2.58,2.58,0,0,1,2,3.78,6.41,6.41,0,0,1-2.35,2.63,11.5,11.5,0,0,1-7.72,1.74,18.3,18.3,0,0,1-3.1-.62,12.75,12.75,0,0,1-7.57-5.63,45.9,45.9,0,0,1-2.81-5.09c-.84-1.76-1.68-3.5-2.58-5.22a14.14,14.14,0,0,0-3.28-4.28c-2.21-1.88-4.53-1.32-6.77-.14-.43.22-.32.57-.2.92l1.15,3.37c1.17,3.42,2.35,6.84,3.5,10.27a6.07,6.07,0,0,0,3.74,4.16c.6.22.66.49.18.94a4.82,4.82,0,0,1-4.67,1.19,1.91,1.91,0,0,0-2.15.61,4.5,4.5,0,0,1-4,1.55c-.84-.13-.88-.21-.5-1a4.88,4.88,0,0,0,.32-3.48c-1.1-3.95-2.21-7.89-3.57-11.77q-3.76-10.72-6.94-21.66c-.82-2.84-2-5.56-3-8.32a5.18,5.18,0,0,0-2.46-2.83c-.79-.41-.78-.62-.14-1.24a2.55,2.55,0,0,1,1.29-.62,4.8,4.8,0,0,1,2.23,0c.73.21,1.26.16,1.64-.6a3,3,0,0,1,1.37-1.22,20,20,0,0,1,12.57-2A13.32,13.32,0,0,1,244,97.72c1.12.87,2.16,1.82,3.19,2.79a10,10,0,0,0,3.49,2.33c.53.17.73.44.46,1a10.47,10.47,0,0,0-.77,4.79A33.24,33.24,0,0,1,250,113a11.54,11.54,0,0,1-4.44,7.7A.32.32,0,0,0,245.41,121Zm-2.44-7.7a25.68,25.68,0,0,0-.5-4.39,18.71,18.71,0,0,0-3.66-8.25,6.71,6.71,0,0,0-6-2.49,12.09,12.09,0,0,0-3.1.61c-.89.31-.9.3-.62,1.15q2.88,8.93,5.51,17.92c.37,1.27.81,2.52,1.18,3.78.15.5.43.65.88.52,2-.59,3.9-1.33,5.05-3.3A11.37,11.37,0,0,0,243,113.31Z" transform="translate(-38.88 -46.08)"/><path class="cls-9" d="M216,156.6a12.53,12.53,0,0,1-6.67-1.79,25.88,25.88,0,0,1-9.9-10.93c-.64-1.26-1.22-2.54-1.84-3.81-.28-.56-.57-1.1-.87-1.64a5.66,5.66,0,0,0-3.13-2.7c-.9-.31-.89-.35-.41-1.2a3.62,3.62,0,0,1,.2-.33,5.71,5.71,0,0,0,.87-4.55,37.38,37.38,0,0,1-.64-10,23.84,23.84,0,0,1,2.95-10.34A9.88,9.88,0,0,1,208,104.43a16.06,16.06,0,0,1,6.65,3.66,30.71,30.71,0,0,1,7.78,10.75c.15.32.29.64.43,1a6.29,6.29,0,0,0,3.68,3.59c.89.31,1,.56.49,1.19a6.68,6.68,0,0,0-1.1,5.77,44.92,44.92,0,0,1,1,11,22.28,22.28,0,0,1-2.1,9A10.33,10.33,0,0,1,216,156.6Zm4.78-11.28a34.38,34.38,0,0,0-.89-7.07,98.82,98.82,0,0,0-8.24-23.93,29.56,29.56,0,0,0-3.23-5.3,8.29,8.29,0,0,0-2.1-2,3.84,3.84,0,0,0-5.86,2.51c-.11.61-.21,1.21-.3,1.82a26,26,0,0,0,.37,8.16A89,89,0,0,0,208.64,145a34.1,34.1,0,0,0,3.82,6.17,7.65,7.65,0,0,0,2.71,2.28,3.26,3.26,0,0,0,4.79-2,6.85,6.85,0,0,0,.28-1A23.86,23.86,0,0,0,220.73,145.32Z" transform="translate(-38.88 -46.08)"/><path class="cls-9" d="M296,124.5a6.57,6.57,0,0,1,2.93,2.27c.12.19.26.36.37.55.74,1.27.58,1.55-.91,1.54-1.67,0-3.34,0-5,.11a27.6,27.6,0,0,0-11.48,3.72c-1.27.71-2.52,1.46-3.79,2.17a16.69,16.69,0,0,1-3.4,1.44,7.52,7.52,0,0,1-4.69,0,1.15,1.15,0,0,0-1.46.41,6.8,6.8,0,0,1-2.72,2.05,6.22,6.22,0,0,1-1,.32c-1.13.2-1.36-.07-1-1.14a8.37,8.37,0,0,0,.29-4.57,132.47,132.47,0,0,0-4.46-15.5,5.82,5.82,0,0,0-3.59-3.64c-.94-.37-1-.43-.57-1.32a8.75,8.75,0,0,0,.46-5.45,38.33,38.33,0,0,0-6.3-15c-.38-.54-.83-1-1.26-1.54-.59-.69-.59-.81.22-1.28a6,6,0,0,1,4-.69,4.47,4.47,0,0,1,1,.25.88.88,0,0,0,1.22-.36,7.52,7.52,0,0,1,4.49-2.59c.81-.19,1,0,.88.76a15.6,15.6,0,0,0,.3,5.78,56.63,56.63,0,0,0,2.64,10.1c.4,1,.83,1.95,1.3,2.89a5.38,5.38,0,0,0,3,3c.58.19.65.58.37,1-1.21,2-1.06,4-.48,6.13a123.73,123.73,0,0,0,4.49,13.69c.12.29.24.57.35.86a.64.64,0,0,0,.95.4l.5-.19c4.22-1.66,8.45-3.31,12.67-5a23.35,23.35,0,0,0,5.39-3.06,19.79,19.79,0,0,0,3.46-3.26c.75-.92,1-.85,1.46.29a5.08,5.08,0,0,1-.07,3.5C296.4,123.55,296.2,123.94,296,124.5Z" transform="translate(-38.88 -46.08)"/><path class="cls-9" d="M265.34,84.57a4.07,4.07,0,0,1,1.85.33,1.28,1.28,0,0,0,1.64-.3,10.74,10.74,0,0,1,5.41-2.6,11,11,0,0,1,8.17,1.87A15.87,15.87,0,0,1,287,88.72c1.1,1.75,2.13,3.55,3.33,5.24a6,6,0,0,0,2.57,2.4c.41.16.68.43.38.92-1.06,1.74-.91,3.64-.65,5.53a42.36,42.36,0,0,1,.68,7.37,16.91,16.91,0,0,1-1.61,7.69,10.87,10.87,0,0,1-7.93,5.57,2.53,2.53,0,0,1-1.31,0c-1.05-.4-1.59.06-2.17.87a4.27,4.27,0,0,1-3.88,1.87,2.94,2.94,0,0,1-.78-.11c-.36-.11-.5-.35-.26-.7,1.22-1.77,1-3.7.56-5.61a180.84,180.84,0,0,0-5.24-18.43c-.89-2.68-1.73-5.37-2.83-8a17.25,17.25,0,0,0-5.32-7.13c-.54-.42-.54-.62,0-1A4.63,4.63,0,0,1,265.34,84.57Zm23,30.12a24.76,24.76,0,0,0-.71-5.22,106.19,106.19,0,0,0-3-11.22,54.47,54.47,0,0,0-3.46-8.71,12.37,12.37,0,0,0-2.32-3.19,5,5,0,0,0-4.47-1.45c-1.18.22-1.41.59-1.07,1.75.53,1.82,1.08,3.63,1.68,5.43q4.06,12,7.91,24.1c.33,1,.68,2.09,1.06,3.13s1,1.3,2.05.88a3.06,3.06,0,0,0,1.59-1.52A8.16,8.16,0,0,0,288.32,114.69Z" transform="translate(-38.88 -46.08)"/><path class="cls-11" d="M192.38,136.1a8.68,8.68,0,0,1,2.67,1.6,1.4,1.4,0,0,1,.38,1.08c.41,3.42.83,6.82,1.21,10.24.41,3.72.94,7.43,1.49,11.14.25,1.65.46,3.31.66,5,.14,1.14.12,1.15-.92,1.54-.74.28-1.51.48-2.24.8a1.26,1.26,0,0,1-1.71-.49c-.23-.31-.58-.55-.68-1,.34-.45.89-.53,1.35-.76,1-.52,1.15-.69,1-1.87-.37-3.06-.73-6.12-1.15-9.18-.58-4.15-1.1-8.3-1.47-12.47-.11-1.23-.27-2.45-.41-3.68C192.51,137.5,192.46,136.93,192.38,136.1Z" transform="translate(-38.88 -46.08)"/><path class="cls-11" d="M177.16,151.41l2.43,3.09a1.68,1.68,0,0,1,.16,1.28c-.36,5.23-.8,10.45-1.5,15.65,0,.26-.06.53-.1.79-.12.69.1,1.61-.41,2a10.07,10.07,0,0,1-2.52,1.12.57.57,0,0,1-.71-.2c-.24-.31-.48-.62-.71-1-.54-.8-.56-.83.15-1.47a2.54,2.54,0,0,0,.78-1.62c.53-3.35.94-6.72,1.28-10.09q.44-4.22.89-8.41C176.93,152.3,177,152,177.16,151.41Z" transform="translate(-38.88 -46.08)"/><path class="cls-11" d="M169,156.52c-.48-.19-.65-.62-.91-1a227.25,227.25,0,0,1-14.37-21.72,28.29,28.29,0,0,1-2.68-6c-.41-1.38-.34-1.52,1-2.09a4.31,4.31,0,0,1,1.66-.4c.51,0,.76.25.59.75a9,9,0,0,0,.46,5.94,33.75,33.75,0,0,0,4.54,8.63c3.12,4.49,6.23,9,9.39,13.46A2.14,2.14,0,0,1,169,156.52Z" transform="translate(-38.88 -46.08)"/><path class="cls-11" d="M185,145.29c-1.34-1.79-2.53-3.31-3.67-4.87-3.83-5.27-7.67-10.55-11-16.13a19.88,19.88,0,0,1-1.76-3.55c-.17-.51-.13-.84.38-1.08a4.5,4.5,0,0,1,2.53-.6c.38,0,.76.17.5.67-.84,1.6-.28,3.1.39,4.55a48.82,48.82,0,0,0,4.32,7.57q3.93,5.57,7.94,11.06A2.56,2.56,0,0,1,185,145.29Z" transform="translate(-38.88 -46.08)"/><path class="cls-11" d="M193.83,112c-1.78,3.33-1.49,6.83-1.42,10.3a65.21,65.21,0,0,0,.71,7.77,4.6,4.6,0,0,1-1.06,3.6c-.1-.62-.23-1.24-.29-1.87-.38-4-.87-7.89-1.1-11.85a18.42,18.42,0,0,1,.16-4.75,5.54,5.54,0,0,1,.8-2.09A2.11,2.11,0,0,1,193.83,112Z" transform="translate(-38.88 -46.08)"/><path class="cls-11" d="M273.18,137.94a.79.79,0,0,1,.55-.35,26.66,26.66,0,0,0,8.7-4.07,22.23,22.23,0,0,1,8.91-3.49,28.78,28.78,0,0,1,7.61-.31c-.31.85-.71,1.46-1.7,1.54-4.6.37-8.66,2.24-12.56,4.55a28,28,0,0,1-4.94,2.52,8.5,8.5,0,0,1-5.32.28A2.26,2.26,0,0,1,273.18,137.94Z" transform="translate(-38.88 -46.08)"/><path class="cls-11" d="M269.06,108.62a5.64,5.64,0,0,1-2.91-1.87,10.56,10.56,0,0,1-2.37-4.08,46.87,46.87,0,0,1-2.56-12.51.89.89,0,0,1,.57-1,7.36,7.36,0,0,1,2.14-.65c.42,0,.66,0,.63.55-.34,7,1.63,13.38,4.46,19.61Z" transform="translate(-38.88 -46.08)"/><path class="cls-11" d="M269,108.64a6,6,0,0,0,3,2.45.46.46,0,0,1,.3.63.66.66,0,0,1-.11.24c-1.33,2.14-1,4.37-.39,6.64.91,3.22,1.85,6.43,3,9.59.1.29.46.67,0,.94a3.21,3.21,0,0,1-1.59.56c-.18,0-.24-.21-.3-.38a104.41,104.41,0,0,1-4.46-14.1,10.94,10.94,0,0,1,.57-6.59Z" transform="translate(-38.88 -46.08)"/><path class="cls-11" d="M297.22,124.05c1-1,1.87-1.89,2.67-2.86.37-.46.65-.22.89.19a5,5,0,0,1-.69,5.31A6,6,0,0,0,297.22,124.05Z" transform="translate(-38.88 -46.08)"/><path class="cls-11" d="M268.81,137.36a6.25,6.25,0,0,1,2,.61c-.54.12-1,.25-1.39.32C268.68,138.41,268.68,138.39,268.81,137.36Z" transform="translate(-38.88 -46.08)"/><path class="cls-11" d="M248.18,119.83a11.59,11.59,0,0,0,2.93-6.75,37.33,37.33,0,0,0,.07-4,7.8,7.8,0,0,1,.65-3.73,4,4,0,0,0,.21-2l1.94,1.24a1,1,0,0,1,.43.77,31.66,31.66,0,0,1-.46,11.68,11.62,11.62,0,0,1-1.69,3.42c-.3.47-.59.71-1.17.36A13.65,13.65,0,0,0,248.18,119.83Z" transform="translate(-38.88 -46.08)"/><path class="cls-11" d="M247,144.17a2.59,2.59,0,0,1-2.74-1.7c-.65-1.74-1.26-3.48-1.81-5.25q-1.36-4.35-2.75-8.7c-.44-1.4-.37-1.5,1.06-1.87a3.17,3.17,0,0,1,3.63,1.16c-.52.23-1,.41-1.44.62-1.07.52-1.11.59-.73,1.7,1.1,3.21,2.22,6.41,3.32,9.62C246.05,141.17,246.5,142.59,247,144.17Z" transform="translate(-38.88 -46.08)"/><path class="cls-11" d="M265.64,149l2.48-.6a12.38,12.38,0,0,0,5.49-3,4.72,4.72,0,0,0,1.65-3.07c.06-.76.45-.85,1-.81a2.61,2.61,0,0,1,2.3,3.52,5.91,5.91,0,0,1-2.4,2.89c-2.7,1.89-5.72,2.08-8.85,1.64a9.5,9.5,0,0,1-1.28-.3C266,149.27,265.86,149.16,265.64,149Z" transform="translate(-38.88 -46.08)"/><path class="cls-11" d="M257.4,126.39a18.84,18.84,0,0,0,3,1.1c.35,0,.26.38.24.64a27,27,0,0,0,1.47,11c.3.94.77,1.83,1.23,2.89a3.21,3.21,0,0,1-1.48-1,11.6,11.6,0,0,1-2.56-3.65A25.75,25.75,0,0,1,257.4,126.39Z" transform="translate(-38.88 -46.08)"/><path class="cls-11" d="M242.11,148.72a9.09,9.09,0,0,0,5.46-1.92c.61-.47,1-.54,1.57,0a3.59,3.59,0,0,0,1.4.72c.59.2.47.52.17.88a3.39,3.39,0,0,1-1.41,1,5.32,5.32,0,0,1-3.62.21,1.33,1.33,0,0,0-1.59.46,5.11,5.11,0,0,1-3.81,1.82,3.09,3.09,0,0,1-.91-.14.37.37,0,0,1-.27-.51,9.18,9.18,0,0,1,.86-1.75A2,2,0,0,1,242.11,148.72Z" transform="translate(-38.88 -46.08)"/><path class="cls-11" d="M236.67,100.35a23.29,23.29,0,0,0-3.41,1c.38,1.24.75,2.49,1.16,3.73,1.52,4.55,2.84,9.17,4.23,13.76.06.21.1.43.17.64.18.46,0,.71-.42.94-1.18.6-1.31.58-1.77-.67-1.63-4.43-3-8.94-4.44-13.43-.57-1.8-1.17-3.6-1.74-5.41-.33-1.07-.25-1.23.76-1.5A7,7,0,0,1,236.67,100.35Z" transform="translate(-38.88 -46.08)"/><path class="cls-11" d="M215.86,157.62a11.76,11.76,0,0,0,5.95-2c2.75-1.71,4.17-4.33,5.08-7.32a34.22,34.22,0,0,0,.93-14.79c-.25-1.83-.53-3.66-.79-5.49a3.92,3.92,0,0,1,.73-2.79c.45,1.29.79,2.37,1.2,3.42A36.48,36.48,0,0,1,231.1,146,19.58,19.58,0,0,1,229,153a10.27,10.27,0,0,1-7,5.55A7.77,7.77,0,0,1,215.86,157.62Z" transform="translate(-38.88 -46.08)"/><path class="cls-11" d="M217.5,109.34a24.81,24.81,0,0,1,9.41,12.83,6.31,6.31,0,0,1-3.08-3.46A30.16,30.16,0,0,0,217.5,109.34Z" transform="translate(-38.88 -46.08)"/><path class="cls-11" d="M215.17,151.32a2.58,2.58,0,0,1-1.48-1,19.52,19.52,0,0,1-3.36-4.89,92.44,92.44,0,0,1-8.18-23.68,24.84,24.84,0,0,1-.45-8.93,10.36,10.36,0,0,1,1.05-3.12c1-1.8,2.1-2,3.76-.59-2,1.57-2,3.87-2.14,6.09a39.64,39.64,0,0,0,1,9.71,88.38,88.38,0,0,0,7.41,22C213.56,148.35,214.36,149.82,215.17,151.32Z" transform="translate(-38.88 -46.08)"/><path class="cls-11" d="M293,119.24c-.21-.33,0-.56.08-.79a24.68,24.68,0,0,0,.82-14.43,10.48,10.48,0,0,1,.31-6.48,1.12,1.12,0,0,0-.44-1.49,7.41,7.41,0,0,0-.89-.56,4.93,4.93,0,0,1-2.13-2.29,29.84,29.84,0,0,0-3.87-6.58c0-.05,0-.16,0-.38A13,13,0,0,1,290,89.05a34.65,34.65,0,0,1,2.5,3.73c.71,1.12,1.42,2.23,2.15,3.33a5.81,5.81,0,0,0,2.64,2.5c.34.14.67.39.42.8-1.28,2.15-.89,4.41-.54,6.69a30.4,30.4,0,0,1,.15,10.38c-.13.67-.33,1-1.07,1a3.54,3.54,0,0,0-2.36,1.07C293.65,118.8,293.45,119.17,293,119.24Z" transform="translate(-38.88 -46.08)"/><path class="cls-11" d="M279.81,126.66a13,13,0,0,0,1.33-2.43c.17-.57.57-.57,1-.51s.53.23.42.62A3.45,3.45,0,0,1,279.81,126.66Z" transform="translate(-38.88 -46.08)"/><path class="cls-11" d="M285.22,119.29a.62.62,0,0,1-.31-.4c-1.49-5.54-3.56-10.89-5.18-16.39-1.52-5.16-3.38-10.2-5.33-15.21-.46-1.19-.09-1.7,1.19-1.7A4.17,4.17,0,0,1,278.28,87c-.18.43-.85.51-.83,1.07a5.07,5.07,0,0,0,.31,1.29c2.73,8.79,5.62,17.53,8.52,26.27,0,.13.09.25.13.38C287,117.77,286.87,118.09,285.22,119.29Z" transform="translate(-38.88 -46.08)"/><path class="cls-10" d="M284.43,157.26c2.53,2.83,26,76,26.19,81.37-.48-.12-.52-.55-.64-.91-2.89-8.37-6.09-16.63-8.73-25.1-2.5-8-4.89-16.12-7.4-24.15q-3-9.54-5.93-19.07c-1.09-3.49-2.19-7-3.26-10.48A2.31,2.31,0,0,1,284.43,157.26Z" transform="translate(-38.88 -46.08)"/><path class="cls-10" d="M195.16,266.68c.7,1.6,1.36,3,1.94,4.41,3.41,8.46,6.64,17,9.55,25.64,2.42,7.18,5.07,14.29,7.31,21.54,2.74,8.88,5.66,17.71,8.23,26.65a2.53,2.53,0,0,1,.25,1.29c-.51-.13-.52-.6-.67-.91-1.49-3.06-2.47-6.32-3.69-9.48-4.11-10.61-7.54-21.45-11-32.27-2.74-8.47-5.58-16.9-8.38-25.35q-1.62-4.9-3.22-9.8A3,3,0,0,1,195.16,266.68Z" transform="translate(-38.88 -46.08)"/><path class="cls-10" d="M229.56,219.2a43.07,43.07,0,0,0-.54,8.55A81.83,81.83,0,0,0,230.86,241a200,200,0,0,0,14.83,44.42A42.59,42.59,0,0,0,253.45,297a30.4,30.4,0,0,0,2.35,2.07,1.54,1.54,0,0,1-1.25-.37,16,16,0,0,1-4.41-3.94,53.19,53.19,0,0,1-6-9.31,140.43,140.43,0,0,1-10.34-26.72c-1.64-5.63-3.26-11.26-4.39-17a79.74,79.74,0,0,1-1.43-13.79,26,26,0,0,1,.74-6.69A5.07,5.07,0,0,1,229.56,219.2Z" transform="translate(-38.88 -46.08)"/><path class="cls-10" d="M286.09,264a2.21,2.21,0,0,1-1.5-.49,16,16,0,0,1-4.21-3.78,54.37,54.37,0,0,1-6.11-9.41,141.45,141.45,0,0,1-10.34-26.73c-1.63-5.63-3.26-11.26-4.38-17a73.76,73.76,0,0,1-1.4-15.12,23.14,23.14,0,0,1,.73-5.36,5.76,5.76,0,0,1,.94-2.2c-.17,1.34-.34,2.5-.46,3.66a48.42,48.42,0,0,0,.91,14.21A196.39,196.39,0,0,0,276,250.47,41.48,41.48,0,0,0,283.67,262,19,19,0,0,0,286.09,264Z" transform="translate(-38.88 -46.08)"/><path class="cls-10" d="M266.75,295.43a24.88,24.88,0,0,0,1.11-10.16,46.47,46.47,0,0,0-1.09-7.33c-1.53-6.79-3-13.6-5-20.27a258,258,0,0,0-9.61-26.33c-1.13-2.68-2.36-5.32-3.6-8a24.73,24.73,0,0,0-5.42-7.92c-.53-.5-1.11-.95-1.84-1.57a5,5,0,0,1,2,.87,17.62,17.62,0,0,1,3.47,3.43,57.71,57.71,0,0,1,6.29,11,211.3,211.3,0,0,1,10.34,28.43,193.51,193.51,0,0,1,5.2,22.81,28.71,28.71,0,0,1-.14,11.31A9.37,9.37,0,0,1,266.75,295.43Z" transform="translate(-38.88 -46.08)"/><path class="cls-10" d="M270.77,179a3.46,3.46,0,0,1,1.88.84,17.62,17.62,0,0,1,3.44,3.46,58.49,58.49,0,0,1,6.24,11,224.19,224.19,0,0,1,10.19,27.93c1.56,5.25,2.69,10.6,3.91,15.93A76,76,0,0,1,298.2,249a24.77,24.77,0,0,1-.7,8.27,7.32,7.32,0,0,1-1.46,3,36.7,36.7,0,0,0,1-4.49,33.34,33.34,0,0,0-.67-11.18A231.39,231.39,0,0,0,289,216.33a251.37,251.37,0,0,0-11.26-28.1,25.68,25.68,0,0,0-5.35-7.81C271.94,180,271.43,179.55,270.77,179Z" transform="translate(-38.88 -46.08)"/><path class="cls-10" d="M331,212.29a17.57,17.57,0,0,1-1.75-4.23c-2.13-6.46-4.7-12.74-7.17-19.07a18.3,18.3,0,0,0-3.45-5.76,9.88,9.88,0,0,0-10.18-3.14,12.76,12.76,0,0,0-6.18,3.11,1.15,1.15,0,0,1-.66.41,1,1,0,0,1,0-1.42c.45-.66.9-1.32,1.29-2a37.71,37.71,0,0,0,5-18.94,63.82,63.82,0,0,0-2.69-17.59,76.87,76.87,0,0,0-2.87-8.65,2.71,2.71,0,0,1-.08-.53,2.65,2.65,0,0,1,1,1.39,64,64,0,0,1,4.79,14.26,50.46,50.46,0,0,1,1.15,13.14,38.62,38.62,0,0,1-4.34,16c-.11.21-.34.39-.26.78a21.86,21.86,0,0,1,4.22-1.43,11.24,11.24,0,0,1,12.24,5.33,25.88,25.88,0,0,1,2.45,5.12c2.17,6.25,4.59,12.41,6.45,18.76A25.28,25.28,0,0,1,331,212.29Z" transform="translate(-38.88 -46.08)"/><path class="cls-10" d="M236.43,335.9c.29-.77.57-1.54.87-2.31a44.56,44.56,0,0,0,2.6-20.65,38.92,38.92,0,0,0-1.43-7.25,26.49,26.49,0,0,0-10.37-14.27,17,17,0,0,0-7.46-2.86,2.65,2.65,0,0,1-1.36-.43,11.85,11.85,0,0,1,4.38.07,19.59,19.59,0,0,1,9.84,5.64,26.69,26.69,0,0,1,6.71,11.7,39.24,39.24,0,0,1,1.15,17.92,32.56,32.56,0,0,1-4.5,12.2,3.5,3.5,0,0,1-.24.3Z" transform="translate(-38.88 -46.08)"/><path class="cls-10" d="M215,283.39a60.37,60.37,0,0,0,1.63-6.1A26.14,26.14,0,0,0,214,258.75a11.12,11.12,0,0,0-5.28-4.81,10.15,10.15,0,0,0-6.72-.47l-.64.15s-.08,0-.16,0c.11-.54.6-.67,1-.83a8.75,8.75,0,0,1,5.55-.54,13,13,0,0,1,8.48,6.64,19.35,19.35,0,0,1,2.3,6.85,24.53,24.53,0,0,1-.66,11.88A27.08,27.08,0,0,1,215,283.39Z" transform="translate(-38.88 -46.08)"/><path class="cls-10" d="M249.56,302.85c-1.17-.6-4.35-4.58-5.46-6.87a4.79,4.79,0,0,1,1.39,1.51c.46.58.89,1.19,1.35,1.78s1,1.14,1.41,1.73A5.64,5.64,0,0,1,249.56,302.85Z" transform="translate(-38.88 -46.08)"/></svg>