<svg xmlns="http://www.w3.org/2000/svg" xmlns:xlink="http://www.w3.org/1999/xlink" viewBox="0 0 407.76 346.63"><defs><style>.cls-1,.cls-25{fill:none;}.cls-2{isolation:isolate;}.cls-3,.cls-4{fill:#8bcde5;}.cls-3{opacity:0.67;}.cls-14,.cls-22,.cls-5{fill:#fff;}.cls-6{opacity:0.48;}.cls-7{fill:#4d82a3;}.cls-26,.cls-8{fill:#dc903c;}.cls-13,.cls-17,.cls-23,.cls-29,.cls-31,.cls-42,.cls-9{fill:#2b3448;}.cls-22,.cls-9{opacity:0.11;}.cls-10,.cls-20,.cls-37{fill:#74471b;}.cls-11{fill:#5ca28b;}.cls-12,.cls-42{opacity:0.18;}.cls-14{opacity:0.2;mix-blend-mode:overlay;}.cls-15{fill:#ecb751;}.cls-16{fill:#de6c6b;}.cls-17,.cls-39{opacity:0.37;}.cls-18{opacity:0.41;}.cls-19{clip-path:url(#clip-path);}.cls-20,.cls-23{opacity:0.1;}.cls-21{opacity:0.22;}.cls-24{opacity:0.35;}.cls-25{stroke:#2b3448;stroke-miterlimit:10;}.cls-26,.cls-37{opacity:0.26;}.cls-27{clip-path:url(#clip-path-2);}.cls-28{opacity:0.44;}.cls-29{opacity:0.38;}.cls-30,.cls-31{opacity:0.23;}.cls-32{clip-path:url(#clip-path-3);}.cls-33{opacity:0.27;}.cls-34{opacity:0.54;}.cls-35{clip-path:url(#clip-path-4);}.cls-36{opacity:0.31;}.cls-38{clip-path:url(#clip-path-5);}.cls-40{clip-path:url(#clip-path-6);}.cls-41{opacity:0.4;}</style><clipPath id="clip-path" transform="translate(-58.02 -73.94)"><path class="cls-1" d="M272.75,359.81s-13.05,26.17-4.1,50.82L375.72,376a47,47,0,0,1-.6-37.63Z"/></clipPath><clipPath id="clip-path-2" transform="translate(-58.02 -73.94)"><path class="cls-1" d="M380.63,302.55,245.89,324s-7.82,24.78,0,38.42L384.42,339A259.39,259.39,0,0,1,380.63,302.55Z"/></clipPath><clipPath id="clip-path-3" transform="translate(-58.02 -73.94)"><path class="cls-1" d="M365,242.06,260.36,264.12s-16,29.94,4.5,48.41l101.3-27.95Z"/></clipPath><clipPath id="clip-path-4" transform="translate(-58.02 -73.94)"><path class="cls-1" d="M360.67,200.25,241.4,215.72s-14,26.44,3.49,37.42l116.78-19S360.67,198.75,360.67,200.25Z"/></clipPath><clipPath id="clip-path-5" transform="translate(-58.02 -73.94)"><polygon class="cls-1" points="337.59 131.09 291.68 143.69 291.68 167.65 291.68 170.64 336.95 156.3 337.59 131.09"/></clipPath><clipPath id="clip-path-6" transform="translate(-58.02 -73.94)"><path class="cls-1" d="M256.13,118.37s-8.1,11.28-1.72,22.8l81.42-13.49,1.22-23.54Z"/></clipPath></defs><title>variaty</title><g class="cls-2"><g id="OBJECTS"><ellipse class="cls-3" cx="362.41" cy="317.92" rx="36.4" ry="6.33"/><polygon class="cls-4" points="39.65 37.02 35.01 23.38 21.25 19.11 35.37 14.24 39.86 0 44.49 13.64 58.25 17.9 43.84 23.12 39.65 37.02"/><polygon class="cls-4" points="311.83 84.86 307.19 71.22 293.43 66.95 307.55 62.08 312.04 47.84 316.67 61.47 330.43 65.74 316.02 70.96 311.83 84.86"/><polygon class="cls-5" points="353.68 93.78 351.31 86.83 344.3 84.65 351.5 82.17 353.78 74.91 356.15 81.86 363.16 84.04 355.81 86.7 353.68 93.78"/><polygon class="cls-5" points="34.19 204.65 31.82 197.7 24.81 195.52 32 193.04 34.29 185.78 36.66 192.73 43.67 194.91 36.32 197.56 34.19 204.65"/><polygon class="cls-4" points="329.22 110.81 326.85 103.86 319.84 101.68 327.04 99.2 329.32 91.94 331.69 98.89 338.7 101.07 331.35 103.73 329.22 110.81"/><polygon class="cls-4" points="76.91 79.63 74.55 72.68 67.54 70.5 74.73 68.02 77.02 60.76 79.38 67.71 86.4 69.89 79.05 72.54 76.91 79.63"/><path class="cls-4" d="M118.44,121.38a2.07,2.07,0,1,1-2.07-2.06A2.07,2.07,0,0,1,118.44,121.38Z" transform="translate(-58.02 -73.94)"/><path class="cls-4" d="M439,219.42a2.07,2.07,0,1,1-2.07-2.07A2.07,2.07,0,0,1,439,219.42Z" transform="translate(-58.02 -73.94)"/><path class="cls-4" d="M435.32,246.8a2.07,2.07,0,1,1-2.07-2.06A2.07,2.07,0,0,1,435.32,246.8Z" transform="translate(-58.02 -73.94)"/><path class="cls-4" d="M411.58,242.06a2.07,2.07,0,1,1-2.07-2.07A2.06,2.06,0,0,1,411.58,242.06Z" transform="translate(-58.02 -73.94)"/><path class="cls-4" d="M84.68,199.22a2.07,2.07,0,1,1-2.06-2.06A2.07,2.07,0,0,1,84.68,199.22Z" transform="translate(-58.02 -73.94)"/><path class="cls-4" d="M72.28,184.07A2.07,2.07,0,1,1,70.22,182,2.06,2.06,0,0,1,72.28,184.07Z" transform="translate(-58.02 -73.94)"/><path class="cls-4" d="M357.55,107.22a2.07,2.07,0,1,1-2.07-2.06A2.06,2.06,0,0,1,357.55,107.22Z" transform="translate(-58.02 -73.94)"/><g class="cls-6"><path class="cls-7" d="M138.13,273.94a404.14,404.14,0,0,1-28.68-47.73,265.31,265.31,0,0,1-16.8-41.4l1-29.52c.39-11.7.26-24.83-8-33.13-2-2-4.87-3.73-7.63-3-3.23.9-4.68,4.61-5.33,7.9-4,20.37,4.85,41,16.77,58.2,1.36,4.5,2.87,9,4.5,13.37a307,307,0,0,0,24.16,49.75c5.32,9,11,17.75,17,26.34C135.6,275.54,138.41,274.34,138.13,273.94Z" transform="translate(-58.02 -73.94)"/></g><g class="cls-6"><path class="cls-7" d="M128.39,266.14A298.3,298.3,0,0,1,115.71,227a196,196,0,0,1-5.18-32.58l5.64-21.06c2.23-8.35,4.32-17.82-.24-25.16-1.11-1.79-2.88-3.49-5-3.4-2.47.11-4.13,2.54-5.15,4.79-6.29,14-3.34,30.28,2.36,44.66.23,3.46.57,6.92,1,10.36a226.38,226.38,0,0,0,9.08,39.81c2.33,7.35,5,14.6,7.79,21.77C126.29,266.87,128.52,266.48,128.39,266.14Z" transform="translate(-58.02 -73.94)"/></g><g class="cls-6"><path class="cls-7" d="M166.73,268.2A296.19,296.19,0,0,1,128,254.3a195.7,195.7,0,0,1-28.95-15.82L85.87,221.14c-5.23-6.88-11.45-14.32-20-15.21-2.1-.21-4.53.15-5.75,1.87-1.43,2-.52,4.82.64,7,7.22,13.52,21.91,21.16,36.77,25.45q4.33,2.9,8.82,5.53A226.36,226.36,0,0,0,143.36,263c7.24,2.65,14.59,5,22,7.15C166,270.3,167.08,268.3,166.73,268.2Z" transform="translate(-58.02 -73.94)"/></g><g class="cls-6"><path class="cls-7" d="M339.91,296.89a350.77,350.77,0,0,0,34.81-33.61,230.31,230.31,0,0,0,23.42-31l5.8-25c2.31-9.91,5.38-20.9,14.17-26,2.15-1.25,4.93-2,7.07-.77,2.51,1.48,2.89,4.92,2.7,7.83-1.21,18-13.29,33.3-27.17,45.08q-3.24,5.2-6.79,10.21A267.28,267.28,0,0,1,362.46,280c-6.49,6.34-13.24,12.41-20.15,18.29C341.68,298.81,339.58,297.17,339.91,296.89Z" transform="translate(-58.02 -73.94)"/></g><g class="cls-6"><path class="cls-7" d="M349.85,292.54a260.72,260.72,0,0,0,19.43-30A170.31,170.31,0,0,0,381,236.38q0-9.47,0-18.95c0-7.5.38-15.92,5.85-21.06,1.34-1.26,3.2-2.28,5-1.73,2.05.64,2.9,3.06,3.24,5.18,2.14,13.15-4,26.16-12,37q-1.47,4.29-3.18,8.47a197.09,197.09,0,0,1-16.58,31.37c-3.61,5.65-7.45,11.14-11.44,16.52C351.44,293.62,349.66,292.79,349.85,292.54Z" transform="translate(-58.02 -73.94)"/></g><g class="cls-6"><path class="cls-7" d="M317.2,285.64a258.74,258.74,0,0,0,35.6-3,170.7,170.7,0,0,0,27.86-6.77l15-11.59c5.94-4.58,12.83-9.44,20.25-8.25,1.81.29,3.76,1.14,4.4,2.86.74,2-.65,4.17-2.11,5.74-9.1,9.73-23.15,12.83-36.59,13.09-2.86,1-5.74,1.86-8.65,2.66a197.24,197.24,0,0,1-35,6.08c-6.67.59-13.37.92-20.06,1.05C317.32,287.56,316.89,285.65,317.2,285.64Z" transform="translate(-58.02 -73.94)"/></g><path class="cls-8" d="M456,358.3a31.69,31.69,0,0,0-.88-7.4h-.53c-1-4.43-14.34-7.93-30.63-7.93-16.95,0-30.7,3.79-30.7,8.48a3,3,0,0,0,0,.42,31.62,31.62,0,0,0,18.13,35.38c-2.69.73-4.34,1.69-4.34,2.74,0,2.28,7.71,4.13,17.22,4.13s17.22-1.85,17.22-4.13c0-1.05-1.65-2-4.34-2.74A31.68,31.68,0,0,0,456,358.3Z" transform="translate(-58.02 -73.94)"/><path class="cls-9" d="M456,358.3a31.69,31.69,0,0,0-.88-7.4h-.53c-.33-1.45-2-2.81-4.66-4a18,18,0,0,1,2.93,8.61c.65,8.28-4.22,17-11.09,21.41s-15.83,4.77-23.61,2.76c-11.39-2.95-21.37-11-25.53-21.41h0a31.67,31.67,0,0,0,18.8,28.95c-2.69.73-4.34,1.69-4.34,2.74,0,2.28,7.71,4.13,17.22,4.13s17.22-1.85,17.22-4.13c0-1.05-1.65-2-4.34-2.74A31.68,31.68,0,0,0,456,358.3Z" transform="translate(-58.02 -73.94)"/><ellipse class="cls-10" cx="365.91" cy="277.51" rx="24.85" ry="6.87"/><path class="cls-11" d="M424.12,354.79c-4.81-3-9.68-6-13.33-10.31s-5.93-10.15-4.64-15.64c.63-2.69,2.08-5.24,2-8-.12-5.83-6.42-9.23-9.89-13.91-4.17-5.64-4.16-13.24-4-20.24,2.56,7.65,11.34,10.89,17.51,16.09,6.85,5.74,10.74,14.39,12.4,23.16s1.31,17.8.94,26.72Z" transform="translate(-58.02 -73.94)"/><g class="cls-12"><path class="cls-13" d="M417,317.26c-4.66-11.82-16.2-18.47-22.67-28.7-.12,6.46.21,13.23,4,18.36,3.47,4.69,9.77,8.09,9.89,13.92.05,2.76-1.4,5.31-2,8-1.29,5.49,1,11.34,4.64,15.64A44,44,0,0,0,421,352.87C421.79,340.72,421.37,328.46,417,317.26Z" transform="translate(-58.02 -73.94)"/></g><path class="cls-11" d="M424.09,354.76A27.62,27.62,0,0,1,420,327c2.64-6.24,7.68-11.66,8.33-18.41.33-3.35-.48-6.71-.57-10.09a23.72,23.72,0,0,1,3.72-13.33C430.17,299,440,311.81,440,325.73,440,336.45,424.09,354.76,424.09,354.76Z" transform="translate(-58.02 -73.94)"/><g class="cls-12"><path class="cls-13" d="M431.62,302.44c.28,10.92-1.3,21.16-3.82,31.74-1.36,5.69-1.83,10.67-.92,15.72A29.81,29.81,0,0,0,440,325.73c0-11.75-7-22.72-8.38-34.19A101.61,101.61,0,0,0,431.62,302.44Z" transform="translate(-58.02 -73.94)"/></g><path class="cls-11" d="M424,354.72c.05-8.93.45-18.78,6.56-25.29,5.14-5.46,13.45-7.49,17.65-13.71,3.66-5.41,3.2-12.49,4.71-18.84a30.46,30.46,0,0,1,10.47-16.55l1.74,19.49c.69,7.75,1.35,15.75-1,23.15-2.54,7.86-8.35,14.33-15.07,19.12s-14.36,8.1-21.94,11.37Z" transform="translate(-58.02 -73.94)"/><g class="cls-12"><path class="cls-13" d="M463.9,285.85c-2.45,6.51-3.49,13.56-5.67,20.15-3.31,10-8.82,18.25-16,25.91-6.38,6.82-11.38,12.18-13.5,20.83,7-3,14.06-6.2,20.29-10.65,6.72-4.79,12.53-11.26,15.07-19.12,2.39-7.4,1.73-15.4,1-23.15Q464.51,292.83,463.9,285.85Z" transform="translate(-58.02 -73.94)"/></g><path class="cls-4" d="M105.2,361.08l-21.69,7.1s169.33,49.06,177.24,52.22,131.36-39.56,131.36-39.56l-34.82-11.08L105.2,361.08" transform="translate(-58.02 -73.94)"/><path class="cls-13" d="M170.47,404.14,65,379.34a5.69,5.69,0,0,0-6.82,4.23h0a5.69,5.69,0,0,0,4.22,6.82l105.48,24.79Z" transform="translate(-58.02 -73.94)"/><path class="cls-14" d="M58.12,385.89a5.69,5.69,0,0,0,4.27,4.5l105.48,24.79.78-3.31Z" transform="translate(-58.02 -73.94)"/><rect class="cls-15" x="69.07" y="386.06" width="11.65" height="3.01" transform="translate(-377.54 297.83) rotate(-76.77)"/><rect class="cls-15" x="116.99" y="397.33" width="11.65" height="3.01" transform="translate(-351.55 353.18) rotate(-76.77)"/><rect class="cls-15" x="87.78" y="371.36" width="1.5" height="34.58" transform="translate(-368.07 311.96) rotate(-76.77)"/><polygon class="cls-15" points="109.85 341.24 120.03 339.61 120.89 335.95 112.45 330.2 109.85 341.24"/><path class="cls-16" d="M380.38,378.33l-8.56-4c-11-6-4-41.92-4-41.92l-98.18,28.41L103.34,319.44c-5.49,20.79-1,48.17-1,48.17l153.75,42,0,.17,13.48,3.5C384.3,379.82,380.38,378.33,380.38,378.33Z" transform="translate(-58.02 -73.94)"/><polygon class="cls-16" points="213.81 287.6 324.1 254.66 157.92 219.23 45.32 245.49 213.81 287.6"/><path class="cls-17" d="M105.7,366.17A73.48,73.48,0,0,1,104,356.06a85.69,85.69,0,0,1-.39-10.26,67.42,67.42,0,0,1,1-10.22,46.34,46.34,0,0,1,2.95-9.82c-.41,1.66-1,3.27-1.24,4.95s-.64,3.33-.9,5a100.68,100.68,0,0,0-.78,10.12c-.09,3.39,0,6.78.14,10.17.08,1.69.2,3.39.35,5.08S105.51,364.47,105.7,366.17Z" transform="translate(-58.02 -73.94)"/><path class="cls-17" d="M261,407.89a71.64,71.64,0,0,1-1.67-10.1,85.69,85.69,0,0,1-.39-10.26,70,70,0,0,1,1-10.22,46.93,46.93,0,0,1,3-9.82c-.4,1.66-1,3.26-1.24,4.95s-.63,3.33-.9,5a100.68,100.68,0,0,0-.78,10.12c-.09,3.38,0,6.77.15,10.17.07,1.69.19,3.39.35,5.08S260.8,406.2,261,407.89Z" transform="translate(-58.02 -73.94)"/><path class="cls-17" d="M112.58,324.88q18,4.44,35.94,9.11l35.86,9.38,35.8,9.63,17.88,4.89,17.85,5-18-4.51L220,353.79l-35.86-9.39-35.8-9.62C136.39,331.53,124.47,328.26,112.58,324.88Z" transform="translate(-58.02 -73.94)"/><g class="cls-18"><path class="cls-5" d="M143.45,375.91l-32.95-9.65,1.88-37.71,32.42,8.58Zm-31.83-10,30.72,9,1.32-37.38-30.24-8Z" transform="translate(-58.02 -73.94)"/><path class="cls-5" d="M127.59,352.54l-15.35-13.93,16.17-5.27,15.72,13.94ZM113.76,339l13.87,12.57,14.91-4.74-14.17-12.59Z" transform="translate(-58.02 -73.94)"/><path class="cls-5" d="M126.62,362.53l-15.4-14.15,16.23-5.22,15.77,14.16Zm-13.87-13.72,13.91,12.77,15-4.7-14.22-12.79Z" transform="translate(-58.02 -73.94)"/><path class="cls-5" d="M126.27,370.78l-15.45-14.33,16.28-5.19,15.83,14.35Zm-13.92-13.9,14,12.94,15-4.67L127.06,352.2Z" transform="translate(-58.02 -73.94)"/></g><g class="cls-18"><path class="cls-5" d="M179.81,386.41l-33-9.65,1.88-37.7,32.42,8.57Zm-31.84-10,30.72,9L180,348l-30.24-8Z" transform="translate(-58.02 -73.94)"/><path class="cls-5" d="M164,363,148.6,349.11l16.16-5.27,15.72,13.94Zm-13.83-13.52L164,362.1l14.9-4.75-14.17-12.58Z" transform="translate(-58.02 -73.94)"/><path class="cls-5" d="M163,373l-15.4-14.14,16.22-5.23,15.78,14.16ZM149.1,359.31,163,372.08l15-4.7L163.76,354.6Z" transform="translate(-58.02 -73.94)"/><path class="cls-5" d="M162.62,381.28,147.17,367l16.29-5.19,15.83,14.35ZM148.7,367.39l14,12.93,15-4.66-14.27-13Z" transform="translate(-58.02 -73.94)"/></g><g class="cls-18"><path class="cls-5" d="M217.2,396.91l-33-9.64,1.89-37.71,32.42,8.58Zm-31.84-10,30.73,9,1.31-37.39-30.24-8Z" transform="translate(-58.02 -73.94)"/><path class="cls-5" d="M201.34,373.55,186,359.62l16.16-5.28,15.73,14ZM187.51,360l13.87,12.57,14.91-4.75-14.18-12.58Z" transform="translate(-58.02 -73.94)"/><path class="cls-5" d="M200.37,383.54,185,369.39l16.22-5.23L217,378.33Zm-13.88-13.72,13.92,12.76,15-4.7L201.15,365.1Z" transform="translate(-58.02 -73.94)"/><path class="cls-5" d="M200,391.78l-15.45-14.33,16.28-5.18,15.83,14.35ZM186.1,377.89l14,12.94,15-4.67-14.27-13Z" transform="translate(-58.02 -73.94)"/></g><g class="cls-18"><path class="cls-5" d="M254.63,406.88l-32.95-9.65,1.88-37.71L256,368.1Zm-31.83-10,30.72,9,1.32-37.38-30.24-8Z" transform="translate(-58.02 -73.94)"/><path class="cls-5" d="M238.77,383.51l-15.35-13.93,16.16-5.27,15.73,13.94ZM224.94,370l13.87,12.58,14.91-4.75-14.18-12.59Z" transform="translate(-58.02 -73.94)"/><path class="cls-5" d="M237.8,393.5l-15.4-14.15,16.22-5.22,15.78,14.16Zm-13.87-13.72,13.91,12.77,15-4.7-14.23-12.79Z" transform="translate(-58.02 -73.94)"/><path class="cls-5" d="M237.45,401.75,222,387.42l16.28-5.19,15.83,14.35Zm-13.92-13.9,14,12.94,15-4.66-14.27-13Z" transform="translate(-58.02 -73.94)"/></g><g class="cls-19"><path class="cls-5" d="M272.75,359.81s-13.05,26.17-4.1,50.82L375.72,376s-7-23.61,1.46-44.39Z" transform="translate(-58.02 -73.94)"/><path class="cls-20" d="M354.44,378.83c-14.77,5.65-29.51,10.14-45.36,11.32-15.7,1.17-31.76-2.72-41.41-15.57-2.36,9.77-3.72,23.12,1,36.05L375.72,376s-.54-1.81-1.13-4.86C367.82,373.55,361.14,376.27,354.44,378.83Z" transform="translate(-58.02 -73.94)"/><g class="cls-21"><rect class="cls-10" x="261.49" y="356.62" width="119" height="0.8" transform="translate(-127.53 3.79) rotate(-12.47)"/><rect class="cls-10" x="261.66" y="363.98" width="119" height="0.8" transform="translate(-133.76 10.47) rotate(-13.41)"/><rect class="cls-10" x="260.71" y="372.54" width="119" height="0.8" transform="translate(-135.77 10.47) rotate(-13.41)"/><rect class="cls-10" x="260.22" y="379.14" width="119" height="0.8" transform="translate(-141.96 16.93) rotate(-14.32)"/><rect class="cls-10" x="261.11" y="387.3" width="119" height="0.8" transform="translate(-153.46 30.91) rotate(-16.2)"/></g></g><path class="cls-22" d="M266.31,364.66,102.82,322.08s-2.63,11-1,17.35l163.48,43.63L270,365.19Z" transform="translate(-58.02 -73.94)"/><path class="cls-23" d="M102.34,367.61l167.18,45.65s-3.74-15.48-3.74-17.06l-164-41.53S100.81,364.78,102.34,367.61Z" transform="translate(-58.02 -73.94)"/><path class="cls-15" d="M133.11,278.59s-3,18.47-.5,30.44c0,0,103.8,56.4,111.29,58.39S394.6,342,394.6,342l-19-4.49-.9-33.76,17.37-3.17L271.34,252.14Z" transform="translate(-58.02 -73.94)"/><path class="cls-5" d="M380.63,302.55,245.89,324s-7.82,24.78,0,38.42L384.42,339A259.39,259.39,0,0,1,380.63,302.55Z" transform="translate(-58.02 -73.94)"/><path class="cls-20" d="M312.49,347.22c-23.29.88-48.78.07-69.36-10.4-1.14,8.12-1.36,18.42,2.76,25.61L384.42,339l-.14-.77C360.58,342.9,336.62,346.31,312.49,347.22Z" transform="translate(-58.02 -73.94)"/><g class="cls-24"><polygon class="cls-25" points="86.12 211.26 80.21 208.94 77.28 221.14 79.94 235.55 85.68 238.54 88.93 226.47 86.12 211.26"/><polygon class="cls-13" points="84.33 218.27 81.73 217.15 80.39 222.56 81.59 229.07 84.16 230.32 85.57 224.94 84.33 218.27"/><polygon class="cls-25" points="88.97 240.26 77.16 234.1 77.35 207.57 89.51 212.34 88.97 240.26"/><polygon class="cls-25" points="122.52 225.56 114.48 222.4 110.03 236.13 113.13 252.84 120.87 256.88 125.82 243.36 122.52 225.56"/><polygon class="cls-13" points="119.79 233.48 116.25 231.96 114.21 238.05 115.62 245.61 119.1 247.3 121.23 241.26 119.79 233.48"/><polygon class="cls-25" points="125.35 259.21 109.39 250.9 110.62 220.6 127.18 227.09 125.35 259.21"/><polygon class="cls-25" points="173.78 245.7 162.2 241.15 155.17 256.8 158.88 276.68 169.9 282.43 177.79 267.15 173.78 245.7"/><polygon class="cls-13" points="169.41 254.78 164.33 252.6 161.11 259.52 162.79 268.55 167.76 270.96 171.16 264.12 169.41 254.78"/><polygon class="cls-25" points="176.33 285.77 153.61 273.94 156.7 238.65 180.59 248.01 176.33 285.77"/><polygon class="cls-13" points="99.9 246.07 97.31 244.72 98.12 215.71 100.8 216.76 99.9 246.07"/><polygon class="cls-13" points="139.46 266.7 136.06 264.93 138.36 231.47 141.91 232.86 139.46 266.7"/></g><path class="cls-22" d="M133.11,278.59,245.89,324s-3.61,13.74-3.34,17L131.87,289.55S132.47,279.76,133.11,278.59Z" transform="translate(-58.02 -73.94)"/><path class="cls-26" d="M132.61,309,243.9,367.42s-4.59-6.78-4.32-18.9L131.87,299.24S132,307.78,132.61,309Z" transform="translate(-58.02 -73.94)"/><g class="cls-27"><g class="cls-28"><rect class="cls-10" x="239.03" y="318.77" width="146.15" height="0.53" transform="translate(-106.03 -18.55) rotate(-9.42)"/></g><g class="cls-28"><rect class="cls-10" x="239.51" y="324.76" width="146.15" height="0.53" transform="translate(-107.01 -18.39) rotate(-9.42)"/></g><g class="cls-28"><rect class="cls-10" x="238.95" y="331.39" width="146.15" height="0.53" transform="translate(-108.1 -18.39) rotate(-9.42)"/></g><g class="cls-28"><rect class="cls-10" x="239.24" y="338.01" width="146.15" height="0.53" transform="translate(-109.23 -18.19) rotate(-9.43)"/></g><g class="cls-28"><rect class="cls-10" x="239.52" y="345.25" width="146.15" height="0.53" transform="translate(-110.42 -18.03) rotate(-9.43)"/></g></g><path class="cls-11" d="M115.64,224.7s-11,22-.5,46.91l147.72,45.91,111.78-30.67-9.43-2.36-2.09-41.91,10.52-2.91L233.91,197.75Z" transform="translate(-58.02 -73.94)"/><path class="cls-5" d="M365,242.06,260.36,264.12s-16,29.94,4.5,48.41l101.3-27.95Z" transform="translate(-58.02 -73.94)"/><path class="cls-20" d="M321.43,251.56c3.81,0,7.62-.14,11.42-.45,1.71-.13,3.41-.32,5.11-.51l.69-.08,1.16-.18c6.42-1.1,12.77-2.44,19.08-4.1,2.05-.54,4.09-1.11,6.13-1.69l-.07-2.49L320,251.54Z" transform="translate(-58.02 -73.94)"/><path class="cls-20" d="M319.34,288.73c-15-.14-29.94-1.71-44.87-2.75a146.62,146.62,0,0,1-19.79-2.49c-1,9.39.66,20.45,10.18,29l101.3-27.95-.06-2.1C350.87,286.28,335.41,288.88,319.34,288.73Z" transform="translate(-58.02 -73.94)"/><path class="cls-29" d="M117.11,269.34A40.91,40.91,0,0,1,114,258.93a58.14,58.14,0,0,1-.8-10.87c0-.91.1-1.81.14-2.72l.08-1.36.16-1.36.34-2.7.51-2.68c.3-1.79.85-3.53,1.28-5.29s1.14-3.44,1.75-5.14c-.85,3.52-1.72,7-2.23,10.57l-.39,2.67-.26,2.67-.13,1.34-.07,1.34c0,.9-.1,1.79-.12,2.69a76.84,76.84,0,0,0,.54,10.72c.2,1.79.52,3.55.89,5.31A45.66,45.66,0,0,0,117.11,269.34Z" transform="translate(-58.02 -73.94)"/><path class="cls-29" d="M251.77,310.37A40.81,40.81,0,0,1,248.68,300a58.14,58.14,0,0,1-.79-10.87c0-.91.09-1.81.14-2.72l.08-1.36.16-1.36.33-2.7.51-2.68c.3-1.79.85-3.53,1.28-5.29s1.14-3.44,1.75-5.13c-.85,3.51-1.71,7-2.22,10.56l-.39,2.67-.26,2.67-.14,1.34-.07,1.34c0,.9-.1,1.79-.11,2.69a75.34,75.34,0,0,0,.54,10.72,53,53,0,0,0,.89,5.31A43.68,43.68,0,0,0,251.77,310.37Z" transform="translate(-58.02 -73.94)"/><g class="cls-30"><polygon class="cls-13" points="71.44 185.31 92.35 188.84 74.07 174.51 64.07 175.84 71.44 185.31"/><polygon class="cls-13" points="74.33 173.84 94.16 189.32 81.43 165.69 70.86 161.24 74.33 173.84"/><polygon class="cls-13" points="71.36 186.41 93.69 189.8 73.93 197.23 64.51 192.91 71.36 186.41"/></g><path class="cls-31" d="M161.48,241.72s-9.19,21.58-3.19,42.37l23.18,8s-5.19-34.78,5.2-42.78Z" transform="translate(-58.02 -73.94)"/><path class="cls-31" d="M213.05,257.31s-9.59,23.58-3.19,43.17l7.19,2.8s-2-32.78,5.2-43.58Z" transform="translate(-58.02 -73.94)"/><g class="cls-32"><g class="cls-33"><rect class="cls-10" x="254.25" y="255.38" width="122.86" height="0.53" transform="translate(-104.9 -1.49) rotate(-12.2)"/><rect class="cls-10" x="252.35" y="261.61" width="122.86" height="0.53" transform="translate(-107.64 0.92) rotate(-12.62)"/><rect class="cls-10" x="251.14" y="267.82" width="122.86" height="0.53" transform="translate(-112.13 6.76) rotate(-13.55)"/><rect class="cls-10" x="250.61" y="273.67" width="122.86" height="0.53" transform="translate(-113.51 6.79) rotate(-13.55)"/><rect class="cls-10" x="250.76" y="279.5" width="122.86" height="0.53" transform="translate(-114.88 6.99) rotate(-13.55)"/><rect class="cls-10" x="251.59" y="284.98" width="122.86" height="0.53" transform="translate(-116.13 7.33) rotate(-13.55)"/><polygon class="cls-10" points="200.61 236.27 200.48 235.76 319.5 205.29 319.63 205.8 200.61 236.27"/><rect class="cls-10" x="254.12" y="289.72" width="122.86" height="0.53" transform="translate(-117.17 8.04) rotate(-13.55)"/></g></g><path class="cls-22" d="M115.64,224.7l144.72,39.42s-5.73,14-6.53,20.77l-143.12-44S113,227.27,115.64,224.7Z" transform="translate(-58.02 -73.94)"/><path class="cls-23" d="M113.91,271.3l149,46.22s-8.32-3.25-11-17.84L110.71,256.91S112.71,268.9,113.91,271.3Z" transform="translate(-58.02 -73.94)"/><path class="cls-13" d="M127.12,175.79s-3.49,29.94-.5,37.93l111.29,45.41,134.24-23.45-13.48-3-1.58-32.27,11.79-1.31-134-39.28Z" transform="translate(-58.02 -73.94)"/><path class="cls-5" d="M360.67,200.25,241.4,215.72s-14,26.44,3.49,37.42l116.78-19S360.67,198.75,360.67,200.25Z" transform="translate(-58.02 -73.94)"/><path class="cls-20" d="M313.79,240.39c-14.63-.07-29.47-1.33-44.05-2.59-8.68-.76-17.64-1.75-25.51-5.78a38.65,38.65,0,0,1-7-4.75c-2,8.52-2.19,19.67,7.68,25.87l79.69-12.94C321,240.33,317.38,240.4,313.79,240.39Z" transform="translate(-58.02 -73.94)"/><g class="cls-34"><path class="cls-15" d="M136.15,198.87c0,.32-.44.43-.93.24s-.89-.61-.87-.94.43-.43.92-.24S136.16,198.54,136.15,198.87Z" transform="translate(-58.02 -73.94)"/><path class="cls-15" d="M150.5,194.92c0,.34-.47.45-1,.26s-.95-.63-.93-1,.46-.46,1-.27S150.52,194.58,150.5,194.92Z" transform="translate(-58.02 -73.94)"/><path class="cls-15" d="M149.48,213.5c0,.33-.46.43-1,.21s-.94-.66-.92-1,.46-.43,1-.21S149.5,213.17,149.48,213.5Z" transform="translate(-58.02 -73.94)"/><path class="cls-15" d="M164.71,210c0,.35-.51.45-1.08.23s-1-.68-1-1,.5-.45,1.06-.23S164.73,209.65,164.71,210Z" transform="translate(-58.02 -73.94)"/><path class="cls-15" d="M131.39,181.84l-.65,15-.14,0,.13.16-.62,14.25,38.3,16.16,2.13-32Zm19.65,8.1,7.39,9.65-8.7,3.47.31-5.63-1.13-.42-.29,5.46-7.11-8.79Zm-10.19,2.92L133,183.1l17.29,6Zm11-3.14,16.69,5.83-9.35,3.72ZM150.22,204l8.89-3.52,8.67,11.32-9.22,3-8-9.95,9.79,3.78.05-.72Zm-2-.77-10.1-3.88,0,.69,9.75,3.77-8.1,3.23-7.82-9.6,8.83-3.46Zm.26,1.45-.35,6.34,1.12.45.36-6.51L157.77,215,148.68,218l-8.25-10.13Zm-.69,13.41-16.1-6.78,8-3.17Zm10.66-2.17L166.59,226l-17.08-7.18Zm.8-.26,8.85-2.84-.84,12.75Zm.64-15.49,9.29-3.67-1,14.52Zm-27.53-16.6,7.73,9.59-8.3,3.28Zm6.67,23.75-7.86,3.13.53-12.15Z" transform="translate(-58.02 -73.94)"/></g><g class="cls-34"><path class="cls-15" d="M193.46,219.71c0,.33-.43.44-.93.24s-.88-.61-.87-.93.43-.43.93-.24S193.48,219.39,193.46,219.71Z" transform="translate(-58.02 -73.94)"/><path class="cls-15" d="M207.82,215.76c0,.34-.47.46-1,.27s-.95-.63-.93-1,.46-.46,1-.26S207.83,215.42,207.82,215.76Z" transform="translate(-58.02 -73.94)"/><path class="cls-15" d="M206.79,234.34c0,.34-.46.43-1,.21s-.94-.65-.92-1,.46-.43,1-.22S206.81,234,206.79,234.34Z" transform="translate(-58.02 -73.94)"/><path class="cls-15" d="M222,230.84c0,.35-.5.45-1.07.23s-1-.68-1-1,.5-.44,1.07-.23S222,230.49,222,230.84Z" transform="translate(-58.02 -73.94)"/><path class="cls-15" d="M188.71,202.69l-.66,15-.14.06.13.15-.62,14.25,38.3,16.17,2.13-32Zm19.64,8.09,7.4,9.66-8.7,3.46.31-5.63-1.13-.42-.3,5.46-7.11-8.79Zm-10.19,2.92-7.89-9.76,17.3,6.05Zm11.05-3.14,16.69,5.83-9.36,3.73Zm-1.68,14.27,8.89-3.51,8.67,11.32-9.21,3-8-9.94,9.78,3.78,0-.73Zm-2-.76-10.1-3.89,0,.7,9.76,3.77-8.11,3.22-7.81-9.59,8.83-3.47Zm.26,1.44-.34,6.34,1.12.45.35-6.51,8.14,10.09L206,238.82l-8.24-10.12Zm-.69,13.41L189,232.15l8-3.17Zm10.67-2.16,8.11,10.06-17.08-7.18Zm.8-.26,8.84-2.84-.84,12.75Zm.63-15.5,9.29-3.67-1,14.53Zm-27.53-16.6,7.74,9.59-8.31,3.29Zm6.68,23.75-7.87,3.14.54-12.15Z" transform="translate(-58.02 -73.94)"/></g><g class="cls-35"><g class="cls-36"><rect class="cls-10" x="233.66" y="221.96" width="136.41" height="0.53" transform="translate(-84.85 -31.89) rotate(-7.63)"/></g><g class="cls-36"><rect class="cls-10" x="233.66" y="230.41" width="136.41" height="0.53" transform="translate(-85.97 -31.82) rotate(-7.63)"/></g><g class="cls-36"><polygon class="cls-10" points="176.38 175.2 176.31 174.68 311.32 155.16 311.39 155.69 176.38 175.2"/></g><g class="cls-36"><rect class="cls-10" x="233.66" y="213.51" width="136.41" height="0.53" transform="translate(-80.99 -37.09) rotate(-6.73)"/></g></g><path class="cls-15" d="M266.94,217.72s15.21,22.53,11.83,50.7l7.32-6.2,5.64,5.64s.56-38.31-9.58-51.27Z" transform="translate(-58.02 -73.94)"/><path class="cls-22" d="M127.12,175.79s111.65,35.73,111.65,37.42-7.33,13.52-5.64,24.79l-107-42.26Z" transform="translate(-58.02 -73.94)"/><rect class="cls-8" x="95.93" y="99.69" width="203.11" height="32.44"/><rect class="cls-9" x="95.93" y="125.18" width="203.11" height="6.95"/><rect class="cls-22" x="95.93" y="99.69" width="203.11" height="11.97"/><rect class="cls-37" x="106.94" y="99.69" width="17.85" height="32.44"/><rect class="cls-37" x="137.54" y="99.69" width="3.03" height="32.44"/><rect class="cls-37" x="153.32" y="99.69" width="101.62" height="32.44"/><rect class="cls-37" x="267.69" y="99.69" width="12.61" height="32.44"/><polygon class="cls-8" points="95.93 99.69 94.44 74.24 281.07 72.74 299.04 99.69 95.93 99.69"/><polygon class="cls-16" points="105.41 56.77 105.41 85.72 234.16 99.69 283.07 84.22 276.58 81.73 277.08 58.27 282.07 56.28 161.81 45.3 105.41 56.77"/><polygon class="cls-5" points="279.57 57.14 233.67 69.75 233.67 93.7 233.67 96.7 278.93 82.35 279.57 57.14"/><rect class="cls-15" x="224.71" y="85.79" width="1.06" height="114.54" transform="translate(-0.4 276.73) rotate(-83.5)"/><rect class="cls-15" x="224.15" y="92.55" width="1.06" height="114.54" transform="translate(-7.62 282.17) rotate(-83.5)"/><rect class="cls-15" x="224.15" y="99.31" width="1.06" height="114.54" transform="translate(-14.33 288.17) rotate(-83.5)"/><rect class="cls-15" x="224.15" y="105.51" width="1.06" height="114.54" transform="translate(-20.49 293.66) rotate(-83.5)"/><g class="cls-38"><g class="cls-39"><polygon class="cls-10" points="231.05 73.95 230.92 73.44 285.95 58.65 286.08 59.17 231.05 73.95"/></g><g class="cls-39"><polygon class="cls-10" points="231.62 80.72 231.48 80.2 286.51 65.42 286.65 65.93 231.62 80.72"/></g><g class="cls-39"><polygon class="cls-10" points="231.71 86.7 231.57 86.19 286.6 71.4 286.74 71.91 231.71 86.7"/></g><g class="cls-39"><polygon class="cls-10" points="232.27 92.9 232.13 92.39 287.16 77.6 287.3 78.11 232.27 92.9"/></g></g><polygon class="cls-23" points="105.41 85.72 234.16 99.69 233.71 88 105.82 75.04 105.41 85.72"/><polygon class="cls-22" points="105.41 56.77 233.67 69.75 233.71 76.73 105.82 65.46 105.41 56.77"/><path class="cls-20" d="M291.68,143.69v26.95l40.61-13.21S292.2,169.39,291.68,143.69Z" transform="translate(-58.02 -73.94)"/><path class="cls-7" d="M144.89,99.48s-5.89,12-.74,23.54l106.92,20.36,90.5-14.47-6.87-1.23,1.22-23.54,5.4-1.22L234.89,85.26S148.57,94.58,144.89,99.48Z" transform="translate(-58.02 -73.94)"/><g class="cls-40"><path class="cls-5" d="M256.13,118.37s-8.1,11.28-1.72,22.8l81.42-13.49,1.22-23.54Z" transform="translate(-58.02 -73.94)"/><path class="cls-20" d="M297.61,134c-9.25-.17-19.26-.43-28.24-2.84-5.85-1.58-10.81-4.68-15.72-8-1.7,4.36-3,11.14.76,18L297.85,134Z" transform="translate(-58.02 -73.94)"/><g class="cls-41"><rect class="cls-10" x="246.58" y="114.91" width="98.74" height="0.53" transform="matrix(0.99, -0.16, 0.16, 0.99, -72.64, -25.06)"/></g><g class="cls-41"><rect class="cls-10" x="246.58" y="120.54" width="98.74" height="0.53" transform="matrix(0.99, -0.16, 0.16, 0.99, -73.55, -24.99)"/></g><g class="cls-41"><rect class="cls-10" x="246.58" y="126.18" width="98.74" height="0.53" transform="matrix(0.99, -0.16, 0.16, 0.99, -74.45, -24.91)"/></g><g class="cls-41"><rect class="cls-10" x="246.58" y="130.68" width="98.74" height="0.53" transform="matrix(0.99, -0.16, 0.16, 0.99, -75.17, -24.86)"/></g></g><path class="cls-15" d="M254.28,98.66c5.18.87,5.86,2.15,1.53,2.85a63.36,63.36,0,0,1-17.27-.31c-5.2-.87-5.88-2.15-1.53-2.85A64.17,64.17,0,0,1,254.28,98.66Z" transform="translate(-58.02 -73.94)"/><path class="cls-15" d="M232.16,98.12A67.27,67.27,0,0,1,225,98c-1.21-.08-2.4-.2-3.36-.35a9.59,9.59,0,0,1-4.05-1.54c-2.24-1.09-8.13-2.06-14.73-2.43a143.82,143.82,0,0,1,17.2.4,37.16,37.16,0,0,1,11.05,2.8c1,.38,2.15.76,3.17,1.15Z" transform="translate(-58.02 -73.94)"/><path class="cls-15" d="M259,102a66.71,66.71,0,0,1,7.18.09c1.2.08,2.38.19,3.34.35a9.42,9.42,0,0,1,4,1.53c2.22,1.08,8.07,2,14.61,2.41a141.85,141.85,0,0,1-17.07-.38,37.38,37.38,0,0,1-11-2.79c-1-.39-2.15-.77-3.16-1.15Z" transform="translate(-58.02 -73.94)"/><path class="cls-15" d="M242.68,97.36a34.5,34.5,0,0,1-5.71-.91,2.87,2.87,0,0,1-1.34-.6c-.36-.53,1.86-.92,3.24-1.35,2.83-.88,2-2.13-2-3.12,5.22.6,10.86,1.3,12.87,2.26,2.17,1-.67,2-2.78,2.91-.8.34-1.5.69-2.31,1Z" transform="translate(-58.02 -73.94)"/><path class="cls-15" d="M248.53,102.79a33.47,33.47,0,0,1,5.71.91,2.84,2.84,0,0,1,1.33.59c.36.53-1.85.93-3.23,1.36-2.83.88-2.05,2.13,1.94,3.12-5.21-.61-10.85-1.3-12.86-2.26-2.17-1,.67-2,2.79-2.91.79-.34,1.49-.69,2.3-1Z" transform="translate(-58.02 -73.94)"/><path class="cls-15" d="M253.36,98c-1.29-.39-1.89-.81-1.67-1.2.11-.2.43-.39,1.08-.54a64.68,64.68,0,0,1,8.12-.54c5.94-.28,10-1.19,10.21-2.26,2.38,1,4.81,2,2.95,2.84-2,.92-8.26,1.24-13.63,1.61l-6,.44Z" transform="translate(-58.02 -73.94)"/><path class="cls-15" d="M237.85,102.17c1.29.38,1.89.81,1.67,1.2-.11.19-.43.38-1.08.53a66.89,66.89,0,0,1-8.14.55c-6,.28-10.07,1.19-10.25,2.26-2.4-.95-4.84-2-3-2.84,2-.92,8.3-1.25,13.69-1.62l6.06-.44Z" transform="translate(-58.02 -73.94)"/><path class="cls-15" d="M261.5,100a13.17,13.17,0,0,1,4.13-.84c1-.08,2.11-.14,3.32-.14,3.17,0,6.13.45,9.12.74a102.71,102.71,0,0,0,18.6.12,33.89,33.89,0,0,1-10.56,1.84,166.33,166.33,0,0,1-18.48-.88l-6.91-.53Z" transform="translate(-58.02 -73.94)"/><path class="cls-15" d="M229.68,100.18a12.89,12.89,0,0,1-4.14.84c-1,.09-2.11.14-3.33.14-3.2,0-6.17-.45-9.17-.74a103.62,103.62,0,0,0-18.77-.11,34.35,34.35,0,0,1,10.66-1.86,166,166,0,0,1,18.6.89l6.94.53Z" transform="translate(-58.02 -73.94)"/><path class="cls-15" d="M157.72,101.8s-7.2,14.13.53,24l9.06,1.6s-4.8-16.79,2.13-24Z" transform="translate(-58.02 -73.94)"/><path class="cls-15" d="M221.42,114.16s-7.19,14.13.53,24l9.07,1.6s-4.8-16.79,2.13-24Z" transform="translate(-58.02 -73.94)"/><path class="cls-22" d="M144.89,99.48l111.24,18.89s-4.39,6.73-4.8,12L141.89,110.51S142.62,101.42,144.89,99.48Z" transform="translate(-58.02 -73.94)"/><g class="cls-41"><rect class="cls-13" x="200.21" y="58.63" width="1.06" height="100.13" transform="translate(0.68 213.45) rotate(-79.95)"/></g><path class="cls-42" d="M250.58,139.5q-.39-1.44-.66-2.88l-107.63-18,1.86,4.4,106.92,20.36A6.39,6.39,0,0,1,250.58,139.5Z" transform="translate(-58.02 -73.94)"/><path class="cls-22" d="M159.32,95.51s41.29-7.13,75.57-10.25L298,95.51Z" transform="translate(-58.02 -73.94)"/></g></g></svg>