<?xml version="1.0" encoding="utf-8"?>
<!-- Generator: Adobe Illustrator 24.0.0, SVG Export Plug-In . SVG Version: 6.00 Build 0)  -->
<svg version="1.1" id="Layer_1" xmlns="http://www.w3.org/2000/svg" xmlns:xlink="http://www.w3.org/1999/xlink" x="0px" y="0px"
	 viewBox="0 0 1280 1024" style="enable-background:new 0 0 1280 1024;" xml:space="preserve">
<style type="text/css">
	.st0{fill:#10518A;}
	.st1{fill:none;stroke:#276FA3;stroke-width:0.3871;stroke-linecap:round;stroke-linejoin:round;stroke-miterlimit:10;}
	.st2{fill:#39B1B5;}
	.st3{fill:none;stroke:#5BCECC;stroke-width:0.3871;stroke-linecap:round;stroke-linejoin:round;stroke-miterlimit:10;}
	.st4{fill:#CF7C1A;}
	.st5{fill:#FFFFFF;}
	.st6{fill:#E6E7E8;}
	.st7{fill:#D0D2D3;}
	.st8{fill:#FAAF40;}
	.st9{fill:#FFF100;}
	.st10{opacity:0.5;fill:#CF7C1A;}
	.st11{fill:#2698A4;}
	.st12{fill:#65C8D0;}
	.st13{fill:#F7931E;}
	.st14{fill:#6B0008;}
	.st15{fill:#BE1E2D;}
	.st16{fill:#12578D;}
	.st17{fill:#1B75BB;}
	.st18{fill:#C0D5E0;}
	.st19{fill:#A2B4BE;}
	.st20{fill:#8FB9CC;}
	.st21{opacity:0.2;fill:#2F3F42;}
	.st22{fill:#A53C16;}
	.st23{fill:#F05A28;}
	.st24{fill:#CE808B;}
	.st25{fill:#C1DAE6;}
	.st26{fill:#DD4484;}
	.st27{opacity:0.5;fill:#CE808B;}
	.st28{fill:#ECA0A4;}
	.st29{opacity:0.5;fill:#ECA0A4;}
	.st30{fill:#2B388F;}
	.st31{opacity:0.5;fill:#2B388F;}
	.st32{fill:#6C2810;}
	.st33{fill:#8E3821;}
	.st34{fill:#6A050A;}
	.st35{fill:#9A1621;}
	.st36{fill:#1A1A1A;}
	.st37{opacity:0.5;fill:#1A1A1A;}
	.st38{fill:#333333;}
	.st39{fill:#FFFFFF;stroke:#231F20;stroke-width:0.3871;stroke-miterlimit:10;}
	.st40{fill:#0D4E80;}
	.st41{fill:#009BD9;}
	.st42{fill:#2D90D3;}
	.st43{opacity:0.5;fill:#333333;}
	.st44{fill:#231F20;}
	.st45{fill:#B4855C;}
	.st46{opacity:0.5;fill:#B4855C;}
	.st47{fill:#8A5339;}
	.st48{opacity:0.5;fill:#8A5339;}
	.st49{fill:#404041;}
	.st50{fill:none;stroke:#2E3191;stroke-width:2;stroke-linecap:round;stroke-miterlimit:10;}
</style>
<g>
	<path class="st0" d="M381.45,269.22c1.93-0.78,3.63,1.74,4.64,3.96c7.33,16.03,12.13,33.9,14.05,52.26
		c-0.65-6.23,0.74-13.16,2.15-19.09c1.53-6.45,3.76-12.64,6.61-18.32c0.54-1.07,1.11-2.14,1.92-2.87c0.81-0.74,1.91-1.09,2.82-0.58
		c1.1,0.62,1.61,2.23,1.91,3.71c2.1,10.21,0.18,22.21-1.21,32.41c-0.77,5.65-1.73,11.25-2.89,16.79c-0.58,2.77-1.21,5.52-1.88,8.26
		c-1.11,4.51-1.28,9.08-3.1,13.34c-0.59,1.39-1.34,2.77-2.46,3.46c-2.09,1.29-4.54-0.26-6.51-1.84
		c-13.07-10.57-24.42-24.94-33.31-41.02c-1.44-2.6-3.58-5.94-3.03-9.28c0.48-2.88,2.2-4.04,4.37-3.85
		c3.74,0.33,7.53,3.89,10.37,6.75c4.36,4.39,7.81,10.03,11.21,15.62c-6.59-16.66-9.38-35.7-7.97-54.24
		C379.32,272.49,379.81,269.89,381.45,269.22z"/>
	<path class="st1" d="M412.45,290.29c-2.64,16.33-5.85,32.51-9.62,48.48c-0.88,3.71-1.79,7.47-1.93,11.34
		c-0.11,3.31,0.35,6.6,0.96,9.82c-3.03-5.52-6.07-11.07-9.74-15.93c-5.3-7.02-11.8-12.46-16.96-19.65
		c-3.09-4.31-5.82-9.36-9.96-11.86"/>
	<path class="st1" d="M382.28,272.88c0.28,2.57,0.56,5.14,0.84,7.71c0.29,2.63,0.57,5.27,1.05,7.86c1.77,9.74,6.1,18.54,7.58,28.36
		c0.31,2.03,0.49,4.08,0.72,6.12c0.29,2.54,0.65,5.06,1.1,7.56c1.81,10.21,4.9,19.98,8.38,29.47"/>
	<path class="st1" d="M407.81,294.25c0.44,2.87,0.9,5.82,2.12,8.31c0.09,0.19,0.24,0.41,0.41,0.37c0.09-0.02,0.16-0.1,0.22-0.18
		c1.53-1.85,2.92-3.89,4.15-6.08"/>
	<path class="st1" d="M404.87,306.79c0.23,2.77,0.68,5.5,1.35,8.15c0.2,0.8,0.45,1.64,0.98,2.14c0.11,0.11,0.26,0.2,0.4,0.15
		c0.09-0.03,0.16-0.12,0.23-0.2c2.05-2.5,3.98-5.14,5.8-7.91"/>
	<path class="st1" d="M401.27,321.53c0.1,2.86,0.58,5.7,1.42,8.36c0.33,1.04,0.75,2.12,1.51,2.71c2.69-3,5.13-6.39,7.24-10.06"/>
	<path class="st1" d="M398.62,326.8c-0.5,5.16-1.24,10.28-2.22,15.33c-3.23-2.95-5.6-7.11-8.33-10.78"/>
	<path class="st1" d="M395.87,315.04c-0.88,3.91-1.83,7.79-2.84,11.65c-1.65-1.89-3.32-3.79-4.64-6.06
		c-1.31-2.24-2.27-4.82-3.83-6.77"/>
	<path class="st1" d="M391.71,294.36c-0.25,4.92-0.8,9.82-1.64,14.64c-3.7-2.4-6.46-6.55-9.11-10.6"/>
	<path class="st1" d="M387.05,280.44c-0.56,4.15-1.17,8.29-1.84,12.42c-0.65-0.42-1.1-1.19-1.52-1.94
		c-1.28-2.24-2.55-4.48-3.83-6.72"/>
	<path class="st1" d="M368.73,310.02c0.88,2.26,1.42,4.74,1.57,7.25c-2.21,0.05-4.43-0.49-6.47-1.57"/>
	<path class="st1" d="M375.57,315.38c1.34,3.77,2.01,7.92,1.95,12.06c-3.26-0.8-6.45-2.09-9.47-3.84"/>
	<path class="st1" d="M382.37,323.61c0.82,3.71,1.46,7.49,1.92,11.31c-3.69-0.63-7.36-1.4-11.02-2.31"/>
	<path class="st1" d="M388.89,336.08c0.13-0.12,0.28,0.12,0.33,0.32c0.53,2.02,1.06,4.04,1.59,6.06c-2.94,0.57-6,1.14-8.83,0"/>
	<path class="st1" d="M386.73,348.31c3.05,1.69,6.39,2.56,9.72,2.53"/>
	<path class="st1" d="M398.97,338.16c0.32,2.55,1.32,4.95,2.79,6.73c2.69-2.16,4.94-5.2,6.47-8.75"/>
	<path class="st1" d="M407.09,342.12c-1.74,5.56-3.67,11.03-5.78,16.38c-2.74-0.84-5.53-2.14-8.07-3.68"/>
</g>
<g>
	<path class="st2" d="M340.51,322.25c1.03-1.8,3.24-1.15,4.85-0.26c11.62,6.43,22.22,15.78,31,27.37
		c-2.98-3.93-4.81-9.68-6.24-14.75c-1.55-5.51-2.5-11.28-2.81-17.11c-0.06-1.09-0.09-2.22,0.18-3.26c0.27-1.04,0.89-2,1.74-2.24
		c1.02-0.29,2.03,0.51,2.84,1.35c5.61,5.77,9.13,15.4,12.29,23.44c1.75,4.45,3.35,8.99,4.78,13.62c0.72,2.31,1.4,4.65,2.03,7
		c1.05,3.88,2.79,7.18,3.24,11.34c0.15,1.36,0.19,2.81-0.32,4.02c-0.94,2.27-3.28,2.78-5.3,2.95c-13.42,1.13-27.18-1.51-39.91-6.96
		c-2.06-0.88-4.91-1.82-5.88-4.51c-0.83-2.33-0.1-4.26,1.49-5.54c2.75-2.21,6.84-2.19,9.98-2.04c4.83,0.23,9.53,1.92,14.17,3.61
		c-11.36-7.35-21.03-18.83-27.56-32.72C340.34,325.93,339.63,323.79,340.51,322.25z"/>
	<path class="st3" d="M370.71,316.77c4.78,13.13,9.09,26.54,12.93,40.16c0.89,3.17,1.77,6.39,3.25,9.18
		c1.26,2.39,2.92,4.39,4.65,6.24c-4.35-1.89-8.73-3.78-13.26-4.79c-6.55-1.45-13.3-1.02-19.82-2.68c-3.9-1-7.86-2.75-11.77-1.8"/>
	<path class="st3" d="M342.57,324.27c1.24,1.61,2.47,3.23,3.71,4.84c1.27,1.65,2.54,3.31,3.92,4.81
		c5.19,5.65,11.78,8.98,16.79,14.88c1.03,1.22,1.99,2.53,2.98,3.81c1.23,1.59,2.51,3.11,3.83,4.57c5.4,5.95,11.53,10.77,17.8,15.14"
		/>
	<path class="st3" d="M369.07,322.57c1.47,1.72,2.99,3.48,4.85,4.43c0.14,0.07,0.33,0.13,0.44-0.01c0.05-0.07,0.07-0.17,0.08-0.27
		c0.32-2.29,0.47-4.62,0.43-6.95"/>
	<path class="st3" d="M372.1,333.24c1.28,1.78,2.71,3.4,4.25,4.82c0.46,0.43,0.98,0.86,1.55,0.86c0.12,0,0.26-0.03,0.34-0.15
		c0.05-0.08,0.07-0.19,0.08-0.29c0.42-3.08,0.7-6.19,0.85-9.31"/>
	<path class="st3" d="M375.57,345.9c1.23,1.93,2.72,3.6,4.38,4.92c0.65,0.52,1.38,0.99,2.15,0.91c0.66-3.86,0.99-7.8,0.98-11.75"/>
	<path class="st3" d="M375.85,351.31c1.75,3.93,3.3,7.99,4.66,12.16c-3.45,0.04-6.8-1.32-10.19-2.11"/>
	<path class="st3" d="M369.16,344.88c0.97,3.31,1.88,6.64,2.74,9.99c-1.92-0.24-3.85-0.49-5.7-1.21c-1.82-0.71-3.54-1.89-5.42-2.24"
		/>
	<path class="st3" d="M357.87,333.14c1.82,3.61,3.42,7.39,4.79,11.3c-3.56,0.74-7.17-0.37-10.67-1.47"/>
	<path class="st3" d="M348.97,326.44c1.29,3.27,2.54,6.56,3.75,9.88c-0.62,0.13-1.25-0.12-1.85-0.36c-1.8-0.73-3.6-1.47-5.4-2.2"/>
	<path class="st3" d="M348.15,359.06c1.53,1.01,2.91,2.39,4.04,4.05c-1.53,1.47-3.29,2.54-5.16,3.12"/>
	<path class="st3" d="M355.11,358.35c2.47,1.76,4.62,4.22,6.25,7.16c-2.6,1.56-5.36,2.74-8.18,3.49"/>
	<path class="st3" d="M363.19,359.67c2.08,2.06,4.06,4.28,5.92,6.65c-2.83,1.97-5.71,3.82-8.64,5.56"/>
	<path class="st3" d="M372.81,364.14c0.05-0.17,0.25-0.1,0.36,0.01c1.19,1.07,2.38,2.13,3.57,3.2c-1.82,2.32-3.73,4.71-6.17,5.76"/>
	<path class="st3" d="M376.25,374.09c2.82-0.81,5.5-2.38,7.82-4.57"/>
	<path class="st3" d="M380.7,359.03c1.26,1.57,2.93,2.6,4.68,2.89c1.01-3.27,1.34-6.86,0.97-10.33"/>
	<path class="st3" d="M387.98,356.5c1.03,5.02,1.9,10.1,2.6,15.22c-2.26,1.2-4.73,2.11-7.14,2.69"/>
</g>
<g>
	<path class="st0" d="M579.84,308.76c-2-0.38-3.36,2.45-4.08,4.85c-5.19,17.31-7.66,35.93-7.22,54.45
		c-0.15-6.29-2.41-12.83-4.55-18.4c-2.33-6.05-5.31-11.7-8.85-16.73c-0.66-0.94-1.37-1.88-2.26-2.44c-0.89-0.56-2.02-0.68-2.85,0.01
		c-1.01,0.83-1.3,2.53-1.41,4.05c-0.77,10.51,2.65,21.95,5.32,31.74c1.48,5.42,3.14,10.75,4.99,15.98c0.92,2.62,1.89,5.2,2.91,7.77
		c1.67,4.22,2.42,8.7,4.75,12.53c0.76,1.25,1.67,2.46,2.87,2.91c2.23,0.85,4.45-1.18,6.19-3.15c11.55-13.11,20.93-29.6,27.66-47.29
		c1.09-2.86,2.78-6.59,1.81-9.78c-0.84-2.75-2.68-3.54-4.81-2.91c-3.65,1.09-6.93,5.38-9.37,8.78c-3.74,5.22-6.43,11.5-9.08,17.71
		c4.38-17.79,4.72-37.15,0.97-55.16C582.36,311.55,581.54,309.08,579.84,308.76z"/>
	<path class="st1" d="M551.92,335.89c4.68,15.58,9.91,30.89,15.66,45.88c1.34,3.49,2.72,7,3.34,10.8c0.53,3.24,0.5,6.59,0.3,9.89
		c2.28-6.07,4.58-12.17,7.58-17.71c4.34-8.01,10.06-14.71,14.23-22.86c2.5-4.88,4.55-10.42,8.32-13.74"/>
	<path class="st1" d="M579.49,312.54c0.05,2.59,0.1,5.19,0.15,7.78c0.05,2.66,0.1,5.32-0.03,7.97c-0.51,9.98-3.66,19.55-3.88,29.54
		c-0.04,2.06,0.04,4.12,0.07,6.19c0.04,2.56,0,5.13-0.12,7.68c-0.49,10.44-2.3,20.72-4.52,30.8"/>
	<path class="st1" d="M557.01,338.85c-0.07,2.93-0.15,5.93-1.03,8.64c-0.07,0.21-0.18,0.45-0.36,0.45c-0.09,0-0.17-0.07-0.24-0.13
		c-1.75-1.51-3.38-3.24-4.86-5.15"/>
	<path class="st1" d="M561.5,350.62c0.12,2.78,0.02,5.57-0.29,8.32c-0.1,0.83-0.23,1.71-0.69,2.31c-0.1,0.13-0.23,0.25-0.37,0.23
		c-0.09-0.01-0.17-0.08-0.25-0.15c-2.34-2.05-4.58-4.26-6.73-6.62"/>
	<path class="st1" d="M566.93,364.44c0.26,2.84,0.15,5.74-0.34,8.54c-0.19,1.1-0.47,2.25-1.14,2.98c-3.04-2.42-5.87-5.25-8.42-8.45"
		/>
	<path class="st1" d="M570.22,369.1c1.15,4.99,2.53,9.89,4.14,14.67c2.81-3.57,4.63-8.17,6.85-12.35"/>
	<path class="st1" d="M571.43,356.93c1.37,3.68,2.8,7.32,4.28,10.92c1.39-2.2,2.79-4.42,3.81-6.92c1-2.48,1.63-5.22,2.92-7.47"/>
	<path class="st1" d="M572.92,335.67c0.87,4.81,2.04,9.53,3.48,14.11c3.34-3.12,5.54-7.79,7.65-12.32"/>
	<path class="st1" d="M575.74,320.98c1.08,3.98,2.21,7.94,3.39,11.88c0.59-0.54,0.93-1.4,1.26-2.22c0.97-2.47,1.95-4.94,2.92-7.41"
		/>
	<path class="st1" d="M597.58,346.42c-0.58,2.41-0.8,4.97-0.62,7.48c2.19-0.41,4.31-1.39,6.18-2.87"/>
	<path class="st1" d="M591.51,353.11c-0.85,4-0.98,8.23-0.39,12.3c3.12-1.46,6.1-3.39,8.86-5.73"/>
	<path class="st1" d="M585.85,362.63c-0.34,3.83-0.49,7.69-0.46,11.55c3.56-1.37,7.09-2.89,10.58-4.54"/>
	<path class="st1" d="M581,376.27c-0.15-0.09-0.26,0.18-0.29,0.38c-0.27,2.1-0.54,4.21-0.8,6.31c2.97-0.03,6.06-0.1,8.72-1.8"/>
	<path class="st1" d="M584.69,387.89c-2.8,2.29-5.98,3.83-9.27,4.48"/>
	<path class="st1" d="M571.32,380.39c0.01,2.58-0.67,5.15-1.89,7.22c-2.93-1.58-5.54-4.13-7.49-7.31"/>
	<path class="st1" d="M563.81,385.95c2.43,5.13,5.03,10.13,7.78,14.99c2.6-1.39,5.18-3.24,7.5-5.29"/>
</g>
<g>
	<path class="st0" d="M613.28,371.11c-1.93-0.78-3.63,1.74-4.64,3.96c-7.33,16.03-12.13,33.9-14.05,52.26
		c0.65-6.23-0.74-13.16-2.15-19.09c-1.53-6.45-3.76-12.64-6.61-18.32c-0.54-1.07-1.11-2.14-1.92-2.87s-1.91-1.09-2.82-0.58
		c-1.1,0.62-1.61,2.23-1.91,3.71c-2.1,10.21-0.18,22.21,1.21,32.41c0.77,5.65,1.73,11.25,2.89,16.79c0.58,2.77,1.21,5.52,1.88,8.26
		c1.11,4.51,1.28,9.08,3.1,13.34c0.59,1.39,1.34,2.77,2.46,3.46c2.09,1.29,4.54-0.26,6.51-1.84c13.07-10.57,24.42-24.94,33.31-41.02
		c1.44-2.6,3.58-5.94,3.03-9.28c-0.48-2.88-2.2-4.04-4.37-3.85c-3.74,0.33-7.53,3.89-10.37,6.75c-4.36,4.39-7.81,10.03-11.21,15.62
		c6.59-16.66,9.38-35.7,7.97-54.24C615.41,374.38,614.92,371.77,613.28,371.11z"/>
	<path class="st1" d="M582.28,392.17c2.64,16.33,5.85,32.51,9.62,48.48c0.88,3.71,1.79,7.47,1.93,11.34
		c0.11,3.31-0.35,6.6-0.96,9.82c3.03-5.52,6.07-11.07,9.74-15.93c5.3-7.02,11.8-12.46,16.96-19.65c3.09-4.31,5.82-9.36,9.96-11.86"
		/>
	<path class="st1" d="M612.45,374.77c-0.28,2.57-0.56,5.14-0.84,7.71c-0.29,2.63-0.57,5.27-1.05,7.86
		c-1.77,9.74-6.1,18.54-7.58,28.36c-0.31,2.03-0.49,4.08-0.72,6.12c-0.29,2.54-0.65,5.06-1.1,7.56c-1.81,10.21-4.9,19.98-8.38,29.47
		"/>
	<path class="st1" d="M586.93,396.13c-0.44,2.87-0.9,5.82-2.12,8.31c-0.09,0.19-0.24,0.41-0.41,0.37c-0.09-0.02-0.16-0.1-0.22-0.18
		c-1.53-1.85-2.92-3.89-4.15-6.08"/>
	<path class="st1" d="M589.86,408.67c-0.23,2.77-0.68,5.5-1.35,8.15c-0.2,0.8-0.45,1.64-0.98,2.14c-0.11,0.11-0.26,0.2-0.4,0.15
		c-0.09-0.03-0.16-0.12-0.23-0.2c-2.05-2.5-3.98-5.14-5.8-7.91"/>
	<path class="st1" d="M593.46,423.42c-0.1,2.86-0.58,5.7-1.42,8.36c-0.33,1.04-0.75,2.12-1.51,2.71c-2.69-3-5.13-6.39-7.24-10.06"/>
	<path class="st1" d="M596.12,428.69c0.5,5.16,1.24,10.28,2.22,15.33c3.23-2.95,5.6-7.11,8.33-10.78"/>
	<path class="st1" d="M598.86,416.93c0.88,3.91,1.83,7.79,2.84,11.65c1.65-1.89,3.32-3.79,4.64-6.06c1.31-2.24,2.27-4.82,3.83-6.77"
		/>
	<path class="st1" d="M603.03,396.25c0.25,4.92,0.8,9.82,1.64,14.64c3.7-2.4,6.46-6.55,9.11-10.6"/>
	<path class="st1" d="M607.68,382.32c0.56,4.15,1.17,8.29,1.84,12.42c0.65-0.42,1.1-1.19,1.52-1.94c1.28-2.24,2.55-4.48,3.83-6.72"
		/>
	<path class="st1" d="M626.01,411.9c-0.88,2.26-1.42,4.74-1.57,7.25c2.21,0.05,4.43-0.49,6.47-1.57"/>
	<path class="st1" d="M619.17,417.26c-1.34,3.77-2.01,7.92-1.95,12.06c3.26-0.8,6.45-2.09,9.47-3.84"/>
	<path class="st1" d="M612.37,425.5c-0.82,3.71-1.46,7.49-1.92,11.3c3.69-0.63,7.36-1.4,11.02-2.31"/>
	<path class="st1" d="M605.84,437.97c-0.13-0.12-0.28,0.12-0.33,0.32c-0.53,2.02-1.06,4.04-1.59,6.06c2.94,0.57,6,1.14,8.83,0"/>
	<path class="st1" d="M608.01,450.2c-3.05,1.69-6.39,2.56-9.72,2.53"/>
	<path class="st1" d="M595.77,440.05c-0.32,2.55-1.32,4.95-2.79,6.73c-2.69-2.16-4.94-5.2-6.47-8.75"/>
	<path class="st1" d="M587.64,444.01c1.74,5.56,3.67,11.03,5.78,16.38c2.74-0.84,5.53-2.14,8.07-3.68"/>
</g>
<g>
	<path class="st2" d="M628.27,402.24c-1.25-1.57-3.34-0.47-4.82,0.73c-10.65,8.72-19.92,20.12-27.12,33.35
		c2.44-4.49,3.52-10.54,4.28-15.83c0.82-5.75,1.03-11.64,0.59-17.46c-0.08-1.09-0.19-2.21-0.59-3.18c-0.4-0.97-1.14-1.79-2-1.86
		c-1.04-0.08-1.93,0.92-2.63,1.91c-4.8,6.84-7.05,17.07-9.15,25.65c-1.16,4.75-2.16,9.56-2.99,14.42c-0.41,2.43-0.79,4.87-1.12,7.32
		c-0.54,4.04-1.84,7.65-1.76,11.86c0.03,1.37,0.17,2.81,0.82,3.91c1.21,2.05,3.59,2.08,5.6,1.83c13.39-1.63,26.63-7.05,38.5-15.03
		c1.92-1.29,4.62-2.8,5.23-5.66c0.53-2.47-0.44-4.23-2.18-5.16c-3-1.62-7.03-0.76-10.11,0.03c-4.73,1.21-9.16,3.85-13.52,6.46
		c10.27-9.58,18.36-22.89,23.04-37.93C628.9,405.83,629.33,403.57,628.27,402.24z"/>
	<path class="st3" d="M597.76,403c-3.04,13.94-5.6,28.05-7.65,42.27c-0.48,3.31-0.94,6.67-2.04,9.72c-0.94,2.61-2.32,4.93-3.8,7.11
		c4.06-2.75,8.13-5.52,12.48-7.43c6.28-2.77,13-3.72,19.22-6.7c3.72-1.78,7.4-4.32,11.38-4.18"/>
	<path class="st3" d="M626.49,404.65c-1.02,1.84-2.03,3.69-3.05,5.53c-1.04,1.89-2.08,3.78-3.25,5.55
		c-4.4,6.64-10.48,11.27-14.68,18.12c-0.87,1.41-1.64,2.91-2.46,4.37c-1.01,1.82-2.08,3.58-3.2,5.29
		c-4.58,6.98-10.01,12.99-15.64,18.58"/>
	<path class="st3" d="M600.12,408.39c-1.24,2-2.51,4.04-4.22,5.36c-0.13,0.1-0.31,0.2-0.43,0.08c-0.06-0.06-0.09-0.16-0.12-0.25
		c-0.61-2.2-1.05-4.47-1.31-6.77"/>
	<path class="st3" d="M598.49,419.55c-1.04,2.02-2.24,3.91-3.58,5.63c-0.4,0.52-0.85,1.04-1.42,1.16c-0.12,0.03-0.26,0.02-0.35-0.08
		c-0.06-0.07-0.09-0.17-0.11-0.27c-0.8-2.95-1.48-5.96-2.02-9.01"/>
	<path class="st3" d="M596.68,432.75c-0.97,2.16-2.22,4.11-3.7,5.75c-0.58,0.64-1.24,1.26-2.01,1.34c-1.15-3.67-1.97-7.5-2.46-11.4"
		/>
	<path class="st3" d="M597.09,438.14c-1.22,4.24-2.24,8.57-3.05,12.96c3.41-0.66,6.54-2.69,9.79-4.16"/>
	<path class="st3" d="M602.87,430.43c-0.53,3.46-1.01,6.94-1.43,10.42c1.86-0.63,3.74-1.27,5.47-2.36c1.71-1.08,3.25-2.59,5.07-3.32
		"/>
	<path class="st3" d="M612.52,416.54c-1.34,3.93-2.44,7.99-3.29,12.13c3.6,0,7.03-1.83,10.34-3.63"/>
	<path class="st3" d="M620.46,408.1c-0.86,3.49-1.67,6.99-2.44,10.51c0.63,0,1.22-0.37,1.78-0.73c1.68-1.09,3.37-2.18,5.05-3.28"/>
	<path class="st3" d="M625.41,440.13c-1.38,1.31-2.57,2.95-3.47,4.82c1.69,1.14,3.57,1.84,5.48,2.02"/>
	<path class="st3" d="M618.45,440.85c-2.21,2.24-4.02,5.11-5.26,8.34c2.77,1.01,5.63,1.61,8.51,1.77"/>
	<path class="st3" d="M610.64,443.81c-1.79,2.46-3.46,5.06-5,7.78c3.05,1.36,6.13,2.6,9.23,3.72"/>
	<path class="st3" d="M601.72,450.18c-0.07-0.16-0.26-0.05-0.36,0.08c-1.04,1.3-2.08,2.59-3.12,3.89c2.09,1.91,4.28,3.88,6.82,4.42"
		/>
	<path class="st3" d="M599.59,460.71c-2.88-0.22-5.73-1.22-8.3-2.91"/>
	<path class="st3" d="M593.28,446.75c-1.04,1.81-2.56,3.17-4.25,3.81c-1.41-3.02-2.2-6.49-2.27-10"/>
	<path class="st3" d="M585.78,445.74c-0.38,5.17-0.59,10.36-0.63,15.55c2.38,0.72,4.94,1.11,7.38,1.19"/>
</g>
<g>
	<path class="st0" d="M458.16,238.44c-1.7,0.69-1.91,3.61-1.74,5.87c1.21,16.3,4.98,32.3,11.03,46.77
		c-2.05-4.91-5.86-8.99-9.27-12.35c-3.71-3.65-7.82-6.65-12.17-8.89c-0.82-0.42-1.66-0.82-2.54-0.82c-0.88,0-1.81,0.46-2.26,1.42
		c-0.55,1.16-0.25,2.65,0.13,3.91c2.62,8.72,8.86,16.1,13.99,22.54c2.84,3.56,5.8,6.97,8.88,10.21c1.54,1.62,3.1,3.19,4.7,4.72
		c2.63,2.52,4.59,5.7,7.63,7.59c0.99,0.61,2.09,1.12,3.17,0.89c2.03-0.43,3.17-3.14,3.94-5.56c5.13-16.11,7.49-33.84,7.38-51.2
		c-0.02-2.81,0.18-6.61-1.58-8.65c-1.51-1.76-3.22-1.48-4.71,0.07c-2.56,2.67-3.84,7.7-4.73,11.61c-1.36,6-1.56,12.3-1.75,18.54
		c-2-16.28-7.69-31.8-16.21-44.24C461.01,239.4,459.61,237.85,458.16,238.44z"/>
	<path class="st1" d="M444.36,273.77c8.51,10.04,17.37,19.6,26.54,28.64c2.13,2.1,4.31,4.21,5.97,6.91c1.42,2.31,2.42,4.98,3.28,7.7
		c-0.06-5.94-0.11-11.92,0.57-17.8c0.98-8.5,3.45-16.65,4.26-25.18c0.48-5.11,0.4-10.52,2.37-15.02"/>
	<path class="st1" d="M459.04,241.61c0.84,2.03,1.68,4.06,2.51,6.1c0.86,2.08,1.72,4.17,2.43,6.34c2.66,8.17,3.11,17.32,6.02,25.35
		c0.6,1.66,1.3,3.25,1.96,4.87c0.82,2.01,1.58,4.07,2.27,6.16c2.83,8.53,4.56,17.58,5.89,26.67"/>
	<path class="st1" d="M449.31,273.6c0.85,2.36,1.7,4.78,1.84,7.36c0.01,0.2,0,0.45-0.15,0.53c-0.07,0.04-0.15,0.03-0.23,0.02
		c-1.85-0.33-3.68-0.9-5.44-1.68"/>
	<path class="st1" d="M456.5,280.72c0.95,2.14,1.73,4.41,2.33,6.75c0.18,0.7,0.34,1.47,0.16,2.17c-0.04,0.15-0.11,0.31-0.22,0.37
		c-0.08,0.04-0.16,0.02-0.24,0.01c-2.48-0.47-4.95-1.11-7.38-1.92"/>
	<path class="st1" d="M465.06,288.99c1.08,2.13,1.89,4.48,2.36,6.94c0.19,0.97,0.32,2.01,0.01,2.93c-3.15-0.41-6.27-1.26-9.28-2.53"
		/>
	<path class="st1" d="M469.1,291.06c2.45,3.39,5.05,6.6,7.8,9.59c1.13-4.22,1.16-8.77,1.63-13.18"/>
	<path class="st1" d="M466.32,280.81c2.22,2.24,4.47,4.42,6.76,6.54c0.43-2.43,0.85-4.89,0.89-7.38c0.03-2.46-0.32-4.95,0.02-7.37"
		/>
	<path class="st1" d="M460.95,263.21c2.17,3.38,4.55,6.55,7.1,9.47c1.69-4.13,2-8.92,2.27-13.56"/>
	<path class="st1" d="M458.67,250.15c2.08,2.62,4.2,5.21,6.35,7.74c0.3-0.72,0.31-1.57,0.31-2.38c0.01-2.44,0.02-4.88,0.04-7.33"/>
	<path class="st1" d="M483.83,259.53c0.28,2.2,0.9,4.33,1.81,6.24c1.61-1.4,2.99-3.23,4.02-5.34"/>
	<path class="st1" d="M481.07,267.84c0.56,3.59,1.76,7.01,3.47,9.95c2.02-2.7,3.79-5.7,5.27-8.93"/>
	<path class="st1" d="M479.51,278.19c0.91,3.21,1.98,6.34,3.19,9.39c2.4-2.85,4.74-5.8,7-8.83"/>
	<path class="st1" d="M479.86,291.42c-0.14,0-0.15,0.27-0.11,0.45c0.43,1.8,0.87,3.6,1.31,5.4c2.35-1.5,4.78-3.08,6.36-5.75"/>
	<path class="st1" d="M486.36,298.81c-1.52,3.2-3.56,6-5.97,8.14"/>
	<path class="st1" d="M473.45,299.47c0.8,2.04,1.05,4.42,0.72,6.66c-2.81,0.2-5.66-0.53-8.2-2.09"/>
	<path class="st1" d="M469.2,307.6c3.51,2.87,7.11,5.55,10.79,8.04c1.63-2.39,3.12-5.14,4.32-7.9"/>
</g>
<g>
	<path class="st2" d="M521.32,255.16c-1.48-1.09-3.35,0.32-4.6,1.7c-8.99,9.92-16.2,21.89-21.07,34.98
		c1.65-4.45,1.71-9.94,1.59-14.71c-0.14-5.19-0.91-10.36-2.29-15.33c-0.26-0.93-0.55-1.88-1.1-2.64c-0.55-0.76-1.41-1.31-2.26-1.18
		c-1.04,0.16-1.74,1.22-2.26,2.24c-3.57,7.01-4.1,16.4-4.74,24.33c-0.36,4.39-0.54,8.79-0.56,13.21c-0.01,2.21,0.03,4.41,0.11,6.62
		c0.13,3.64-0.54,7.06,0.23,10.7c0.25,1.19,0.63,2.41,1.45,3.22c1.53,1.51,3.86,1.02,5.79,0.36c12.84-4.36,24.92-11.99,35.23-21.54
		c1.67-1.55,4.06-3.45,4.19-6.07c0.11-2.26-1.13-3.58-2.98-4.02c-3.2-0.75-7.01,0.88-9.9,2.25c-4.44,2.09-8.33,5.36-12.18,8.59
		c8.49-10.59,14.22-23.95,16.32-38.06C522.53,258.15,522.58,256.09,521.32,255.16z"/>
	<path class="st3" d="M491.57,262.53c-0.69,12.8-0.87,25.64-0.54,38.47c0.08,2.98,0.18,6.01-0.4,8.91c-0.49,2.48-1.46,4.8-2.55,7.02
		c3.52-3.29,7.06-6.59,11-9.21c5.69-3.79,12.11-6.1,17.72-10.05c3.35-2.37,6.54-5.39,10.46-6.14"/>
	<path class="st3" d="M519.98,257.65c-0.69,1.83-1.38,3.66-2.07,5.49c-0.71,1.87-1.42,3.75-2.27,5.54
		c-3.22,6.74-8.41,12.11-11.4,18.99c-0.62,1.42-1.13,2.89-1.69,4.34c-0.69,1.8-1.45,3.57-2.26,5.31
		c-3.33,7.08-7.66,13.5-12.27,19.61"/>
	<path class="st3" d="M494.77,266.7c-0.88,2.01-1.79,4.07-3.25,5.6c-0.11,0.12-0.27,0.24-0.41,0.16c-0.07-0.04-0.11-0.12-0.15-0.19
		c-0.96-1.78-1.76-3.66-2.4-5.6"/>
	<path class="st3" d="M495,276.76c-0.69,1.99-1.55,3.89-2.58,5.68c-0.31,0.54-0.66,1.1-1.2,1.32c-0.12,0.05-0.25,0.08-0.36,0.01
		c-0.07-0.05-0.11-0.13-0.16-0.21c-1.27-2.39-2.43-4.86-3.46-7.4"/>
	<path class="st3" d="M495.4,288.65c-0.59,2.09-1.5,4.07-2.68,5.81c-0.46,0.69-1.01,1.37-1.74,1.6c-1.73-2.94-3.17-6.09-4.28-9.38"
		/>
	<path class="st3" d="M496.69,293.25c-0.5,3.95-0.79,7.95-0.86,11.95c3.23-1.33,5.96-3.78,8.91-5.77"/>
	<path class="st3" d="M501.08,285.27c0.05,3.13,0.15,6.26,0.31,9.38c1.72-0.96,3.46-1.93,4.97-3.25c1.49-1.31,2.76-2.97,4.42-4"/>
	<path class="st3" d="M508.25,271.06c-0.66,3.71-1.07,7.49-1.23,11.28c3.53-0.79,6.58-3.14,9.53-5.43"/>
	<path class="st3" d="M514.63,261.98c-0.27,3.22-0.49,6.45-0.66,9.69c0.62-0.14,1.13-0.59,1.62-1.03c1.47-1.32,2.94-2.64,4.4-3.96"
		/>
	<path class="st3" d="M524.75,288.76c-1.14,1.44-2.03,3.13-2.6,4.96c1.85,0.62,3.8,0.81,5.7,0.56"/>
	<path class="st3" d="M518.06,290.91c-1.8,2.44-3.1,5.33-3.78,8.41c2.88,0.27,5.78,0.16,8.63-0.33"/>
	<path class="st3" d="M510.89,295.2c-1.35,2.53-2.56,5.16-3.62,7.86c3.21,0.52,6.43,0.92,9.65,1.21"/>
	<path class="st3" d="M503.2,302.71c-0.09-0.12-0.26,0.02-0.34,0.15c-0.8,1.36-1.61,2.71-2.41,4.07c2.36,1.21,4.83,2.44,7.41,2.35"
		/>
	<path class="st3" d="M502.84,312.34c-2.86,0.44-5.81,0.2-8.6-0.71"/>
	<path class="st3" d="M494.38,301.58c-0.72,1.8-1.98,3.32-3.53,4.25c-1.87-2.32-3.22-5.17-3.87-8.2"/>
	<path class="st3" d="M486.86,302.35c0.48,4.58,1.12,9.14,1.94,13.67c2.45,0.11,5.02-0.12,7.43-0.58"/>
</g>
<g>
	<path class="st2" d="M646.71,411.68c-1.03-1.8-3.24-1.15-4.85-0.26c-11.62,6.42-22.22,15.78-31,27.37
		c2.98-3.93,4.81-9.68,6.24-14.75c1.55-5.51,2.5-11.28,2.81-17.11c0.06-1.09,0.09-2.22-0.18-3.26c-0.27-1.04-0.89-2-1.74-2.24
		c-1.02-0.29-2.03,0.51-2.84,1.35c-5.61,5.77-9.13,15.4-12.29,23.44c-1.75,4.45-3.35,8.99-4.78,13.62c-0.72,2.31-1.4,4.65-2.03,7
		c-1.05,3.88-2.79,7.18-3.24,11.34c-0.15,1.36-0.19,2.81,0.32,4.02c0.94,2.27,3.28,2.78,5.3,2.95c13.42,1.13,27.18-1.51,39.91-6.96
		c2.06-0.88,4.91-1.82,5.88-4.51c0.83-2.33,0.1-4.26-1.49-5.54c-2.75-2.21-6.84-2.19-9.98-2.04c-4.83,0.23-9.53,1.92-14.17,3.61
		c11.36-7.35,21.03-18.83,27.56-32.72C646.87,415.36,647.59,413.22,646.71,411.68z"/>
	<path class="st3" d="M616.5,406.2c-4.78,13.13-9.09,26.54-12.93,40.16c-0.89,3.17-1.77,6.39-3.25,9.18
		c-1.26,2.39-2.92,4.39-4.65,6.24c4.35-1.89,8.73-3.78,13.26-4.79c6.55-1.45,13.3-1.02,19.82-2.68c3.9-1,7.86-2.75,11.77-1.8"/>
	<path class="st3" d="M644.65,413.7c-1.24,1.61-2.47,3.23-3.71,4.84c-1.27,1.65-2.54,3.31-3.92,4.81
		c-5.19,5.65-11.78,8.98-16.79,14.88c-1.03,1.22-1.99,2.53-2.98,3.81c-1.23,1.59-2.51,3.11-3.83,4.57
		c-5.4,5.95-11.53,10.77-17.8,15.14"/>
	<path class="st3" d="M618.14,412c-1.47,1.72-2.99,3.48-4.85,4.43c-0.14,0.07-0.33,0.13-0.44-0.01c-0.05-0.07-0.07-0.17-0.08-0.27
		c-0.32-2.29-0.47-4.62-0.43-6.95"/>
	<path class="st3" d="M615.11,422.68c-1.28,1.78-2.71,3.4-4.25,4.82c-0.46,0.43-0.98,0.86-1.55,0.86c-0.12,0-0.26-0.03-0.34-0.15
		c-0.05-0.08-0.07-0.19-0.08-0.29c-0.42-3.08-0.7-6.19-0.85-9.31"/>
	<path class="st3" d="M611.65,435.33c-1.23,1.93-2.72,3.6-4.38,4.92c-0.65,0.52-1.38,0.99-2.15,0.91c-0.66-3.86-0.99-7.8-0.98-11.75
		"/>
	<path class="st3" d="M611.37,440.74c-1.75,3.93-3.3,7.99-4.66,12.16c3.45,0.04,6.8-1.32,10.19-2.11"/>
	<path class="st3" d="M618.06,434.31c-0.97,3.31-1.88,6.64-2.74,9.99c1.92-0.24,3.85-0.49,5.7-1.21c1.82-0.71,3.54-1.89,5.43-2.24"
		/>
	<path class="st3" d="M629.35,422.57c-1.82,3.6-3.42,7.39-4.79,11.3c3.56,0.74,7.17-0.37,10.67-1.47"/>
	<path class="st3" d="M638.25,415.87c-1.29,3.27-2.54,6.56-3.75,9.88c0.62,0.13,1.25-0.12,1.85-0.36c1.8-0.73,3.6-1.47,5.4-2.2"/>
	<path class="st3" d="M639.06,448.49c-1.53,1.01-2.91,2.39-4.04,4.05c1.53,1.47,3.29,2.54,5.16,3.12"/>
	<path class="st3" d="M632.11,447.78c-2.47,1.76-4.62,4.22-6.25,7.16c2.6,1.56,5.36,2.74,8.18,3.49"/>
	<path class="st3" d="M624.02,449.1c-2.08,2.06-4.06,4.28-5.92,6.65c2.83,1.97,5.71,3.82,8.64,5.56"/>
	<path class="st3" d="M614.4,453.57c-0.04-0.17-0.25-0.1-0.36,0.01c-1.19,1.07-2.38,2.13-3.57,3.2c1.82,2.32,3.73,4.71,6.17,5.76"/>
	<path class="st3" d="M610.96,463.52c-2.82-0.81-5.5-2.38-7.82-4.57"/>
	<path class="st3" d="M606.52,448.46c-1.26,1.57-2.93,2.6-4.68,2.89c-1.01-3.27-1.34-6.86-0.97-10.33"/>
	<path class="st3" d="M599.24,445.93c-1.03,5.02-1.9,10.1-2.6,15.22c2.26,1.2,4.73,2.11,7.14,2.69"/>
</g>
<g>
	<path class="st0" d="M331.94,359.99c1.93-0.78,3.63,1.74,4.64,3.96c7.33,16.03,12.13,33.9,14.05,52.26
		c-0.65-6.23,0.74-13.16,2.15-19.09c1.53-6.45,3.76-12.64,6.61-18.32c0.53-1.07,1.11-2.14,1.92-2.87c0.81-0.74,1.91-1.09,2.82-0.58
		c1.1,0.62,1.61,2.23,1.91,3.71c2.1,10.21,0.18,22.2-1.21,32.41c-0.77,5.65-1.73,11.25-2.89,16.79c-0.58,2.77-1.21,5.52-1.88,8.26
		c-1.11,4.51-1.28,9.08-3.1,13.34c-0.59,1.39-1.34,2.77-2.46,3.46c-2.09,1.29-4.54-0.26-6.51-1.84
		c-13.07-10.57-24.42-24.94-33.31-41.02c-1.44-2.6-3.58-5.94-3.03-9.28c0.48-2.88,2.2-4.04,4.37-3.85
		c3.74,0.33,7.53,3.89,10.37,6.75c4.36,4.39,7.81,10.03,11.21,15.62c-6.59-16.66-9.38-35.7-7.97-54.24
		C329.81,363.26,330.3,360.66,331.94,359.99z"/>
	<path class="st1" d="M362.94,381.06c-2.64,16.33-5.85,32.51-9.62,48.48c-0.88,3.71-1.79,7.47-1.93,11.34
		c-0.11,3.31,0.35,6.6,0.96,9.82c-3.03-5.52-6.07-11.07-9.74-15.93c-5.3-7.02-11.8-12.46-16.96-19.65
		c-3.09-4.31-5.82-9.36-9.96-11.86"/>
	<path class="st1" d="M332.77,363.65c0.28,2.57,0.56,5.14,0.84,7.71c0.29,2.63,0.57,5.27,1.05,7.86c1.77,9.74,6.1,18.54,7.58,28.36
		c0.31,2.03,0.49,4.08,0.72,6.12c0.29,2.54,0.65,5.06,1.1,7.56c1.81,10.21,4.9,19.98,8.38,29.47"/>
	<path class="st1" d="M358.29,385.02c0.44,2.87,0.9,5.82,2.12,8.31c0.09,0.19,0.24,0.41,0.41,0.37c0.09-0.02,0.16-0.1,0.22-0.18
		c1.53-1.85,2.92-3.89,4.15-6.08"/>
	<path class="st1" d="M355.36,397.56c0.23,2.77,0.68,5.5,1.35,8.15c0.2,0.8,0.45,1.64,0.98,2.14c0.12,0.11,0.26,0.2,0.4,0.15
		c0.09-0.03,0.16-0.12,0.23-0.2c2.05-2.5,3.98-5.14,5.8-7.91"/>
	<path class="st1" d="M351.76,412.31c0.1,2.86,0.58,5.7,1.42,8.36c0.33,1.04,0.75,2.12,1.51,2.71c2.69-3.01,5.13-6.39,7.24-10.06"/>
	<path class="st1" d="M349.1,417.57c-0.5,5.16-1.24,10.28-2.22,15.33c-3.23-2.95-5.6-7.11-8.33-10.78"/>
	<path class="st1" d="M346.36,405.82c-0.88,3.91-1.83,7.79-2.84,11.65c-1.65-1.89-3.32-3.79-4.64-6.06
		c-1.31-2.24-2.27-4.82-3.83-6.77"/>
	<path class="st1" d="M342.19,385.14c-0.25,4.92-0.8,9.82-1.64,14.64c-3.7-2.4-6.46-6.55-9.11-10.6"/>
	<path class="st1" d="M337.54,371.21c-0.56,4.15-1.17,8.29-1.84,12.42c-0.65-0.42-1.1-1.19-1.52-1.94
		c-1.28-2.24-2.55-4.48-3.83-6.72"/>
	<path class="st1" d="M319.21,400.79c0.88,2.26,1.42,4.74,1.57,7.25c-2.21,0.05-4.43-0.49-6.47-1.57"/>
	<path class="st1" d="M326.05,406.15c1.34,3.77,2.01,7.92,1.95,12.06c-3.26-0.8-6.45-2.09-9.47-3.84"/>
	<path class="st1" d="M332.85,414.38c0.82,3.71,1.46,7.49,1.92,11.3c-3.69-0.63-7.36-1.4-11.02-2.31"/>
	<path class="st1" d="M339.38,426.86c0.13-0.12,0.28,0.12,0.33,0.32c0.53,2.02,1.06,4.04,1.59,6.06c-2.94,0.57-6,1.14-8.83,0"/>
	<path class="st1" d="M337.21,439.08c3.05,1.69,6.39,2.56,9.72,2.53"/>
	<path class="st1" d="M349.45,428.94c0.32,2.55,1.32,4.95,2.79,6.73c2.69-2.16,4.94-5.2,6.47-8.75"/>
	<path class="st1" d="M357.58,432.89c-1.74,5.56-3.67,11.03-5.78,16.38c-2.74-0.84-5.53-2.14-8.07-3.68"/>
</g>
<g>
	<path class="st2" d="M300.45,412.27c1.03-1.8,3.24-1.15,4.85-0.26c11.62,6.42,22.22,15.78,31,27.37
		c-2.98-3.93-4.81-9.68-6.24-14.75c-1.55-5.51-2.5-11.28-2.81-17.11c-0.06-1.09-0.09-2.22,0.18-3.26c0.27-1.04,0.89-2,1.74-2.24
		c1.02-0.29,2.03,0.51,2.84,1.35c5.61,5.77,9.13,15.4,12.29,23.44c1.75,4.45,3.35,8.99,4.78,13.62c0.72,2.31,1.4,4.65,2.03,7
		c1.05,3.88,2.79,7.18,3.24,11.34c0.15,1.36,0.19,2.81-0.32,4.02c-0.94,2.27-3.28,2.78-5.3,2.95c-13.42,1.13-27.18-1.51-39.91-6.96
		c-2.06-0.88-5.98-8.77-4.38-10.06c2.75-2.21,6.84-2.19,9.98-2.04c4.83,0.23,9.53,1.92,14.17,3.61
		c-11.36-7.35-21.03-18.83-27.56-32.72C300.29,415.95,299.58,413.81,300.45,412.27z"/>
	<path class="st3" d="M330.66,406.79c4.78,13.13,9.09,26.54,12.93,40.16c0.89,3.17,1.77,6.39,3.25,9.18
		c1.26,2.39,2.92,4.39,4.65,6.24c-4.35-1.89-8.73-3.78-13.26-4.79c-6.55-1.45-13.3-1.02-19.82-2.68c-3.9-1-7.86-2.75-11.77-1.8"/>
	<path class="st3" d="M302.52,414.29c1.24,1.61,2.47,3.23,3.71,4.84c1.27,1.65,2.54,3.31,3.92,4.81
		c5.19,5.65,11.78,8.98,16.79,14.88c1.03,1.22,1.99,2.53,2.98,3.81c1.23,1.59,2.51,3.11,3.83,4.57c5.4,5.95,11.53,10.77,17.8,15.14"
		/>
	<path class="st3" d="M329.02,412.59c1.47,1.72,2.99,3.48,4.85,4.43c0.14,0.07,0.33,0.13,0.44-0.01c0.05-0.07,0.07-0.17,0.08-0.27
		c0.32-2.29,0.47-4.62,0.43-6.95"/>
	<path class="st3" d="M332.05,423.27c1.28,1.78,2.71,3.4,4.25,4.82c0.46,0.43,0.98,0.86,1.55,0.86c0.12,0,0.26-0.03,0.34-0.15
		c0.05-0.08,0.07-0.19,0.08-0.29c0.42-3.08,0.7-6.19,0.85-9.31"/>
	<path class="st3" d="M335.51,435.92c1.23,1.93,2.72,3.6,4.38,4.92c0.65,0.52,1.38,0.99,2.15,0.91c0.66-3.86,0.99-7.8,0.98-11.75"/>
	<path class="st3" d="M335.79,441.33c1.75,3.93,3.3,7.99,4.66,12.16c-3.45,0.04-6.8-1.32-10.19-2.11"/>
	<path class="st3" d="M329.11,434.9c0.97,3.31,1.88,6.64,2.74,9.99c-1.92-0.24-3.85-0.49-5.7-1.21c-1.82-0.71-3.54-1.89-5.42-2.24"
		/>
	<path class="st3" d="M317.81,423.16c1.82,3.6,3.42,7.39,4.79,11.3c-3.56,0.74-7.17-0.37-10.67-1.47"/>
	<path class="st3" d="M308.91,416.46c1.29,3.27,2.54,6.56,3.75,9.88c-0.62,0.13-1.25-0.12-1.85-0.36c-1.8-0.73-3.6-1.47-5.4-2.2"/>
	<path class="st3" d="M308.1,449.08c1.53,1.01,2.91,2.39,4.04,4.05c-1.53,1.47-3.29,2.54-5.16,3.12"/>
	<path class="st3" d="M315.05,448.37c2.47,1.76,4.62,4.22,6.25,7.16c-2.6,1.56-5.36,2.74-8.18,3.49"/>
	<path class="st3" d="M323.14,449.69c2.08,2.06,4.06,4.28,5.92,6.65c-2.83,1.97-5.71,3.82-8.64,5.56"/>
	<path class="st3" d="M332.76,454.16c0.04-0.17,0.25-0.1,0.36,0.01c1.19,1.07,2.38,2.13,3.57,3.2c-1.82,2.32-3.73,4.71-6.17,5.76"/>
	<path class="st3" d="M336.2,464.11c2.82-0.81,5.5-2.38,7.82-4.57"/>
	<path class="st3" d="M340.64,449.05c1.26,1.57,2.93,2.6,4.68,2.89c1.01-3.27,1.34-6.86,0.97-10.33"/>
	<path class="st3" d="M347.92,446.52c1.03,5.02,1.9,10.1,2.6,15.22c-2.26,1.2-4.73,2.11-7.14,2.69"/>
</g>
<g>
	<path class="st4" d="M358.94,370.22c-2.95,0-5.74,0.88-8.21,2.44c-6.12,3.84-10.35,11.85-10.35,21.1
		c0,12.97,8.33,23.53,18.56,23.53h20.73v-47.07H358.94z"/>
	<path class="st5" d="M476.9,411.35c0.67,1.24,1.41,2.37,2.21,3.39H376.33c-3.33,0-6.43-1.25-9.02-3.39
		c-0.48-0.39-0.94-0.82-1.38-1.27c-0.64-0.65-1.23-1.36-1.78-2.12c-0.3-0.41-0.58-0.84-0.85-1.27c-0.42-0.67-0.8-1.38-1.15-2.12
		c-0.2-0.42-0.38-0.84-0.56-1.27c-0.28-0.68-0.52-1.39-0.74-2.12c-0.12-0.42-0.24-0.84-0.34-1.27c-0.17-0.69-0.31-1.4-0.41-2.12
		c-0.07-0.42-0.12-0.84-0.16-1.27c-0.07-0.7-0.12-1.4-0.13-2.12c-0.01-0.21-0.01-0.42-0.01-0.64c0-0.21,0-0.42,0.01-0.64
		c0.01-0.43,0.03-0.85,0.06-1.27c0.02-0.28,0.04-0.57,0.07-0.85c0.04-0.43,0.1-0.85,0.16-1.27c0.11-0.72,0.25-1.43,0.41-2.12
		c0.1-0.43,0.22-0.86,0.34-1.27c0.22-0.73,0.46-1.44,0.74-2.12c0.17-0.43,0.36-0.86,0.56-1.27c0.35-0.74,0.73-1.45,1.15-2.12
		c0.27-0.44,0.56-0.86,0.85-1.27c0.55-0.76,1.15-1.47,1.78-2.12c0.44-0.45,0.9-0.88,1.38-1.27c2.59-2.15,5.69-3.39,9.02-3.39h102.78
		c-0.8,1.02-1.54,2.15-2.21,3.39c-0.23,0.41-0.44,0.84-0.65,1.27c-0.33,0.68-0.63,1.39-0.92,2.12c-0.16,0.42-0.32,0.84-0.47,1.27
		c-0.24,0.69-0.45,1.39-0.66,2.12c-0.11,0.42-0.22,0.84-0.32,1.27c-0.17,0.69-0.31,1.4-0.44,2.12c-0.08,0.42-0.14,0.84-0.21,1.27
		c-0.1,0.7-0.19,1.4-0.25,2.12c-0.04,0.42-0.07,0.84-0.1,1.27c-0.02,0.28-0.03,0.56-0.04,0.85c-0.02,0.42-0.03,0.85-0.04,1.27
		c-0.01,0.21-0.01,0.42-0.01,0.64c0,0.21,0,0.42,0.01,0.64c0.01,0.71,0.04,1.42,0.08,2.12c0.03,0.43,0.06,0.85,0.1,1.27
		c0.07,0.72,0.15,1.42,0.25,2.12c0.06,0.43,0.13,0.85,0.21,1.27c0.13,0.72,0.27,1.43,0.44,2.12c0.1,0.43,0.21,0.86,0.32,1.27
		c0.2,0.73,0.42,1.43,0.66,2.12c0.15,0.43,0.3,0.86,0.47,1.27c0.28,0.73,0.59,1.44,0.92,2.12
		C476.46,410.51,476.67,410.94,476.9,411.35z"/>
	<g>
		<path class="st6" d="M476.9,376.16c-0.23,0.41-0.44,0.84-0.65,1.27H365.93c0.44-0.45,0.9-0.88,1.38-1.27H476.9z"/>
		<path class="st6" d="M475.33,379.55c-0.16,0.42-0.32,0.84-0.47,1.27H363.29c0.27-0.44,0.56-0.86,0.85-1.27H475.33z"/>
		<path class="st6" d="M474.2,382.94c-0.11,0.42-0.22,0.84-0.32,1.27h-112.3c0.17-0.43,0.36-0.86,0.56-1.27H474.2z"/>
		<path class="st6" d="M473.44,386.33c-0.08,0.42-0.14,0.84-0.21,1.27H360.5c0.1-0.43,0.22-0.86,0.34-1.27H473.44z"/>
		<path class="st6" d="M472.98,389.73c-0.04,0.42-0.07,0.84-0.1,1.27H359.92c0.04-0.43,0.1-0.85,0.16-1.27H472.98z"/>
		<path class="st6" d="M472.79,393.75c0,0.21,0,0.42,0.01,0.64H359.79c-0.01-0.21-0.01-0.42-0.01-0.64c0-0.21,0-0.42,0.01-0.64
			H472.8C472.79,393.33,472.79,393.54,472.79,393.75z"/>
		<path class="st6" d="M472.98,397.78H360.09c-0.07-0.42-0.12-0.84-0.16-1.27h112.95C472.9,396.94,472.94,397.36,472.98,397.78z"/>
		<path class="st6" d="M473.44,401.17h-112.6c-0.12-0.42-0.24-0.84-0.34-1.27h112.73C473.3,400.33,473.36,400.75,473.44,401.17z"/>
		<path class="st6" d="M474.2,404.57H362.14c-0.2-0.42-0.38-0.84-0.56-1.27h112.3C473.98,403.72,474.09,404.15,474.2,404.57z"/>
		<path class="st6" d="M475.33,407.96H364.15c-0.3-0.41-0.58-0.84-0.85-1.27h111.57C475.01,407.12,475.16,407.54,475.33,407.96z"/>
		<path class="st6" d="M476.9,411.35H367.31c-0.48-0.39-0.94-0.82-1.38-1.27h110.32C476.46,410.51,476.67,410.94,476.9,411.35z"/>
	</g>
	<path class="st7" d="M476.24,410.08c-0.33-0.68-0.63-1.39-0.92-2.12c-0.16-0.42-0.32-0.84-0.47-1.27
		c-0.24-0.69-0.45-1.39-0.66-2.12c-0.11-0.42-0.22-0.84-0.32-1.27c-0.17-0.69-0.31-1.4-0.44-2.12c-0.08-0.42-0.14-0.84-0.21-1.27
		c-0.1-0.7-0.19-1.4-0.25-2.12c-0.03-0.35-0.06-0.7-0.08-1.06H359.95c0.04,0.36,0.08,0.71,0.14,1.06c0.11,0.72,0.25,1.43,0.41,2.12
		c0.1,0.43,0.22,0.86,0.34,1.27c0.22,0.73,0.46,1.44,0.74,2.12c0.17,0.43,0.36,0.86,0.56,1.27c0.35,0.74,0.73,1.45,1.15,2.12
		c0.27,0.44,0.56,0.86,0.85,1.27c0.55,0.76,1.15,1.47,1.78,2.12c0.44,0.45,0.9,0.88,1.38,1.27c2.59,2.15,5.69,3.39,9.02,3.39h102.78
		c-0.8-1.02-1.54-2.15-2.21-3.39C476.67,410.94,476.46,410.51,476.24,410.08z"/>
	<g>
		<path class="st8" d="M361.79,393.12c-0.01,0.21-0.01,0.42-0.01,0.64c0,0.22,0,0.43,0.01,0.64c0.02,0.72,0.07,1.42,0.15,2.11
			c0.02,0.08,0.03,0.14,0.03,0.22c0.04,0.35,0.1,0.7,0.16,1.05c0.12,0.72,0.29,1.43,0.48,2.13c0.12,0.44,0.26,0.85,0.41,1.27
			c0.25,0.73,0.54,1.43,0.86,2.11c0.21,0.44,0.43,0.87,0.67,1.28c0.42,0.74,0.9,1.46,1.42,2.11c0.34,0.45,0.71,0.88,1.1,1.27
			c0.77,0.82,1.61,1.52,2.5,2.13c0.77,0.51,1.57,0.94,2.42,1.27c1.36,0.55,2.83,0.84,4.35,0.84h104.15v5.09H376.33
			c-10.24,0-18.56-10.56-18.56-23.53c0-8.2,3.32-15.43,8.35-19.65c2.93-2.45,6.43-3.89,10.2-3.89h104.15v5.09H376.33
			c-1.51,0-2.98,0.3-4.35,0.84c-0.84,0.33-1.64,0.76-2.4,1.27c-0.9,0.59-1.74,1.3-2.51,2.13c-0.39,0.39-0.75,0.82-1.1,1.27
			c-0.51,0.66-0.98,1.37-1.42,2.13c-0.24,0.41-0.47,0.83-0.67,1.27c-0.32,0.68-0.61,1.38-0.86,2.11c-0.15,0.42-0.29,0.84-0.41,1.27
			c-0.19,0.69-0.35,1.4-0.48,2.13c-0.08,0.42-0.14,0.84-0.19,1.27C361.86,391.69,361.81,392.4,361.79,393.12z"/>
	</g>
	<polygon class="st7" points="388.53,416.37 384.74,414.74 380.95,416.37 380.95,407 380.95,396.72 384.74,396.72 388.53,396.72 
		388.53,407 	"/>
	<polygon class="st9" points="387.08,416.37 383.3,414.74 379.51,416.37 379.51,407 379.51,396.72 383.3,396.72 387.08,396.72 
		387.08,407 	"/>
	<path class="st5" d="M354.16,381.14h-4.97c-1.83,3.65-2.9,7.97-2.9,12.61c0,4.64,1.07,8.96,2.9,12.61h4.97
		c-1.83-3.65-2.9-7.97-2.9-12.61C351.25,389.11,352.32,384.79,354.16,381.14z"/>
</g>
<path class="st10" d="M400.78,417.42c0,0.73-2,1.42-5.44,1.99c-5.64,0.94-15.15,1.57-26.02,1.6c-0.37,0.01-0.74,0.01-1.11,0.01
	c-2.89,0-5.69-0.04-8.36-0.12c-1.4-0.04-2.76-0.09-4.07-0.15c-6.42-0.3-11.81-0.8-15.39-1.45c2.47-1.57,5.26-2.44,8.21-2.44h51.8
	C400.65,417.05,400.78,417.23,400.78,417.42z"/>
<g>
	<path class="st11" d="M458.99,355.76c-10.23,0-18.56,10.56-18.56,23.53c0,12.98,8.32,23.53,18.56,23.53h20.73v-0.99v-4.1v-36.89
		v-2.54v-2.54H458.99z"/>
	<path class="st5" d="M576.94,396.89c0.67,1.24,1.41,2.37,2.21,3.39H476.37c-3.33,0-6.43-1.25-9.02-3.39
		c-0.48-0.39-0.94-0.82-1.38-1.27c-0.64-0.65-1.23-1.36-1.78-2.12c-0.3-0.41-0.58-0.84-0.85-1.27c-0.42-0.67-0.8-1.38-1.15-2.12
		c-0.2-0.42-0.38-0.84-0.56-1.27c-0.28-0.68-0.52-1.39-0.74-2.12c-0.12-0.42-0.24-0.84-0.34-1.27c-0.17-0.69-0.31-1.4-0.41-2.12
		c-0.07-0.42-0.12-0.84-0.16-1.27c-0.07-0.7-0.12-1.4-0.13-2.12c-0.01-0.21-0.01-0.42-0.01-0.64c0-0.21,0-0.42,0.01-0.64
		c0.01-0.43,0.03-0.85,0.06-1.27c0.02-0.28,0.04-0.57,0.07-0.85c0.04-0.43,0.1-0.85,0.16-1.27c0.11-0.72,0.25-1.43,0.41-2.12
		c0.1-0.43,0.22-0.86,0.34-1.27c0.22-0.73,0.46-1.44,0.74-2.12c0.17-0.43,0.36-0.86,0.56-1.27c0.35-0.74,0.73-1.45,1.15-2.12
		c0.27-0.44,0.56-0.86,0.85-1.27c0.55-0.76,1.15-1.47,1.78-2.12c0.44-0.45,0.9-0.88,1.38-1.27c2.59-2.15,5.69-3.39,9.02-3.39h102.78
		c-0.8,1.02-1.54,2.15-2.21,3.39c-0.23,0.41-0.44,0.84-0.65,1.27c-0.33,0.68-0.63,1.39-0.92,2.12c-0.16,0.42-0.32,0.84-0.47,1.27
		c-0.24,0.69-0.45,1.39-0.66,2.12c-0.11,0.42-0.22,0.84-0.32,1.27c-0.17,0.69-0.31,1.4-0.44,2.12c-0.08,0.42-0.14,0.84-0.21,1.27
		c-0.1,0.7-0.19,1.4-0.25,2.12c-0.04,0.42-0.07,0.84-0.1,1.27c-0.02,0.28-0.03,0.56-0.04,0.85c-0.02,0.42-0.03,0.85-0.04,1.27
		c-0.01,0.21-0.01,0.42-0.01,0.64c0,0.21,0,0.42,0.01,0.64c0.01,0.71,0.04,1.42,0.08,2.12c0.03,0.43,0.06,0.85,0.1,1.27
		c0.07,0.72,0.15,1.42,0.25,2.12c0.06,0.43,0.13,0.85,0.21,1.27c0.13,0.72,0.27,1.43,0.44,2.12c0.1,0.43,0.21,0.86,0.32,1.27
		c0.2,0.73,0.42,1.43,0.66,2.12c0.15,0.43,0.3,0.86,0.47,1.27c0.28,0.73,0.59,1.44,0.92,2.12
		C576.5,396.05,576.71,396.48,576.94,396.89z"/>
	<g>
		<path class="st6" d="M576.94,361.7c-0.23,0.41-0.44,0.84-0.65,1.27H465.97c0.44-0.45,0.9-0.88,1.38-1.27H576.94z"/>
		<path class="st6" d="M575.37,365.09c-0.16,0.42-0.32,0.84-0.47,1.27H463.34c0.27-0.44,0.56-0.86,0.85-1.27H575.37z"/>
		<path class="st6" d="M574.25,368.48c-0.11,0.42-0.22,0.84-0.32,1.27h-112.3c0.17-0.43,0.36-0.86,0.56-1.27H574.25z"/>
		<path class="st6" d="M573.48,371.87c-0.08,0.42-0.14,0.84-0.21,1.27H460.54c0.1-0.43,0.22-0.86,0.34-1.27H573.48z"/>
		<path class="st6" d="M573.02,375.27c-0.04,0.42-0.07,0.84-0.1,1.27H459.96c0.04-0.43,0.1-0.85,0.16-1.27H573.02z"/>
		<path class="st6" d="M572.83,379.29c0,0.21,0,0.42,0.01,0.64H459.83c-0.01-0.21-0.01-0.42-0.01-0.64c0-0.21,0-0.42,0.01-0.64
			h113.01C572.83,378.87,572.83,379.08,572.83,379.29z"/>
		<path class="st6" d="M573.02,383.32H460.13c-0.07-0.42-0.12-0.84-0.16-1.27h112.95C572.95,382.48,572.98,382.9,573.02,383.32z"/>
		<path class="st6" d="M573.48,386.71h-112.6c-0.12-0.42-0.24-0.84-0.34-1.27h112.73C573.34,385.87,573.4,386.29,573.48,386.71z"/>
		<path class="st6" d="M574.25,390.1H462.18c-0.2-0.42-0.38-0.84-0.56-1.27h112.3C574.02,389.26,574.13,389.69,574.25,390.1z"/>
		<path class="st6" d="M575.37,393.5H464.19c-0.3-0.41-0.58-0.84-0.85-1.27H574.9C575.05,392.66,575.21,393.08,575.37,393.5z"/>
		<path class="st6" d="M576.94,396.89H467.35c-0.48-0.39-0.94-0.82-1.38-1.27h110.32C576.5,396.05,576.71,396.48,576.94,396.89z"/>
	</g>
	<path class="st7" d="M576.29,395.62c-0.33-0.68-0.63-1.39-0.92-2.12c-0.16-0.42-0.32-0.84-0.47-1.27
		c-0.24-0.69-0.45-1.39-0.66-2.12c-0.11-0.42-0.22-0.84-0.32-1.27c-0.17-0.69-0.31-1.4-0.44-2.12c-0.08-0.42-0.14-0.84-0.21-1.27
		c-0.1-0.7-0.19-1.4-0.25-2.12c-0.03-0.35-0.06-0.7-0.08-1.06H459.99c0.04,0.36,0.08,0.71,0.14,1.06c0.11,0.72,0.25,1.43,0.41,2.12
		c0.1,0.43,0.22,0.86,0.34,1.27c0.22,0.73,0.46,1.44,0.74,2.12c0.17,0.43,0.36,0.86,0.56,1.27c0.35,0.74,0.73,1.45,1.15,2.12
		c0.27,0.44,0.56,0.86,0.85,1.27c0.55,0.76,1.15,1.47,1.78,2.12c0.44,0.45,0.9,0.88,1.38,1.27c2.59,2.15,5.69,3.39,9.02,3.39h102.78
		c-0.8-1.02-1.54-2.15-2.21-3.39C576.71,396.48,576.5,396.05,576.29,395.62z"/>
	<g>
		<path class="st12" d="M580.52,402.82H476.37c-10.23,0-18.56-10.56-18.56-23.53c0-12.98,8.32-23.53,18.56-23.53h104.15v5.09H476.37
			c-8.02,0-14.54,8.27-14.54,18.44c0,10.17,6.52,18.44,14.54,18.44h104.15V402.82z"/>
	</g>
	<polygon class="st7" points="488.58,401.91 484.79,400.28 481,401.91 481,392.54 481,382.26 484.79,382.26 488.58,382.26 
		488.58,392.54 	"/>
	<polygon class="st13" points="487.13,401.91 483.34,400.28 479.55,401.91 479.55,392.54 479.55,382.26 483.34,382.26 
		487.13,382.26 487.13,392.54 	"/>
	<path class="st5" d="M454.2,366.68h-4.97c-1.83,3.65-2.9,7.97-2.9,12.61c0,4.64,1.07,8.96,2.9,12.61h4.97
		c-1.83-3.65-2.9-7.97-2.9-12.61C451.3,374.65,452.36,370.33,454.2,366.68z"/>
</g>
<g>
	<path class="st14" d="M354.92,416.6c-10.23,0-18.56,10.56-18.56,23.53c0,12.98,8.32,23.53,18.56,23.53h20.73v-0.99v-4.1v-36.89
		v-2.54v-2.54H354.92z"/>
	<path class="st5" d="M472.87,457.72c0.67,1.24,1.41,2.37,2.21,3.39H372.3c-3.33,0-6.43-1.25-9.02-3.39
		c-0.48-0.39-0.94-0.82-1.38-1.27c-0.64-0.65-1.23-1.36-1.78-2.12c-0.3-0.41-0.58-0.84-0.85-1.27c-0.42-0.67-0.8-1.38-1.15-2.12
		c-0.2-0.42-0.38-0.84-0.56-1.27c-0.28-0.68-0.52-1.39-0.74-2.12c-0.12-0.42-0.24-0.84-0.34-1.27c-0.17-0.69-0.31-1.4-0.41-2.12
		c-0.07-0.42-0.12-0.84-0.16-1.27c-0.07-0.7-0.12-1.4-0.13-2.12c-0.01-0.21-0.01-0.42-0.01-0.64c0-0.21,0-0.42,0.01-0.64
		c0.01-0.43,0.03-0.85,0.06-1.27c0.02-0.28,0.04-0.57,0.07-0.85c0.04-0.43,0.1-0.85,0.16-1.27c0.11-0.72,0.25-1.43,0.41-2.12
		c0.1-0.43,0.22-0.86,0.34-1.27c0.22-0.73,0.46-1.44,0.74-2.12c0.17-0.43,0.36-0.86,0.56-1.27c0.35-0.74,0.73-1.45,1.15-2.12
		c0.27-0.44,0.56-0.86,0.85-1.27c0.55-0.76,1.15-1.47,1.78-2.12c0.44-0.45,0.9-0.88,1.38-1.27c2.59-2.15,5.69-3.39,9.02-3.39h102.78
		c-0.8,1.02-1.54,2.15-2.21,3.39c-0.23,0.41-0.44,0.84-0.65,1.27c-0.33,0.68-0.63,1.39-0.92,2.12c-0.16,0.42-0.32,0.84-0.47,1.27
		c-0.24,0.69-0.45,1.39-0.66,2.12c-0.11,0.42-0.22,0.84-0.32,1.27c-0.17,0.69-0.31,1.4-0.44,2.12c-0.08,0.42-0.14,0.84-0.21,1.27
		c-0.1,0.7-0.19,1.4-0.25,2.12c-0.04,0.42-0.07,0.84-0.1,1.27c-0.02,0.28-0.03,0.56-0.04,0.85c-0.02,0.42-0.03,0.85-0.04,1.27
		c-0.01,0.21-0.01,0.42-0.01,0.64c0,0.21,0,0.42,0.01,0.64c0.01,0.71,0.04,1.42,0.08,2.12c0.03,0.43,0.06,0.85,0.1,1.27
		c0.07,0.72,0.15,1.42,0.25,2.12c0.06,0.43,0.13,0.85,0.21,1.27c0.13,0.72,0.27,1.43,0.44,2.12c0.1,0.43,0.21,0.86,0.32,1.27
		c0.2,0.73,0.42,1.43,0.66,2.12c0.15,0.43,0.3,0.86,0.47,1.27c0.28,0.73,0.59,1.44,0.92,2.12
		C472.43,456.89,472.64,457.31,472.87,457.72z"/>
	<g>
		<path class="st6" d="M472.87,422.53c-0.23,0.41-0.44,0.84-0.65,1.27H361.9c0.44-0.45,0.9-0.88,1.38-1.27H472.87z"/>
		<path class="st6" d="M471.3,425.92c-0.16,0.42-0.32,0.84-0.47,1.27H359.26c0.27-0.44,0.56-0.86,0.85-1.27H471.3z"/>
		<path class="st6" d="M470.18,429.32c-0.11,0.42-0.22,0.84-0.32,1.27h-112.3c0.17-0.43,0.36-0.86,0.56-1.27H470.18z"/>
		<path class="st6" d="M469.41,432.71c-0.08,0.42-0.14,0.84-0.21,1.27H356.47c0.1-0.43,0.22-0.86,0.34-1.27H469.41z"/>
		<path class="st6" d="M468.95,436.1c-0.04,0.42-0.07,0.84-0.1,1.27H355.89c0.04-0.43,0.1-0.85,0.16-1.27H468.95z"/>
		<path class="st6" d="M468.76,440.13c0,0.21,0,0.42,0.01,0.64H355.76c-0.01-0.21-0.01-0.42-0.01-0.64c0-0.21,0-0.42,0.01-0.64
			h113.01C468.76,439.7,468.76,439.92,468.76,440.13z"/>
		<path class="st6" d="M468.95,444.16H356.06c-0.07-0.42-0.12-0.84-0.16-1.27h112.95C468.88,443.31,468.91,443.74,468.95,444.16z"/>
		<path class="st6" d="M469.41,447.55h-112.6c-0.12-0.42-0.24-0.84-0.34-1.27H469.2C469.27,446.7,469.33,447.13,469.41,447.55z"/>
		<path class="st6" d="M470.18,450.94H358.11c-0.2-0.42-0.38-0.84-0.56-1.27h112.3C469.95,450.1,470.06,450.52,470.18,450.94z"/>
		<path class="st6" d="M471.3,454.33H360.12c-0.3-0.41-0.58-0.84-0.85-1.27h111.57C470.98,453.49,471.14,453.92,471.3,454.33z"/>
		<path class="st6" d="M472.87,457.72H363.28c-0.48-0.39-0.94-0.82-1.38-1.27h110.32C472.43,456.89,472.64,457.31,472.87,457.72z"/>
	</g>
	<path class="st7" d="M472.22,456.45c-0.33-0.68-0.63-1.39-0.92-2.12c-0.16-0.42-0.32-0.84-0.47-1.27
		c-0.24-0.69-0.45-1.39-0.66-2.12c-0.11-0.42-0.22-0.84-0.32-1.27c-0.17-0.69-0.31-1.4-0.44-2.12c-0.08-0.42-0.14-0.84-0.21-1.27
		c-0.1-0.7-0.19-1.4-0.25-2.12c-0.03-0.35-0.06-0.7-0.08-1.06H355.92c0.04,0.36,0.08,0.71,0.14,1.06c0.11,0.72,0.25,1.43,0.41,2.12
		c0.1,0.43,0.22,0.86,0.34,1.27c0.22,0.73,0.46,1.44,0.74,2.12c0.17,0.43,0.36,0.86,0.56,1.27c0.35,0.74,0.73,1.45,1.15,2.12
		c0.27,0.44,0.56,0.86,0.85,1.27c0.55,0.76,1.15,1.47,1.78,2.12c0.44,0.45,0.9,0.88,1.38,1.27c2.59,2.15,5.69,3.39,9.02,3.39h102.78
		c-0.8-1.02-1.54-2.15-2.21-3.39C472.64,457.31,472.43,456.89,472.22,456.45z"/>
	<g>
		<path class="st15" d="M476.45,463.66H372.3c-10.23,0-18.56-10.56-18.56-23.53c0-12.98,8.32-23.53,18.56-23.53h104.15v5.09H372.3
			c-8.02,0-14.54,8.27-14.54,18.44c0,10.17,6.52,18.44,14.54,18.44h104.15V463.66z"/>
	</g>
	<polygon class="st7" points="384.51,462.74 380.72,461.11 376.93,462.74 376.93,453.38 376.93,443.1 380.72,443.1 384.51,443.1 
		384.51,453.38 	"/>
	<polygon class="st15" points="383.06,462.74 379.27,461.11 375.48,462.74 375.48,453.38 375.48,443.1 379.27,443.1 383.06,443.1 
		383.06,453.38 	"/>
</g>
<g>
	<path class="st16" d="M562.95,300.78c-8.17-0.72-32.8-9.36-59.33,1.32c-7.16,2.88-13.67,6.86-19.5,12.48
		c-1.53,1.47-3.36,2.33-5.34,2.33c-1.98,0-3.82-0.86-5.34-2.33c-5.83-5.62-12.34-9.6-19.5-12.48c-26.53-10.68-51.15-2.04-59.33-1.32
		c-1.61,0.14-2.84,1.71-2.81,3.58l1.81,148.52c0.04,3.65,2.85,6.42,5.96,5.88c32.26-5.59,55.31-2.04,68.01,1.38
		c2.09,0.56,4.09,1.47,6.03,2.55c1.48,0.83,3.15,1.31,4.92,1.35v0.13c0,0,0.08-0.04,0.24-0.12c0.16,0.08,0.24,0.12,0.24,0.12v-0.13
		c1.77-0.04,3.44-0.52,4.92-1.35c1.93-1.08,3.94-1.98,6.03-2.55c12.7-3.42,35.76-6.97,68.01-1.38c3.11,0.54,5.92-2.23,5.96-5.88
		l1.81-148.52C565.78,302.49,564.55,300.92,562.95,300.78z"/>
	<path class="st17" d="M564.83,298.41c-8.17-0.72-32.8-9.36-59.33,1.32c-7.16,2.88-13.67,6.86-19.5,12.48
		c-1.53,1.47-3.36,2.33-5.34,2.33c-1.98,0-3.82-0.86-5.34-2.33c-5.83-5.62-12.34-9.6-19.5-12.48c-26.53-10.68-51.15-2.04-59.33-1.32
		c-1.61,0.14-2.84,1.71-2.81,3.58l1.81,148.52c0.04,3.65,2.85,6.42,5.96,5.88c32.26-5.59,55.31-2.04,68.01,1.38
		c2.09,0.56,4.1,1.47,6.03,2.55c1.48,0.83,3.15,1.31,4.92,1.35v0.13c0,0,0.08-0.04,0.24-0.12c0.16,0.08,0.24,0.12,0.24,0.12v-0.13
		c1.77-0.04,3.44-0.52,4.92-1.35c1.93-1.08,3.94-1.98,6.03-2.55c12.7-3.42,35.76-6.97,68.01-1.38c3.11,0.54,5.92-2.23,5.96-5.88
		l1.81-148.52C567.66,300.12,566.43,298.55,564.83,298.41z"/>
	<path class="st18" d="M560.45,315.77v132.02c-36.57-10.14-73.39,4.03-79.05,6.35c-0.49,0.2-0.75,0.32-0.75,0.32
		s-0.26-0.1-0.75-0.29c-5.74-2.14-43.54-15.31-79.05-4.68V315.77c11.62-1.48,43.67-21.89,79.8,24.33
		C516.78,293.88,548.83,314.29,560.45,315.77z"/>
	<g>
		<path class="st19" d="M560.45,439.04v0.67c-3.18-1.05-9.43-2.7-18.54-3.2c-12.62-0.69-33.42,0.76-60.85,11.6
			c-0.03,0.01-0.07,0.02-0.1,0.02c-0.05,0-0.1-0.02-0.15-0.04c-0.04,0.03-0.1,0.04-0.15,0.04c-0.04,0-0.07-0.01-0.1-0.02
			c-27.43-10.84-48.23-12.29-60.85-11.6c-9.4,0.51-15.77,2.25-18.84,3.3v-0.67c3.19-1.07,9.54-2.77,18.81-3.27
			c12.67-0.69,33.56,0.77,61.09,11.64c0.02,0.01,0.03,0.02,0.04,0.03c0.01-0.01,0.03-0.03,0.04-0.03
			c27.53-10.87,48.42-12.33,61.09-11.64C550.92,436.36,557.17,437.97,560.45,439.04z"/>
		<path class="st19" d="M560.45,441.46v0.67c-3.18-1.05-9.43-2.7-18.54-3.2c-12.62-0.69-33.42,0.77-60.85,11.6
			c-0.03,0.01-0.07,0.02-0.1,0.02c-0.05,0-0.1-0.02-0.15-0.04c-0.04,0.03-0.1,0.04-0.15,0.04c-0.04,0-0.07-0.01-0.1-0.02
			c-27.43-10.83-48.23-12.29-60.85-11.6c-9.4,0.51-15.77,2.25-18.84,3.3v-0.67c3.19-1.07,9.54-2.77,18.81-3.27
			c12.67-0.69,33.56,0.77,61.09,11.64c0.02,0.01,0.03,0.02,0.04,0.03c0.01-0.01,0.03-0.02,0.04-0.03
			c27.53-10.88,48.42-12.33,61.09-11.64C550.92,438.78,557.17,440.39,560.45,441.46z"/>
		<path class="st19" d="M560.45,443.88v0.66c-3.18-1.05-9.43-2.7-18.54-3.2c-12.62-0.69-33.42,0.76-60.85,11.6
			c-0.03,0.02-0.07,0.02-0.1,0.02c-0.05,0-0.1-0.02-0.15-0.05c-0.04,0.03-0.1,0.05-0.15,0.05c-0.04,0-0.07-0.01-0.1-0.02
			c-27.43-10.83-48.23-12.29-60.85-11.6c-9.4,0.51-15.77,2.25-18.84,3.3v-0.66c3.19-1.07,9.54-2.77,18.81-3.27
			c12.67-0.69,33.56,0.77,61.09,11.64c0.02,0.01,0.03,0.02,0.04,0.03c0.01-0.01,0.03-0.02,0.04-0.03
			c27.53-10.87,48.42-12.33,61.09-11.64C550.92,441.2,557.17,442.81,560.45,443.88z"/>
	</g>
	<g>
		<path class="st19" d="M481.4,343.26v110.89c-0.49,0.2-0.75,0.32-0.75,0.32s-0.26-0.1-0.75-0.29V343.26
			c0.25,0.31,0.5,0.62,0.75,0.93C480.9,343.88,481.15,343.57,481.4,343.26z"/>
	</g>
	<path class="st5" d="M560.45,305.05v131.21c-27.06-12.32-72.68,4.7-79.05,7.19c-0.49,0.19-0.75,0.3-0.75,0.3s-0.26-0.11-0.75-0.3
		c-6.37-2.49-51.99-19.51-79.05-7.19V305.05c0,0,54.19-13.07,79.05,17.27c0.25,0.31,0.5,0.62,0.75,0.93
		c0.25-0.31,0.49-0.62,0.75-0.93C506.26,291.98,560.45,305.05,560.45,305.05z"/>
	<g>
		<path class="st18" d="M481.4,322.33v121.12c-0.49,0.19-0.75,0.3-0.75,0.3s-0.26-0.11-0.75-0.3V322.33
			c0.25,0.31,0.5,0.62,0.75,0.93C480.9,322.94,481.15,322.63,481.4,322.33z"/>
	</g>
	<g>
		<g>
			<path class="st20" d="M474.02,433.62c-21.7-10.81-38.51-13.21-48.79-13.31c-11.14-0.11-17.21,2.35-17.27,2.38l-0.08-0.32
				c0.06-0.03,6.16-2.51,17.35-2.39c10.31,0.11,27.15,2.51,48.89,13.34L474.02,433.62z"/>
		</g>
		<g>
			<path class="st20" d="M474.02,429.19c-21.7-10.81-38.51-13.21-48.79-13.31c-11.14-0.12-17.21,2.35-17.27,2.38l-0.08-0.32
				c0.06-0.03,6.16-2.51,17.35-2.39c10.31,0.11,27.15,2.51,48.89,13.34L474.02,429.19z"/>
		</g>
		<g>
			<path class="st20" d="M474.02,424.76c-21.7-10.81-38.51-13.21-48.79-13.31c-11.14-0.11-17.21,2.35-17.27,2.38l-0.08-0.32
				c0.06-0.02,5.9-2.4,16.59-2.4c0.25,0,0.5,0,0.76,0c10.31,0.11,27.15,2.51,48.89,13.34L474.02,424.76z"/>
		</g>
		<g>
			<path class="st20" d="M474.02,420.33c-21.7-10.81-38.51-13.21-48.79-13.31c-11.14-0.12-17.21,2.35-17.27,2.38l-0.08-0.32
				c0.06-0.03,6.16-2.51,17.35-2.39c10.31,0.11,27.15,2.51,48.89,13.34L474.02,420.33z"/>
		</g>
		<g>
			<path class="st20" d="M474.02,415.9c-21.7-10.81-38.51-13.21-48.79-13.31c-11.14-0.11-17.21,2.35-17.27,2.38l-0.08-0.32
				c0.06-0.03,6.16-2.51,17.35-2.39c10.31,0.11,27.15,2.51,48.89,13.34L474.02,415.9z"/>
		</g>
		<g>
			<path class="st20" d="M473.97,411.63c-21.66-10.79-38.45-13.19-48.71-13.3c-11.12-0.12-17.2,2.34-17.26,2.37l-0.17-0.65
				c0.06-0.03,6.2-2.52,17.4-2.4c10.32,0.11,27.18,2.51,48.94,13.35L473.97,411.63z"/>
		</g>
		<g>
			<path class="st20" d="M474.02,398.18c-9.96-4.96-19.76-8.6-29.12-10.79l0.05-0.33c9.38,2.2,19.19,5.84,29.17,10.81L474.02,398.18
				z"/>
		</g>
		<g>
			<path class="st20" d="M474.02,393.75c-9.96-4.96-19.76-8.6-29.12-10.8l0.05-0.33c9.38,2.2,19.19,5.84,29.17,10.81L474.02,393.75z
				"/>
		</g>
		<g>
			<path class="st20" d="M474.02,389.32c-9.96-4.96-19.76-8.6-29.12-10.79l0.05-0.33c9.38,2.2,19.19,5.84,29.17,10.81L474.02,389.32
				z"/>
		</g>
		<g>
			<path class="st20" d="M474.02,384.89c-9.96-4.96-19.76-8.6-29.12-10.79l0.05-0.33c9.38,2.2,19.19,5.84,29.17,10.81L474.02,384.89
				z"/>
		</g>
		<g>
			<path class="st20" d="M474.02,380.46c-9.96-4.96-19.76-8.6-29.12-10.79l0.05-0.33c9.38,2.2,19.19,5.84,29.17,10.81L474.02,380.46
				z"/>
		</g>
		<g>
			<path class="st20" d="M474.02,376.03c-21.69-10.81-38.5-13.2-48.78-13.31c-11.14-0.12-17.22,2.35-17.28,2.37l-0.08-0.32
				c0.06-0.03,6.18-2.51,17.35-2.39c10.31,0.11,27.15,2.51,48.89,13.34L474.02,376.03z"/>
		</g>
		<g>
			<path class="st20" d="M474.02,371.6c-21.7-10.81-38.51-13.21-48.79-13.31c-11.14-0.12-17.21,2.35-17.27,2.38l-0.08-0.32
				c0.06-0.03,6.16-2.51,17.35-2.39c10.31,0.11,27.15,2.51,48.89,13.34L474.02,371.6z"/>
		</g>
		<g>
			<path class="st20" d="M474.02,367.17c-21.7-10.81-38.51-13.21-48.79-13.31c-11.14-0.12-17.21,2.35-17.27,2.38l-0.08-0.32
				c0.06-0.03,6.16-2.51,17.35-2.39c10.31,0.11,27.15,2.51,48.89,13.34L474.02,367.17z"/>
		</g>
		<g>
			<path class="st20" d="M474.02,362.75c-21.7-10.81-38.51-13.21-48.79-13.31c-11.14-0.11-17.21,2.35-17.27,2.38l-0.08-0.32
				c0.06-0.02,5.9-2.4,16.59-2.4c0.25,0,0.5,0,0.76,0c10.31,0.11,27.15,2.51,48.89,13.34L474.02,362.75z"/>
		</g>
		<g>
			<path class="st20" d="M474.02,358.32c-21.7-10.81-38.51-13.21-48.79-13.31c-11.14-0.12-17.21,2.35-17.27,2.38l-0.08-0.32
				c0.06-0.03,6.16-2.51,17.35-2.39c10.31,0.11,27.15,2.51,48.89,13.34L474.02,358.32z"/>
		</g>
		<g>
			<path class="st20" d="M474.02,353.89c-21.7-10.81-38.51-13.21-48.79-13.31c-11.14-0.11-17.21,2.35-17.27,2.38l-0.08-0.32
				c0.06-0.03,6.16-2.51,17.35-2.39c10.31,0.11,27.15,2.51,48.89,13.34L474.02,353.89z"/>
		</g>
		<g>
			<path class="st20" d="M474.02,349.46c-21.7-10.81-38.51-13.21-48.79-13.31c-11.14-0.12-17.21,2.35-17.27,2.38l-0.08-0.32
				c0.06-0.03,6.16-2.51,17.35-2.39c10.31,0.11,27.15,2.51,48.89,13.34L474.02,349.46z"/>
		</g>
		<g>
			<path class="st20" d="M474.02,345.03c-21.7-10.81-38.51-13.21-48.79-13.31c-11.14-0.11-17.21,2.35-17.27,2.38l-0.08-0.32
				c0.06-0.02,5.9-2.4,16.59-2.4c0.25,0,0.5,0,0.76,0c10.31,0.11,27.15,2.51,48.89,13.34L474.02,345.03z"/>
		</g>
		<g>
			<path class="st20" d="M473.97,340.76c-21.66-10.79-38.45-13.19-48.71-13.3c-11.12-0.12-17.2,2.34-17.26,2.37l-0.17-0.65
				c0.06-0.03,6.21-2.52,17.4-2.4c10.32,0.11,27.18,2.51,48.94,13.35L473.97,340.76z"/>
		</g>
		<g>
			<path class="st20" d="M408.04,321.97l-0.25-0.97c0.12-0.05,12.06-4.85,33.26-0.73l-0.12,1.01
				C419.92,317.19,408.16,321.92,408.04,321.97z"/>
		</g>
		<g>
			<path class="st20" d="M440.99,386.42c-21.35-4.16-33.08,0.71-33.08,0.71v-17.76c0,0,11.72-4.86,33.08-0.71V386.42z"/>
		</g>
	</g>
	<g>
		<g>
			<path class="st20" d="M487.29,433.62l-0.1-0.32c21.74-10.83,38.58-13.23,48.89-13.34c11.18-0.11,17.29,2.37,17.35,2.39
				l-0.08,0.32c-0.06-0.02-6.15-2.49-17.28-2.37C525.79,420.41,508.98,422.81,487.29,433.62z"/>
		</g>
		<g>
			<path class="st20" d="M487.29,429.19l-0.1-0.32c21.74-10.83,38.58-13.23,48.89-13.34c11.18-0.12,17.29,2.37,17.35,2.39
				l-0.08,0.32c-0.06-0.02-6.15-2.49-17.28-2.38C525.79,415.99,508.98,418.38,487.29,429.19z"/>
		</g>
		<g>
			<path class="st20" d="M487.29,424.76l-0.1-0.32c21.74-10.83,38.58-13.23,48.89-13.34c11.18-0.11,17.29,2.37,17.35,2.39
				l-0.08,0.32c-0.06-0.02-6.15-2.49-17.28-2.38C525.79,411.56,508.98,413.95,487.29,424.76z"/>
		</g>
		<g>
			<path class="st20" d="M487.29,420.33l-0.1-0.32c21.74-10.83,38.58-13.23,48.89-13.34c11.18-0.11,17.29,2.37,17.35,2.39
				l-0.08,0.32c-0.06-0.02-6.15-2.49-17.28-2.37C525.79,407.13,508.98,409.52,487.29,420.33z"/>
		</g>
		<g>
			<path class="st20" d="M487.29,415.9l-0.1-0.32c21.74-10.83,38.58-13.23,48.89-13.34c11.18-0.11,17.29,2.37,17.35,2.39l-0.08,0.32
				c-0.06-0.02-6.15-2.49-17.28-2.37C525.79,402.7,508.98,405.09,487.29,415.9z"/>
		</g>
		<g>
			<path class="st20" d="M487.34,411.63l-0.2-0.63c21.76-10.84,38.62-13.24,48.94-13.35c11.2-0.12,17.33,2.38,17.4,2.4l-0.17,0.65
				c-0.06-0.02-6.14-2.48-17.26-2.37C525.78,398.44,509,400.84,487.34,411.63z"/>
		</g>
		<g>
			<path class="st20" d="M487.29,376.03l-0.1-0.32c21.74-10.83,38.58-13.23,48.89-13.34c11.18-0.11,17.29,2.37,17.35,2.39
				l-0.08,0.32c-0.06-0.02-6.15-2.49-17.28-2.37C525.79,362.83,508.98,365.23,487.29,376.03z"/>
		</g>
		<g>
			<path class="st20" d="M487.29,371.6l-0.1-0.32c21.74-10.83,38.58-13.23,48.89-13.34c11.18-0.12,17.29,2.37,17.35,2.39l-0.08,0.32
				c-0.06-0.02-6.15-2.49-17.28-2.37C525.79,358.4,508.98,360.8,487.29,371.6z"/>
		</g>
		<g>
			<path class="st20" d="M487.29,367.17l-0.1-0.32c21.74-10.83,38.58-13.23,48.89-13.34c11.18-0.11,17.29,2.37,17.35,2.39
				l-0.08,0.32c-0.06-0.02-6.15-2.49-17.28-2.38C525.79,353.97,508.98,356.37,487.29,367.17z"/>
		</g>
		<g>
			<path class="st20" d="M487.29,362.75l-0.1-0.32c21.74-10.83,38.58-13.23,48.89-13.34c11.18-0.12,17.29,2.37,17.35,2.39
				l-0.08,0.32c-0.06-0.02-6.15-2.49-17.28-2.38C525.79,349.54,508.98,351.94,487.29,362.75z"/>
		</g>
		<g>
			<path class="st20" d="M487.39,400.91l-0.29-0.95c21.78-10.85,38.66-13.25,48.99-13.36c11.22-0.11,17.19,2.31,17.44,2.41
				l-0.25,0.97c-0.06-0.02-5.84-2.36-16.43-2.36c-0.27,0-0.53,0-0.8,0C525.78,387.73,509.02,390.13,487.39,400.91z"/>
		</g>
		<g>
			<path class="st20" d="M487.39,396.48l-0.29-0.95c21.78-10.85,38.66-13.25,48.99-13.36c11.22-0.11,17.19,2.31,17.44,2.41
				l-0.25,0.97c-0.06-0.02-5.84-2.36-16.43-2.36c-0.27,0-0.53,0-0.8,0C525.78,383.3,509.02,385.7,487.39,396.48z"/>
		</g>
		<g>
			<path class="st20" d="M487.39,392.05l-0.29-0.95c21.78-10.85,38.66-13.25,48.99-13.36c11.22-0.12,17.19,2.31,17.44,2.41
				l-0.25,0.97c-0.06-0.02-5.84-2.36-16.43-2.36c-0.27,0-0.53,0-0.8,0C525.78,378.87,509.02,381.27,487.39,392.05z"/>
		</g>
		<g>
			<path class="st20" d="M487.39,387.62l-0.29-0.95c21.78-10.85,38.66-13.25,48.99-13.36c11.22-0.12,17.19,2.31,17.44,2.41
				l-0.25,0.97c-0.06-0.02-6.14-2.48-17.23-2.36C525.78,374.44,509.02,376.84,487.39,387.62z"/>
		</g>
		<g>
			<path class="st20" d="M487.29,358.32l-0.1-0.32c21.74-10.83,38.58-13.23,48.89-13.34c11.18-0.11,17.29,2.37,17.35,2.39
				l-0.08,0.32c-0.06-0.02-6.15-2.49-17.28-2.37C525.79,345.11,508.98,347.51,487.29,358.32z"/>
		</g>
		<g>
			<path class="st20" d="M487.29,353.89l-0.1-0.32c21.74-10.83,38.58-13.23,48.89-13.34c11.18-0.11,17.29,2.37,17.35,2.39
				l-0.08,0.32c-0.06-0.02-6.15-2.49-17.28-2.37C525.79,340.68,508.98,343.08,487.29,353.89z"/>
		</g>
		<g>
			<path class="st20" d="M487.29,349.46l-0.1-0.32c21.74-10.83,38.58-13.23,48.89-13.34c11.18-0.12,17.29,2.37,17.35,2.39
				l-0.08,0.32c-0.06-0.02-6.15-2.49-17.28-2.37C525.79,336.25,508.98,338.65,487.29,349.46z"/>
		</g>
		<g>
			<path class="st20" d="M487.29,345.03l-0.1-0.32c21.74-10.83,38.58-13.23,48.89-13.34c11.18-0.11,17.29,2.37,17.35,2.39
				l-0.08,0.32c-0.06-0.02-6.15-2.49-17.28-2.37C525.79,331.82,508.98,334.22,487.29,345.03z"/>
		</g>
		<g>
			<path class="st20" d="M487.34,340.76l-0.2-0.63c21.76-10.84,38.62-13.24,48.94-13.35c11.19-0.11,17.33,2.38,17.4,2.4l-0.17,0.65
				c-0.06-0.02-5.85-2.37-16.47-2.37c-0.26,0-0.52,0-0.79,0C525.78,327.56,509,329.96,487.34,340.76z"/>
		</g>
	</g>
</g>
<path class="st21" d="M456.56,328.63c0-2.01-1.09-3.64-2.44-3.64c-0.28,0-0.52-0.24-0.54-0.57c-0.06-1.09-0.13-2.27-0.14-2.85
	c-0.04-1.22-0.36-1.65-0.73-1.54c-0.37,0.11-0.38,1.37-0.38,1.37v3.89c0,0-1.24,0.51-1.34,1.86c-0.05,0.73,0.24,1.4,0.52,1.86
	c0.14,0.23,0.24,0.49,0.3,0.77c0.12,0.54,0.32,1.02,0.58,1.41c-0.64,6.97-1.49,13.82-1.64,20.77c-0.45-0.43-0.87-0.79-1.23-1.06
	c0,0-1.38-0.86-2.31-1.43c-1.08-1.18-2.36-2-3.72-2.43l-0.29-3.12c1.21-1.01,2.15-2.77,2.62-4.93c0.01,0,0.02,0,0.04,0
	c0.81,0,1.47-0.9,1.47-2.01c0-0.64-0.22-1.2-0.56-1.57c0.06-0.13,0.11-0.27,0.11-0.44v-2.14c0-0.35-0.17-0.66-0.42-0.78
	c-0.53-4.06-2.84-7.12-5.6-7.12c-2.77,0-5.07,3.06-5.6,7.12c-0.24,0.13-0.42,0.43-0.42,0.78v2.14c0,0.16,0.05,0.31,0.11,0.44
	c-0.34,0.37-0.56,0.93-0.56,1.57c0,1.11,0.66,2.01,1.47,2.01c0.01,0,0.02,0,0.04,0c0.47,2.15,1.41,3.91,2.62,4.93l-0.29,3.12
	c-0.54,0.17-1.07,0.4-1.57,0.69l0,0c-0.22-0.46-0.69-0.62-1.06-0.34l-1.08,0.82c-0.36,0.27-0.48,0.87-0.27,1.33l-2.39,1.82
	c-2.35,2.13-4.15,5.18-5.18,8.73c-0.34,1.16-0.51,2.39-0.55,3.64l-0.11,3.74h1.14c0.08,2.13,0.42,6.57,1.92,9.46
	c0.32,0.61,0.78,0.77,1.34,0.61l-0.51,16.24h1.27l2.43,61.49h1.21l-0.37,1.37l-0.01,0.05c-0.06,0.03-0.12,0.05-0.17,0.08l-0.62,2.34
	c-0.02,0.05-0.02,0.12-0.02,0.18v0.02v1.48c0,0.31,0.2,0.56,0.44,0.56h5.61c0.24,0,0.44-0.25,0.44-0.56v-1.37
	c0-0.04,0-0.07-0.01-0.11c0-0.01,0-0.02-0.01-0.04l-0.5-2.42c-0.06-0.04-0.13-0.06-0.19-0.09l-0.01-0.04l-0.3-1.44h1.1v-53.77
	c0-0.49,0.31-0.88,0.7-0.88c0.38,0,0.7,0.4,0.7,0.88v53.77h1.1l-0.3,1.44l-0.01,0.04c-0.06,0.03-0.13,0.06-0.19,0.09l-0.5,2.42
	c0,0.01,0,0.02-0.01,0.04c0,0.04-0.01,0.07-0.01,0.11v1.37c0,0.31,0.2,0.56,0.44,0.56h5.61c0.24,0,0.44-0.25,0.44-0.56v-1.48v-0.02
	c0-0.06-0.01-0.12-0.02-0.18l-0.62-2.34c-0.05-0.03-0.12-0.05-0.17-0.08l-0.01-0.05l-0.37-1.37h1.21l2.28-57.51h3.67
	c0.57,0,1.03-0.58,1.03-1.31v-17.38c0-0.72-0.46-1.31-1.03-1.31h-2.75l-0.43-13.68c1.16-0.08,2.26-0.39,3.07-1.29
	c0.96-1.08,1.22-2.36,1.03-3.68c0.02-0.16,0.04-0.31,0.06-0.45c0.71-5.25,0.85-10.72,0.66-16.02c-0.13-3.61-0.27-7.21-0.4-10.82
	C456.05,331.18,456.56,330,456.56,328.63z"/>
<g>
	<polygon class="st22" points="366.31,363.34 357.53,369.91 356.28,353.02 365.27,346.66 	"/>
	<polygon class="st23" points="365.05,346.45 365.27,346.66 356.31,353.43 356.28,353.02 	"/>
	<path class="st24" d="M368.75,357.71l-1.27-2.03c0.46-1.24-0.33-4.82-1.83-4.09c-0.17,0.08-0.31,0.21-0.48,0.29
		c-0.27,0.13-0.57,0.11-0.85,0.21c-0.28,0.1-0.56,0.39-0.53,0.76c0.02,0.24,0.17,0.44,0.32,0.59c0.44,0.44,0.97,0.74,1.53,0.87
		c0.11,0.02,0.22,0.05,0.3,0.14c0.1,0.11,0.12,0.29,0.14,0.45c0.07,0.64,0.11,1.28,0.13,1.92c0.01,0.42,0.02,0.85,0.11,1.25
		c0.1,0.4,0.3,0.79,0.6,0.96C367.57,359.38,368.29,358.18,368.75,357.71z"/>
	<path class="st25" d="M386.48,360.48l-0.1-0.29c-0.49-1.5-1.88-2.16-3.02-1.44l-8.46,5.3l-6.59-7.94l-2.22,2.96l7.23,9.99
		c0.67,0.93,1.74,1.19,2.64,0.66l9.42-5.62C386.45,363.45,386.93,361.86,386.48,360.48z"/>
	<g>
		<path class="st24" d="M372.88,394.4l-10.97,0.11l-4.87,0.05l-9.55,0.1c-0.41,0.33-0.88,0.65-1.43,0.89
			c-0.31,0.14-0.65,0.25-1.02,0.33c-1,0.21-1.16,0.24-1.84,0.27c-0.1,0-0.21-0.01-0.29-0.04c-0.33-0.11-0.58-0.43-0.6-0.84
			c-0.11-2.44-0.54-10.95-0.73-13.28c-0.09-1.05,0.13-1.68,0.46-1.98c0.55-0.53,1.41-0.12,1.56,0.68c0.16,0.74,1.55,4.17,2.66,6.58
			c0.18,0.41,0.35,0.77,0.51,1.08l0.03,0.07c0.18,0.37,0.35,0.68,0.48,0.9l12.55-0.92l3.18-0.23l8.28-0.6L372.88,394.4z"/>
		<path class="st26" d="M342.96,396.55c-0.52,0.03-0.95-0.39-0.98-0.94c-0.12-2.6-0.57-11.69-0.78-14.16
			c-0.25-3.05,1.96-2.74,2.23-1.4c0.16,0.8,1.7,4.45,2.92,7.02c0.21,0.45,0.41,0.86,0.59,1.22c-0.31,0.14-0.65,0.21-0.93,0.03
			c-0.21-0.13-0.37-0.38-0.6-0.45c-0.29-0.08-0.58,0.2-0.7,0.53c-0.11,0.33-0.08,0.71-0.04,1.07c0.28,2.19,1.18,4.23,1.42,6.42
			c-0.35,0.15-0.72,0.27-1.12,0.35C343.89,396.48,343.71,396.52,342.96,396.55z"/>
		<path class="st6" d="M341.23,396.66l-0.94-17.24c-0.01-0.23,0.12-0.43,0.31-0.45l1.05-0.09c0.18-0.02,0.34,0.16,0.35,0.39
			l0.94,17.24c0.01,0.23-0.12,0.43-0.31,0.45l-1.05,0.09C341.4,397.07,341.24,396.89,341.23,396.66z"/>
	</g>
	<path class="st27" d="M363.01,388.17l-1.11,6.34l-4.87,0.05c0.86-2.49,2.13-4.93,2.8-6.17L363.01,388.17z"/>
	<polygon class="st23" points="367.47,369.73 357.53,369.91 356.28,353.02 366.21,352.84 	"/>
	<g>
		<path class="st28" d="M369.76,395.43c-1.3-0.2-2.44-0.39-3.29-0.55c-1.05-0.19-1.68-0.32-1.68-0.32l-6.7,24.74
			c0.14,0.6,0.24,1.25,0.28,1.98v0.01c0.02,0.42,0,0.85-0.04,1.33c-0.12,1.28-0.14,1.48-0.31,2.32c-0.03,0.12-0.06,0.23-0.1,0.33
			c-0.17,0.38-0.49,0.59-0.81,0.5c-1.88-0.55-8.45-2.43-10.25-2.86c-0.82-0.19-1.24-0.62-1.37-1.11c-0.25-0.82,0.3-1.75,0.95-1.72
			c0.61,0.03,3.6-0.71,5.74-1.38c0.35-0.11,0.67-0.22,0.96-0.31c0.03-0.01,0.04-0.01,0.06-0.02c0.33-0.12,0.61-0.23,0.82-0.33
			l6.03-27.93c0.44-2.07,1.6-3.65,2.94-4l4.73-0.45l1.9-0.18L369.76,395.43z"/>
		<path class="st26" d="M358.23,425.35c-0.13,0.64-0.56,1.05-0.99,0.92c-2-0.58-9.01-2.59-10.93-3.04
			c-2.38-0.55-1.53-3.15-0.43-3.11c0.65,0.02,3.85-0.82,6.13-1.57c0.4-0.13,0.77-0.26,1.09-0.38c0.02,0.42-0.02,0.84-0.24,1.14
			c-0.16,0.22-0.39,0.34-0.51,0.6c-0.14,0.33-0.02,0.76,0.21,1c0.22,0.23,0.52,0.3,0.8,0.35c1.74,0.28,3.54-0.24,5.26,0.08
			c0.02,0.46,0,0.95-0.05,1.46C358.44,424.2,358.42,424.43,358.23,425.35z"/>
		<path class="st6" d="M357.83,427.49l-13.31-3.71c-0.18-0.05-0.29-0.27-0.25-0.5l0.23-1.3c0.04-0.23,0.21-0.37,0.39-0.32
			l13.31,3.71c0.18,0.05,0.29,0.27,0.25,0.5l-0.23,1.3C358.19,427.39,358.01,427.54,357.83,427.49z"/>
	</g>
	<path class="st29" d="M369.76,395.43c-1.3-0.2-2.44-0.39-3.29-0.55c0.21-3.46,0.85-7.25,1.21-9.2l1.9-0.18L369.76,395.43z"/>
	<g>
		<path class="st30" d="M389.75,388.8c-0.29,3.18-1.06,4.82-1.69,5.64c-0.11,0.18-0.23,0.35-0.36,0.53
			c-1.59,2.15-9.25,1.63-15.29,0.83c-0.47-0.07-0.92-0.12-1.36-0.19l-0.53-10.2l1.3-0.1l4.66-0.34l0.43-1.33l0.66-2.05l12.15,1
			C389.93,385.13,389.9,387.17,389.75,388.8z"/>
		<path class="st17" d="M371.82,385.11l0.6,10.9c0.03,0.54-0.32,0.99-0.74,0.96l-2.71-0.18c-0.38-0.02-0.67-0.42-0.67-0.9
			l0.03-10.94c0-0.52,0.36-0.93,0.77-0.89l2.08,0.22C371.52,384.32,371.79,384.67,371.82,385.11z"/>
	</g>
	<path class="st31" d="M389.75,388.8c-4.51-1.02-10.41-3.9-12.84-5.15l0.66-2.05l12.15,1C389.93,385.13,389.9,387.17,389.75,388.8z"
		/>
	<path class="st32" d="M380.85,351.39c-0.35,1.04-1.01,1.87-1.46,2.85c-0.22,0.47-0.39,1.02-0.28,1.55c0.1,0.51,0.45,0.9,0.83,1.15
		c0.9,0.58,2.79,0.48,3.7-0.02c1.74-0.95,2.1-3.32,1.94-5.67c-0.09-1.3-0.52-2.53-0.84-3.78c-0.32-1.25-0.52-2.62-0.14-3.83
		c0.36-1.16,1.23-2.04,1.39-3.27c0.15-1.1-0.42-2.35-1.31-2.66c-0.25-0.09-0.52-0.1-0.78-0.09c-0.48,0.03-0.98,0.16-1.36,0.51
		c-0.24,0.23-0.43,0.53-0.6,0.84c-0.84,1.56-1.27,3.45-1.22,5.34c0.03,1.19,0.25,2.37,0.37,3.55
		C381.2,349.06,381.21,350.3,380.85,351.39z"/>
	<path class="st26" d="M391.23,386.69l1.9-20.97c0.35-2.76-0.46-4.75-1.59-6.91l-0.45-0.87c-0.99-1.9-2.09-3.34-4.01-2.99
		c-0.84,0.15-1.63,0.56-2.4,0.99c-0.75,0.42-1.83,0.81-2.57,1.29c-1.43,0.93-2.51,2.05-3.55,3.6c-2.42,3.62-0.6,7.31-0.53,11.42
		c0.05,3.35-1.29,6.4-2.13,9.56c-0.29,1.12,0.08,1.27,0.93,1.43c0.79,0.16,1.57,0.4,2.35,0.6c1.67,0.43,3.34,0.86,5,1.29
		C386.2,385.65,389.21,386.17,391.23,386.69z"/>
	<path class="st24" d="M388.61,354.65c-0.05,0.08-0.14,0.15-0.23,0.23l-0.05,0.28c-0.01,0.03-0.03,0.07-0.04,0.1
		c-1.7,4.36-7.07,4.84-7.07,4.84c0.58-1.22,1.72-2.95,2.63-3.89l0.54-1.99l0.24-1.27l0.6-3.24l0.97,0.11l1.36,0.15l0.97,0.11
		l-0.06,3.28C388.75,353.73,388.93,354.2,388.61,354.65z"/>
	<path class="st27" d="M388.61,354.65c-0.05,0.08-0.14,0.15-0.23,0.23l-0.05,0.28c-0.01,0.03-0.03,0.07-0.04,0.1
		c-1.53-0.37-2.82-1.45-3.65-2.31l0.6-3.24l0.97,0.11l1.36,0.15l0.97,0.11l-0.06,3.28C388.75,353.73,388.93,354.2,388.61,354.65z"/>
	<path class="st28" d="M390.82,345.92c-0.33,4.01-2.6,6.97-5.07,6.59c-2.48-0.37-4.22-3.92-3.9-7.94c0.06-0.78,0.2-1.51,0.4-2.19
		c0.53-1.83,1.49-3.25,2.63-3.95c0.63-0.38,1.33-0.56,2.04-0.45c0.16,0.02,0.33,0.07,0.48,0.12c1.35,0.44,2.44,1.85,3.01,3.75
		C390.77,343.06,390.93,344.45,390.82,345.92z"/>
	<path class="st29" d="M390.4,341.84c-0.39,0.47-1.05,0.95-2.08,1.42c-3.2,1.43-5.07,0.32-6.08-0.89c0.53-1.83,1.49-3.25,2.63-3.95
		l2.52-0.33C388.74,338.54,389.83,339.95,390.4,341.84z"/>
	<path class="st33" d="M388.29,343.61c0.27,0.11,0.49,0.4,0.59,0.73c0.14,0.45,0.09,0.95,0.01,1.42c-0.07,0.4-0.17,0.8-0.36,1.13
		c-0.19,0.33-0.49,0.59-0.83,0.6c-0.05,0-0.1,0-0.14,0.02c-0.34,0.17,0.21,1.02,0.3,1.22c0.67,1.64,0.51,3.59,0.15,5.34
		c-0.11,0.55-0.25,1.11-0.25,1.68c0,1.27,0.76,2.51,1.76,2.88c0.47,0.17,1.07-0.08,1.48,0.28c0.2,0.18,0.37,0.43,0.58,0.59
		c0.22,0.16,0.48,0.23,0.73,0.21c0.71-0.05,1.3-0.74,1.54-1.55c0.24-0.81,0.18-1.72,0.02-2.57c-0.17-0.85-0.44-1.67-0.63-2.51
		c-0.42-1.9-0.29-3.71,0.11-5.57c0.37-1.77,0.94-3.56,0.77-5.44c-0.04-0.44-0.12-0.88-0.23-1.31c-0.71-2.8-2.7-5.1-5.03-5.78
		c-2.33-0.67-4.91,0.34-6.42,2.55c-0.38,0.56-0.71,1.24-0.73,1.98c-0.02,1.04,0.6,2.01,1.38,2.46c0.78,0.45,1.67,0.45,2.51,0.27
		c0.43-0.09,0.92-0.21,1.25,0.15c0.44,0.47,0.06,1.53,0.42,1.85c0.2-0.28,0.38-0.61,0.71-0.67
		C388.09,343.56,388.19,343.57,388.29,343.61z"/>
	<path class="st24" d="M368.02,362.92c0,0-0.27-2.58-0.48-3.55c-0.21-0.97-0.95-1.21-0.95-1.21l0.24,3.09L368.02,362.92z"/>
	<path class="st28" d="M370.13,364.26l-1.3,3.21l-0.98-0.73l-1.03-0.78c-0.27,0.2-0.57,0.36-0.89,0.43
		c-0.63,0.15-1.22,0.03-1.73-0.25l-0.01-0.01c-0.26-0.14-0.49-0.34-0.7-0.56c-0.77-0.62-2.12-1.22-1.83-2.63
		c0.03-0.16,0.09-0.34,0.05-0.5c-0.02-0.11-0.06-0.2-0.1-0.3c-0.18-0.49-0.07-1.06,0.11-1.54c0.06-0.16,0.14-0.32,0.15-0.49
		c0.01-0.13-0.02-0.25-0.03-0.37c-0.04-0.3-0.04-0.6,0.03-0.89c0.17-0.6,0.78-0.95,1.25-0.77c0,0,5.23,1.86,5.17,4.98l0.15,0.1
		L370.13,364.26z"/>
	<path class="st29" d="M370.13,364.26l-1.3,3.21l-0.98-0.73c0.16-1.23,0.47-2.84,0.6-3.58L370.13,364.26z"/>
	<path class="st5" d="M389.97,360.56l-0.18-0.27c-0.9-1.37-2.53-1.49-3.56-0.26l-7.54,9.1l-9-5.63l-1.58,4.04l10.2,7.53
		c0.95,0.7,2.14,0.53,2.95-0.4l8.47-9.84C390.7,363.7,390.8,361.82,389.97,360.56z"/>
	<polygon class="st5" points="364.08,355.9 358.71,355.99 358.85,357.86 364.22,357.77 	"/>
</g>
<g>
	<g>
		<polygon class="st34" points="489.75,465.1 502.58,465.1 502.58,436.89 490.45,436.89 		"/>
		<path class="st35" d="M503.24,438.49v26.61h-1.14l-0.67-27.44l-0.56,27.44h-1.27l-0.67-27.44l-0.56,27.44h-1.27l-0.67-27.44
			l-0.56,27.44h-1.27l-0.67-27.44l-0.56,27.44h-1.27l-0.67-27.44l-0.56,27.44h-1.13v-26.61c0-4.82,1.65-8.99,4.01-10.85
			c0.84-0.66,1.77-1.03,2.74-1.03c1.4,0,2.7,0.76,3.78,2.05C502.07,430.81,503.24,434.42,503.24,438.49z"/>
		<path class="st35" d="M500.28,428.67c-0.71,1.12-1.79,1.83-3.01,1.83c-1.56,0-2.9-1.17-3.51-2.86c0.84-0.66,1.77-1.03,2.74-1.03
			C497.9,426.61,499.2,427.37,500.28,428.67z"/>
		<rect x="496.03" y="406.17" class="st35" width="0.95" height="17.06"/>
		<path class="st15" d="M499.59,424.63c0,2.17-1.38,3.92-3.09,3.92c-1.71,0-3.09-1.76-3.09-3.92s1.38-3.92,3.09-3.92
			C498.21,420.71,499.59,422.46,499.59,424.63z"/>
	</g>
	<g>
		<rect x="512.23" y="405.72" class="st36" width="85.07" height="59.38"/>
		<rect x="512.23" y="405.72" class="st37" width="85.07" height="9.79"/>
		<rect x="561.56" y="405.72" class="st37" width="35.74" height="59.38"/>
		<path class="st38" d="M629.35,402.89v2.51c0,1.87-1.2,3.39-2.68,3.39H482.86c-1.48,0-2.68-1.52-2.68-3.39v-2.51
			c0-1.87,1.2-3.39,2.68-3.39h143.81C628.15,399.5,629.35,401.02,629.35,402.89z"/>
		<path class="st37" d="M629.35,402.89v0.46H480.18v-0.46c0-1.87,1.2-3.39,2.68-3.39h143.81
			C628.15,399.5,629.35,401.02,629.35,402.89z"/>
	</g>
</g>
<g>
	<path class="st33" d="M573.38,354.35c0.25-0.48,0.04-1.16-0.3-1.54c-0.09-0.1-0.18-0.19-0.23-0.32c-0.1-0.27,0.03-0.61-0.02-0.9
		c-0.05-0.27-0.24-0.46-0.42-0.61c-0.92-0.75-2.03-1.24-3.1-0.99c-0.31,0.07-0.62,0.21-0.93,0.25c-0.47,0.07-0.94-0.06-1.41-0.07
		c-0.17,0-0.35,0.03-0.49,0.12c-0.15-0.09-0.32-0.12-0.49-0.12c-0.47,0.01-0.94,0.14-1.41,0.07c-0.32-0.05-0.62-0.18-0.93-0.25
		c-1.07-0.25-2.18,0.24-3.1,0.99c-0.18,0.15-0.38,0.33-0.42,0.61c-0.05,0.3,0.09,0.63-0.02,0.9c-0.05,0.13-0.15,0.22-0.23,0.32
		c-0.34,0.38-0.56,1.06-0.3,1.54c0.06,0.11,0.14,0.2,0.19,0.32c0.21,0.47-0.1,1.04-0.15,1.58c-0.04,0.48,0.15,0.97,0.47,1.21
		c0.16,0.12,0.36,0.19,0.49,0.37c0.33,0.51-0.14,1.43,0.23,1.9c0.3,0.38,0.88,0.04,1.21,0.39c0.24,0.25,0.23,0.75,0.45,1.03
		c0.39,0.5,1.18-0.02,1.55,0.5c0.1,0.14,0.15,0.33,0.25,0.47c0.18,0.23,0.47,0.22,0.72,0.13c0.24-0.09,0.48-0.24,0.73-0.25
		c0.26,0,0.52,0.15,0.78,0.11c0.26,0.04,0.52-0.12,0.78-0.11c0.25,0,0.49,0.16,0.73,0.25c0.24,0.09,0.54,0.1,0.72-0.13
		c0.1-0.13,0.15-0.33,0.25-0.47c0.37-0.52,1.16,0,1.55-0.5c0.22-0.28,0.21-0.78,0.45-1.03c0.33-0.35,0.91,0,1.21-0.39
		c0.37-0.47-0.1-1.39,0.23-1.9c0.12-0.19,0.32-0.25,0.49-0.37c0.32-0.24,0.52-0.74,0.47-1.21c-0.05-0.54-0.36-1.11-0.15-1.58
		C573.24,354.55,573.32,354.46,573.38,354.35z"/>
	<g>
		<g>
			<path class="st14" d="M563.47,437.46v1.75c0,0.39-0.25,0.71-0.55,0.71h-7.11c-0.31,0-0.56-0.31-0.56-0.71v-1.91
				c0-0.08,0.01-0.15,0.03-0.23l0.79-2.98l0.66-2.48l0.23-4.17h4.81l0.51,4.17l0.53,2.58l0.64,3.09
				C563.46,437.34,563.47,437.4,563.47,437.46z"/>
			<path class="st25" d="M561.5,435.61h-3.91c0.45-1.72,0.75-5.8,0.89-8.17h1.87c0.08,0.77,0.19,1.72,0.33,2.7
				C561.01,432.43,561.5,435.61,561.5,435.61z"/>
			<path class="st15" d="M563.79,437.89v1.88c0,0.42-0.27,0.76-0.6,0.76h-7.66c-0.33,0-0.6-0.34-0.6-0.76v-2.05
				c0-0.08,0.01-0.17,0.03-0.24l0.36-1.35c0.35-1.33,1.25-2.3,2.34-2.55c0.54-0.12,1.11-0.19,1.7-0.19c0.64,0,1.27,0.08,1.85,0.23
				c1.12,0.28,2,1.38,2.29,2.77l0.27,1.3c0,0.02,0,0.03,0.01,0.05C563.78,437.79,563.79,437.84,563.79,437.89z"/>
			<path class="st5" d="M564.05,439.78c0,0.43-0.28,0.78-0.63,0.78h-8.11c-0.35,0-0.63-0.35-0.63-0.78v-1.81
				c0-0.14,0.09-0.26,0.2-0.26h8.96c0.11,0,0.2,0.11,0.2,0.25C564.04,438.52,564.05,439.78,564.05,439.78z"/>
		</g>
		<g>
			<path class="st14" d="M569.44,437.46v1.75c0,0.39,0.25,0.71,0.55,0.71h7.11c0.31,0,0.56-0.31,0.56-0.71v-1.91
				c0-0.08-0.01-0.15-0.03-0.23l-0.79-2.98l-0.66-2.48l-0.23-4.17h-4.81l-0.51,4.17l-0.53,2.58l-0.64,3.09
				C569.44,437.34,569.44,437.4,569.44,437.46z"/>
			<path class="st25" d="M571.41,435.61h3.91c-0.45-1.72-0.75-5.8-0.89-8.17h-1.87c-0.08,0.77-0.19,1.72-0.33,2.7
				C571.9,432.43,571.41,435.61,571.41,435.61z"/>
			<path class="st15" d="M569.12,437.89v1.88c0,0.42,0.27,0.76,0.6,0.76h7.66c0.33,0,0.6-0.34,0.6-0.76v-2.05
				c0-0.08-0.01-0.17-0.03-0.24l-0.36-1.35c-0.35-1.33-1.25-2.3-2.34-2.55c-0.54-0.12-1.11-0.19-1.7-0.19
				c-0.64,0-1.27,0.08-1.85,0.23c-1.12,0.28-2,1.38-2.29,2.77l-0.27,1.3c0,0.02,0,0.03-0.01,0.05
				C569.13,437.79,569.12,437.84,569.12,437.89z"/>
			<path class="st5" d="M568.86,439.78c0,0.43,0.28,0.78,0.63,0.78h8.11c0.35,0,0.63-0.35,0.63-0.78v-1.81
				c0-0.14-0.09-0.26-0.2-0.26h-8.96c-0.11,0-0.2,0.11-0.2,0.25C568.86,438.52,568.86,439.78,568.86,439.78z"/>
		</g>
	</g>
	<path class="st39" d="M553.16,379.65c0,0-0.08,5.24,1.85,8.26c1.93,3.03,9.73-8.26,9.73-8.26H553.16z"/>
	<g>
		<path class="st25" d="M560.29,380.98l2.73-19.97l-2.45,1.72c-3.09,2.17-5.56,5.6-6.83,9.78c-0.08,0.26-0.15,0.52-0.22,0.78
			c-0.32,1.21-0.49,2.49-0.52,3.79l-0.11,3.9H560.29z"/>
		<path class="st25" d="M572.62,380.98l-2.73-19.97l2.45,1.72c3.09,2.17,5.56,5.6,6.83,9.78c0.08,0.26,0.15,0.52,0.22,0.78
			c0.32,1.21,0.49,2.49,0.52,3.79l0.11,3.9H572.62z"/>
	</g>
	<path class="st40" d="M556.39,397.95l-0.14,6.15c-0.07,3.17,1.4,5.81,3.24,5.81h13.94c1.84,0,3.31-2.64,3.24-5.81l-0.14-6.15
		H556.39z"/>
	<path class="st15" d="M577.12,398.83l-0.71-26.02c-0.09-3.29-1.1-6.38-2.8-8.53l-0.68-0.87c-1.79-2.28-4.11-3.45-6.48-3.29h0
		c-2.37-0.17-4.69,1.01-6.48,3.29l-0.68,0.87c-1.7,2.15-2.71,5.24-2.8,8.53l-0.71,26.02H577.12z"/>
	<path class="st24" d="M570.02,362.36c-0.04,0.41-0.13,1.03-0.3,1.68c-0.36,1.37-1.11,2.88-2.65,2.88h-1.21
		c-2.27,0-2.83-3.29-2.96-4.56c-0.03-0.3,0.04-0.6,0.22-0.82c0.1-0.13,0.22-0.22,0.36-0.25c0.03-0.02,0.07-0.03,0.11-0.03l0.45-4.78
		h4.85l0.45,4.78c0.17,0.02,0.35,0.12,0.48,0.28C569.97,361.75,570.05,362.06,570.02,362.36z"/>
	<path class="st27" d="M570.02,362.36c-0.04,0.41-0.13,1.03-0.3,1.68c-3.55,0.1-5.4-1.6-6.25-2.75c0.03-0.02,0.07-0.03,0.11-0.03
		l0.45-4.78h4.85l0.45,4.78c0.17,0.02,0.35,0.12,0.48,0.28C569.97,361.75,570.05,362.06,570.02,362.36z"/>
	<g>
		<path class="st24" d="M562.6,353.07c0,1.08-0.72,1.96-1.6,1.96c-0.88,0-1.59-0.88-1.59-1.96c0-0.35,0.07-0.68,0.21-0.96
			c0.27-0.6,0.79-1.01,1.38-1.01c0.74,0,1.36,0.62,1.54,1.47C562.59,352.73,562.6,352.89,562.6,353.07z"/>
		<path class="st24" d="M573.5,353.07c0,1.08-0.72,1.96-1.6,1.96c-0.85,0-1.55-0.81-1.59-1.84c-0.01-0.03-0.01-0.08-0.01-0.12
			c0-1.1,0.72-1.97,1.6-1.97c0.84,0,1.53,0.8,1.59,1.83C573.5,352.97,573.5,353.01,573.5,353.07z"/>
	</g>
	<path class="st28" d="M562.54,352.56c-1.27-0.18-2.31-0.35-2.92-0.46c0.27-0.6,0.79-1.01,1.38-1.01
		C561.75,351.1,562.37,351.72,562.54,352.56z"/>
	<path class="st29" d="M573.49,352.93c-0.93,0.18-2.02,0.25-3.18,0.26c-0.01-0.03-0.01-0.08-0.01-0.12c0-1.1,0.72-1.97,1.6-1.97
		C572.74,351.1,573.43,351.9,573.49,352.93z"/>
	<path class="st28" d="M572.21,351.72c0,0.47-0.02,0.93-0.06,1.38c-0.4,4.69-2.79,8.3-5.69,8.3c-3.07,0-5.57-4.03-5.74-9.11
		c-0.02-0.19-0.02-0.37-0.02-0.57c0-1.91,0.33-3.68,0.9-5.18c1.02-2.71,2.82-4.5,4.86-4.5c2.17,0,4.05,2.02,5.04,4.99
		C571.95,348.41,572.21,350.02,572.21,351.72z"/>
	<path class="st29" d="M572.21,351.72c0,0.47-0.02,0.93-0.06,1.38c-3.71,0.33-8.83-0.38-11.44-0.81c-0.02-0.19-0.02-0.37-0.02-0.57
		c0-1.91,0.33-3.68,0.9-5.18l9.9,0.49C571.95,348.41,572.21,350.02,572.21,351.72z"/>
	<g>
		<g>
			<path class="st17" d="M563.97,401.72l-0.84,24.54l-0.11,3.25h-7.35l-0.1-3.25l-0.76-24.54c0-3.24,2.06-5.9,4.59-5.9
				C561.9,395.83,563.97,398.48,563.97,401.72z"/>
			<polygon class="st41" points="563.12,426.27 563.01,429.52 555.66,429.52 555.55,426.27 			"/>
		</g>
		<g>
			<path class="st17" d="M568.94,401.72l0.84,24.54l0.11,3.25h7.35l0.1-3.25l0.76-24.54c0-3.24-2.06-5.9-4.59-5.9
				C571.01,395.83,568.94,398.48,568.94,401.72z"/>
			<polygon class="st41" points="569.79,426.27 569.9,429.52 577.25,429.52 577.35,426.27 			"/>
		</g>
	</g>
	<path class="st38" d="M578.41,395.42H554.5c-0.74,0-1.37-0.71-1.42-1.6l-0.91-17.64c-0.05-1.02,0.55-1.85,1.35-1.85h25.86
		c0.8,0,1.4,0.83,1.35,1.85l-0.91,17.64C579.78,394.71,579.14,395.42,578.41,395.42z"/>
	<path class="st38" d="M579.78,395.96v0.02c0,0.49-0.31,0.89-0.69,0.89h-25.26c-0.39,0-0.7-0.39-0.7-0.89v-0.02
		c0-0.08,0.01-0.15,0.03-0.22c0.07-0.38,0.35-0.67,0.67-0.67h25.26c0.32,0,0.6,0.28,0.67,0.67
		C579.77,395.81,579.78,395.89,579.78,395.96z"/>
	<g>
		<path class="st14" d="M560.61,349.69c0,0-0.76-7.72,3.44-8.51h3.02v7.71l-3.65,0.55L560.61,349.69z"/>
		<path class="st14" d="M572.3,349.69c0,0,0.76-7.72-3.44-8.51h-3.02v7.71l3.65,0.55L572.3,349.69z"/>
	</g>
	<path class="st15" d="M567.3,340.92h-0.62h-0.45h-0.62c-3.58,0-3.8,3.27-3.8,3.27l0.2,5.11h4.22h0.45h4.22l0.2-5.11
		C571.1,344.2,570.87,340.92,567.3,340.92z"/>
	<path class="st17" d="M573.22,351.3c0.03-0.54-0.42-1.38-0.78-1.99c-0.36-0.61-1.19-0.66-1.19-0.66l-4.37-0.31h-0.85l-4.37,0.31
		c0,0-0.83,0.05-1.19,0.66c-0.36,0.61-0.8,1.45-0.78,1.99c0,0,2.5-0.65,3.6-0.64c0.6,0.01,1.69,0.05,2.55,0.08l-0.01,0.05
		c0,0,0.25-0.01,0.63-0.03c0.38,0.02,0.63,0.03,0.63,0.03l-0.01-0.05c0.86-0.03,1.95-0.08,2.55-0.08
		C570.72,350.64,573.22,351.3,573.22,351.3z"/>
	<g>
		<path class="st42" d="M572.94,351.72c-4.31-0.6-8.67-0.6-12.98,0c-0.2,0.03-0.37-0.16-0.39-0.42l0,0
			c-0.02-0.26,0.12-0.49,0.32-0.52c4.36-0.6,8.77-0.6,13.13,0c0.2,0.03,0.34,0.26,0.32,0.52l0,0
			C573.32,351.56,573.14,351.74,572.94,351.72z"/>
	</g>
	<path class="st5" d="M568.02,385.85v-2.29l-1.57-1.15l-1.57,1.15v2.29l1.57,1.15L568.02,385.85z M565.76,385.22v-1.02l0.7-0.51
		l0.7,0.51v1.02l-0.7,0.51L565.76,385.22z"/>
	<path class="st43" d="M579.75,395.74h-26.6c0.07-0.38,0.35-0.67,0.67-0.67h25.26C579.41,395.08,579.68,395.36,579.75,395.74z"/>
</g>
<g>
	<g>
		<g>
			<path class="st28" d="M439.61,460.32v1.28c0,0.29-0.18,0.52-0.41,0.52H434c-0.22,0-0.41-0.23-0.41-0.52v-1.4
				c0-0.06,0.01-0.11,0.02-0.17l0.58-2.18l0.48-1.81h4.07l0.39,1.89l0.46,2.26C439.61,460.23,439.61,460.28,439.61,460.32z"/>
			<path class="st44" d="M439.84,460.63v1.37c0,0.31-0.2,0.56-0.44,0.56h-5.61c-0.24,0-0.44-0.25-0.44-0.56v-1.5
				c0-0.06,0.01-0.12,0.02-0.18l0.62-2.34c0.75-0.41,1.64-0.65,2.59-0.65c1.01,0,1.95,0.27,2.73,0.73l0.5,2.42
				c0,0.01,0,0.02,0.01,0.04C439.84,460.56,439.84,460.6,439.84,460.63z"/>
			<path class="st6" d="M439.84,460.63v1.37c0,0.31-0.2,0.56-0.44,0.56h-5.61c-0.24,0-0.44-0.25-0.44-0.56v-1.48h6.48
				C439.84,460.56,439.84,460.6,439.84,460.63z"/>
		</g>
		<g>
			<path class="st28" d="M441.65,460.32v1.28c0,0.29,0.18,0.52,0.41,0.52h5.21c0.22,0,0.41-0.23,0.41-0.52v-1.4
				c0-0.06-0.01-0.11-0.02-0.17l-0.58-2.18l-0.48-1.81h-4.07l-0.39,1.89l-0.46,2.26C441.66,460.23,441.65,460.28,441.65,460.32z"/>
			<path class="st44" d="M441.42,460.63v1.37c0,0.31,0.2,0.56,0.44,0.56h5.61c0.24,0,0.44-0.25,0.44-0.56v-1.5
				c0-0.06-0.01-0.12-0.02-0.18l-0.62-2.34c-0.75-0.41-1.64-0.65-2.59-0.65c-1.01,0-1.95,0.27-2.73,0.73l-0.5,2.42
				c0,0.01,0,0.02-0.01,0.04C441.42,460.56,441.42,460.6,441.42,460.63z"/>
			<path class="st6" d="M441.42,460.63v1.37c0,0.31,0.2,0.56,0.44,0.56h5.61c0.24,0,0.44-0.25,0.44-0.56v-1.48h-6.48
				C441.42,460.56,441.42,460.6,441.42,460.63z"/>
		</g>
	</g>
	<path class="st28" d="M455.1,333.04c0.13,3.6,0.27,7.21,0.4,10.81c0.18,4.74,0.09,9.61-0.45,14.34c-0.06,0.56-0.13,1.12-0.21,1.68
		c-0.22,1.6-0.6,4.58-2.63,3.81c-1.17-0.45-1.48-2.2-1.56-3.65c-0.2-3.29-0.17-6.53-0.01-9.76c0.27-5.95,0.98-11.85,1.53-17.84
		c-0.26-0.39-0.46-0.88-0.58-1.42c-0.06-0.27-0.16-0.53-0.3-0.77c-0.29-0.46-0.57-1.13-0.53-1.85c0.1-1.36,1.34-1.86,1.34-1.86
		v-3.89c0,0,0.01-1.26,0.38-1.37c0.37-0.11,0.7,0.32,0.73,1.54c0.02,0.57,0.08,1.75,0.14,2.85c0.02,0.33,0.26,0.57,0.54,0.57
		c1.36,0,2.44,1.63,2.44,3.64C456.35,331.24,455.85,332.42,455.1,333.04z"/>
	<path class="st27" d="M455.05,358.19c-0.06,0.56-0.13,1.12-0.21,1.68c-0.22,1.6-0.6,4.58-2.63,3.81c-1.17-0.45-1.48-2.2-1.56-3.65
		c-0.2-3.29-0.17-6.53-0.01-9.76C451.71,351.46,453.9,354.22,455.05,358.19z"/>
	<path class="st28" d="M438.99,367.47c0,0-8.37,16.2-10.39,12.29c-1.42-2.74-1.93-7.59-2.12-10.26c-0.08-1.15-0.1-1.9-0.1-1.9
		l5.83-0.07L438.99,367.47z"/>
	<path class="st27" d="M432.22,367.54v3.06l-5.74-1.1c-0.08-1.15-0.1-1.9-0.1-1.9L432.22,367.54z"/>
	<polygon class="st24" points="443.39,349.48 437.87,349.48 438.22,345.67 438.4,343.84 442.86,343.84 443.18,347.22 	"/>
	<path class="st27" d="M443.18,347.22c-2.67-0.16-4.22-0.99-4.96-1.54l0.17-1.83h4.47L443.18,347.22z"/>
	<path class="st44" d="M433.49,368.7l1.32-18.54l-3.2,2.44c-2.35,2.13-4.15,5.18-5.18,8.73c-0.34,1.16-0.51,2.39-0.55,3.64
		l-0.11,3.74H433.49z"/>
	<path class="st44" d="M447.42,365.26l-1.32-15.1l3.2,1.98c2.47,1.83,7.82,8.07,4.44,11.87
		C452.17,365.79,449.39,365.26,447.42,365.26z"/>
	<path class="st45" d="M450.45,392.5l-0.27,6.81l-2.27,57.17h-6.58v-53.76c0-0.49-0.31-0.89-0.69-0.89c-0.39,0-0.7,0.39-0.7,0.89
		v53.76h-6.58l-2.37-59.91l-0.16-4.07H450.45z"/>
	<polygon class="st46" points="450.45,392.5 450.18,399.32 430.99,396.58 430.82,392.5 	"/>
	<path class="st25" d="M447.71,351.48l-0.67-0.74c-1.77-1.94-4.07-2.95-6.41-2.81h0l0,0c-2.34-0.14-4.63,0.86-6.41,2.81l-0.67,0.74
		c-1.68,1.84-2.68,4.48-2.77,7.28L429.65,395h7.92h6.13h7.92l-1.14-36.24C450.39,355.96,449.39,353.32,447.71,351.48z"/>
	<path class="st44" d="M453.7,398.97h-4.14c-0.66,0-1.19-0.53-1.19-1.19v-17.61c0-0.66,0.53-1.19,1.19-1.19h4.14
		c0.66,0,1.19,0.53,1.19,1.19v17.61C454.89,398.44,454.36,398.97,453.7,398.97z"/>
	<g>
		<path class="st44" d="M449.67,384.07L434,350.79c-0.22-0.46-0.1-1.07,0.27-1.34l1.08-0.82c0.37-0.28,0.84-0.13,1.06,0.34
			l15.67,33.29c0.22,0.46,0.1,1.07-0.27,1.34l-1.08,0.82C450.36,384.69,449.89,384.54,449.67,384.07z"/>
	</g>
	<g>
		<path class="st28" d="M437.09,338.23v0.07c-0.03,1.07-0.67,1.94-1.47,1.94c-0.81,0-1.47-0.9-1.47-2c0-0.25,0.03-0.48,0.1-0.7
			c0.21-0.77,0.74-1.31,1.37-1.31C436.44,336.21,437.09,337.11,437.09,338.23z"/>
		<path class="st28" d="M447.1,338.23c0,0.22-0.03,0.44-0.08,0.64c-0.19,0.8-0.74,1.37-1.39,1.37c-0.59,0-1.1-0.47-1.33-1.16
			c-0.09-0.25-0.14-0.54-0.14-0.84c0-1.12,0.66-2.02,1.47-2.02S447.1,337.11,447.1,338.23z"/>
	</g>
	<path class="st29" d="M437.09,338.23v0.07c-1.16-0.26-2.13-0.54-2.84-0.77c0.21-0.77,0.74-1.31,1.37-1.31
		C436.44,336.21,437.09,337.11,437.09,338.23z"/>
	<path class="st29" d="M447.1,338.23c0,0.22-0.03,0.44-0.08,0.64c-0.92,0.13-1.83,0.2-2.72,0.21c-0.09-0.25-0.14-0.54-0.14-0.84
		c0-1.12,0.66-2.02,1.47-2.02S447.1,337.11,447.1,338.23z"/>
	<path class="st47" d="M445.92,337.18c0,0.62-0.03,1.23-0.11,1.81c-0.49,4.05-2.63,7.1-5.17,7.1c-2.79,0-5.08-3.63-5.28-8.24
		c-0.01-0.22-0.02-0.44-0.02-0.67c0-3.68,1.32-6.84,3.21-8.19c0.64-0.46,1.35-0.71,2.08-0.71c0.73,0,1.43,0.25,2.07,0.71
		C444.6,330.35,445.92,333.5,445.92,337.18z"/>
	<path class="st48" d="M445.92,337.18c0,0.62-0.03,1.23-0.11,1.81c-4.13,0.35-8.05-0.46-10.45-1.14c-0.01-0.22-0.02-0.44-0.02-0.67
		c0-3.68,1.32-6.84,3.21-8.19h4.16C444.6,330.35,445.92,333.5,445.92,337.18z"/>
	<path class="st44" d="M446.34,335.39c0-0.11,0.01-0.21,0.01-0.32c0-4.92-2.56-8.91-5.72-8.91c-3.16,0-5.72,3.99-5.72,8.91
		c0,0.11,0.01,0.21,0.01,0.32H446.34z"/>
	<path class="st49" d="M445.88,337.06h-10.5c-0.43,0-0.77-0.35-0.77-0.77V334c0-0.43,0.35-0.77,0.77-0.77h10.5
		c0.43,0,0.77,0.35,0.77,0.77v2.29C446.65,336.71,446.31,337.06,445.88,337.06z"/>
</g>
<line class="st50" x1="297.41" y1="465.89" x2="660" y2="465.89"/>
</svg>
