<svg id="Layer_1" data-name="Layer 1" xmlns="http://www.w3.org/2000/svg" viewBox="0 0 118.65 108.81"><defs><style>.cls-1{fill:#e7872c;}.cls-2{fill:#0069b3;}.cls-3{fill:#5ad0f1;}.cls-4{fill:#c4e9f6;}.cls-5{fill:#fff;}</style></defs><title>logo</title><path class="cls-1" d="M642,386c-1.2,1.38-2.47,2.94-2.41,4.76a1.63,1.63,0,0,0,.57,1.32,2.1,2.1,0,0,0,2-.15l3.61-1.58a2.61,2.61,0,0,0,2.61,3.92,4.5,4.5,0,0,0,2.83-2.21,5.4,5.4,0,0,0,3.54,3.68,4,4,0,0,0,4.55-1.88,5.59,5.59,0,0,0,.33-3,7.9,7.9,0,0,0-.66-2.62c-1.52-3.22-5.83-4.63-9-5.37C646.44,382,644.28,383.34,642,386Z" transform="translate(-609.85 -287.05)"/><path class="cls-1" d="M696.36,386c1.2,1.38,2.47,2.94,2.41,4.76a1.6,1.6,0,0,1-.57,1.32,2.1,2.1,0,0,1-2-.15l-3.61-1.58a2.61,2.61,0,0,1-2.61,3.92,4.46,4.46,0,0,1-2.82-2.21,5.44,5.44,0,0,1-3.55,3.68,4,4,0,0,1-4.54-1.88,5.49,5.49,0,0,1-.34-3,8.15,8.15,0,0,1,.66-2.62c1.52-3.22,5.83-4.63,9-5.37C691.91,382,694.07,383.34,696.36,386Z" transform="translate(-609.85 -287.05)"/><path class="cls-2" d="M621.13,348.35c-2.55,4.71-6,9.72-11.28,10.62a15.32,15.32,0,0,0,13.48,3.94,10.29,10.29,0,0,0,2.25,7.85,16.29,16.29,0,0,0,6.75,4.84l-.54-4.73a28,28,0,0,0,14.52,4.41,25.67,25.67,0,0,1-6-9.5c-2.49-7.42-.57-15.73-2.87-23.21-1.2-3.9-4.46-8-8.48-5C625.33,340.32,623.24,344.43,621.13,348.35Z" transform="translate(-609.85 -287.05)"/><path class="cls-2" d="M717.23,348.35c2.54,4.71,6,9.72,11.27,10.62A15.3,15.3,0,0,1,715,362.91a10.34,10.34,0,0,1-2.26,7.85A16.22,16.22,0,0,1,706,375.6l.54-4.73A28,28,0,0,1,692,375.28a25.67,25.67,0,0,0,6-9.5c2.49-7.42.58-15.73,2.87-23.21,1.2-3.9,4.46-8,8.48-5C713,340.32,715.11,344.43,717.23,348.35Z" transform="translate(-609.85 -287.05)"/><path class="cls-3" d="M707.7,347.28c0,21.28-17.25,45.62-38.52,45.62s-38.53-24.34-38.53-45.62a34,34,0,0,1,.93-8.09c3.86-15.77,19.22-23.34,37.6-23.34s33.73,7.57,37.59,23.34A34,34,0,0,1,707.7,347.28Z" transform="translate(-609.85 -287.05)"/><path class="cls-4" d="M706.77,339.19C702.92,357.84,687.55,376,669.18,376s-33.74-18.14-37.6-36.79c3.86-15.77,19.22-23.34,37.6-23.34S702.91,323.42,706.77,339.19Z" transform="translate(-609.85 -287.05)"/><path class="cls-3" d="M672.89,318.46a13.62,13.62,0,0,1-3.71.78,13.43,13.43,0,0,1-3.49-.71h0c-9.51-8-11.19-25.61-6.2-28.8,5.55-3.56,9.69,4.07,9.69,4.07v.12s4.14-7.63,9.69-4.08C683.82,293,682.2,310.38,672.89,318.46Z" transform="translate(-609.85 -287.05)"/><path class="cls-3" d="M669.24,318.86S631.39,304,640.41,291,669.24,299.83,669.24,318.86Z" transform="translate(-609.85 -287.05)"/><path class="cls-3" d="M669.11,318.86S707,304,698,291,669.11,299.83,669.11,318.86Z" transform="translate(-609.85 -287.05)"/><circle class="cls-3" cx="648.03" cy="324.12" r="21.9" transform="translate(-385.56 624.82) rotate(-80.78)"/><circle class="cls-3" cx="690.32" cy="324.12" r="21.9" transform="translate(-677.15 124.28) rotate(-31.72)"/><circle class="cls-4" cx="651.38" cy="324.12" r="18.44" transform="translate(-626.78 -250.53) rotate(-3.17)"/><circle class="cls-5" cx="653.81" cy="324.12" r="13.34" transform="translate(-631.18 -239.88) rotate(-4.07)"/><path d="M658.11,330.85a6.73,6.73,0,0,0,3.78-1.16,3.28,3.28,0,0,1,.38-6.53,3.31,3.31,0,0,1,2.57,1.24v-.28a6.73,6.73,0,1,0-6.73,6.73Z" transform="translate(-609.85 -287.05)"/><circle class="cls-4" cx="686.97" cy="324.12" r="18.44" transform="translate(-652.9 -172.82) rotate(-9.22)"/><circle class="cls-5" cx="684.54" cy="324.12" r="13.34" transform="translate(-652.93 -173.21) rotate(-9.22)"/><path d="M680.24,330.85a6.67,6.67,0,0,1-3.77-1.16,3.28,3.28,0,1,0-3-5.29,2.62,2.62,0,0,1,0-.28,6.73,6.73,0,1,1,6.73,6.73Z" transform="translate(-609.85 -287.05)"/><path class="cls-1" d="M674,331.62c0,2.14-1.53,9.79-4.77,9.79s-4.78-7.65-4.78-9.79,2.14-3.88,4.78-3.88S674,329.48,674,331.62Z" transform="translate(-609.85 -287.05)"/><path class="cls-5" d="M653.09,351c-2.7,1.66-5.43,1.86-7.42-.86a.36.36,0,0,0-.67.18c0,1.64,1.48,2.95,3,3.4,2.08.64,4.24-.13,6.06-1.15A.91.91,0,0,0,653.09,351Z" transform="translate(-609.85 -287.05)"/><path class="cls-5" d="M668,347.26a.56.56,0,0,0-.54-.4c-.73,0-.91.34-1.47.81a4.7,4.7,0,0,1-2.73,1.06,5,5,0,0,1-2.56-.59c-.62-.3-1.07-.81-1.78-.75a.31.31,0,0,0-.3.24c-.32,2,3.16,2.92,4.64,2.89C664.87,350.49,668.29,349.33,668,347.26Z" transform="translate(-609.85 -287.05)"/><path class="cls-5" d="M680.33,347.63a6.2,6.2,0,0,1-3.93.8,11.46,11.46,0,0,1-3.55-1.45.56.56,0,0,0-.76.76c1.72,3,6.46,2.82,9,1.24A.78.78,0,0,0,680.33,347.63Z" transform="translate(-609.85 -287.05)"/><path class="cls-5" d="M692.68,349.9c-.59,1-2.64,1.14-3.63,1-1.2-.16-2-1.1-3.15-1.29a.49.49,0,0,0-.59.59c.31,1.69,3,2.29,4.45,2.28,1.2,0,4-.55,4.22-2C694.1,349.7,693.11,349.16,692.68,349.9Z" transform="translate(-609.85 -287.05)"/><path class="cls-5" d="M659.69,355.31c-1.72,2.17-3.72,2.32-5.93.74-.45-.32-1.08.32-.76.76a4.67,4.67,0,0,0,7.74-.69C661.05,355.48,660.19,354.67,659.69,355.31Z" transform="translate(-609.85 -287.05)"/><path class="cls-5" d="M672.45,354.18c0-.27-.27-.56-.58-.45-1.06.39-1.49,1.47-2.68,1.77-1.55.39-2.45-.46-3.68-1.16-.46-.26-.84.24-.66.66.65,1.53,2.81,2.12,4.33,1.9C670.43,356.72,672.61,355.67,672.45,354.18Z" transform="translate(-609.85 -287.05)"/><path class="cls-5" d="M684.4,353.62a.7.7,0,0,0-.67.17c-.93.9-1.49,1.91-3,1.48-1.18-.34-1.9-1.37-2.85-2.08-.5-.38-1.17.35-.85.85,1.14,1.75,3.48,3.41,5.64,2.59C683.42,356.34,686,354.23,684.4,353.62Z" transform="translate(-609.85 -287.05)"/><path class="cls-5" d="M665.16,361.26c-.8.89-1.36,1.78-2.62,2.06-1.48.34-2.51-.37-3.68-1.14a.57.57,0,0,0-.77.77c1.75,2.92,7.28,2.34,8.13-1.07A.64.64,0,0,0,665.16,361.26Z" transform="translate(-609.85 -287.05)"/><path class="cls-5" d="M679.25,361.15l-.08-.23a.38.38,0,0,0-.35-.26,1,1,0,0,0-.75.17c-.76.44-1.1.95-2,1.1-1.6.27-2.56-.64-3.64-1.63-.4-.36-1.17,0-1,.56,1.1,3.18,5.67,3.26,7.65,1A.69.69,0,0,0,679.25,361.15Z" transform="translate(-609.85 -287.05)"/><path class="cls-5" d="M672.13,365.91a3.94,3.94,0,0,1-4,1.91c-1-.17-1.81-.93-2.81-1.05a.18.18,0,0,0-.17.17c0,1.65,2.31,2.46,3.66,2.52a5.46,5.46,0,0,0,4.79-2.7C674.18,365.84,672.71,365,672.13,365.91Z" transform="translate(-609.85 -287.05)"/></svg>