<svg id="Layer_1" data-name="Layer 1" xmlns="http://www.w3.org/2000/svg" xmlns:xlink="http://www.w3.org/1999/xlink" viewBox="0 0 1366 768"><defs><style>.cls-1,.cls-14,.cls-24,.cls-28,.cls-31,.cls-8{fill:none;}.cls-2{fill:#fff;}.cls-3{fill:#ffdab6;opacity:0.38;}.cls-11,.cls-17,.cls-19,.cls-20,.cls-22,.cls-3,.cls-30,.cls-7{isolation:isolate;}.cls-11,.cls-17,.cls-20,.cls-4{fill:#99561a;}.cls-5,.cls-7{fill:#6b3601;}.cls-6{clip-path:url(#clip-path);}.cls-11,.cls-7{opacity:0.44;}.cls-8{stroke:#e2b393;stroke-width:3.14px;}.cls-14,.cls-15,.cls-24,.cls-28,.cls-31,.cls-8{stroke-linecap:round;stroke-miterlimit:10;}.cls-9{clip-path:url(#clip-path-2);}.cls-10{fill:#aa8533;}.cls-12{clip-path:url(#clip-path-3);}.cls-13{fill:#f7ca8f;}.cls-14,.cls-31{stroke:#fff;}.cls-14{stroke-width:3.88px;}.cls-15,.cls-18,.cls-19,.cls-30{fill:#f9ba5d;}.cls-15{stroke:#7f3700;stroke-width:2.58px;}.cls-16{clip-path:url(#clip-path-4);}.cls-17{opacity:0.18;}.cls-19{opacity:0.56;}.cls-20{opacity:0.12;}.cls-21{fill:#ff5b00;}.cls-22,.cls-26{fill:#8d89f7;}.cls-22{opacity:0.42;}.cls-23{fill:#c14d14;}.cls-24{stroke:#ffdaca;}.cls-24,.cls-28{stroke-width:5.51px;}.cls-25{fill:#fcce5b;}.cls-27{fill:#6161d6;}.cls-28{stroke:#c3c3fc;}.cls-29{clip-path:url(#clip-path-5);}.cls-30{opacity:0.62;}.cls-31{stroke-width:3px;}.cls-32{fill:#38200b;}.cls-33{fill:#513118;}</style><clipPath id="clip-path"><path class="cls-1" d="M863,69c-5,12.17-16.3,26.22-22.17,26.54s-13.88.89-25.75-10.4c-10.73-10.21-17-26.44-10.44-40.79-5.36-1.72-1-9.48-.72-9.92s1.16,4.59,4.47,3.81c5.55-6.48,17.37-11,38.08-8.39C868.89,32.68,868.72,54.94,863,69Z"/></clipPath><clipPath id="clip-path-2"><path class="cls-1" d="M843.51,43.36c0-11.19-13.89-17.24-21.63-12.89s-10.61-1.35-11.32,1.63-1,12.35,12.51,14.36S843.51,43.36,843.51,43.36Z"/></clipPath><clipPath id="clip-path-3"><path class="cls-1" d="M841.93,45.2C842,34,851.62,28,857,32.32S864.4,31,864.9,34s.72,12.35-8.71,14.35S841.93,45.2,841.93,45.2Z"/></clipPath><clipPath id="clip-path-4"><path class="cls-1" d="M808.53,54.27c13,6.79,13.49,21.61,13.2,26.3s-3.11,2.48-3.11,2.48.65,5.46-1.5,6.46-15.24-6.4-18-20.6C797.05,57.87,804.44,52.13,808.53,54.27Z"/></clipPath><clipPath id="clip-path-5"><path class="cls-1" d="M888.13,50.61A7.85,7.85,0,0,1,880.34,55a1.73,1.73,0,0,0-1.66.9l-.61,1.19-7.14-3.23.61-1.19a1.54,1.54,0,0,0-.28-1.78A7,7,0,0,1,870,42.41c2.88-5.63,9.34-4.55,12.7-3S891,45,888.13,50.61Z"/></clipPath></defs><title>nerd</title><g id="OBJECTS"><ellipse class="cls-2" cx="840.68" cy="62.85" rx="45.88" ry="43.15"/><ellipse class="cls-3" cx="840.68" cy="62.84" rx="42.05" ry="39.56"/><path class="cls-4" d="M866.35,60.61c8,11.73,1.08,25-1.52,29.05s-4,.81-4,.81-2.16,5.11-4.56,5S846,83.12,850.75,69.38C854.42,58.7,863.81,56.91,866.35,60.61Z"/><path class="cls-5" d="M863,69c-5,12.17-16.3,26.22-22.17,26.54s-13.88.89-25.75-10.4c-10.73-10.21-17-26.44-10.44-40.79-5.36-1.72-1-9.48-.72-9.92s1.16,4.59,4.47,3.81c5.55-6.48,17.37-11,38.08-8.39C868.89,32.68,868.72,54.94,863,69Z"/><g class="cls-6"><path class="cls-7" d="M813.51,47.86a20,20,0,0,1,2.33,2.64c1.4,2.22,1.42,5.5,3.89,6.6A4.36,4.36,0,0,0,824.41,56a7.58,7.58,0,0,0,1.87-4.44c.63-5.13-1.44-10.23-4.07-14.76a14.14,14.14,0,0,0-3.88-4.71c-3.57-2.5-8.9-.72-9.39,3.63C808.5,39.63,810.86,45,813.51,47.86Z"/><path class="cls-7" d="M808.22,53.21a18.42,18.42,0,0,1,5.08,1,11.41,11.41,0,0,1,4.08,3.57,40.69,40.69,0,0,1,8.49,20.26L824,73.42c.35,2.44.71,4.89,1.06,7.34.26,1.8.57,3.72,1.83,5.08,1.62,1.75,4.37,2.13,6.82,1.9a18.4,18.4,0,0,0,7.64-2.51c.32,3.4-.16,7.06-2.4,9.75a13.52,13.52,0,0,1-3.84,3c-7.15,4-16.42,3.81-24,.55s-13.47-9.34-17.45-16.2-6.16-14.52-7.69-22.2c-.58-2.91-1.07-5.94-.27-8.8a11.24,11.24,0,0,1,7.91-7.58c2.88-.76,8.71-.75,9.25,2.67.25,1.54-.81,2.69.18,4.3S806.35,53,808.22,53.21Z"/><path class="cls-7" d="M867.06,53.83c-7.62,18.49-13.55,23.35-13.55,23.35l6.19,5.07,9.58-10.68Z"/></g><path class="cls-8" d="M866.09,56.12a51.81,51.81,0,0,1-6.3,19.39"/><path class="cls-4" d="M843.51,43.36c0-11.19-13.89-17.24-21.63-12.89s-10.61-1.35-11.32,1.63-1,12.35,12.51,14.36S843.51,43.36,843.51,43.36Z"/><g class="cls-9"><path class="cls-10" d="M841.57,41.25c-6.26-9.38-14.34-7.39-20.58-5.67s-8.18-1.23-8.18-1.23l.55,3a9.88,9.88,0,0,1-5.23-4.25c-1.74-3.18-1.1,7.19,6.15,6.76s11.8-5.34,16.73-.41a9,9,0,0,0,10.57,1.75"/><path class="cls-11" d="M825.44,40a8,8,0,0,0-2.56-.75,11.69,11.69,0,0,0-4.19,1c-1.37.43-3,.62-4.15-.25a4.15,4.15,0,0,0,1.86,2.53,9.13,9.13,0,0,1-6.19-3.91,19.12,19.12,0,0,1-2.72-6.72,37.22,37.22,0,0,0,3.27,13.68,14.09,14.09,0,0,0,2.66,4.18c2.4,2.41,6.13,3.31,9.63,3.17A13.62,13.62,0,0,0,829.78,51a7.56,7.56,0,0,0,3.7-5.45c.19-1.94-.78-2.9-2.63-3.38A40.74,40.74,0,0,1,825.44,40Z"/></g><path class="cls-4" d="M841.93,45.2C842,34,851.62,28,857,32.32S864.4,31,864.9,34s.72,12.35-8.71,14.35S841.93,45.2,841.93,45.2Z"/><g class="cls-12"><path class="cls-10" d="M843.29,43.1c4.35-9.38,10-7.39,14.34-5.66s5.7-1.23,5.7-1.23l-.39,3A7.75,7.75,0,0,0,866.59,35c1.21-3.17.76,7.18-4.29,6.75s-8.21-5.33-11.64-.41-7.37,1.76-7.37,1.76"/><path class="cls-11" d="M854.53,41.83a4.28,4.28,0,0,1,1.78-.75,6.18,6.18,0,0,1,2.92,1,2.39,2.39,0,0,0,2.89-.25,4.41,4.41,0,0,1-1.29,2.53c1.77-.28,3.31-1.91,4.3-3.91a24.67,24.67,0,0,0,1.9-6.71,51.35,51.35,0,0,1-2.29,13.67,15.28,15.28,0,0,1-1.86,4.18,7.85,7.85,0,0,1-10.47,2,6.93,6.93,0,0,1-.93-.68,8.2,8.2,0,0,1-2.57-5.45c-.13-1.94.54-2.9,1.83-3.38A25.44,25.44,0,0,0,854.53,41.83Z"/></g><path class="cls-13" d="M843.51,43.36c-10.86-13.43-28.13-4.17-26.43,8.37s19.33,27.54,22.22,27.63,20.6-11.5,22.19-24.68S851.63,34,843.51,43.36Z"/><ellipse class="cls-14" cx="832.61" cy="52.26" rx="8.96" ry="8.43"/><ellipse class="cls-14" cx="855.16" cy="52.26" rx="8.96" ry="8.43"/><path class="cls-14" d="M841.57,52.26c2.06-3.14,4.38-2,4.63,0"/><path class="cls-15" d="M843.51,54.19c-3.72,4.43-1.42,7.57,2.09,7.13S843.51,54.19,843.51,54.19Z"/><path class="cls-15" d="M845.3,53.93c3.29,1,4,7.36,1.46,10a15.56,15.56,0,0,1-3.25-5C842.38,56,842.8,53.14,845.3,53.93Z"/><path class="cls-4" d="M808.53,54.27c13,6.79,13.49,21.61,13.2,26.3s-3.11,2.48-3.11,2.48.65,5.46-1.5,6.46-15.24-6.4-18-20.6C797.05,57.87,804.44,52.13,808.53,54.27Z"/><g class="cls-16"><path class="cls-17" d="M806.37,77.68A4.12,4.12,0,0,0,810.26,75c.19.75,1.22.94,2,1,2,0,4.14-.14,5.45-1.51a6.15,6.15,0,0,0,1.36-3.83,34.63,34.63,0,0,0,.1-5.39,13.37,13.37,0,0,1,5.91,7.36,32.7,32.7,0,0,1,1.52,9.27,12.21,12.21,0,0,1-.73,6.18,16.6,16.6,0,0,1-5.43,5.54,9.06,9.06,0,0,1-5.42.72,16.81,16.81,0,0,1-5.19-1.87,33.08,33.08,0,0,1-11.93-11,13,13,0,0,1-2.24-5c-.32-2,.77-6.8,3.64-4.32C801.61,74.05,802.7,77.65,806.37,77.68Z"/><path class="cls-17" d="M816.09,77.39a22,22,0,0,1,.62,4.33c0,1.28-.15,3.7-1,4.8-1.22,1.55-4.17,1.07-5.88.85A12.6,12.6,0,0,0,811.52,91,5.79,5.79,0,0,0,814,93.21a5.34,5.34,0,0,0,2.83.24c3.73-.59,6.49-3.81,7.48-7.25.4-1.38,1.81-9.79-1.35-6.88-1.22,1.12-1.64,2.28-3.47,1a11.14,11.14,0,0,1-3.43-3Z"/></g><path class="cls-18" d="M821.73,90.55c-4.15-.19-5.8,2.37-4.77,4.6s12.83,1,13.25-.48S825.8,90.75,821.73,90.55Z"/><path class="cls-15" d="M819.92,91.73c-2.39,1.6-1.11,4.39-1.11,4.39"/><path class="cls-15" d="M822.48,92.34c-1.75,1.15-.41,4-.41,4"/><path class="cls-15" d="M824.94,92.71c-1,1.09,0,3.49,0,3.49"/><path class="cls-18" d="M850,90.55c4.14-.19,5.8,2.37,4.77,4.6s-12.83,1-13.25-.48S845.93,90.75,850,90.55Z"/><path class="cls-15" d="M851.8,91.73c2.39,1.6,1.12,4.39,1.12,4.39"/><path class="cls-15" d="M849.25,92.34c1.75,1.15.41,4,.41,4"/><path class="cls-15" d="M846.79,92.71c1,1.09,0,3.49,0,3.49"/><ellipse class="cls-5" cx="852.99" cy="55.15" rx="3.01" ry="1.87" transform="translate(653.44 886.3) rotate(-80.2)"/><path class="cls-2" d="M854.27,53.9c0,.6-.3,1.1-.72,1.11s-.76-.47-.78-1.08.31-1.1.72-1.11S854.25,53.29,854.27,53.9Z"/><path class="cls-5" d="M838.06,54.43c-.11,1.66-1,3-2.07,2.9s-1.78-1.45-1.68-3.11,1-2.95,2.07-2.89S838.15,52.77,838.06,54.43Z"/><path class="cls-2" d="M837.43,52.9c.08.6-.2,1.13-.61,1.17s-.8-.4-.88-1,.2-1.13.61-1.17S837.37,52.3,837.43,52.9Z"/><path class="cls-19" d="M801.55,74.19c5.88,9,8.73.86,8.73.86s3.52,2.64,6.68.67c0,0-3.66,3.11-6.18,1.51,0,0-3.32,4-5.73,2.4S801.55,74.19,801.55,74.19Z"/><path class="cls-20" d="M802.73,56.41a6.48,6.48,0,0,1,5.59-1.15,7,7,0,0,1,4.42,3.51,3.18,3.18,0,0,0-4-.64,5,5,0,0,0-2.26,3.5,1.86,1.86,0,0,1,1.62-1.11,5.26,5.26,0,0,1,2.08.3,14.45,14.45,0,0,0-4.58,3.69c-1.59,2.18-1.84,5-2,7.59,0-.33-1-1.44-1.26-1.78a16,16,0,0,1-2.14-6.4C799.88,61.4,800.62,58.14,802.73,56.41Z"/><path class="cls-19" d="M804.17,68.15c3.52,2,3.58-.81,3.58-.81s2.35,1.27,3.66-.63a4.91,4.91,0,0,0,1.06-3.31s1.43,4.67-1.06,6-2.83-.43-2.83-.43a2,2,0,0,1-2.27.94A3.37,3.37,0,0,1,804.17,68.15Z"/><path class="cls-8" d="M816.18,60.69c-5.92-7.85-11.75-9.56-15.64-2.63"/><path class="cls-8" d="M843.51,39.84c-6.41-12.24-16.63-11.21-18.83-10.45"/><path class="cls-21" d="M833.45,85.69h16.08V97.05H833.45a5.09,5.09,0,0,1-5.23-4.93h0V90.61A5.09,5.09,0,0,1,833.45,85.69Z"/><path class="cls-22" d="M849.53,95v2h-16a5.15,5.15,0,0,1-5.3-5v-1.7A5.17,5.17,0,0,0,833.5,95Z"/><path class="cls-23" d="M848,86.38h28.54v10H848a3.22,3.22,0,0,1-3.32-3.12V89.51A3.22,3.22,0,0,1,848,86.38Z"/><path class="cls-24" d="M876.22,86.38H850a5.15,5.15,0,0,0-5.29,5h0a5.14,5.14,0,0,0,5.29,5h26.56"/><path class="cls-18" d="M849.19,88.1h27.36v6.54H849.19a2.93,2.93,0,0,1-3-2.84h0v-.86a2.93,2.93,0,0,1,3-2.84Z"/><path class="cls-25" d="M852.12,89.84h24.29a.21.21,0,0,1,.22.2v.25a.22.22,0,0,1-.22.21H852.12a.22.22,0,0,1-.22-.21V90A.21.21,0,0,1,852.12,89.84Z"/><path class="cls-25" d="M852.12,92h24.29a.21.21,0,0,1,.22.21v.25a.21.21,0,0,1-.22.2H852.12a.21.21,0,0,1-.22-.2v-.25A.21.21,0,0,1,852.12,92Z"/><path class="cls-26" d="M828.09,74.82h16.08V86.17H828.09a5.09,5.09,0,0,1-5.24-4.92h0V79.74A5.09,5.09,0,0,1,828.09,74.82Z"/><path class="cls-22" d="M844.17,84.15v2h-16a5.15,5.15,0,0,1-5.3-5V79.81c0-.11,0-.22,0-.32a5.18,5.18,0,0,0,5.29,4.66Z"/><path class="cls-27" d="M842.64,75.52h28.54v10H842.64a3.23,3.23,0,0,1-3.32-3.12V78.64A3.22,3.22,0,0,1,842.64,75.52Z"/><path class="cls-28" d="M870.86,75.52H844.62a5.15,5.15,0,0,0-5.3,5h0a5.15,5.15,0,0,0,5.3,5h26.57"/><path class="cls-18" d="M843.83,77.23h27.35v6.54H843.83a2.93,2.93,0,0,1-3-2.84h0v-.86a2.91,2.91,0,0,1,3-2.84Z"/><path class="cls-25" d="M846.76,79h24.29a.22.22,0,0,1,.22.21v.25a.22.22,0,0,1-.22.21H846.76a.22.22,0,0,1-.22-.21v-.25A.22.22,0,0,1,846.76,79Z"/><path class="cls-25" d="M846.76,81.15h24.29a.21.21,0,0,1,.22.21v.25a.21.21,0,0,1-.22.2H846.76a.21.21,0,0,1-.22-.2v-.25A.21.21,0,0,1,846.76,81.15Z"/><path class="cls-18" d="M888.13,50.61A7.85,7.85,0,0,1,880.34,55a1.73,1.73,0,0,0-1.66.9l-.61,1.19-7.14-3.23.61-1.19a1.54,1.54,0,0,0-.28-1.78A7,7,0,0,1,870,42.41c2.88-5.63,9.34-4.55,12.7-3S891,45,888.13,50.61Z"/><g class="cls-29"><path class="cls-30" d="M875.74,36c-1.44.56-1.77,2.32-1.81,3.79-.1,4,.44,8.15,2.92,11.37,3,3.84,8.19,5.6,13.21,6a18.39,18.39,0,0,1-17.14,5.11,10.94,10.94,0,0,1-3.25-1.24,9.71,9.71,0,0,1-3-3.1A18.8,18.8,0,0,1,864,48.52a17.46,17.46,0,0,1,1.65-8.78,10.77,10.77,0,0,1,7.06-5.65c3.12-.67,6.73.53,8.28,3.15l-.81.1"/></g><path class="cls-31" d="M873.12,55.31c1.12-8,3.88-11.62,5.42-10.58s.85,5.09-.92,4.54,1.52-5.7,3.38-3-5.86,9.53-5.93,9.92"/><path class="cls-32" d="M870.93,53.82l7.14,3.24h0l-1.14,2.22a3.41,3.41,0,0,1-4.42,1.46h0l-1.17-.53A3,3,0,0,1,869.8,56h0l1.13-2.22Z"/><path class="cls-33" d="M870.37,54.77l7.36,3.34a.28.28,0,0,1,.14.39l-.34.66a.32.32,0,0,1-.41.13L869.76,56a.28.28,0,0,1-.14-.39l.33-.66A.32.32,0,0,1,870.37,54.77Z"/></g></svg>