<svg id="Layer_1" data-name="Layer 1" xmlns="http://www.w3.org/2000/svg" viewBox="0 0 1366 768"><defs><style>.cls-1{fill:#10518a;}.cls-2,.cls-4,.cls-51{fill:none;stroke-linecap:round;}.cls-2{stroke:#276fa3;}.cls-2,.cls-4{stroke-linejoin:round;}.cls-2,.cls-4,.cls-40{stroke-width:0.39px;}.cls-3{fill:#39b1b5;}.cls-4{stroke:#5bcecc;}.cls-11,.cls-5{fill:#cf7c1a;}.cls-40,.cls-6{fill:#fff;}.cls-7{fill:#e6e7e8;}.cls-8{fill:#d0d2d3;}.cls-9{fill:#faaf40;}.cls-10{fill:#fff100;}.cls-11,.cls-28,.cls-30,.cls-32,.cls-38,.cls-44,.cls-47,.cls-49{opacity:0.5;}.cls-11,.cls-22,.cls-28,.cls-30,.cls-32,.cls-38,.cls-44,.cls-47,.cls-49{isolation:isolate;}.cls-12{fill:#2698a4;}.cls-13{fill:#65c8d0;}.cls-14{fill:#f7931e;}.cls-15{fill:#6b0008;}.cls-16{fill:#be1e2d;}.cls-17{fill:#12578d;}.cls-18{fill:#1b75bb;}.cls-19{fill:#c0d5e0;}.cls-20{fill:#a2b4be;}.cls-21{fill:#8fb9cc;}.cls-22{fill:#2f3f42;opacity:0.2;}.cls-23{fill:#a53c16;}.cls-24{fill:#f05a28;}.cls-25,.cls-28{fill:#ce808b;}.cls-26{fill:#c1dae6;}.cls-27{fill:#dd4484;}.cls-29,.cls-30{fill:#eca0a4;}.cls-31,.cls-32{fill:#2b388f;}.cls-33{fill:#6c2810;}.cls-34{fill:#8e3821;}.cls-35{fill:#6a050a;}.cls-36{fill:#9a1621;}.cls-37,.cls-38{fill:#1a1a1a;}.cls-39,.cls-44{fill:#333;}.cls-40{stroke:#231f20;}.cls-40,.cls-51{stroke-miterlimit:10;}.cls-41{fill:#0d4e80;}.cls-42{fill:#009bd9;}.cls-43{fill:#2d90d3;}.cls-45{fill:#231f20;}.cls-46,.cls-47{fill:#b4855c;}.cls-48,.cls-49{fill:#8a5339;}.cls-50{fill:#404041;}.cls-51{stroke:#2e3191;stroke-width:2px;}</style></defs><title>book-island</title><g id="OBJECTS"><path class="cls-1" d="M481,317.69c2-.75,3.76,1.64,4.81,3.76a149.71,149.71,0,0,1,14.56,49.67c-.67-5.93.8-12.5,2.23-18.15a76.07,76.07,0,0,1,6.85-17.41,9.64,9.64,0,0,1,2-2.73,2.77,2.77,0,0,1,2.93-.56c1.15.59,1.67,2.08,2,3.54,2.18,9.71.19,21.1-1.25,30.8q-1.2,8.06-3,15.95c-.6,2.64-1.26,5.2-2,7.86-1.16,4.28-1.32,8.66-3.21,12.67a7.19,7.19,0,0,1-2.55,3.3c-2.17,1.23-4.71-.26-6.74-1.74a136,136,0,0,1-34.53-39c-1.48-2.48-3.71-5.64-3.14-8.82.5-2.73,2.3-3.84,4.5-3.67,3.88.32,7.8,3.71,10.75,6.41,4.5,4.17,8,9.54,11.63,14.82a109.05,109.05,0,0,1-8.26-51.51C478.76,320.82,479.28,318.35,481,317.69Z"/><path class="cls-2" d="M513.15,337.74q-4.11,23.29-10,46.08a51.45,51.45,0,0,0-2,10.78,38.93,38.93,0,0,0,1,9.37,121.06,121.06,0,0,0-10.09-15.17c-5.49-6.66-12.23-11.85-17.57-18.67-3.21-4.09-6-8.89-10.32-11.26"/><path class="cls-2" d="M481.81,321.2c.3,2.44.6,4.88.9,7.28s.6,5,1.09,7.47c1.8,9.26,6.3,17.62,7.86,26.95.32,1.93.5,3.89.74,5.82q.45,3.63,1.14,7.19a155.18,155.18,0,0,0,8.68,28"/><path class="cls-2" d="M508.29,341.53a26,26,0,0,0,2.18,7.9c.11.18.25.39.43.35a.48.48,0,0,0,.23-.17,38.29,38.29,0,0,0,4.29-5.78"/><path class="cls-2" d="M505.24,353.41a44.77,44.77,0,0,0,1.41,7.8,4,4,0,0,0,1,2.08.46.46,0,0,0,.41.15.52.52,0,0,0,.23-.18,92.18,92.18,0,0,0,6-7.52"/><path class="cls-2" d="M501.52,367.44a28.05,28.05,0,0,0,1.47,7.95,5.19,5.19,0,0,0,1.56,2.6,55.53,55.53,0,0,0,7.52-9.53"/><path class="cls-2" d="M498.76,372.5a135.59,135.59,0,0,1-2.3,14.58c-3.35-2.8-5.8-6.76-8.63-10.25"/><path class="cls-2" d="M495.92,361.27q-1.37,5.58-2.94,11.07a37.61,37.61,0,0,1-4.81-5.75c-1.36-2.08-2.35-4.58-4-6.43"/><path class="cls-2" d="M491.61,341.62a109.89,109.89,0,0,1-1.7,13.87c-3.84-2.28-6.69-6.25-9.45-10.08"/><path class="cls-2" d="M486.78,328.37q-.9,5.92-1.92,11.81a5.25,5.25,0,0,1-1.6-1.84l-4-6.34"/><path class="cls-2" d="M467.79,356.49a21.27,21.27,0,0,1,1.6,6.93,14.7,14.7,0,0,1-6.69-1.48"/><path class="cls-2" d="M474.92,361.59a30.38,30.38,0,0,1,2,11.46,39.87,39.87,0,0,1-9.83-3.67"/><path class="cls-2" d="M481.93,369.41a106.89,106.89,0,0,1,2,10.74c-3.82-.59-7.63-1.32-11.41-2.22"/><path class="cls-2" d="M488.68,381.27c.15-.12.3.12.35.31q.84,2.88,1.66,5.76c-3,.54-6.22,1-9.16,0"/><path class="cls-2" d="M486.45,392.88a21.8,21.8,0,0,0,10.07,2.38"/><path class="cls-2" d="M499.12,383.25a12.19,12.19,0,0,0,2.9,6.4,21.93,21.93,0,0,0,6.71-8.32"/><path class="cls-2" d="M507.55,387.05q-2.7,7.95-6,15.6a38.8,38.8,0,0,1-8.37-3.47"/><path class="cls-3" d="M447,361.54c1.06-1.73,3.35-1.1,5-.25a101.91,101.91,0,0,1,32.12,26c-3.1-3.7-5-9.21-6.47-14a70,70,0,0,1-2.91-16.3,10.21,10.21,0,0,1,.18-3.12,3,3,0,0,1,1.8-2.13,3.49,3.49,0,0,1,2.95,1.29c5.8,5.49,9.45,14.64,12.73,22.28q2.7,6.34,4.95,12.95c.75,2.23,1.45,4.44,2.12,6.67,1.08,3.7,2.88,6.83,3.36,10.79a7.27,7.27,0,0,1-.34,3.81c-1,2.16-3.39,2.65-5.49,2.82a94.17,94.17,0,0,1-41.36-6.63c-2.12-.82-5.08-1.73-6.08-4.29a4.18,4.18,0,0,1,1.55-5.26c2.85-2.09,7.09-2.09,10.35-1.94,5,.22,9.84,1.84,14.67,3.47a76.93,76.93,0,0,1-28.56-31.11C446.79,365,446.06,363,447,361.54Z"/><path class="cls-4" d="M478.24,356.33q7.41,18.74,13.43,38.18a42.4,42.4,0,0,0,3.37,8.72,28,28,0,0,0,4.82,5.93,81.46,81.46,0,0,0-13.75-4.55c-6.79-1.37-13.78-1-20.53-2.55-4-.95-8.15-2.6-12.2-1.73"/><path class="cls-4" d="M449.1,363.45l3.86,4.6c1.3,1.58,2.62,3.13,4.06,4.59,5.4,5.36,12.2,8.53,17.39,14.14,1.08,1.15,2.07,2.4,3.1,3.62,1.27,1.48,2.59,3,4,4.33A104.66,104.66,0,0,0,500,409.12"/><path class="cls-4" d="M476.57,361.84a18.09,18.09,0,0,0,5,4.22c.15.06.35.12.46,0a.5.5,0,0,0,.08-.26,39.57,39.57,0,0,0,.46-6.61"/><path class="cls-4" d="M479.72,372a31.81,31.81,0,0,0,4.4,4.59,2.68,2.68,0,0,0,1.6.81.41.41,0,0,0,.35-.15.7.7,0,0,0,.08-.27c.43-2.93.73-5.89.9-8.85"/><path class="cls-4" d="M483.3,384a19,19,0,0,0,4.54,4.67,3.27,3.27,0,0,0,2.23.87,59.64,59.64,0,0,0,1.05-11.15"/><path class="cls-4" d="M483.6,389.14a113.36,113.36,0,0,1,4.82,11.57c-3.6,0-7.05-1.26-10.57-2"/><path class="cls-4" d="M476.66,383.05q1.51,4.72,2.84,9.53a25.68,25.68,0,0,1-5.9-1.15c-1.89-.67-3.68-1.79-5.62-2.08"/><path class="cls-4" d="M465,371.86a86.11,86.11,0,0,1,5,10.74c-3.68.69-7.42-.36-11.05-1.4"/><path class="cls-4" d="M455.73,365.53q2,4.65,3.89,9.37a3.62,3.62,0,0,1-1.92-.35l-5.63-2.08"/><path class="cls-4" d="M454.89,396.52a15,15,0,0,1,4.18,3.86,13.68,13.68,0,0,1-5.4,3"/><path class="cls-4" d="M462.12,395.86a21.21,21.21,0,0,1,6.48,6.79,33.59,33.59,0,0,1-8.47,3.31"/><path class="cls-4" d="M470.47,397.1a70.42,70.42,0,0,1,6.14,6.32q-4.38,2.81-8.95,5.29"/><path class="cls-4" d="M480.45,401.32c0-.15.25-.09.37,0,1.24,1,2.48,2,3.7,3.05-1.88,2.21-3.87,4.44-6.42,5.46"/><path class="cls-4" d="M484,410.86a20,20,0,0,0,8.1-4.34"/><path class="cls-4" d="M488.61,396.49a8.11,8.11,0,0,0,4.81,2.75,22.43,22.43,0,0,0,1-9.82"/><path class="cls-4" d="M496.14,394.09q1.62,7.16,2.7,14.46a33.69,33.69,0,0,1-7.4,2.6"/><path class="cls-1" d="M691.6,336.94c-2.07-.34-3.48,2.34-4.23,4.62a154.45,154.45,0,0,0-7.48,51.74c-.17-6-2.51-12.18-4.72-17.49A72,72,0,0,0,666,360a8.61,8.61,0,0,0-2.35-2.31,2.64,2.64,0,0,0-2.95,0c-1.06.8-1.36,2.4-1.47,3.85-.81,10,2.75,20.79,5.52,30.19q2.29,7.74,5.15,15.2c1,2.48,2,4.93,3,7.4,1.72,4,2.5,8.27,4.91,11.91a6.54,6.54,0,0,0,3,2.77c2.32.81,4.61-1.12,6.43-3a145.43,145.43,0,0,0,28.65-44.95c1.13-2.72,2.88-6.24,1.87-9.3-.9-2.59-2.77-3.36-5-2.75-3.79,1-7.21,5.11-9.72,8.33-3.89,4.95-6.67,10.91-9.4,16.82a110.3,110.3,0,0,0,1-52.43C694.22,339.61,693.37,337.27,691.6,336.94Z"/><path class="cls-2" d="M662.66,362.75q7.26,22.22,16.2,43.6a49.34,49.34,0,0,1,3.48,10.27,39.7,39.7,0,0,1,.3,9.37,129.8,129.8,0,0,1,7.87-16.87c4.5-7.6,10.44-14,14.76-21.73,2.59-4.63,4.72-9.89,8.62-13.06"/><path class="cls-2" d="M691.24,340.56l.16,7.41c.05,2.52.11,5,0,7.56-.54,9.53-3.8,18.59-4,28.12,0,2,0,3.92.08,5.88,0,2.44,0,4.87-.12,7.29a160.67,160.67,0,0,1-4.7,29.28"/><path class="cls-2" d="M668,365.55a26.88,26.88,0,0,1-1.07,8.22c-.07.2-.19.43-.37.43a.6.6,0,0,1-.25-.13,34.8,34.8,0,0,1-5-4.89"/><path class="cls-2" d="M672.6,376.75a48.6,48.6,0,0,1-.29,7.91,4.33,4.33,0,0,1-.73,2.19.47.47,0,0,1-.39.22.52.52,0,0,1-.25-.14,82.64,82.64,0,0,1-7-6.25"/><path class="cls-2" d="M678.23,389.89a28.86,28.86,0,0,1-.35,8.14,5.37,5.37,0,0,1-1.19,2.84,53.25,53.25,0,0,1-8.73-8"/><path class="cls-2" d="M681.62,394.39a135.64,135.64,0,0,0,4.32,13.87c2.9-3.39,4.81-7.8,7.09-11.74"/><path class="cls-2" d="M682.89,382.75q2.15,5.19,4.5,10.39a40.31,40.31,0,0,0,4-6.57c1-2.36,1.69-5,3-7.11"/><path class="cls-2" d="M684.43,362.54A107.53,107.53,0,0,0,688,376c3.48-3,5.75-7.41,7.93-11.71"/><path class="cls-2" d="M687.34,348.54q1.7,5.65,3.52,11.26a5.73,5.73,0,0,0,1.31-2.09l3-7"/><path class="cls-2" d="M710,372.73a21.78,21.78,0,0,0-.64,7.1,15.32,15.32,0,0,0,6.41-2.72"/><path class="cls-2" d="M703.71,379.12a30.87,30.87,0,0,0-.41,11.69,42.52,42.52,0,0,0,9.19-5.45"/><path class="cls-2" d="M697.83,388.16a103.1,103.1,0,0,0-.47,11q5.55-1.94,11-4.33"/><path class="cls-2" d="M692.8,401.13c-.15-.09-.27.17-.29.37l-.8,6c3.08,0,6.3-.1,9-1.73"/><path class="cls-2" d="M696.67,412.17a22.73,22.73,0,0,1-9.63,4.27"/><path class="cls-2" d="M682.78,405a12.81,12.81,0,0,1-2,6.87,20.46,20.46,0,0,1-7.76-6.94"/><path class="cls-2" d="M675,410.33q3.78,7.29,8,14.24a42.21,42.21,0,0,0,7.76-5"/><path class="cls-1" d="M729,393.08c-2-.75-3.77,1.65-4.83,3.76a150.16,150.16,0,0,0-14.56,49.64c.67-5.93-.8-12.5-2.23-18.14A75.71,75.71,0,0,0,700.53,411a9.69,9.69,0,0,0-2-2.74,2.72,2.72,0,0,0-2.93-.54c-1.14.59-1.66,2.08-2,3.53-2.18,9.7-.2,21.1,1.25,30.79q1.2,8.08,3,16c.6,2.6,1.24,5.2,1.94,7.85,1.15,4.27,1.33,8.62,3.22,12.67a7,7,0,0,0,2.57,3.27c2.16,1.23,4.7-.25,6.73-1.74a135.88,135.88,0,0,0,34.53-39c1.5-2.46,3.72-5.64,3.15-8.81-.51-2.74-2.29-3.85-4.5-3.66-3.88.31-7.8,3.7-10.75,6.41-4.5,4.17-8,9.54-11.64,14.82a108.74,108.74,0,0,0,8.26-51.56C731.19,396.21,730.69,393.71,729,393.08Z"/><path class="cls-2" d="M696.86,413.09q4.1,23.27,10,46.07a51.38,51.38,0,0,1,1.95,10.78,38.78,38.78,0,0,1-1,9.36,119.82,119.82,0,0,1,10.08-15.13c5.49-6.68,12.23-11.86,17.58-18.69,3.2-4.09,6-8.89,10.31-11.26"/><path class="cls-2" d="M728.13,396.56c-.3,2.43-.58,4.89-.9,7.29s-.58,5-1.08,7.47c-1.8,9.27-6.3,17.62-7.86,27-.31,1.93-.5,3.88-.74,5.82-.29,2.41-.68,4.81-1.14,7.18a154.35,154.35,0,0,1-8.68,28"/><path class="cls-2" d="M701.68,416.87a25.92,25.92,0,0,1-2.2,7.89c-.1.19-.23.4-.43.36a.48.48,0,0,1-.23-.17,38.14,38.14,0,0,1-4.28-5.77"/><path class="cls-2" d="M704.73,428.81a46.31,46.31,0,0,1-1.4,7.75,4,4,0,0,1-1,2.08.48.48,0,0,1-.41.14.5.5,0,0,1-.24-.19,86.87,86.87,0,0,1-6-7.56"/><path class="cls-2" d="M708.45,442.81a27.92,27.92,0,0,1-1.47,7.93,5.08,5.08,0,0,1-1.56,2.6,55.9,55.9,0,0,1-7.5-9.53"/><path class="cls-2" d="M711.2,447.81a143.35,143.35,0,0,0,2.31,14.57c3.35-2.8,5.81-6.76,8.64-10.25"/><path class="cls-2" d="M714.05,436.64q1.37,5.58,2.93,11.08A38.84,38.84,0,0,0,721.8,442c1.36-2.14,2.35-4.59,4-6.44"/><path class="cls-2" d="M718.36,416.92A107.13,107.13,0,0,0,720,430.86c3.84-2.27,6.7-6.25,9.44-10.07"/><path class="cls-2" d="M723.18,403.72q.9,5.92,1.91,11.79a5.08,5.08,0,0,0,1.6-1.85l4-6.37"/><path class="cls-2" d="M742.16,431.83a21.27,21.27,0,0,0-1.6,6.93,14.92,14.92,0,0,0,6.71-1.48"/><path class="cls-2" d="M735.09,437a30.35,30.35,0,0,0-2,11.45,39.34,39.34,0,0,0,9.84-3.65"/><path class="cls-2" d="M728,444.78a100.63,100.63,0,0,0-2,10.75q5.72-.91,11.41-2.23"/><path class="cls-2" d="M721.27,456.63c-.13-.11-.29.13-.34.31-.56,1.91-1.1,3.85-1.66,5.75,3.05.56,6.22,1.05,9.15,0"/><path class="cls-2" d="M723.53,468.26a21.86,21.86,0,0,1-10.09,2.39"/><path class="cls-2" d="M710.83,458.61A12.15,12.15,0,0,1,708,465a21.92,21.92,0,0,1-6.7-8.33"/><path class="cls-2" d="M702.42,462.38q2.7,7.92,6,15.6a39.7,39.7,0,0,0,8.38-3.47"/><path class="cls-3" d="M731,373.44c-1.29-1.48-3.47-.46-5,.69a109.63,109.63,0,0,0-28.1,31.67c2.53-4.27,3.66-10,4.44-15.05a70.32,70.32,0,0,0,.61-16.59,8.7,8.7,0,0,0-.61-3,2.77,2.77,0,0,0-2.07-1.74,3.6,3.6,0,0,0-2.7,1.82c-5,6.5-7.3,16.22-9.48,24.38-1.19,4.5-2.23,9.09-3.09,13.7-.44,2.31-.82,4.62-1.16,6.93-.56,3.85-1.91,7.29-1.8,11.26a7.07,7.07,0,0,0,.85,3.71c1.25,1.94,3.73,2,5.8,1.74a97.78,97.78,0,0,0,39.89-14.28c2-1.24,4.81-2.66,5.4-5.38a4.07,4.07,0,0,0-2.27-4.92c-3.1-1.54-7.27-.74-10.43,0-4.91,1.15-9.5,3.66-14,6.14a82.47,82.47,0,0,0,23.87-36C731.68,376.85,732.13,374.73,731,373.44Z"/><path class="cls-4" d="M699.42,374.17q-4.74,19.86-7.93,40.18a44.17,44.17,0,0,1-2.12,9.27,29.08,29.08,0,0,1-3.94,6.74,87.85,87.85,0,0,1,12.93-7.05c6.51-2.6,13.5-3.54,19.92-6.38,3.87-1.69,7.67-4.09,11.8-4"/><path class="cls-4" d="M729.18,375.73l-3.15,5.2c-1.08,1.79-2.16,3.59-3.37,5.27-4.56,6.31-10.86,10.71-15.22,17.22-.9,1.34-1.7,2.77-2.55,4.17q-1.57,2.6-3.31,5a113,113,0,0,1-16.2,17.69"/><path class="cls-4" d="M701.85,379.28a18.71,18.71,0,0,1-4.37,5.1c-.13.11-.31.19-.45.07a.39.39,0,0,1-.11-.22,38.43,38.43,0,0,1-1.36-6.44"/><path class="cls-4" d="M700.16,389.89a33,33,0,0,1-3.7,5.33,2.69,2.69,0,0,1-1.47,1.11.36.36,0,0,1-.37-.07.58.58,0,0,1-.12-.25c-.8-2.8-1.53-5.67-2.09-8.57"/><path class="cls-4" d="M698.28,402.43a20.23,20.23,0,0,1-3.82,5.45,3.55,3.55,0,0,1-2.07,1.29,57,57,0,0,1-2.56-10.83"/><path class="cls-4" d="M698.73,407.57c-1.27,4-2.34,8.15-3.22,12.31,3.54-.63,6.79-2.55,10.16-4"/><path class="cls-4" d="M704.73,400.23q-.81,4.95-1.49,9.91a27.71,27.71,0,0,0,5.67-2.22c1.8-1.05,3.36-2.47,5.25-3.13"/><path class="cls-4" d="M714.71,387.05a89.71,89.71,0,0,0-3.4,11.54c3.73,0,7.27-1.74,10.75-3.47"/><path class="cls-4" d="M722.94,379q-1.35,5-2.54,10a3.75,3.75,0,0,0,1.8-.69l5.23-3.13"/><path class="cls-4" d="M728.06,409.45a15.52,15.52,0,0,0-3.6,4.59,13.13,13.13,0,0,0,5.69,1.91"/><path class="cls-4" d="M720.83,410.13a22.9,22.9,0,0,0-5.44,7.93,33,33,0,0,0,8.83,1.69"/><path class="cls-4" d="M712.8,412.94a80.34,80.34,0,0,0-5.17,7.4q4.73,1.95,9.56,3.55"/><path class="cls-4" d="M703.54,419c0-.16-.26-.05-.36.07l-3.24,3.71c2.17,1.81,4.44,3.7,7.08,4.16"/><path class="cls-4" d="M701.31,429.05a19.39,19.39,0,0,1-8.58-2.77"/><path class="cls-4" d="M694.77,415.74a8.56,8.56,0,0,1-4.37,3.59,22.2,22.2,0,0,1-2.35-9.53"/><path class="cls-4" d="M687,414.78q-.59,7.37-.68,14.73a32.37,32.37,0,0,0,7.65,1.13"/><path class="cls-1" d="M566.91,286c-1.8.65-2,3.42-1.8,5.58A133.87,133.87,0,0,0,576.54,336c-2.13-4.65-6.07-8.53-9.63-11.72a51.5,51.5,0,0,0-12.6-8.45,6.22,6.22,0,0,0-2.63-.78,2.59,2.59,0,0,0-2.35,1.34,5,5,0,0,0,.13,3.71c2.7,8.34,9.18,15.3,14.46,21.43q4.4,5.1,9.19,9.7c1.6,1.54,3.21,3,4.87,4.48,2.7,2.4,4.75,5.43,7.9,7.22a4.93,4.93,0,0,0,3.3.87c2.1-.41,3.27-3,4.07-5.29a146.48,146.48,0,0,0,7.68-48.69c0-2.67.2-6.24-1.6-8.22-1.57-1.67-3.34-1.41-4.88.07-2.7,2.55-4,7.29-4.9,11-1.43,5.7-1.61,11.69-1.81,17.62A90.75,90.75,0,0,0,571,288.25C569.89,286.87,568.41,285.39,566.91,286Z"/><path class="cls-2" d="M552.61,319.53q13.21,14.33,27.51,27.2a36,36,0,0,1,6.18,6.58,30.65,30.65,0,0,1,3.41,7.29,127.43,127.43,0,0,1,.59-16.92c1-8.08,3.6-15.83,4.4-23.95.51-4.85.43-10,2.46-14.28"/><path class="cls-2" d="M567.83,289l2.6,5.78c.9,2,1.8,4,2.51,6.07,2.77,7.8,3.21,16.46,6.3,24.09.61,1.57,1.34,3.13,2,4.64.85,1.91,1.62,3.86,2.35,5.84a139.68,139.68,0,0,1,6.12,25.36"/><path class="cls-2" d="M557.73,319.38a23,23,0,0,1,1.91,7c0,.19,0,.42-.15.5a.21.21,0,0,1-.24,0,25.38,25.38,0,0,1-5.62-1.58"/><path class="cls-2" d="M565.19,326.14a39.94,39.94,0,0,1,2.41,6.41,3.91,3.91,0,0,1,.16,2.09.36.36,0,0,1-.48.35,62,62,0,0,1-7.64-1.83"/><path class="cls-2" d="M574,334a24.12,24.12,0,0,1,2.46,6.6,5.25,5.25,0,0,1,0,2.78,39.74,39.74,0,0,1-9.64-2.36"/><path class="cls-2" d="M578.26,336a98.89,98.89,0,0,0,8,9.11c1.17-4,1.19-8.34,1.69-12.5"/><path class="cls-2" d="M575.37,326.22q3.42,3.13,7,6.25a39.45,39.45,0,0,0,.9-7,51.25,51.25,0,0,1,0-7"/><path class="cls-2" d="M569.8,309.53a77.26,77.26,0,0,0,7.37,9c1.8-3.93,2.06-8.48,2.36-12.9"/><path class="cls-2" d="M567.47,297.09q3.22,3.71,6.58,7.35a5.65,5.65,0,0,0,.33-2.23v-6.93"/><path class="cls-2" d="M593.51,306a18,18,0,0,0,1.87,5.92,16.53,16.53,0,0,0,4.17-5.06"/><path class="cls-2" d="M590.65,313.9a25.78,25.78,0,0,0,3.6,9.46,45.17,45.17,0,0,0,5.45-8.48"/><path class="cls-2" d="M589,323.74a89.66,89.66,0,0,0,3.31,8.89q3.74-4.08,7.21-8.41"/><path class="cls-2" d="M589.4,336.34c-.15,0-.16.25-.12.42.45,1.73.9,3.41,1.35,5.12,2.42-1.41,5-2.92,6.59-5.45"/><path class="cls-2" d="M596.13,343.33a24.46,24.46,0,0,1-6.17,7.75"/><path class="cls-2" d="M582.73,344a11.71,11.71,0,0,1,.81,6.32,15.27,15.27,0,0,1-8.5-2"/><path class="cls-2" d="M578.35,351.66q5.48,4.08,11.19,7.64a45,45,0,0,0,4.43-7.54"/><path class="cls-3" d="M639.63,294.55c-1.33-1.44-3.48-.31-5,.87a111.07,111.07,0,0,0-27.18,32.79c2.42-4.34,3.36-10.17,4-15.21a70.34,70.34,0,0,0,.13-16.66,9.12,9.12,0,0,0-.7-3,2.66,2.66,0,0,0-2.11-1.67,3.6,3.6,0,0,0-2.7,1.9c-4.83,6.67-6.84,16.51-8.78,24.75q-1.61,6.82-2.7,13.81-.54,3.5-.95,7c-.46,3.86-1.7,7.34-1.5,11.33a7,7,0,0,0,1,3.71c1.31,1.89,3.78,1.83,5.86,1.48a98.09,98.09,0,0,0,39.43-15.77c1.95-1.29,4.71-2.83,5.26-5.57a4,4,0,0,0-2.41-4.83c-3.14-1.41-7.3-.43-10.43.43-4.88,1.36-9.39,4-13.84,6.68a83.51,83.51,0,0,0,22.84-37C640.4,298,640.79,295.77,639.63,294.55Z"/><path class="cls-4" d="M608,296.48q-4.14,20-6.75,40.46a44.17,44.17,0,0,1-1.8,9.38,31,31,0,0,1-3.74,6.93,86.55,86.55,0,0,1,12.72-7.57c6.42-2.89,13.36-4.07,19.7-7.14,3.81-1.85,7.55-4.41,11.7-4.45"/><path class="cls-4" d="M637.83,296.94l-2.93,5.37c-1,1.83-2.06,3.7-3.21,5.4-4.38,6.48-10.55,11.11-14.71,17.79-.9,1.36-1.61,2.82-2.41,4.24-1,1.73-2.06,3.47-3.22,5.2a114.58,114.58,0,0,1-15.68,18.28"/><path class="cls-4" d="M610.66,301.54a19.44,19.44,0,0,1-4.22,5.26c-.14.11-.32.21-.45.1a.62.62,0,0,1-.14-.23,40.33,40.33,0,0,1-1.54-6.38"/><path class="cls-4" d="M609.27,312.21a35.3,35.3,0,0,1-3.6,5.49,3,3,0,0,1-1.44,1.16.39.39,0,0,1-.36-.07.58.58,0,0,1-.14-.24q-1.37-4.17-2.34-8.49"/><path class="cls-4" d="M607.76,324.82a20.94,20.94,0,0,1-3.68,5.61,3.73,3.73,0,0,1-2,1.36,58.11,58.11,0,0,1-2.87-10.74"/><path class="cls-4" d="M608.33,329.93a121.34,121.34,0,0,0-2.8,12.47c3.52-.74,6.71-2.81,10-4.33"/><path class="cls-4" d="M614.11,322.38c-.45,3.3-.9,6.61-1.2,9.94a27.15,27.15,0,0,0,5.63-2.46c1.73-1,3.29-2.6,5.15-3.36"/><path class="cls-4" d="M623.73,308.8a88.81,88.81,0,0,0-3.08,11.65c3.73-.15,7.2-2,10.62-3.85"/><path class="cls-4" d="M631.71,300.44q-1.2,5-2.25,10.1a3.79,3.79,0,0,0,1.8-.75l5.14-3.31"/><path class="cls-4" d="M637.72,330.67a16.22,16.22,0,0,0-3.49,4.71,12.86,12.86,0,0,0,5.75,1.74"/><path class="cls-4" d="M630.54,331.63a23.17,23.17,0,0,0-5.22,8.15,33.42,33.42,0,0,0,8.83,1.34"/><path class="cls-4" d="M622.53,334.76a78.35,78.35,0,0,0-4.95,7.59q4.81,1.72,9.63,3.12"/><path class="cls-4" d="M613.42,341.18c-.08-.15-.27,0-.36.09l-3.13,3.83c2.21,1.73,4.5,3.51,7.2,3.91"/><path class="cls-4" d="M611.53,351.26a19.08,19.08,0,0,1-8.65-2.42"/><path class="cls-4" d="M604.64,338.26a8.85,8.85,0,0,1-4.3,3.79,21.83,21.83,0,0,1-2.63-9.37"/><path class="cls-4" d="M596.83,337.61q-.41,7.39-.24,14.81a31.61,31.61,0,0,0,7.69.86"/><path class="cls-3" d="M759.54,431.38c-1.08-1.73-3.36-1.08-5-.24a101.64,101.64,0,0,0-32.12,26c3.1-3.71,5-9.2,6.46-14a68.9,68.9,0,0,0,2.91-16.27,9.63,9.63,0,0,0-.17-3.12,3,3,0,0,0-1.8-2.09c-1.06-.26-2.11.51-2.95,1.29-5.81,5.49-9.45,14.64-12.73,22.28q-2.7,6.35-5,13c-.75,2.19-1.45,4.42-2.11,6.66-1.09,3.7-2.89,6.82-3.36,10.77a7.28,7.28,0,0,0,.33,3.84c1,2.15,3.39,2.6,5.49,2.8a94.31,94.31,0,0,0,41.4-6.61c2.14-.87,5.09-1.73,6.1-4.29a4.25,4.25,0,0,0-1.56-5.27c-2.84-2.08-7.08-2.08-10.34-1.93-5,.21-9.9,1.82-14.69,3.47a76.22,76.22,0,0,0,28.52-31.13C759.71,434.88,760.45,432.87,759.54,431.38Z"/><path class="cls-4" d="M728.23,426.17q-7.4,18.75-13.44,38.2a42.23,42.23,0,0,1-3.36,8.73,28.85,28.85,0,0,1-4.82,5.93,79.6,79.6,0,0,1,13.74-4.55c6.78-1.39,13.78-1,20.54-2.55,4-.95,8.1-2.6,12.19-1.73"/><path class="cls-4" d="M757.39,433.31c-1.27,1.52-2.55,3.07-3.85,4.6s-2.62,3.12-4,4.57c-5.4,5.37-12.25,8.56-17.46,14.15C731,457.78,730,459,729,460.24c-1.28,1.48-2.6,3-4,4.33A104.24,104.24,0,0,1,706.55,479"/><path class="cls-4" d="M729.93,431.65a17.59,17.59,0,0,1-5,4.17c-.15.07-.34.12-.46,0a.44.44,0,0,1-.08-.25,37.54,37.54,0,0,1-.44-6.61"/><path class="cls-4" d="M726.78,441.83a30.65,30.65,0,0,1-4.39,4.58,2.68,2.68,0,0,1-1.6.87.43.43,0,0,1-.35-.14.71.71,0,0,1-.09-.28q-.65-4.39-.9-8.85"/><path class="cls-4" d="M723.24,453.87a19.6,19.6,0,0,1-4.5,4.68,3.54,3.54,0,0,1-2.23.87,61.67,61.67,0,0,1-1-11.18"/><path class="cls-4" d="M722.91,459a114.07,114.07,0,0,0-4.81,11.56c3.6,0,7-1.25,10.55-2"/><path class="cls-4" d="M729.84,452.9q-1.49,4.71-2.84,9.53a26.77,26.77,0,0,0,5.9-1.14c1.89-.7,3.67-1.8,5.62-2.09"/><path class="cls-4" d="M741.54,441.74a86,86,0,0,0-5,10.78c3.69.69,7.44-.36,11.06-1.4"/><path class="cls-4" d="M750.77,435.38q-2,4.64-3.89,9.37a3.44,3.44,0,0,0,1.92-.35l5.62-2.08"/><path class="cls-4" d="M751.61,466.37a14.79,14.79,0,0,0-4.18,3.85,13.82,13.82,0,0,0,5.4,3"/><path class="cls-4" d="M744.41,465.7a21.17,21.17,0,0,0-6.49,6.8,34.36,34.36,0,0,0,8.47,3.31"/><path class="cls-4" d="M736.09,467a68.86,68.86,0,0,0-6.13,6.31q4.39,2.82,8.95,5.3"/><path class="cls-4" d="M726,471.2c0-.16-.25-.09-.37,0l-3.69,3c1.88,2.23,3.86,4.45,6.41,5.48"/><path class="cls-4" d="M722.49,480.66a20.24,20.24,0,0,1-8-4.33"/><path class="cls-4" d="M717.89,466.31a8.13,8.13,0,0,1-4.82,2.75,22.89,22.89,0,0,1-1.07-9.82"/><path class="cls-4" d="M710.34,463.94q-1.61,7.17-2.7,14.46A32.39,32.39,0,0,0,715,481"/><path class="cls-1" d="M430.18,393.08c2-.75,3.77,1.65,4.82,3.76a149.3,149.3,0,0,1,14.55,49.64c-.66-5.93.81-12.5,2.24-18.14A75,75,0,0,1,458.68,411a9.18,9.18,0,0,1,2-2.74,2.72,2.72,0,0,1,2.93-.54c1.14.59,1.65,2.08,2,3.53,2.18,9.7.19,21.1-1.25,30.79q-1.2,8.08-3,16c-.59,2.6-1.25,5.24-1.95,7.85-1.16,4.27-1.33,8.62-3.21,12.67a7,7,0,0,1-2.55,3.28c-2.17,1.24-4.72-.23-6.75-1.73a136,136,0,0,1-34.52-39c-1.5-2.47-3.72-5.64-3.15-8.82.5-2.74,2.28-3.84,4.5-3.66,3.89.31,7.8,3.71,10.74,6.42,4.5,4.16,8,9.53,11.63,14.82a109,109,0,0,1-8.26-51.57C428,396.21,428.52,393.71,430.18,393.08Z"/><path class="cls-2" d="M462.32,413.09q-4.06,23.27-10,46.09a52.1,52.1,0,0,0-2,10.78,39.77,39.77,0,0,0,1,9.35,121.83,121.83,0,0,0-10.09-15.14c-5.5-6.67-12.22-11.86-17.57-18.68-3.21-4.09-6-8.89-10.32-11.26"/><path class="cls-2" d="M431.08,396.56c.29,2.43.58,4.89.9,7.29s.6,5,1.08,7.47c1.8,9.27,6.31,17.62,7.85,27,.33,1.93.52,3.88.74,5.82.31,2.41.69,4.81,1.14,7.18a156.35,156.35,0,0,0,8.73,28"/><path class="cls-2" d="M457.53,416.87a25.92,25.92,0,0,0,2.2,7.89c.09.19.23.4.42.36a.44.44,0,0,0,.23-.17,37.09,37.09,0,0,0,4.32-5.77"/><path class="cls-2" d="M454.49,428.81a45.05,45.05,0,0,0,1.38,7.73,4.2,4.2,0,0,0,1.05,2,.45.45,0,0,0,.4.13.61.61,0,0,0,.24-.18,90.5,90.5,0,0,0,6-7.52"/><path class="cls-2" d="M450.75,442.81a28.28,28.28,0,0,0,1.48,7.93,5.13,5.13,0,0,0,1.55,2.6,56.86,56.86,0,0,0,7.51-9.53"/><path class="cls-2" d="M448,447.81a143.8,143.8,0,0,1-2.31,14.57c-3.35-2.8-5.8-6.76-8.64-10.25"/><path class="cls-2" d="M445.15,436.64q-1.32,5.58-2.92,11.08a38.84,38.84,0,0,1-4.82-5.76c-1.35-2.14-2.35-4.59-4-6.44"/><path class="cls-2" d="M440.84,416.92a102.81,102.81,0,0,1-1.7,13.87c-3.83-2.27-6.69-6.24-9.44-10.06"/><path class="cls-2" d="M436,403.72q-.9,5.92-1.91,11.79a5,5,0,0,1-1.53-1.8l-4-6.39"/><path class="cls-2" d="M417,431.83a21.29,21.29,0,0,1,1.61,6.93,14.85,14.85,0,0,1-6.67-1.48"/><path class="cls-2" d="M424.12,437a30.32,30.32,0,0,1,2.05,11.44,39.17,39.17,0,0,1-9.85-3.65"/><path class="cls-2" d="M431.17,444.78c.81,3.53,1.51,7.12,2,10.75q-5.73-.91-11.41-2.23"/><path class="cls-2" d="M438,456.63c.14-.11.28.13.34.31.55,1.91,1.1,3.85,1.65,5.75-3,.56-6.21,1.05-9.14,0"/><path class="cls-2" d="M435.69,468.26a21.81,21.81,0,0,0,10.07,2.39"/><path class="cls-2" d="M448.38,458.61a12.15,12.15,0,0,0,2.88,6.4,21.92,21.92,0,0,0,6.7-8.33"/><path class="cls-2" d="M456.75,462.38q-2.7,7.92-6,15.6a39.59,39.59,0,0,1-8.33-3.56"/><path class="cls-3" d="M399.67,431.38c1.07-1.73,3.36-1.08,5-.24a102,102,0,0,1,32.13,26c-3.09-3.71-5-9.2-6.43-14a69.91,69.91,0,0,1-2.9-16.27,9.64,9.64,0,0,1,.18-3.12,3,3,0,0,1,1.8-2.09c1.07-.26,2.1.51,2.95,1.29,5.81,5.49,9.47,14.64,12.74,22.28q2.7,6.35,4.95,13,1.13,3.33,2.11,6.66c1.09,3.7,2.89,6.82,3.36,10.77a7.28,7.28,0,0,1-.33,3.84c-1,2.15-3.39,2.6-5.48,2.8a94.21,94.21,0,0,1-41.31-6.66c-2.14-.87-5.09-1.73-6.09-4.33a4.24,4.24,0,0,1,1.55-5.27c2.85-2.08,7.08-2.08,10.34-1.94,5,.2,9.85,1.82,14.69,3.46a76.73,76.73,0,0,1-28.56-31.11C399.5,434.88,398.75,432.87,399.67,431.38Z"/><path class="cls-4" d="M431,426.17q7.42,18.75,13.42,38.17a41.62,41.62,0,0,0,3.37,8.72A27.71,27.71,0,0,0,452.6,479a81.56,81.56,0,0,0-13.76-4.55c-6.78-1.38-13.78-1-20.53-2.55-4-.94-8.14-2.6-12.19-1.73"/><path class="cls-4" d="M401.81,433.31l3.85,4.6c1.31,1.57,2.63,3.12,4.06,4.57,5.4,5.37,12.2,8.53,17.4,14.15,1.08,1.16,2.07,2.41,3.08,3.61q1.94,2.28,4,4.33A103.88,103.88,0,0,0,452.69,479"/><path class="cls-4" d="M429.28,431.65a17.45,17.45,0,0,0,5,4.17c.14.07.34.12.45,0a.54.54,0,0,0,.09-.25,40.65,40.65,0,0,0,.45-6.61"/><path class="cls-4" d="M432.42,441.83a29.32,29.32,0,0,0,4.4,4.58,2.57,2.57,0,0,0,1.6.87.4.4,0,0,0,.34-.14.57.57,0,0,0,.08-.28,87.25,87.25,0,0,0,.9-8.85"/><path class="cls-4" d="M436,453.87a19.6,19.6,0,0,0,4.5,4.68,3.6,3.6,0,0,0,2.23.87,59.14,59.14,0,0,0,1.06-11.18"/><path class="cls-4" d="M436.3,459a114.14,114.14,0,0,1,4.82,11.56c-3.6,0-7.05-1.25-10.56-2"/><path class="cls-4" d="M429.38,452.9q1.49,4.71,2.83,9.53a26.89,26.89,0,0,1-5.9-1.14c-1.89-.7-3.67-1.8-5.62-2.09"/><path class="cls-4" d="M417.66,441.74a83.27,83.27,0,0,1,5,10.78c-3.68.69-7.42-.36-11.05-1.4"/><path class="cls-4" d="M408.41,435.38q2,4.64,3.88,9.37a3.5,3.5,0,0,1-1.91-.35l-5.61-2.08"/><path class="cls-4" d="M407.59,466.37a14.69,14.69,0,0,1,4.19,3.85,13.7,13.7,0,0,1-5.4,3"/><path class="cls-4" d="M414.8,465.7a21.31,21.31,0,0,1,6.47,6.8,34.24,34.24,0,0,1-8.46,3.35"/><path class="cls-4" d="M423.18,467a70.31,70.31,0,0,1,6.14,6.31q-4.4,2.82-8.95,5.3"/><path class="cls-4" d="M433.15,471.2c0-.16.25-.09.38,0l3.69,3c-1.89,2.23-3.86,4.45-6.42,5.48"/><path class="cls-4" d="M436.72,480.66a20.24,20.24,0,0,0,8-4.33"/><path class="cls-4" d="M441.32,466.31a8.15,8.15,0,0,0,4.8,2.78,22.73,22.73,0,0,0,1-9.82"/><path class="cls-4" d="M448.87,463.94q1.59,7.17,2.7,14.46a33.14,33.14,0,0,1-7.39,2.55"/><path class="cls-5" d="M448.82,394a16.9,16.9,0,0,0-8.52,2.32c-9.52,5.47-13.42,18.88-8.72,30,3.2,7.62,9.9,12.45,17.24,12.46h21.51V394Z"/><path class="cls-6" d="M571.09,433.11a24.11,24.11,0,0,0,2.29,3.22H466.82a15.36,15.36,0,0,1-9.37-3.22A18.79,18.79,0,0,1,456,431.9a18,18,0,0,1-1.8-2,13.21,13.21,0,0,1-.9-1.22,16.86,16.86,0,0,1-1.19-2c-.21-.39-.41-.8-.58-1.2-.3-.66-.57-1.34-.81-2-.12-.4-.23-.81-.35-1.21a16.82,16.82,0,0,1-.42-2c-.07-.39-.13-.79-.18-1.21-.07-.67-.12-1.34-.14-2v-1.2a10,10,0,0,1,.06-1.22,7.4,7.4,0,0,1,.08-.81c.08-.27.11-.82.18-1.21a18,18,0,0,1,.42-2c.12-.4.23-.82.35-1.2a18.5,18.5,0,0,1,.81-2c.17-.41.37-.81.58-1.21a17.82,17.82,0,0,1,1.19-2c.28-.42.58-.82.9-1.21a19,19,0,0,1,1.8-2,16.34,16.34,0,0,1,10.8-4.44H573.4a22.75,22.75,0,0,0-2.29,3.23c-.23.38-.46.78-.68,1.21-.34.64-.65,1.3-.95,2q-.26.58-.48,1.2c-.25.66-.47,1.33-.69,2-.11.4-.23.81-.32,1.21-.18.65-.34,1.34-.46,2-.08.4-.15.81-.22,1.22-.11.65-.2,1.33-.27,2,0,.39-.07.8-.1,1.21s0,.54,0,.81v2.35a14.8,14.8,0,0,0,.09,2c0,.42.07.82.1,1.22.07.67.16,1.36.27,2,.07.4.13.81.22,1.21.12.68.28,1.36.45,2,.11.41.21.8.34,1.2.21.7.43,1.36.68,2a11.89,11.89,0,0,0,.48,1.22c.29.69.61,1.37.9,2A8.77,8.77,0,0,0,571.09,433.11Z"/><path class="cls-7" d="M571.09,399.66c-.23.39-.46.8-.68,1.21H456.1a16.61,16.61,0,0,1,1.43-1.21Z"/><path class="cls-7" d="M569.43,402.88c-.17.4-.33.81-.49,1.21H453.36c.28-.42.58-.82.9-1.21Z"/><path class="cls-7" d="M568.28,406.11c-.12.4-.23.8-.33,1.21H451.59c.18-.41.38-.81.57-1.21Z"/><path class="cls-7" d="M567.47,409.34c-.07.39-.14.8-.21,1.2H450.49c.1-.4.23-.82.34-1.2Z"/><path class="cls-7" d="M567,412.59c0,.39-.07.8-.09,1.2h-117a6.1,6.1,0,0,1,.18-1.2Z"/><path class="cls-7" d="M566.86,416.38V417H449.72v-1.2H566.86Z"/><path class="cls-7" d="M567,420.21H450c-.07-.39-.13-.79-.17-1.21H566.93C567,419.42,567,419.82,567,420.21Z"/><path class="cls-7" d="M567.47,423.44H450.81c-.12-.4-.23-.81-.34-1.21H567.29C567.36,422.63,567.43,423,567.47,423.44Z"/><path class="cls-7" d="M568.28,426.63H452.17c-.19-.41-.39-.82-.57-1.22H568C568.08,425.82,568.17,426.23,568.28,426.63Z"/><path class="cls-7" d="M569.43,429.92H454.22c-.32-.4-.62-.81-.9-1.22H569C569.14,429.1,569.29,429.5,569.43,429.92Z"/><path class="cls-7" d="M571.09,433.11H457.52a16.61,16.61,0,0,1-1.43-1.21H570.45A11.67,11.67,0,0,0,571.09,433.11Z"/><path class="cls-8" d="M570.45,431.9c-.35-.65-.66-1.32-1-2-.17-.39-.33-.79-.48-1.22-.24-.66-.46-1.32-.68-2-.11-.39-.23-.8-.33-1.2-.17-.66-.33-1.34-.45-2-.08-.4-.16-.81-.22-1.21-.11-.65-.2-1.33-.27-2,0-.32-.06-.67-.08-1H449.9a5.11,5.11,0,0,0,.14,1,15.1,15.1,0,0,0,.43,2c.11.4.22.81.34,1.21a18.5,18.5,0,0,0,.81,2c.18.4.37.81.58,1.2a15.69,15.69,0,0,0,1.2,2,11.6,11.6,0,0,0,.9,1.22,18.81,18.81,0,0,0,3.27,3.22,15.32,15.32,0,0,0,9.35,3.22H573.41a23.24,23.24,0,0,1-2.29-3.22A8.43,8.43,0,0,1,570.45,431.9Z"/><path class="cls-9" d="M451.8,415.79V417a15,15,0,0,0,.16,2v.18a5.25,5.25,0,0,0,.17,1,19.59,19.59,0,0,0,.48,2c.13.42.27.83.43,1.22a15.64,15.64,0,0,0,.9,2c.21.41.45.81.7,1.22a16.85,16.85,0,0,0,1.47,2,12.94,12.94,0,0,0,1.13,1.21,15.29,15.29,0,0,0,2.59,2,13.5,13.5,0,0,0,2.51,1.21,13,13,0,0,0,4.5.8h108v4.85h-108c-10.63,0-19.26-10-19.26-22.39S456.21,394,466.86,394h108v4.85h-108a13,13,0,0,0-4.5.8,14.34,14.34,0,0,0-5.1,3.23,11.73,11.73,0,0,0-1.14,1.2,18.19,18.19,0,0,0-1.46,2,11.18,11.18,0,0,0-.7,1.21,18.11,18.11,0,0,0-.9,2c-.15.39-.29.8-.42,1.21a17.28,17.28,0,0,0-.48,2c-.09.41-.15.81-.2,1.21A20,20,0,0,0,451.8,415.79Z"/><polygon class="cls-8" points="479.52 437.88 475.58 436.33 471.67 437.88 471.67 428.98 471.67 419.21 475.58 419.21 479.52 419.21 479.52 428.98 479.52 437.88"/><polygon class="cls-10" points="478.01 437.88 474.09 436.33 470.17 437.88 470.17 428.98 470.17 419.21 474.09 419.21 478.01 419.21 478.01 428.98 478.01 437.88"/><path class="cls-6" d="M443.88,404.36h-5.14a25.42,25.42,0,0,0,0,24h5.14A25.48,25.48,0,0,1,443.88,404.36Z"/><path class="cls-11" d="M502.93,394.55c0,.69-2.07,1.34-5.62,1.89a204.62,204.62,0,0,1-27,1.52h-1.16c-3,0-5.9,0-8.66-.12-1.46,0-2.86-.08-4.22-.15a139.86,139.86,0,0,1-16-1.37,16.9,16.9,0,0,1,8.52-2.32h53.71A.76.76,0,0,1,502.93,394.55Z"/><path class="cls-12" d="M567.63,438.72c-10.63,0-19.27,10-19.27,22.39s8.61,22.38,19.27,22.38h21.48V438.72Z"/><path class="cls-6" d="M689.83,477.81a24.11,24.11,0,0,0,2.29,3.22H585.63a15.23,15.23,0,0,1-9.34-3.22,16.5,16.5,0,0,1-1.43-1.2,18.05,18.05,0,0,1-1.8-2c-.32-.39-.62-.8-.9-1.21a18.61,18.61,0,0,1-1.19-2c-.22-.41-.41-.8-.59-1.22-.29-.66-.54-1.32-.8-2-.13-.4-.24-.8-.35-1.21a17.07,17.07,0,0,1-.42-2c-.08-.4-.14-.81-.18-1.21-.08-.67-.12-1.35-.14-2v-1.21a8.18,8.18,0,0,1,.06-1.21,4.7,4.7,0,0,1,0-.75c.09-.26.11-.82.18-1.21a17.84,17.84,0,0,1,.42-2c.11-.4.23-.81.35-1.2a19.56,19.56,0,0,1,.8-2c.18-.42.37-.82.59-1.22a16.86,16.86,0,0,1,1.19-2,14.57,14.57,0,0,1,.9-1.21,16.35,16.35,0,0,1,1.8-2,11.87,11.87,0,0,1,1.43-1.21,15.4,15.4,0,0,1,9.44-3.27H692.12a24.21,24.21,0,0,0-2.29,3.23c-.23.39-.46.79-.67,1.21-.34.66-.66,1.33-1,2-.16.39-.33.8-.47,1.2-.26.67-.47,1.33-.69,2q-.18.6-.33,1.23c-.18.64-.33,1.31-.46,2-.08.39-.15.79-.22,1.2-.09.67-.19,1.33-.26,2,0,.39-.07.79-.1,1.2a5.25,5.25,0,0,0,0,.8v2.42a15.1,15.1,0,0,0,.09,2c0,.4.06.81.09,1.21q.1,1,.27,2c.06.41.13.81.21,1.21.13.69.29,1.35.46,2,.09.4.22.81.32,1.22q.33,1,.69,2c.15.4.32.81.48,1.21.29.69.62,1.36,1,2A11,11,0,0,0,689.83,477.81Z"/><path class="cls-7" d="M689.83,444.32c-.23.39-.46.8-.67,1.21H574.83a12.6,12.6,0,0,1,1.42-1.21Z"/><path class="cls-7" d="M688.24,447.59c-.16.39-.33.8-.48,1.2H572.13a14.43,14.43,0,0,1,.9-1.2Z"/><path class="cls-7" d="M687,450.8q-.18.6-.33,1.23H570.33c.17-.42.38-.83.57-1.23Z"/><path class="cls-7" d="M686.25,454c-.08.39-.15.79-.22,1.2H569.21c.11-.41.22-.81.34-1.2Z"/><path class="cls-7" d="M685.77,457.27c0,.39-.07.79-.1,1.2h-117c.05-.41.1-.81.18-1.2Z"/><path class="cls-7" d="M685.54,461.11v.61H568.46v-1.2H685.54Z"/><path class="cls-7" d="M685.77,464.92h-117c-.07-.4-.12-.81-.17-1.21h117A8.2,8.2,0,0,1,685.77,464.92Z"/><path class="cls-7" d="M686.25,468.14H569.55c-.13-.4-.24-.8-.36-1.21H686C686.1,467.34,686.17,467.74,686.25,468.14Z"/><path class="cls-7" d="M687,471.39H570.93c-.2-.4-.39-.79-.57-1.2H686.75C686.83,470.55,686.92,471,687,471.39Z"/><path class="cls-7" d="M688.24,474.59H573c-.31-.39-.6-.8-.9-1.21H687.72C687.92,473.78,688,474.19,688.24,474.59Z"/><path class="cls-7" d="M689.83,477.81H576.26a18.35,18.35,0,0,1-1.42-1.2h114.3Z"/><path class="cls-8" d="M689.14,476.59c-.33-.65-.66-1.32-.95-2-.17-.4-.34-.81-.48-1.21-.25-.66-.47-1.33-.69-2-.12-.39-.23-.8-.33-1.21-.18-.65-.33-1.32-.46-2-.08-.4-.15-.79-.21-1.2-.1-.67-.2-1.34-.26-2,0-.33-.07-.67-.09-1h-117a6.06,6.06,0,0,0,.15,1,15.59,15.59,0,0,0,.43,2c.11.41.23.81.34,1.2a17.52,17.52,0,0,0,.8,2c.18.41.38.82.6,1.21a18.74,18.74,0,0,0,1.19,2,11.49,11.49,0,0,0,.9,1.21,16.27,16.27,0,0,0,1.8,2,11,11,0,0,0,1.43,1.21,15.29,15.29,0,0,0,9.34,3.24H692.14a22.56,22.56,0,0,1-2.29-3.21A11.68,11.68,0,0,1,689.14,476.59Z"/><path class="cls-13" d="M693.53,483.46H585.63c-10.63,0-19.27-10-19.27-22.39s8.61-22.39,19.27-22.39H693.55v4.85H585.63c-8.32-.24-15.3,7.41-15.45,17.1s6.39,17.72,14.71,17.95H693.53Z"/><polygon class="cls-8" points="598.26 482.57 594.33 481.03 590.41 482.57 590.41 473.68 590.41 463.9 594.33 463.9 598.26 463.9 598.26 473.68 598.26 482.57"/><polygon class="cls-14" points="596.76 482.57 592.83 481.03 588.9 482.57 588.9 473.68 588.9 463.9 592.83 463.9 596.76 463.9 596.76 473.68 596.76 482.57"/><path class="cls-6" d="M562.66,449.1h-5.15a25.4,25.4,0,0,0,0,23.95h5.15A25.4,25.4,0,0,1,562.66,449.1Z"/><path class="cls-15" d="M458.39,438.72c-10.63,0-19.27,10-19.27,22.39s8.63,22.38,19.27,22.38h21.49V438.72Z"/><path class="cls-6" d="M580.64,477.81a21,21,0,0,0,2.29,3.23H476.45a15.17,15.17,0,0,1-9.33-3.21,16.64,16.64,0,0,1-1.44-1.2,22,22,0,0,1-1.85-2c-.31-.39-.6-.8-.9-1.22a22.58,22.58,0,0,1-1.19-2c-.2-.4-.39-.79-.57-1.21-.29-.66-.55-1.33-.81-2-.12-.4-.24-.81-.35-1.21-.18-.67-.32-1.34-.43-2-.07-.4-.12-.81-.16-1.22a19.39,19.39,0,0,1-.14-2v-1.2a6.1,6.1,0,0,1,.06-1.21,4.26,4.26,0,0,1,.08-.8c.08-.26.09-.82.16-1.21a20.17,20.17,0,0,1,.43-2c.11-.41.23-.82.35-1.21a19.18,19.18,0,0,1,.81-2c.18-.41.37-.82.57-1.22a22.58,22.58,0,0,1,1.19-2c.29-.41.58-.81.9-1.2a16.85,16.85,0,0,1,1.85-2,13.15,13.15,0,0,1,1.44-1.21,15.4,15.4,0,0,1,9.34-3.2H583a24.79,24.79,0,0,0-2.28,3.23c-.24.4-.46.8-.69,1.21a21.42,21.42,0,0,0-.9,2q-.26.58-.48,1.2c-.25.66-.47,1.33-.69,2-.1.39-.22.8-.32,1.22-.18.65-.33,1.31-.47,2l-.21,1.2c-.1.67-.18,1.34-.27,2,0,.39-.07.8-.1,1.2a5.34,5.34,0,0,0,0,.8v2.42a16.14,16.14,0,0,0,.07,2,9.88,9.88,0,0,0,.11,1.22c.07.67.16,1.34.26,2l.21,1.21c.14.69.29,1.35.47,2,.09.4.22.81.33,1.21.21.7.44,1.36.68,2,.15.41.31.82.49,1.21.29.7.6,1.37.94,2A4.68,4.68,0,0,0,580.64,477.81Z"/><path class="cls-7" d="M580.64,444.32c-.24.39-.45.8-.67,1.21H465.66a13.15,13.15,0,0,1,1.44-1.21Z"/><path class="cls-7" d="M579,447.59c-.17.39-.33.8-.48,1.2H462.91c.28-.4.58-.81.9-1.2Z"/><path class="cls-7" d="M577.85,450.8q-.18.6-.33,1.23H461.14c.18-.42.37-.83.58-1.23Z"/><path class="cls-7" d="M577.05,454l-.21,1.2H460c.11-.41.23-.81.35-1.2Z"/><path class="cls-7" d="M576.57,457.27c0,.39-.07.79-.09,1.2h-117a7,7,0,0,1,.18-1.2Z"/><path class="cls-7" d="M576.39,461.11v.61H459.28v-1.2H576.39Z"/><path class="cls-7" d="M576.57,464.92h-117c-.07-.4-.13-.81-.17-1.21h117C576.5,464.1,576.54,464.52,576.57,464.92Z"/><path class="cls-7" d="M577.05,468.14H460.33c-.12-.4-.24-.8-.34-1.21H576.84Z"/><path class="cls-7" d="M577.85,471.39H461.74c-.21-.4-.4-.79-.58-1.2H577.53C577.6,470.55,577.74,471,577.85,471.39Z"/><path class="cls-7" d="M579,474.59H463.79c-.3-.39-.6-.8-.9-1.21H578.51C578.72,473.78,578.84,474.19,579,474.59Z"/><path class="cls-7" d="M580.64,477.81H467.12a15.13,15.13,0,0,1-1.45-1.2H580C580.23,477,580.4,477.41,580.64,477.81Z"/><path class="cls-8" d="M580,476.59q-.53-1-1-2c-.17-.4-.33-.81-.48-1.21-.25-.66-.48-1.33-.68-2-.11-.39-.23-.8-.33-1.21-.18-.65-.33-1.32-.47-2l-.21-1.2c-.1-.67-.19-1.34-.27-2,0-.33-.06-.67-.09-1h-117a7.25,7.25,0,0,0,.16,1,17.88,17.88,0,0,0,.43,2c.11.41.22.81.35,1.2a15.87,15.87,0,0,0,.8,2c.18.41.37.82.58,1.21a20.46,20.46,0,0,0,1.18,2c.28.42.58.82.9,1.21a17.72,17.72,0,0,0,1.86,2,15,15,0,0,0,1.43,1.21,15.3,15.3,0,0,0,9.32,3.24H583a21.21,21.21,0,0,1-2.28-3.21A9.54,9.54,0,0,1,580,476.59Z"/><path class="cls-16" d="M584.34,483.46H476.45c-10.63,0-19.27-10-19.27-22.39s8.61-22.39,19.27-22.39H584.34v4.85H476.45c-8.33-.24-15.26,7.41-15.45,17.1s6.39,17.72,14.71,17.95H584.34Z"/><polygon class="cls-8" points="489.07 482.57 485.14 481.03 481.22 482.57 481.22 473.68 481.22 463.9 485.14 463.9 489.07 463.9 489.07 473.68 489.07 482.57"/><polygon class="cls-16" points="487.56 482.57 483.65 481.03 479.72 482.57 479.72 473.68 479.72 463.9 483.65 463.9 487.56 463.9 487.56 473.68 487.56 482.57"/><path class="cls-17" d="M674,328.16c-8.48-.67-34-8.89-61.49,1.26a62.68,62.68,0,0,0-20.22,11.85,8,8,0,0,1-10.69.34l-.37-.34A62.77,62.77,0,0,0,561,329.4c-27.5-10.14-53-1.94-61.49-1.25a3.27,3.27,0,0,0-2.92,3.39l1.85,141.14a5.48,5.48,0,0,0,6.17,5.58c33.44-5.31,57.3-1.93,70.5,1.33a28.79,28.79,0,0,1,6.3,2.42,12.17,12.17,0,0,0,5.1,1.28v.11l.25-.1.25.1v-.11a12.21,12.21,0,0,0,5.11-1.28,28.79,28.79,0,0,1,6.3-2.42c13.16-3.26,37.05-6.66,70.48-1.33a5.5,5.5,0,0,0,6.19-5.58l1.86-141.17A3.22,3.22,0,0,0,674,328.16Z"/><path class="cls-18" d="M675.87,325.94c-8.47-.68-34-8.89-61.48,1.25a62.7,62.7,0,0,0-20.22,11.86,8,8,0,0,1-10.65.38l-.42-.38a62.55,62.55,0,0,0-20.21-11.86c-27.49-10.14-53-1.93-61.48-1.25a3.27,3.27,0,0,0-2.91,3.4l1.87,141.16a5.52,5.52,0,0,0,6.19,5.6c33.42-5.31,57.29-1.94,70.47,1.31a29.08,29.08,0,0,1,6.3,2.41,11.71,11.71,0,0,0,5.1,1.29v.12l.26-.12.24.12V481a11.6,11.6,0,0,0,5.11-1.28,29.63,29.63,0,0,1,6.3-2.42c13.17-3.24,37.06-6.62,70.49-1.3a5.5,5.5,0,0,0,6.18-5.6l1.8-141.16A3.31,3.31,0,0,0,675.87,325.94Z"/><path class="cls-19" d="M671.35,342.4V467.9c-37.9-9.63-76.09,3.83-81.9,6.07l-.81.3-.8-.28c-6-2.09-45.12-14.58-81.9-4.44V342.4c12-1.4,45.24-20.8,82.7,23.13C626.13,321.6,659.32,341,671.35,342.4Z"/><path class="cls-20" d="M671.35,459.58v.67a80.43,80.43,0,0,0-19.21-3c-13.08-.67-34.63.73-63.06,11h-.53c-28.43-10.31-50-11.69-63.06-11A79.15,79.15,0,0,0,506,460.34v-.64a81.42,81.42,0,0,1,19.5-3.13c13.13-.65,34.78.75,63.31,11.07h0c28.52-10.33,50.18-11.72,63.3-11.07A82.52,82.52,0,0,1,671.35,459.58Z"/><path class="cls-20" d="M671.35,461.87v.64a81,81,0,0,0-19.21-3c-13.08-.66-34.63.74-63.06,11h-.53c-28.43-10.3-50-11.69-63.06-11A79.15,79.15,0,0,0,506,462.59V462a80.91,80.91,0,0,1,19.5-3.12c13.13-.65,34.78.73,63.31,11.06h0c28.52-10.34,50.18-11.71,63.3-11.06A82,82,0,0,1,671.35,461.87Z"/><path class="cls-20" d="M671.35,464.18v.63a81,81,0,0,0-19.21-3.05c-13.08-.64-34.63.75-63.06,11h-.53c-28.43-10.3-50-11.68-63.06-11A80.67,80.67,0,0,0,506,464.89v-.62a80.91,80.91,0,0,1,19.5-3.12c13.13-.66,34.78.74,63.31,11.07h0c28.52-10.4,50.18-11.73,63.3-11.07A82,82,0,0,1,671.35,464.18Z"/><path class="cls-20" d="M589.43,368.54v105.4l-.8.3-.8-.27V368.54l.8.87Z"/><path class="cls-6" d="M671.35,332.23V457c-28-11.72-75.32,4.44-81.9,6.83l-.81.27-.8-.27c-6.59-2.37-53.88-18.53-81.9-6.83V332.23s56.15-12.44,81.9,16.42l.8.87.81-.87C615.21,319.79,671.35,332.23,671.35,332.23Z"/><path class="cls-19" d="M589.43,348.65V463.77l-.8.28-.8-.28V348.65l.8.87Z"/><path class="cls-21" d="M581.78,454.43c-22.5-10.28-39.91-12.55-50.59-12.66-11.55-.11-17.83,2.22-17.9,2.26l-.1-.3c.07,0,6.43-2.39,18-2.29,10.69.11,28.1,2.4,50.67,12.69Z"/><path class="cls-21" d="M581.78,450.21c-22.5-10.27-39.91-12.54-50.59-12.65-11.55-.11-17.83,2.23-17.9,2.26l-.1-.32c.07,0,6.43-2.37,18-2.26,10.69.11,28.1,2.39,50.67,12.67Z"/><path class="cls-21" d="M581.78,446c-22.5-10.27-39.91-12.54-50.59-12.66-11.55-.1-17.83,2.23-17.9,2.26l-.1-.29c.07,0,6.12-2.29,17.2-2.29h.8c10.7.11,28.1,2.39,50.68,12.69Z"/><path class="cls-21" d="M581.78,441.8c-22.5-10.27-39.91-12.59-50.59-12.66-11.55-.11-17.83,2.23-17.9,2.26l-.1-.31c.07,0,6.43-2.37,18-2.27,10.69.1,28.1,2.38,50.67,12.68Z"/><path class="cls-21" d="M581.78,437.58c-22.5-10.28-39.91-12.55-50.59-12.64-11.55-.12-17.83,2.22-17.9,2.25l-.1-.3c.07,0,6.43-2.39,18-2.28,10.69.09,28.1,2.38,50.67,12.68Z"/><path class="cls-21" d="M581.73,433.52c-22.5-10.25-39.84-12.49-50.47-12.64-11.53-.11-17.84,2.22-17.92,2.22l-.16-.61c.06,0,6.42-2.4,18-2.28,10.71.1,28.19,2.38,50.72,12.68Z"/><path class="cls-21" d="M581.78,420.75a148,148,0,0,0-30.14-10.27l.07-.31a149,149,0,0,1,30.22,10.28Z"/><path class="cls-21" d="M581.78,416.53a148,148,0,0,0-30.14-10.25l.07-.33a149.16,149.16,0,0,1,30.18,10.26Z"/><path class="cls-21" d="M581.78,412.33a148,148,0,0,0-30.14-10.27l.07-.31A149.25,149.25,0,0,1,581.89,412Z"/><path class="cls-21" d="M581.78,408.11a148,148,0,0,0-30.14-10.25l.07-.33a149.61,149.61,0,0,1,30.22,10.29Z"/><path class="cls-21" d="M581.78,403.92a148,148,0,0,0-30.14-10.25v-.34a148.23,148.23,0,0,1,30.24,10.32Z"/><path class="cls-21" d="M581.78,399.7c-22.5-10.28-39.89-12.56-50.54-12.66-11.54-.12-17.85,2.21-17.91,2.25l-.09-.3c.07,0,6.42-2.4,18-2.27,10.67.1,28.1,2.38,50.66,12.68Z"/><path class="cls-21" d="M581.78,395.48c-22.5-10.28-39.91-12.5-50.59-12.66-11.55-.12-17.83,2.23-17.9,2.27l-.1-.32c.07,0,6.43-2.38,18-2.27,10.69.1,28.1,2.39,50.67,12.66Z"/><path class="cls-21" d="M581.78,391.27c-22.5-10.27-39.91-12.55-50.59-12.66-11.55-.1-17.83,2.22-17.9,2.26l-.1-.3c.07,0,6.43-2.38,18-2.28,10.69.11,28.1,2.39,50.67,12.69Z"/><path class="cls-21" d="M581.78,387.05c-22.5-10.27-39.91-12.55-50.59-12.66-11.55-.1-17.83,2.23-17.9,2.26l-.1-.31c.07,0,6.12-2.27,17.2-2.27h.8c10.7.11,28.1,2.39,50.68,12.68Z"/><path class="cls-21" d="M581.78,382.88c-22.5-10.28-39.91-12.56-50.59-12.65-11.55-.12-17.83,2.21-17.9,2.21l-.1-.3c.07,0,6.43-2.38,18-2.26,10.69.09,28.1,2.38,50.67,12.67Z"/><path class="cls-21" d="M581.78,378.65c-22.5-10.28-39.91-12.59-50.59-12.66-11.55-.11-17.83,2.22-17.9,2.26l-.1-.3c.07,0,6.43-2.4,18-2.29,10.69.1,28.1,2.39,50.67,12.68Z"/><path class="cls-21" d="M581.78,374.46c-22.5-10.27-39.91-12.54-50.59-12.65-11.55-.11-17.83,2.23-17.9,2.26l-.1-.31c.07,0,6.43-2.38,18-2.27,10.69.1,28.1,2.38,50.67,12.67Z"/><path class="cls-21" d="M581.78,370.23c-22.5-10.28-39.91-12.56-50.59-12.66-11.55-.11-17.83,2.22-17.9,2.22l-.1-.3c.07,0,6.12-2.28,17.2-2.28h.8c10.7.1,28.1,2.38,50.68,12.68Z"/><path class="cls-21" d="M581.73,366.16c-22.5-10.26-39.84-12.49-50.47-12.64-11.53-.12-17.84,2.22-17.92,2.22l-.16-.62c.06,0,6.42-2.39,18-2.28,10.71.1,28.19,2.39,50.72,12.69Z"/><path class="cls-21" d="M513.42,348.3l-.27-.91c.11-.05,12.53-4.62,34.47-.69l-.13.95C525.73,343.77,513.52,348.27,513.42,348.3Z"/><path class="cls-21" d="M547.55,409.55c-22.13-3.94-34.28.68-34.28.68V393.35s12.15-4.62,34.28-.67Z"/><path class="cls-21" d="M595.53,454.43l-.1-.3c22.5-10.29,40-12.59,50.67-12.69,11.58-.1,17.9,2.23,18,2.29l-.08.3c-.06,0-6.37-2.37-17.9-2.26C635.43,441.88,618,444.15,595.53,454.43Z"/><path class="cls-21" d="M595.53,450.21l-.1-.3c22.5-10.28,40-12.6,50.67-12.67,11.58-.11,17.9,2.22,18,2.26l-.08.32c-.06,0-6.37-2.37-17.9-2.26C635.43,437.72,618,439.92,595.53,450.21Z"/><path class="cls-21" d="M595.53,446l-.1-.29c22.5-10.3,40-12.59,50.67-12.69,11.58-.1,17.9,2.23,18,2.29l-.08.29c-.06,0-6.37-2.36-17.9-2.26C635.43,433.46,618,435.73,595.53,446Z"/><path class="cls-21" d="M595.53,441.8l-.1-.3c22.5-10.3,40-12.59,50.67-12.68,11.58-.1,17.9,2.22,18,2.27l-.08.31c-.06,0-6.37-2.36-17.9-2.26C635.43,429.24,618,431.53,595.53,441.8Z"/><path class="cls-21" d="M595.53,437.58l-.1-.29c22.5-10.3,40-12.6,50.67-12.68,11.58-.11,17.9,2.23,18,2.28l-.08.3c-.06,0-6.37-2.37-17.9-2.25C635.43,425,618,427.32,595.53,437.58Z"/><path class="cls-21" d="M595.58,433.52l-.2-.6c22.5-10.3,40-12.55,50.71-12.68,11.64-.11,18,2.25,18,2.28l-.18.62s-6.35-2.37-17.9-2.23C635.43,421,618,423.27,595.58,433.52Z"/><path class="cls-21" d="M595.53,399.7l-.1-.3c22.5-10.3,40-12.6,50.67-12.68,11.58-.11,17.9,2.21,18,2.27l-.08.3c-.06,0-6.37-2.37-17.9-2.25C635.43,387.14,618,389.42,595.53,399.7Z"/><path class="cls-21" d="M595.53,395.48l-.1-.32c22.5-10.27,40-12.59,50.67-12.66,11.58-.11,17.9,2.22,18,2.27l-.08.32c-.06,0-6.37-2.37-17.9-2.27C635.43,382.88,618,385.21,595.53,395.48Z"/><path class="cls-21" d="M595.53,391.27l-.1-.29c22.5-10.3,40-12.6,50.67-12.69,11.58-.1,17.9,2.22,18,2.28l-.08.3c-.06,0-6.37-2.36-17.9-2.26C635.43,378.73,618,381,595.53,391.27Z"/><path class="cls-21" d="M595.53,387.05l-.1-.3c22.5-10.29,40-12.59,50.67-12.68,11.58-.11,17.9,2.23,18,2.27l-.08.31c-.06,0-6.37-2.36-17.9-2.26C635.43,374.57,618,376.78,595.53,387.05Z"/><path class="cls-21" d="M595.64,423.33l-.31-.86c22.57-10.32,40.07-12.6,50.76-12.71,11.64-.12,17.82,2.19,18.07,2.28l-.22.9c-.07,0-6.06-2.22-17-2.22h-.81C635.42,410.8,618,413.09,595.64,423.33Z"/><path class="cls-21" d="M595.64,419.12l-.31-.91c22.57-10.3,40.07-12.59,50.76-12.69,11.64-.11,17.82,2.22,18.07,2.29l-.25.92c-.06,0-6.06-2.22-17-2.22h-.81C635.42,406.58,618,408.92,595.64,419.12Z"/><path class="cls-21" d="M595.64,414.92l-.31-.91c22.57-10.31,40.07-12.59,50.76-12.7,11.64-.11,17.82,2.22,18.07,2.29l-.25.92c-.06,0-6.06-2.22-17-2.22h-.81C635.42,402.39,618,404.67,595.64,414.92Z"/><path class="cls-21" d="M595.64,410.7l-.31-.87c22.57-10.31,40.07-12.59,50.76-12.69,11.64-.12,17.82,2.22,18.07,2.3l-.25.91c-.06,0-6.36-2.35-17.87-2.23C635.42,398.18,618,400.46,595.64,410.7Z"/><path class="cls-21" d="M595.53,382.88l-.1-.31c22.5-10.28,40-12.59,50.67-12.67,11.58-.12,17.9,2.23,18,2.27l-.08.31c-.06,0-6.37-2.37-17.9-2.23C635.43,370.29,618,372.59,595.53,382.88Z"/><path class="cls-21" d="M595.53,378.65l-.1-.31c22.5-10.29,40-12.59,50.67-12.68,11.58-.11,17.9,2.23,18,2.29l-.08.3c-.06,0-6.37-2.37-17.9-2.26C635.43,366.09,618,368.4,595.53,378.65Z"/><path class="cls-21" d="M595.53,374.46l-.1-.3c22.5-10.29,40-12.59,50.67-12.67,11.58-.11,17.9,2.22,18,2.27l-.08.31c-.06,0-6.37-2.36-17.9-2.26C635.43,361.88,618,364.15,595.53,374.46Z"/><path class="cls-21" d="M595.53,370.23l-.1-.31c22.5-10.3,40-12.6,50.67-12.68,11.58-.11,17.9,2.26,18,2.28l-.08.31c-.06,0-6.37-2.37-17.9-2.23C635.43,357.69,618,360,595.53,370.23Z"/><path class="cls-21" d="M595.58,366.16l-.2-.61c22.5-10.29,40-12.59,50.71-12.67,11.64-.12,18,2.22,18,2.28l-.18.61s-6.07-2.26-17.1-2.26H646C635.43,353.67,618,355.9,595.58,366.16Z"/><path class="cls-22" d="M556.89,357.33a3.15,3.15,0,0,0-2.53-3.46.58.58,0,0,1-.57-.54c-.06-1-.12-2.17-.14-2.72,0-1.16-.38-1.56-.76-1.48s-.39,1.29-.39,1.29v3.71a2.15,2.15,0,0,0-1.39,1.73,3,3,0,0,0,.53,1.77,2.58,2.58,0,0,1,.33.74,3.68,3.68,0,0,0,.6,1.34c-.67,6.63-1.55,13.15-1.7,19.79a11.51,11.51,0,0,0-1.27-1l-2.41-1.36a9,9,0,0,0-3.86-2.32l-.3-3a8.26,8.26,0,0,0,2.7-4.68h0a1.75,1.75,0,0,0,1.52-1.91h0a2.1,2.1,0,0,0-.59-1.49,1,1,0,0,0,.12-.41v-2.08a.87.87,0,0,0-.44-.75c-.55-3.86-2.93-6.76-5.8-6.76s-5.26,2.9-5.81,6.76a.8.8,0,0,0-.43.75v2.08a.74.74,0,0,0,.11.41,2.13,2.13,0,0,0-.58,1.49,1.75,1.75,0,0,0,1.52,1.91h0a8.25,8.25,0,0,0,2.7,4.69l-.31,3a8.35,8.35,0,0,0-1.61.65h0a.72.72,0,0,0-.9-.41l-.19.09-1.12.78a1,1,0,0,0-.28,1.26h0l-2.48,1.73a17.56,17.56,0,0,0-5.4,8.33,12,12,0,0,0-.57,3.46l-.13,3.56h1.16c.08,2,.44,6.24,2,9a1.09,1.09,0,0,0,1.39.57l-.33,15.41h1.27l2.49,58.4h1.28l-.38,1.3h0l-.18.07-.64,2.22a.48.48,0,0,0,0,.17v1.43a.49.49,0,0,0,.44.53h5.86a.49.49,0,0,0,.45-.52v-1.32a.14.14,0,0,0,0-.09h0l-.52-2.31-.19-.09h0l-.31-1.38H540v-51a.72.72,0,0,1,.69-.75h.11a.82.82,0,0,1,.64.75v51h1.14l-.31,1.37h0l-.2.09-.51,2.31h0a.14.14,0,0,0,0,.09v1.28a.49.49,0,0,0,.43.53h5.83a.5.5,0,0,0,.45-.52h0v-1.41a.48.48,0,0,0,0-.17l-.64-2.22-.19-.08h0l-.38-1.3h1.25L550.67,423h3.72a1.15,1.15,0,0,0,1.06-1.24h0V405.28a1.15,1.15,0,0,0-1.06-1.23h-2.86l-.51-13a4.14,4.14,0,0,0,4.34-3.87,3.53,3.53,0,0,0-.08-.86.9.9,0,0,1,.05-.43,80.71,80.71,0,0,0,.69-15.22l-.42-10.28A3.8,3.8,0,0,0,556.89,357.33Z"/><polygon class="cls-23" points="469.22 364.52 460.13 370.76 458.82 354.71 468.13 348.68 469.22 364.52"/><polygon class="cls-24" points="467.92 348.48 468.13 348.68 458.84 355.1 458.82 354.71 467.92 348.48"/><path class="cls-25" d="M471.74,359.17l-1.32-1.94c.47-1.18-.36-4.58-1.91-3.89-.17.08-.32.2-.49.28s-.6.12-.9.21a.76.76,0,0,0-.56.74.92.92,0,0,0,.34.55,3.23,3.23,0,0,0,1.6.82.63.63,0,0,1,.32.15.69.69,0,0,1,.15.41c.06.61.12,1.22.13,1.84a5.83,5.83,0,0,0,.12,1.18,1.34,1.34,0,0,0,.62.91C470.53,360.77,471.26,359.62,471.74,359.17Z"/><path class="cls-26" d="M490.12,361.81l-.11-.27a2.19,2.19,0,0,0-2.63-1.59,2.47,2.47,0,0,0-.36.11l-.14.07-8.76,5-6.8-7.54-2.3,2.8,7.49,9.53a2.1,2.1,0,0,0,2.7.62l9.77-5.34A2.83,2.83,0,0,0,490.12,361.81Z"/><path class="cls-25" d="M476,394.05l-11.37.11-5,0-9.9.09a6.43,6.43,0,0,1-1.48.86,5.63,5.63,0,0,1-1.06.32,11,11,0,0,1-1.9.26H445a.89.89,0,0,1-.62-.81c-.11-2.31-.55-10.4-.75-12.59a2.18,2.18,0,0,1,.47-1.88,1,1,0,0,1,1.33.08.63.63,0,0,1,.16.23,1,1,0,0,1,.13.33,58,58,0,0,0,2.77,6.25c.19.38.35.73.52,1v.06c.2.35.36.65.5.86l13-.86,3.3-.22,8.58-.58Z"/><path class="cls-27" d="M445,396.13a.88.88,0,0,1-1-.77.34.34,0,0,1,0-.1h0c-.13-2.48-.59-11.12-.8-13.47-.26-2.89,2-2.6,2.31-1.31a58.8,58.8,0,0,0,3,6.67c.22.42.42.81.62,1.16a1,1,0,0,1-1,0c-.21-.11-.38-.36-.62-.42a.69.69,0,0,0-.73.51,2.28,2.28,0,0,0,0,1c.3,2.08,1.23,4,1.48,6.06a9.6,9.6,0,0,1-1.16.34A12.06,12.06,0,0,1,445,396.13Z"/><path class="cls-7" d="M444,379.66l1,16.39a.37.37,0,0,1-.31.42l-1.09.09a.36.36,0,0,1-.37-.36h0l-1-16.39a.38.38,0,0,1,.31-.42h0l1.09-.09a.37.37,0,0,1,.39.35Z"/><path class="cls-28" d="M465.79,388.1l-1.14,6-5,.06a39.29,39.29,0,0,1,2.9-5.85Z"/><polygon class="cls-24" points="470.42 370.6 460.13 370.76 458.82 354.71 469.11 354.56 470.42 370.6"/><path class="cls-29" d="M472.79,395c-1.35-.19-2.52-.38-3.42-.52-1.09-.17-1.74-.3-1.74-.3l-6.94,23.48a10.17,10.17,0,0,1,.29,1.89h0c0,.42,0,.85,0,1.27a14,14,0,0,1-.33,2.22.72.72,0,0,1-.11.31.8.8,0,0,1-.83.48c-2-.53-8.76-2.31-10.62-2.72a1.65,1.65,0,0,1-1.43-1.05,1.28,1.28,0,0,1,.67-1.56,1.14,1.14,0,0,1,.32-.07,38.84,38.84,0,0,0,5.94-1.3l1-.3h.06l.9-.31,6.3-26.55a4.8,4.8,0,0,1,3-3.8l4.9-.43,2-.16Z"/><path class="cls-27" d="M460.84,423.5a.87.87,0,0,1-.89.87h-.13c-2.07-.56-9.33-2.47-11.33-2.91-2.46-.51-1.61-3-.45-3A40.5,40.5,0,0,0,454.4,417l1.14-.36a1.66,1.66,0,0,1-.26,1c-.16.21-.41.32-.52.57a.85.85,0,0,0,.2,1,1.6,1.6,0,0,0,.81.32c1.8.28,3.66-.23,5.4.08a9.23,9.23,0,0,1-.05,1.39A16,16,0,0,1,460.84,423.5Z"/><path class="cls-7" d="M447,420l13.79,3.52a.41.41,0,0,1,.26.48l-.24,1.24a.35.35,0,0,1-.38.3h0L446.63,422a.39.39,0,0,1-.25-.47l.23-1.24A.35.35,0,0,1,447,420h0Z"/><path class="cls-30" d="M472.79,395c-1.35-.19-2.52-.38-3.42-.52a71.58,71.58,0,0,1,1.26-8.74l2-.17Z"/><path class="cls-31" d="M493.51,388.73c-.29,3-1.1,4.59-1.8,5.37a6,6,0,0,1-.38.5c-1.65,2.08-9.59,1.54-15.84.78l-1.41-.16-.55-9.71,1.34-.09,4.82-.32.45-1.26.76-2,12.6,1A32.66,32.66,0,0,1,493.51,388.73Z"/><path class="cls-18" d="M474.92,385.21l.63,10.4a.86.86,0,0,1-.7.91h-.08l-2.81-.17a.81.81,0,0,1-.7-.87V385.09a.75.75,0,0,1,.64-.86h.16l2.16.22A.76.76,0,0,1,474.92,385.21Z"/><path class="cls-32" d="M493.51,388.73a70.28,70.28,0,0,1-13.31-4.89l.72-2,12.54,1A32.65,32.65,0,0,1,493.51,388.73Z"/><path class="cls-33" d="M484.28,353.17a27.46,27.46,0,0,1-1.5,2.71,2.17,2.17,0,0,0-.3,1.49,1.78,1.78,0,0,0,.9,1.08,5,5,0,0,0,3.84,0c1.8-.87,2.17-3.12,2-5.39a18.78,18.78,0,0,0-.9-3.6,6.19,6.19,0,0,1-.14-3.64c.37-1,1.27-1.93,1.43-3.12a2,2,0,0,0-1.33-2.51,2.33,2.33,0,0,0-.83-.09,2.41,2.41,0,0,0-1.42.49,3.78,3.78,0,0,0-.62.81,9.62,9.62,0,0,0-1.28,5.07,31.78,31.78,0,0,0,.39,3.38A7.61,7.61,0,0,1,484.28,353.17Z"/><path class="cls-27" d="M495,386.72l2-19.93a9.7,9.7,0,0,0-1.65-6.57l-.47-.83c-1-1.81-2.15-3.18-4.16-2.84a8.76,8.76,0,0,0-2.48.94c-.8.4-1.9.74-2.7,1.23a11.7,11.7,0,0,0-3.68,3.42c-2.52,3.47-.64,6.93-.56,10.86.06,3.18-1.34,6.06-2.2,9.08-.31,1,.08,1.2.95,1.37s1.62.38,2.45.57l5.19,1.21C489.88,385.73,492.92,386.23,495,386.72Z"/><path class="cls-25" d="M492.32,356.27a1.07,1.07,0,0,1-.25.22l-.05.27a.14.14,0,0,1,0,.09c-1.8,4.16-7.32,4.61-7.32,4.61a16.62,16.62,0,0,1,2.7-3.71l.56-1.89.26-1.21.62-3.12,1,.1,1.42.15,1,.1-.06,3.12A.92.92,0,0,1,492.32,356.27Z"/><path class="cls-28" d="M492.32,356.27a1.07,1.07,0,0,1-.25.22l-.05.27a.14.14,0,0,1,0,.09,8.46,8.46,0,0,1-3.79-2.22l.63-3.13,1,.1,1.4.15,1,.11-.06,3.11A1,1,0,0,1,492.32,356.27Z"/><path class="cls-29" d="M494.6,348c-.33,3.82-2.7,6.62-5.24,6.25s-4.38-3.7-4-7.55a10,10,0,0,1,.41-2.08,6.54,6.54,0,0,1,2.7-3.77,3.36,3.36,0,0,1,2.11-.41,2.78,2.78,0,0,1,.5.11,5.16,5.16,0,0,1,3.11,3.56A9.19,9.19,0,0,1,494.6,348Z"/><path class="cls-30" d="M494.18,344.13a5.67,5.67,0,0,1-2.16,1.36c-3.31,1.36-5.25.3-6.3-.87a6.47,6.47,0,0,1,2.7-3.75l2.62-.31A5.13,5.13,0,0,1,494.18,344.13Z"/><path class="cls-34" d="M492,345.78a1.07,1.07,0,0,1,.61.69,2.58,2.58,0,0,1,0,1.35,3.32,3.32,0,0,1-.37,1,1.14,1.14,0,0,1-.9.57.15.15,0,0,0-.13,0c-.35.15.21.95.3,1.15a8.28,8.28,0,0,1,.16,5.09,6.6,6.6,0,0,0-.26,1.59,2.94,2.94,0,0,0,1.8,2.74c.5.16,1.11-.08,1.54.26a6.32,6.32,0,0,0,.6.56,1.1,1.1,0,0,0,.75.19,2,2,0,0,0,1.61-1.48,4.8,4.8,0,0,0,0-2.44c-.17-.82-.45-1.59-.65-2.38a11.48,11.48,0,0,1,.11-5.31,16.16,16.16,0,0,0,.8-5.2,6.63,6.63,0,0,0-.24-1.24,7.75,7.75,0,0,0-5.21-5.48,6.31,6.31,0,0,0-6.65,2.43,3.4,3.4,0,0,0-.76,1.87,2.72,2.72,0,0,0,1.44,2.35,4,4,0,0,0,2.6.25,1.37,1.37,0,0,1,1.3.14c.44.45.07,1.48.43,1.73.21-.27.39-.58.74-.63A.53.53,0,0,1,492,345.78Z"/><path class="cls-25" d="M471,364.15s-.28-2.44-.5-3.37a1.63,1.63,0,0,0-1-1.16l.24,3Z"/><path class="cls-29" d="M473.17,365.4l-1.34,3.06-1-.7-1.06-.74a2.49,2.49,0,0,1-2.7.16h0a3.45,3.45,0,0,1-.73-.52c-.81-.6-2.19-1.17-1.9-2.51a1,1,0,0,0,.06-.48.88.88,0,0,0-.1-.27,2,2,0,0,1,.12-1.48,1.41,1.41,0,0,0,.15-.83,1.79,1.79,0,0,1,0-.86,1.06,1.06,0,0,1,1.26-.75h0s5.4,1.73,5.4,4.74l.15.09Z"/><path class="cls-30" d="M473.17,365.4l-1.34,3.06-1-.7c.18-1.17.49-2.7.63-3.41Z"/><path class="cls-6" d="M493.73,361.88l-.18-.26a2.26,2.26,0,0,0-3.56-.36l-.12.13-7.82,8.66-9.31-5.34-1.65,3.83,10.58,7.15a2.29,2.29,0,0,0,3.05-.38h0l8.79-9.37A3.29,3.29,0,0,0,493.73,361.88Z"/><polygon class="cls-6" points="466.92 357.46 461.35 357.54 461.49 359.32 467.06 359.23 466.92 357.46"/><polygon class="cls-35" points="597.67 483.44 610.96 483.44 610.96 456.63 598.38 456.63 597.67 483.44"/><path class="cls-36" d="M611.64,458.16v25.3h-1.17l-.69-26-.59,26h-1.3l-.66-26-.57,26h-1.31l-.7-26-.59,26h-1.33l-.68-26-.58,26h-1.35l-.69-26-.6,26h-1.14v-25.3c0-4.58,1.71-8.54,4.15-10.31a4.83,4.83,0,0,1,2.84-1,5.31,5.31,0,0,1,3.92,2A14.08,14.08,0,0,1,611.64,458.16Z"/><path class="cls-36" d="M608.57,448.81a3.67,3.67,0,0,1-4.92,1.26,3.92,3.92,0,0,1-.7-.51,5,5,0,0,1-1.13-1.74,4.9,4.9,0,0,1,2.84-1A5.34,5.34,0,0,1,608.57,448.81Z"/><rect class="cls-36" x="604.17" y="427.43" width="0.99" height="16.21"/><path class="cls-16" d="M607.85,445a3.24,3.24,0,1,1-3.2-3.7h0A3.47,3.47,0,0,1,607.85,445Z"/><rect class="cls-37" x="620.95" y="427.01" width="88.15" height="56.45"/><rect class="cls-38" x="620.95" y="427.01" width="88.15" height="9.31"/><rect class="cls-38" x="672.08" y="427.01" width="37.04" height="56.45"/><path class="cls-39" d="M590.53,421.09h149a3,3,0,0,1,2.79,3.23v2.39a3.07,3.07,0,0,1-2.79,3.23h-149a3,3,0,0,1-2.78-3.23v-2.39A3,3,0,0,1,590.53,421.09Z"/><path class="cls-38" d="M742.33,424.32v.44H587.75v-.44a3,3,0,0,1,2.77-3.21h149a3,3,0,0,1,2.78,3.2Z"/><path class="cls-34" d="M682.84,369.07a1.31,1.31,0,0,0-.31-1.48.92.92,0,0,1-.24-.31,2.13,2.13,0,0,1,0-.87,1,1,0,0,0-.44-.57,4.13,4.13,0,0,0-3.21-.94c-.35.07-.65.19-1,.24a10.06,10.06,0,0,1-1.45-.07,1.24,1.24,0,0,1-1,0,10.34,10.34,0,0,1-1.47.07c-.31-.05-.63-.17-1-.24a4.12,4.12,0,0,0-3.21.94,1,1,0,0,0-.44.57c-.06.29.09.6,0,.87a.92.92,0,0,1-.24.31,1.26,1.26,0,0,0-.31,1.48c.05.11.14.19.19.31.21.45-.1,1-.17,1.48a1.32,1.32,0,0,0,.51,1.16,1.8,1.8,0,0,1,.5.35c.34.48-.14,1.36.24,1.81s.9,0,1.25.35.25.75.47,1c.41.47,1.22,0,1.61.47.1.13.15.32.25.44a.65.65,0,0,0,.75.13,3.28,3.28,0,0,1,.75-.24c.28,0,.55.14.8.11s.54-.09.81-.11a2.74,2.74,0,0,1,.8.24.65.65,0,0,0,.75-.13c.1-.12.15-.31.25-.44.39-.5,1.2,0,1.61-.47.24-.28.23-.74.47-1s.9,0,1.25-.35-.1-1.33.24-1.81a1.8,1.8,0,0,1,.5-.35,1.29,1.29,0,0,0,.5-1.16c0-.51-.37-1-.16-1.48A1.2,1.2,0,0,1,682.84,369.07Z"/><path class="cls-15" d="M672.55,448.12v1.66a.63.63,0,0,1-.55.67h-7.37a.63.63,0,0,1-.58-.65V448a.81.81,0,0,1,0-.22l.81-2.84.69-2.36.23-4h5l.53,4,.55,2.46.66,3A.83.83,0,0,1,672.55,448.12Z"/><path class="cls-26" d="M670.53,446.31h-4a51.35,51.35,0,0,0,.9-7.8h1.93c.08.74.2,1.64.32,2.6C670,443.28,670.53,446.31,670.53,446.31Z"/><path class="cls-16" d="M672.88,448.49v1.8a.67.67,0,0,1-.6.75h-8a.7.7,0,0,1-.62-.75v-2.17l.37-1.28a3.34,3.34,0,0,1,2.41-2.42,8.51,8.51,0,0,1,3.69,0,3.37,3.37,0,0,1,2.4,2.6l.28,1.24a0,0,0,0,1,0,.05A.36.36,0,0,1,672.88,448.49Z"/><path class="cls-6" d="M673.15,450.29a.69.69,0,0,1-.64.75h-8.42a.69.69,0,0,1-.65-.73h0v-1.73a.22.22,0,0,1,.19-.25h9.31a.23.23,0,0,1,.21.24Z"/><path class="cls-15" d="M678.77,448.12v1.66a.63.63,0,0,0,.55.67h7.39a.62.62,0,0,0,.57-.65V448a.81.81,0,0,0,0-.22l-.8-2.84-.69-2.36-.25-4h-5l-.54,4-.55,2.46-.66,3Z"/><path class="cls-26" d="M680.78,446.31h4a51.35,51.35,0,0,1-.9-7.8h-1.95c-.08.74-.19,1.64-.34,2.6Z"/><path class="cls-16" d="M678.42,448.49v1.8a.67.67,0,0,0,.6.75h8a.67.67,0,0,0,.61-.74h0v-1.95a.45.45,0,0,0,0-.23l-.37-1.28a3.31,3.31,0,0,0-2.4-2.42,8.46,8.46,0,0,0-3.68,0,3.36,3.36,0,0,0-2.41,2.6l-.27,1.24a0,0,0,0,0,0,.05A.37.37,0,0,0,678.42,448.49Z"/><path class="cls-6" d="M678.15,450.29a.69.69,0,0,0,.63.74h8.42a.68.68,0,0,0,.66-.72h0v-1.73a.22.22,0,0,0-.2-.25h-9.32a.21.21,0,0,0-.21.21h0Z"/><path class="cls-40" d="M661.88,393.12s-.08,5,1.91,7.85,10.09-7.85,10.09-7.85Z"/><path class="cls-26" d="M669.27,394.39l2.83-19.06L669.56,377a17.43,17.43,0,0,0-7.06,9.29c-.08.24-.16.5-.24.75a15.24,15.24,0,0,0-.55,3.6l-.1,3.7Z"/><path class="cls-26" d="M682,394.39l-2.8-19.06,2.54,1.64a17.57,17.57,0,0,1,7.07,9.29l.24.75a15.21,15.21,0,0,1,.53,3.6l.11,3.7Z"/><path class="cls-41" d="M665.22,410.52l-.15,5.84c-.07,3,1.45,5.52,3.36,5.52h14.45c1.91,0,3.43-2.51,3.36-5.52l-.15-5.84Z"/><path class="cls-16" d="M686.71,411.35,686,386.59a13.11,13.11,0,0,0-2.87-8.11l-.73-.82a8.22,8.22,0,0,0-6.71-3.12h0a8.22,8.22,0,0,0-6.72,3.12l-.7.82a13.14,13.14,0,0,0-2.9,8.11l-.75,24.73Z"/><path class="cls-25" d="M679.34,376.65a9.53,9.53,0,0,1-.32,1.59,3.1,3.1,0,0,1-2.7,2.73h-1.2c-2.37,0-3-3.12-3.08-4.33a1,1,0,0,1,.22-.79.71.71,0,0,1,.38-.23h.06l.47-4.55h5l.47,4.55a.71.71,0,0,1,.49.27A1.07,1.07,0,0,1,679.34,376.65Z"/><path class="cls-28" d="M679.34,376.65a9.53,9.53,0,0,1-.32,1.59c-3.67.09-5.61-1.52-6.47-2.6h.11l.47-4.54h5l.47,4.54a.74.74,0,0,1,.48.28A1,1,0,0,1,679.34,376.65Z"/><path class="cls-25" d="M671.66,367.86a1.77,1.77,0,0,1-1.74,1.78h0a1.76,1.76,0,0,1-1.52-1.78,1.84,1.84,0,0,1,.22-.92,1.53,1.53,0,0,1,1.87-.87,2.09,2.09,0,0,1,.4.19,1.93,1.93,0,0,1,.75,1.14A1.42,1.42,0,0,1,671.66,367.86Z"/><path class="cls-25" d="M683,367.86a1.54,1.54,0,0,1-1.29,1.79h0a1.67,1.67,0,0,1-2-1.23,1.77,1.77,0,0,1,0-.46.2.2,0,0,1,0-.11,1.56,1.56,0,0,1,1.23-1.85h0a1.69,1.69,0,0,1,2,1.17,1.63,1.63,0,0,1,0,.54A.66.66,0,0,1,683,367.86Z"/><path class="cls-29" d="M671.61,367.38c-1.32-.16-2.41-.33-3-.44a1.53,1.53,0,0,1,1.87-.87,1.76,1.76,0,0,1,.39.19A1.91,1.91,0,0,1,671.61,367.38Z"/><path class="cls-30" d="M682.94,367.72a19.15,19.15,0,0,1-3.3.25v-.11a1.56,1.56,0,0,1,1.23-1.85h0a1.69,1.69,0,0,1,2,1.17,1.23,1.23,0,0,1,0,.54Z"/><path class="cls-29" d="M681.62,366.58a8.28,8.28,0,0,1-.07,1.31c-.41,4.45-2.9,7.89-5.89,7.89-3.22,0-5.78-3.83-6-8.67v-.54a12.77,12.77,0,0,1,.9-4.92c1-2.6,2.91-4.28,5-4.28s4.2,1.91,5.22,4.74A13.38,13.38,0,0,1,681.62,366.58Z"/><path class="cls-30" d="M681.62,366.58a8.28,8.28,0,0,1-.07,1.31,59.46,59.46,0,0,1-11.85-.74v-.54a12.86,12.86,0,0,1,.9-4.93l10.25.47A13.67,13.67,0,0,1,681.62,366.58Z"/><path class="cls-18" d="M673.07,414.12l-.9,23.33-.11,3.12h-7.62l-.12-3.12-.8-23.33c0-3.05,2.13-5.53,4.76-5.53s4.75,2.47,4.75,5.52h0Z"/><polygon class="cls-42" points="672.19 437.42 672.08 440.53 664.46 440.53 664.35 437.42 672.19 437.42"/><path class="cls-18" d="M678.23,414.12l.9,23.33.13,3.12h7.58l.09-3.12.81-23.33c0-3.05-2.13-5.53-4.76-5.53s-4.75,2.47-4.76,5.52h0Z"/><polygon class="cls-42" points="679.1 437.42 679.22 440.53 686.84 440.53 686.95 437.42 679.1 437.42"/><path class="cls-39" d="M688,408.11H663.25a1.53,1.53,0,0,1-1.45-1.52l-.9-16.76a1.55,1.55,0,0,1,1.27-1.74h26.92a1.52,1.52,0,0,1,1.4,1.61v.14l-1,16.77A1.52,1.52,0,0,1,688,408.11Z"/><path class="cls-39" d="M689.45,408.63h0a.74.74,0,0,1-.63.86H662.57a.76.76,0,0,1-.74-.78v-.06h0a.74.74,0,0,1,0-.21.77.77,0,0,1,.69-.64h26.19a.79.79,0,0,1,.69.64A.41.41,0,0,1,689.45,408.63Z"/><path class="cls-15" d="M669.6,364.64s-.8-7.28,3.6-8.09h3.12v7.34l-3.79.52Z"/><path class="cls-15" d="M681.7,364.64s.81-7.28-3.6-8.09H675v7.34l3.79.52Z"/><path class="cls-16" d="M676.54,356.31H674.8a3.64,3.64,0,0,0-3.94,3.13l.22,4.86h9.19l.21-4.86A3.64,3.64,0,0,0,676.54,356.31Z"/><path class="cls-18" d="M682.67,366.17a4,4,0,0,0-.81-1.88,1.6,1.6,0,0,0-1.22-.63l-4.5-.3h-.9l-4.5.3a1.65,1.65,0,0,0-1.22.63,4,4,0,0,0-.8,1.88,24.66,24.66,0,0,1,3.72-.61l2.65.09v.05h1.3v-.05l2.64-.09A24.92,24.92,0,0,1,682.67,366.17Z"/><path class="cls-43" d="M682.35,366.58a54,54,0,0,0-13.44,0,.39.39,0,0,1-.4-.38h0a.44.44,0,0,1,.32-.5,54.77,54.77,0,0,1,13.66,0,.44.44,0,0,1,.32.5h0a.38.38,0,0,1-.38.39h-.08Z"/><path class="cls-6" d="M677.27,399V396.8l-1.63-1.05L674,396.8V399l1.61,1Zm-2.34-.61v-.94l.71-.48.72.48v1l-.72.47Z"/><path class="cls-44" d="M689.44,408.42H661.87a.78.78,0,0,1,.7-.64h26.1A.8.8,0,0,1,689.44,408.42Z"/><path class="cls-29" d="M537.49,481.32v1.22a.45.45,0,0,1-.42.49h-5.4a.46.46,0,0,1-.43-.49h0V481l.61-2.07.5-1.74h4.22L537,479l.49,2.14A.83.83,0,0,1,537.49,481.32Z"/><path class="cls-45" d="M537.77,481.62v1.31a.49.49,0,0,1-.44.53h-5.82a.49.49,0,0,1-.46-.53h0V481.5a.49.49,0,0,1,0-.17l.65-2.22a6.23,6.23,0,0,1,5.52.07l.52,2.32h0S537.76,481.58,537.77,481.62Z"/><path class="cls-7" d="M537.77,481.62v1.31a.49.49,0,0,1-.44.53h-5.82a.49.49,0,0,1-.46-.53h0v-1.41h6.71A.31.31,0,0,1,537.77,481.62Z"/><path class="cls-29" d="M539.6,481.32v1.22a.46.46,0,0,0,.43.49h5.4a.44.44,0,0,0,.42-.49h0v-1.33a.43.43,0,0,0,0-.16l-.6-2.08-.49-1.73h-4.22l-.4,1.8-.5,2.14A.74.74,0,0,0,539.6,481.32Z"/><path class="cls-45" d="M539.37,481.62v1.31a.51.51,0,0,0,.46.53h5.82a.48.48,0,0,0,.44-.53h0V481.5a.22.22,0,0,0,0-.16l-.65-2.22a6.14,6.14,0,0,0-5.51.07l-.51,2.31h0A.61.61,0,0,0,539.37,481.62Z"/><path class="cls-7" d="M539.37,481.62v1.31a.51.51,0,0,0,.46.53h5.82a.48.48,0,0,0,.44-.53h0v-1.4h-6.72Z"/><path class="cls-29" d="M553.54,360.35l.42,10.27a85,85,0,0,1-.46,13.63c-.08.53-.15,1.06-.23,1.6-.22,1.52-.62,4.33-2.7,3.62-1.2-.42-1.53-2.08-1.61-3.47a75.45,75.45,0,0,1,0-9.27c.28-5.66,1-11.26,1.61-17a3.78,3.78,0,0,1-.6-1.36,2.17,2.17,0,0,0-.32-.73,3,3,0,0,1-.55-1.74,2.2,2.2,0,0,1,1.4-1.73V350.5s0-1.18.39-1.29.73.3.76,1.48c0,.54.08,1.67.15,2.71a.54.54,0,0,0,.56.53,3.15,3.15,0,0,1,2.53,3.47A3.78,3.78,0,0,1,553.54,360.35Z"/><path class="cls-28" d="M553.5,384.25c-.08.53-.15,1.06-.23,1.6-.22,1.52-.62,4.33-2.7,3.62-1.2-.42-1.53-2.08-1.61-3.47a75.45,75.45,0,0,1,0-9.27A19.48,19.48,0,0,1,553.5,384.25Z"/><path class="cls-29" d="M536.84,393.08s-8.7,15.39-10.73,11.68c-1.47-2.6-2-7.22-2.2-9.76-.08-1.09-.09-1.8-.09-1.8l6-.06Z"/><path class="cls-28" d="M529.82,393.14V396l-6-1c-.08-1.09-.09-1.8-.09-1.8Z"/><polygon class="cls-25" points="541.4 375.96 535.69 375.96 536.05 372.36 536.23 370.62 540.87 370.62 541.2 373.82 541.4 375.96"/><path class="cls-28" d="M541.19,373.82a10,10,0,0,1-5.14-1.48l.18-1.73h4.67Z"/><path class="cls-45" d="M531.16,394.23l1.36-17.58L529.2,379a17.72,17.72,0,0,0-5.4,8.36,13.17,13.17,0,0,0-.56,3.47l-.11,3.55Z"/><path class="cls-45" d="M545.58,391l-1.35-14.33,3.31,1.88c2.56,1.73,8.1,7.67,4.59,11.26C550.53,391.47,547.62,391,545.58,391Z"/><path class="cls-46" d="M548.73,416.87l-.28,6.47-2.35,54.3h-6.82v-51a.83.83,0,0,0-.64-.94.77.77,0,0,0-.81.73h0v51.21H531l-2.45-56.94-.18-3.88Z"/><polygon class="cls-47" points="548.73 416.87 548.45 423.34 528.55 420.74 528.38 416.87 548.73 416.87"/><path class="cls-26" d="M545.88,377.88l-.7-.71a8.65,8.65,0,0,0-6.63-2.67h0a8.7,8.7,0,0,0-6.65,2.67l-.7.71a10.28,10.28,0,0,0-2.85,6.93l-1.18,34.43h22.75l-1.19-34.44A10.38,10.38,0,0,0,545.88,377.88Z"/><path class="cls-45" d="M547.62,404h4.61a1.16,1.16,0,0,1,1,1.24v16.53a1.16,1.16,0,0,1-1,1.24h-4.64a1.16,1.16,0,0,1-1-1.24V405.24A1.16,1.16,0,0,1,547.62,404Z"/><path class="cls-45" d="M532,375.94l1.11-.78a.78.78,0,0,1,1,.15.56.56,0,0,1,.09.17l16.2,31.64a1,1,0,0,1-.27,1.28l-1.12.78a.76.76,0,0,1-1-.15,1,1,0,0,1-.1-.18l-16.2-31.64A1,1,0,0,1,532,375.94Z"/><path class="cls-29" d="M534.88,365.28v.06a1.49,1.49,0,0,1-1.27,1.71,1.54,1.54,0,0,1-1.78-1.22,1.45,1.45,0,0,1,0-.55h0a2.52,2.52,0,0,1,.09-.67,1.56,1.56,0,0,1,1.42-1.25A1.75,1.75,0,0,1,534.88,365.28Z"/><path class="cls-29" d="M545.25,365.28a1.74,1.74,0,0,1-.08.6,1.44,1.44,0,0,1-1.59,1.26h-.22a1.55,1.55,0,0,1-1-1,2.45,2.45,0,0,1-.14-.8,1.73,1.73,0,0,1,1.36-2,1.61,1.61,0,0,1,1.68,1.55v0A2.29,2.29,0,0,1,545.25,365.28Z"/><path class="cls-30" d="M534.88,365.28v.06c-1.2-.25-2.21-.51-3-.74a1.56,1.56,0,0,1,1.42-1.25,1.75,1.75,0,0,1,1.53,1.92Z"/><path class="cls-30" d="M545.25,365.28a1.74,1.74,0,0,1-.08.6,22,22,0,0,1-2.82.19,2.35,2.35,0,0,1-.14-.79,1.74,1.74,0,0,1,1.36-2,1.62,1.62,0,0,1,1.68,1.55v0A2.54,2.54,0,0,1,545.25,365.28Z"/><path class="cls-48" d="M544,364.29a12.47,12.47,0,0,1-.12,1.73c-.51,3.85-2.7,6.74-5.4,6.74-2.9,0-5.27-3.46-5.48-7.79v-.64c0-3.46,1.38-6.5,3.33-7.8a3.71,3.71,0,0,1,4.31,0C542.7,357.79,544,360.79,544,364.29Z"/><path class="cls-49" d="M544,364.29a12.47,12.47,0,0,1-.12,1.73,34.18,34.18,0,0,1-10.8-1v-.6c0-3.47,1.37-6.5,3.32-7.8h4.31C542.7,357.79,544,360.79,544,364.29Z"/><path class="cls-45" d="M544.49,362.58v-.31c0-4.67-2.7-8.46-5.94-8.46s-5.92,3.79-5.92,8.46v.31Z"/><path class="cls-50" d="M533,360.52H544.1a.77.77,0,0,1,.69.8v2a.76.76,0,0,1-.69.81H533a.78.78,0,0,1-.68-.81v-2A.76.76,0,0,1,533,360.52Z"/><line class="cls-51" x1="391.64" y1="483.45" x2="767.4" y2="483.45"/></g></svg>