<svg id="Layer_1" data-name="Layer 1" xmlns="http://www.w3.org/2000/svg" viewBox="0 0 1366 730"><defs><style>.cls-1{fill:#ff9cad;}.cls-2{fill:#ff8799;}.cls-3{fill:#8a57f6;}.cls-4{fill:#fff;}.cls-5{fill:#00bd84;}.cls-6{fill:#4b07d6;}.cls-7{fill:#a130ff;}.cls-8{opacity:0.3;}.cls-9{fill:#f7dbc4;}.cls-10{fill:#00947f;}.cls-11{fill:#ff7c00;}.cls-12{fill:#ffa400;}.cls-13{fill:#d84b2c;}.cls-14{fill:#c3533d;}.cls-15{fill:#b5280d;}.cls-16{fill:#ff4945;}.cls-17{fill:#008be9;}</style></defs><title>ship</title><path class="cls-1" d="M132.17,725.94a55.25,55.25,0,0,1-16.23-12.75c-5-5.67-8.83-12.2-12.63-18.7a1.88,1.88,0,0,0-3.24,1.89c4,6.78,8,13.55,13.22,19.46a57.86,57.86,0,0,0,17,13.33c2.15,1.1,4-2.13,1.9-3.23Z"/><path class="cls-1" d="M114.82,711.86l1.27-6.46a2,2,0,0,0-.19-1.44,1.88,1.88,0,0,0-3.43.45l-1.26,6.45a2,2,0,0,0,.19,1.44,1.87,1.87,0,0,0,3.42-.44Z"/><path class="cls-1" d="M93.45,698.84c4.28,2.16,8.29,4.82,12.58,7a1.92,1.92,0,0,0,2.56-.67,1.89,1.89,0,0,0-.67-2.57c-4.28-2.15-8.3-4.82-12.58-7a1.93,1.93,0,0,0-2.57.68,1.9,1.9,0,0,0,.68,2.56Z"/><path class="cls-1" d="M100,710.78a25.41,25.41,0,0,0,7.23,6.14c2.92,1.66,6.41,2.41,9.56,1a1.89,1.89,0,0,0,.67-2.57,1.91,1.91,0,0,0-2.56-.67c-1.91.88-4.49-.14-6.38-1.31a22.77,22.77,0,0,1-5.87-5.2,1.9,1.9,0,0,0-2.65,0,1.94,1.94,0,0,0,0,2.66Z"/><path class="cls-1" d="M132.22,726.07q-6-27.15-12.1-54.3c-.53-2.36-4.14-1.36-3.62,1q6.06,27.15,12.1,54.31c.53,2.36,4.14,1.36,3.62-1Z"/><path class="cls-1" d="M109.05,675c2.11,3.43,5.9,5.58,9.75,6.5a1.87,1.87,0,1,0,1-3.61c-.46-.12-.92-.24-1.38-.39l-.6-.21-.33-.12-.16-.07-.16-.07-.25-.11-.61-.31a13.24,13.24,0,0,1-1.15-.67l-.49-.33-.26-.19c-.28-.2.21.17,0,0s-.6-.51-.89-.78-.55-.58-.81-.89,0,0,.08.1c0-.08-.12-.16-.18-.24s-.23-.34-.34-.52a1.88,1.88,0,1,0-3.24,1.89Z"/><path class="cls-1" d="M125,700.66a29.38,29.38,0,0,1-6.69-2.59,21.42,21.42,0,0,1-5.28-3.89,1.87,1.87,0,0,0-2.65,2.65A29.67,29.67,0,0,0,124,704.27a1.87,1.87,0,0,0,1-3.61Z"/><path class="cls-1" d="M126.36,697.5c4.68-5,7.18-11.6,5.94-18.44a1.88,1.88,0,0,0-2.3-1.3,1.91,1.91,0,0,0-1.31,2.3c1,5.45-1.28,10.84-5,14.79-1.65,1.76,1,4.41,2.65,2.65Z"/><path class="cls-1" d="M133.72,728.36a59.49,59.49,0,0,0,10.69-31.14c.1-2.42-3.65-2.41-3.75,0a55.77,55.77,0,0,1-10.18,29.24c-1.37,2,1.88,3.88,3.24,1.9Z"/><path class="cls-1" d="M140.83,706.75l-.37-.15.44.18a10.18,10.18,0,0,1-2.28-1.32l.38.29a8.07,8.07,0,0,1-1.47-1.45l.29.38a6.9,6.9,0,0,1-.75-1.25,1.88,1.88,0,0,0-2.57-.67,1.87,1.87,0,0,0-.86,1.12,2.12,2.12,0,0,0,.19,1.44,8.43,8.43,0,0,0,2.2,2.83,12.75,12.75,0,0,0,3.81,2.21,1.83,1.83,0,0,0,1.44-.19,1.87,1.87,0,0,0,.67-2.56,2.14,2.14,0,0,0-1.12-.86Z"/><path class="cls-1" d="M134.18,728.54a74.07,74.07,0,0,0,13.34-12.35,1.92,1.92,0,0,0,0-2.65,1.88,1.88,0,0,0-2.65,0,69.75,69.75,0,0,1-12.58,11.76,1.93,1.93,0,0,0-.67,2.57,1.88,1.88,0,0,0,2.56.67Z"/><path class="cls-1" d="M131.29,726.25a55.93,55.93,0,0,1-22.69-8.47c-2-1.35-3.89,1.9-1.89,3.24a58.67,58.67,0,0,0,23.59,8.85,1.93,1.93,0,0,0,2.3-1.31,1.89,1.89,0,0,0-1.31-2.31Z"/><path class="cls-1" d="M118.13,698.61c0-1.87,0-3.75,0-5.62a1.88,1.88,0,0,0-1.87-1.87,1.91,1.91,0,0,0-1.88,1.87c0,1.87,0,3.75,0,5.62a1.88,1.88,0,1,0,3.75,0Z"/><path class="cls-1" d="M131,691.71l6.69-3.42a1.88,1.88,0,0,0-1.89-3.24l-6.7,3.42a1.9,1.9,0,0,0-.67,2.57,1.93,1.93,0,0,0,2.57.67Z"/><path class="cls-1" d="M144.07,705.56l4.14-3.51a1.88,1.88,0,0,0,.55-1.33,1.88,1.88,0,0,0-1.88-1.87,2,2,0,0,0-1.32.55l-4.15,3.51a1.94,1.94,0,0,0-.54,1.33,1.86,1.86,0,0,0,1.87,1.87,2.09,2.09,0,0,0,1.33-.55Z"/><path class="cls-1" d="M129.6,715.73,135,710a1.87,1.87,0,0,0-2.65-2.65l-5.42,5.77a1.88,1.88,0,0,0,2.66,2.65Z"/><path class="cls-1" d="M104.4,684.59c3.6,4.88,10.39,6.19,16,4.79a1.87,1.87,0,1,0-1-3.61,13.84,13.84,0,0,1-7-.09,10.4,10.4,0,0,1-2.82-1.24,6.39,6.39,0,0,1-1.11-.82c-.19-.18-.38-.37-.56-.56s-.47-.58-.31-.36a1.93,1.93,0,0,0-2.57-.67,1.89,1.89,0,0,0-.67,2.56Z"/><path class="cls-1" d="M127.38,694.56a17.17,17.17,0,0,0,12.72.55,1.92,1.92,0,0,0,1.31-2.31,1.9,1.9,0,0,0-2.3-1.31,15.08,15.08,0,0,1-2.64.69c-.22,0-.24,0-.05,0l-.37,0-.75.06c-.43,0-.87,0-1.31,0s-.87,0-1.31-.09c-.22,0-.24,0-.05,0l-.37-.05-.72-.14a12.35,12.35,0,0,1-1.23-.33c-.23-.07-.45-.14-.68-.23l-.33-.12c.18.07.17.07,0,0a1.93,1.93,0,0,0-2.57.67,1.89,1.89,0,0,0,.68,2.56Z"/><path class="cls-1" d="M142,713.33a32.22,32.22,0,0,0,10.76-5.47,1.88,1.88,0,0,0,0-2.66,1.94,1.94,0,0,0-2.65,0h0l-.25.2-.53.37c-.35.25-.72.49-1.09.72a25.29,25.29,0,0,1-2.33,1.31c-.41.21-.82.4-1.24.59l-.34.15-.65.26c-.88.35-1.78.65-2.68.91a1.88,1.88,0,1,0,1,3.62Z"/><path class="cls-1" d="M92.54,713.39c3,3,7.81,3.68,11.78,2.58a1.88,1.88,0,0,0-1-3.62,10.58,10.58,0,0,1-1.38.3c.39-.06-.18,0-.21,0l-.72,0q-.63,0-1.26,0l-.36,0q.3,0,0,0l-.61-.12a10.52,10.52,0,0,1-1.22-.34l-.46-.18c.39.16-.22-.11-.29-.15a7.51,7.51,0,0,1-.94-.56l-.25-.17c.18.14.19.14,0,0l-.43-.39a1.9,1.9,0,0,0-2.65,0,1.91,1.91,0,0,0,0,2.65Z"/><path class="cls-1" d="M117.54,709.29c2,2.77,5.68,3.59,8.87,2.79a1.88,1.88,0,0,0-1-3.62,7.43,7.43,0,0,1-.82.16l.5-.06a8.7,8.7,0,0,1-2,0l.5.06a6.53,6.53,0,0,1-1.15-.24c-.17,0-.35-.14-.52-.18.13,0,.37.16.1,0a.9.9,0,0,1-.24-.12c-.16-.08-.31-.17-.46-.26l-.16-.12c-.3-.2.25.22.1.08s-.25-.21-.36-.33l-.16-.18c-.22-.23.26.37.07.09a2.06,2.06,0,0,0-1.13-.86,1.91,1.91,0,0,0-1.44.19,1.89,1.89,0,0,0-.67,2.56Z"/><path class="cls-1" d="M88.62,700.11a14.49,14.49,0,0,0,5.47,4.22,9,9,0,0,0,7-.09,1.88,1.88,0,0,0,.67-2.56,1.91,1.91,0,0,0-2.56-.67c.15-.07.21-.08,0,0l-.3.1-.31.08-.22.05-.15,0-.33,0H97.3l-.33,0c-.17,0-.35-.06-.08,0l-.65-.13-.63-.18-.3-.11c-.34-.11.13.08-.06,0a10.74,10.74,0,0,1-1.2-.66l-.29-.19-.14-.11-.21-.17-.24-.21a22.16,22.16,0,0,1-1.9-2,1.88,1.88,0,0,0-2.65,0,1.91,1.91,0,0,0,0,2.65Z"/><path class="cls-2" d="M399.63,650.94a7.16,7.16,0,0,1-2,3.68,5.77,5.77,0,0,1-4.31,1.06c-2.65-.17-6.47-1-8.45,1.38a1.28,1.28,0,0,0,0,1.77,1.26,1.26,0,0,0,1.76,0c.8-1,2.37-1,3.51-.93a30.35,30.35,0,0,0,5.47.21,7.08,7.08,0,0,0,4.17-2.08,10.51,10.51,0,0,0,2.25-4.42c.47-1.54-2-2.2-2.41-.67Z"/><path class="cls-2" d="M402.57,652.8c0,1.57-1.26,2.79-2.37,3.74-1.33,1.12-2.84,2-4.22,3.07-2.53,1.95-5.31,5.38-3.07,8.6.91,1.32,3.08.07,2.16-1.26-1.89-2.72,2.38-5.37,4.21-6.65,2.54-1.77,5.82-4,5.79-7.5a1.25,1.25,0,0,0-2.5,0Z"/><path class="cls-2" d="M403.49,665.68c-1.31-2.16.86-4.58,2.08-6.24,1.51-2.06,3-4.64,2-7.26a1.28,1.28,0,0,0-1.54-.87,1.26,1.26,0,0,0-.87,1.54c1,2.47-1.44,4.84-2.75,6.7-1.52,2.17-2.58,4.92-1.08,7.39a1.25,1.25,0,0,0,2.16-1.26Z"/><path class="cls-2" d="M409.68,652.37c-1.69,2.75-3.43,5.61-3.79,8.88a9,9,0,0,0,2.93,7.65c1.19,1.07,3-.69,1.76-1.77a6.6,6.6,0,0,1-2.17-6c.4-2.76,2-5.21,3.43-7.53.84-1.37-1.32-2.63-2.16-1.26Z"/><path class="cls-2" d="M412.38,653.05c-1.68,5.26.68,10.71,4.78,14.13a1.29,1.29,0,0,0,1.77,0,1.26,1.26,0,0,0,0-1.77c-3.45-2.87-5.57-7.23-4.14-11.7.49-1.54-1.92-2.19-2.41-.66Z"/><path class="cls-1" d="M419.37,645.58c-.42-2.77-3.07-5.12-6.73-6.07h0a16.62,16.62,0,0,0-10.94,1.56,12.5,12.5,0,0,0-6.39,7.76,2,2,0,0,0,.47,2c1.33,1.43,3.78.89,5.69.31-.1,1.1,1,2.2,2.51,2.48a4.07,4.07,0,0,0,3.87-1.29,3.37,3.37,0,0,0,2.26,1.83,2.92,2.92,0,0,0,3-.83c.18.84,1.5,1.4,2.68,1.28a3.77,3.77,0,0,0,2.69-1.54,5.21,5.21,0,0,0,.76-2.48A19,19,0,0,0,419.37,645.58Z"/><path d="M411.93,648.8a3.8,3.8,0,0,0,2.61,2.35,5.4,5.4,0,0,0,3.65-.28,1.24,1.24,0,0,0,.45-1.71,1.25,1.25,0,0,0-.75-.58,1.46,1.46,0,0,0-1,.13c.37-.17.06,0,0,0l-.2.06a4,4,0,0,1-.5.09l.33,0a4.5,4.5,0,0,1-1.1,0l.34.05a4.32,4.32,0,0,1-.71-.17c-.09,0-.26-.14,0,0a.75.75,0,0,0-.13-.06,3.37,3.37,0,0,1-.32-.19s-.13-.07-.14-.1.25.21.08.06-.14-.15-.22-.23.18.28.07.09l-.08-.12s-.07-.11-.06-.13.12.35,0,.09a1.25,1.25,0,0,0-2.41.67Z"/><path d="M412.32,647.78a1.88,1.88,0,0,0,0-3.75,1.88,1.88,0,0,0,0,3.75Z"/><path class="cls-3" d="M155.05,519.16c-2.19.58-4.56,1.58-4.86,3.24-.25,1.38,1.17,2.7,2.93,3.32a19,19,0,0,0,5.73.72,38.27,38.27,0,0,1,7.8,1.48l13.73-10.65C171.84,517.13,163.05,517,155.05,519.16Z"/><path class="cls-3" d="M200,533.81c-2,2.26-4.19,4.72-4,7.41a2.81,2.81,0,0,0,1.88,2.49,5.62,5.62,0,0,0,3.67-.35,13.91,13.91,0,0,0,5.69-4.12,24.71,24.71,0,0,0,3.23-5.38Z"/><path class="cls-3" d="M148.51,552.31c-8.61.37-15.95,6.36-15.31,12.51a52.25,52.25,0,0,0,17.38-7.25c.28,5.33,5,10.41,11.81,12.63,2.28-5.49-.42-11.87-6.57-15.55,5.75-8.95,18.2-15,31.4-17.83s22.31-2.73,36.09-2.52c2.7,0,5.6.06,7.86-1s3.3-3.64,1.3-4.94c-2.82-1.82-2.17-1-5.13-2.68-1.73-1-2.6-1.44-3-3-.71-2.82-3.23-5.31-6.49-7a31.33,31.33,0,0,0-11.16-2.93c-14.49-1.37-29,4.13-38.63,12s-15.2,17.81-19.89,27.7"/><path class="cls-4" d="M153.11,523.31l4.56-1.22a1.25,1.25,0,1,0-.66-2.41l-4.57,1.22a1.25,1.25,0,0,0,.67,2.41Z"/><path class="cls-4" d="M177.67,522.21a44.54,44.54,0,0,1,16.52-6c1.58-.26.91-2.67-.67-2.41a46.5,46.5,0,0,0-17.12,6.25c-1.36.85-.1,3,1.27,2.16Z"/><path class="cls-3" d="M188.88,530.72c-9.82,3-16.32,10.84-15.43,18.47a1.07,1.07,0,0,0,.71,1,2,2,0,0,0,1.11-.08c10.58-2.77,18.93-9.53,21.45-17.38"/><path d="M218.47,528.1a20.41,20.41,0,0,0,5.66,2.87,23.39,23.39,0,0,0,8.45,1.34c1.61,0,1.61-2.55,0-2.5a20.66,20.66,0,0,1-12.85-3.87,1.25,1.25,0,0,0-1.71.45,1.29,1.29,0,0,0,.45,1.71Z"/><path d="M213.88,525.66H214a1.41,1.41,0,0,0,.72-.16,1.72,1.72,0,0,0,1-1,1.41,1.41,0,0,0,.16-.72l-.07-.5a1.87,1.87,0,0,0-.48-.83l-.38-.29a1.85,1.85,0,0,0-.94-.26h-.09a1.43,1.43,0,0,0-.73.17,1.37,1.37,0,0,0-.6.38,1.46,1.46,0,0,0-.39.61,1.36,1.36,0,0,0-.16.72l.07.5a1.84,1.84,0,0,0,.48.82l.38.3a1.85,1.85,0,0,0,.95.25Z"/><path d="M189,529.64c-7.81,2.75-15.8,8.63-17.57,17.2-.39,1.91-.58,4.23,1.87,4.64a9.22,9.22,0,0,0,3.45-.42c1.21-.27,2.41-.61,3.59-1a32.74,32.74,0,0,0,11.43-6.54,20.2,20.2,0,0,0,6.54-10.85c.3-1.57-2.11-2.24-2.41-.66-1.32,6.79-7.14,11.65-13.15,14.42a32.46,32.46,0,0,1-5.51,1.94,22.89,22.89,0,0,1-2.73.6s-.87.13-.92,0c.12.21-.06-1.6.06-.32a4.77,4.77,0,0,1,.19-1.18,17.68,17.68,0,0,1,4.76-8.57,28.13,28.13,0,0,1,11.06-6.89c1.51-.54.86-2.95-.66-2.41Z"/><path d="M196.8,536.84a52.43,52.43,0,0,1,16.8-1.11c1.61.15,1.6-2.35,0-2.5a54.61,54.61,0,0,0-17.47,1.2c-1.56.36-.9,2.78.67,2.41Z"/><path class="cls-5" d="M421.89,688.37a43.84,43.84,0,0,1,31.5-6.1c1.25.28,1.35,1.18.2,1.85-7.81,4.57-26.42,7.18-31.7,4.25"/><path class="cls-5" d="M402.42,701.21c12-5.37,23.05-13.47,30.47-24.42a51.18,51.18,0,0,0,4.75-8.8c.62-1.48-1.8-2.13-2.41-.66-6.22,14.75-19.81,25.32-34.08,31.72-1.46.65-.19,2.81,1.27,2.16Z"/><path class="cls-5" d="M426.07,683.36c8.26-2.75,15-7.76,18.51-13.77a19.75,19.75,0,0,0,.71-19.09c-11.18,5.86-20.72,17-19.22,32.86"/><path class="cls-5" d="M413.24,693.43a15.51,15.51,0,0,0,7-11.2,16.75,16.75,0,0,0-4.77-12.73c-4.9,5.14-7.42,13.58-2.24,23.93"/><path class="cls-5" d="M109.32,658.79a24.11,24.11,0,0,0,9.69-8.58,13.26,13.26,0,0,0,2.18-8.85c-.13-.77-1.13-1-2.08-.4-6.44,3.85-12.31,14.29-9.79,17.83"/><path class="cls-5" d="M93.4,669.76c11.92-9.16,27-13.87,41.84-15,1.59-.12,1.61-2.62,0-2.5-15.29,1.14-30.84,5.9-43.1,15.32-1.26,1,0,3.14,1.26,2.16Z"/><path class="cls-5" d="M115.69,657.13c4.43-4.39,11.2-7.54,18.61-8.65A41.79,41.79,0,0,1,156.2,651c-8.42,5.6-22.59,9.44-40.51,6.09"/><path class="cls-5" d="M102.19,663.05a26.27,26.27,0,0,1,13.89-2.35,29.13,29.13,0,0,1,13.79,4.76c-6.63,2.06-16.66,2.22-27.68-2.41"/><path class="cls-5" d="M331.22,728.42c2.46-4.66,9.66-8.1,16.6-8.43-1.15,2.26-3.68,4.06-6.54,5.33a62.06,62.06,0,0,1-9.73,3.25"/><path class="cls-5" d="M93.15,727c-6.37-2-10.79-7.33-10.87-12.3a14.18,14.18,0,0,1,7.09,5,31.78,31.78,0,0,1,4,7.12"/><path class="cls-4" d="M346.06,664.43a1.48,1.48,0,0,1,0,.21c0-.28,0-.06,0,0l-.06.2c-.05.17.09-.18,0,0s-.15.27-.24.41c0,0,.15-.17,0,0l-.23.24-.17.15s.17-.11,0,0l-.41.25s-.45.21-.28.14a4.21,4.21,0,0,1-.63.2,5.12,5.12,0,0,1-2.13.06,4.39,4.39,0,0,1-.52-.13c-.08,0-.47-.17-.31-.1l-.45-.23-.25-.16c-.07,0-.21-.16-.08-.05-.13-.11-.25-.23-.37-.35s-.16-.21-.07-.08,0-.07-.06-.1-.21-.47-.13-.21l-.06-.2c0-.07,0-.37,0-.07v-.42c0,.29,0-.08.06-.17s0,0,0,0a1,1,0,0,1,.12-.23,1.08,1.08,0,0,1,.11-.18c.07-.12-.12.11,0,0l.36-.36c.14-.13-.14.1,0,0a2.2,2.2,0,0,1,.25-.17c.14-.09.29-.16.43-.24l0,0,.38-.13.52-.14.27,0c-.16,0,.07,0,.09,0a5.57,5.57,0,0,1,1.29,0c-.17,0,.11,0,.15,0l.33.08a4.21,4.21,0,0,1,.63.2l.05,0a2.57,2.57,0,0,1,.33.18l.21.12s.31.24.13.09a4.89,4.89,0,0,1,.4.39s.13.19,0,0c.06.09.12.18.17.27a1,1,0,0,1,.14.56,1.28,1.28,0,0,0,1.25,1.25,1.26,1.26,0,0,0,1.25-1.25c-.05-2.19-1.9-3.73-3.9-4.24a7,7,0,0,0-6.26,1.32,3.84,3.84,0,0,0-.43,5.39,6.55,6.55,0,0,0,6,1.9c2.25-.33,4.53-1.92,4.58-4.37a1.26,1.26,0,0,0-1.25-1.25A1.27,1.27,0,0,0,346.06,664.43Z"/><path class="cls-4" d="M174.4,670.61a1.48,1.48,0,0,0,0,.21c0-.27,0-.05,0,0l-.06.2c0,.18.1-.17,0,0a3.38,3.38,0,0,1-.24.41c0-.05.16-.16,0,0a2.61,2.61,0,0,1-.23.24.8.8,0,0,1-.17.15l0,0a3.45,3.45,0,0,1-.41.25s-.45.21-.27.14a5.17,5.17,0,0,1-.63.21,5.34,5.34,0,0,1-2.14.06,5,5,0,0,1-.52-.14c-.07,0-.46-.17-.31-.1a3.68,3.68,0,0,1-.44-.23l-.26-.16c-.07,0-.21-.16-.08,0a4,4,0,0,1-.36-.35s-.17-.2-.08-.08,0-.06,0-.09-.21-.47-.13-.22a1.52,1.52,0,0,1-.06-.2c0-.07-.05-.36,0-.07a2.94,2.94,0,0,1,0-.42c0,.29,0-.07,0-.17s0-.05,0,0L168,670a1.74,1.74,0,0,0,.11-.18c.07-.11-.12.12,0-.05s.23-.24.36-.35-.14.09,0,0l.25-.17.44-.23s.21-.09.05,0l.37-.13a4.94,4.94,0,0,1,.52-.13l.27-.05h.09a7.06,7.06,0,0,1,1.3,0c-.18,0,.11,0,.15,0l.33.08a5.1,5.1,0,0,1,.63.2c-.17-.06,0,0,0,0l.33.17a1.37,1.37,0,0,1,.2.13s.31.23.13.08c.14.12.27.26.4.39s.14.19,0,0a1.78,1.78,0,0,1,.17.27,1.11,1.11,0,0,1,.15.55,1.25,1.25,0,0,0,2.5,0c-.05-2.19-1.91-3.73-3.91-4.24a7,7,0,0,0-6.26,1.33,3.82,3.82,0,0,0-.42,5.38,6.59,6.59,0,0,0,6,1.91c2.24-.34,4.52-1.92,4.58-4.38a1.25,1.25,0,0,0-2.5,0Z"/><ellipse class="cls-4" cx="355.17" cy="659.4" rx="2.26" ry="1.61"/><ellipse class="cls-4" cx="151.43" cy="642.26" rx="2.26" ry="1.61"/><ellipse class="cls-4" cx="399.53" cy="685.07" rx="2.26" ry="1.61"/><ellipse class="cls-4" cx="181.09" cy="687.29" rx="2.26" ry="1.61"/><path class="cls-4" d="M378.43,651.73c2.16,0,3.92,1.26,3.92,2.8s-1.76,2.8-3.92,2.8-3.92-1.25-3.92-2.8S376.26,651.73,378.43,651.73Z"/><path class="cls-4" d="M155.1,664c2.16,0,3.92,1.26,3.92,2.81s-1.76,2.8-3.92,2.8-3.92-1.26-3.92-2.8S152.93,664,155.1,664Z"/><ellipse class="cls-4" cx="431.36" cy="647.39" rx="2.82" ry="2.02"/><ellipse class="cls-4" cx="368.74" cy="705.74" rx="2.82" ry="2.02"/><ellipse class="cls-4" cx="428.53" cy="641.02" rx="1.41" ry="1.01"/><path class="cls-4" d="M391,678.71c0,.55-.63,1-1.4,1s-1.41-.45-1.41-1,.63-1,1.41-1S391,678.15,391,678.71Z"/><ellipse class="cls-4" cx="189.41" cy="653.53" rx="1.41" ry="1"/><ellipse class="cls-4" cx="193.48" cy="689.1" rx="1.41" ry="1"/><path class="cls-6" d="M168.25,684.14c13.55-6.8,30.8-8.7,47.35-8.51s33,2.3,49.49,2.69c30.69.72,61-4.46,91.64-6.15,4.75-.26,9.62-.43,14.17.56s8.79,3.38,10,6.67c1.35,3.74-1.39,7.57-4.4,10.77-16.45,17.49-44.28,29.26-73.65,31.15s-59.69-6.14-80.24-21.25c-4.93-3.62-9.32-7.62-14.73-10.87s-12.11-5.75-19.18-5.61c0,0-13.34-.9-17.54,5"/><path class="cls-6" d="M174,684.11l-1.23-2.25c-10.05-7.68-29.11-6-35.72-4.27-1.69.43-2.24,1.93-1.08,2.91,7,5.89,18.55,7.56,27.78,6.69a28.54,28.54,0,0,0-4.89,16.17c0,1.73,2.53,2.87,4.74,2.18C170.43,703.4,177.38,694.2,174,684.11Z"/><path class="cls-6" d="M223.27,667.16a4.67,4.67,0,0,0-2.73-.24,2.17,2.17,0,0,0-1.37,2.34,12.42,12.42,0,0,0,4,8.54l19,1.31C237.84,673.84,231.12,669.59,223.27,667.16Z"/><path class="cls-6" d="M295.85,716.36l-10.8,7.88c-1.14.83-2.36,2-1.6,3s2.61,1,4.11.82c12.43-1.28,24.13-5.9,32.27-12.74Z"/><path d="M328.3,684.2c1.09-.47,2.75.11,2.91,1S330,687,328.73,686.7s-1.73-1.53-.89-2.22"/><path class="cls-7" d="M364.27,684.2c-9.53.35-18.48,3.38-26.59,7S322,699,313.59,702.23s-18,5.35-27.49,4.31-17.64-5.11-26.6-7.5a76.48,76.48,0,0,0-38.28,0c.45.35.91.69,1.37,1,20.55,15.11,50.87,23.14,80.24,21.25,28.12-1.81,54.82-12.67,71.48-29a30.63,30.63,0,0,0,4.13-4.47C375.31,685.35,369,684,364.27,684.2Z"/><path class="cls-4" d="M222.9,698.53c17.77,12.78,39.86,19.21,61.51,20.79a130.17,130.17,0,0,0,65-11.79,92.24,92.24,0,0,0,27.37-19.3c1.11-1.16-.66-2.93-1.77-1.77-14,14.75-33.67,23.57-53.34,27.82a133,133,0,0,1-66.14-2.78,106.23,106.23,0,0,1-31.42-15.13c-1.31-.94-2.56,1.23-1.26,2.16Z"/><path d="M336.61,688.42c7.36-1.17,14.41-3.73,21.75-5,6.6-1.11,14.29-1.22,20.11,2.59,1.35.89,2.6-1.28,1.26-2.16-6-3.92-13.77-4-20.61-3.06C351.27,682,343.78,684.76,336,686c-1.58.25-.91,2.66.66,2.41Z"/><path d="M336.27,683.86a3.8,3.8,0,0,0-1.86,2.41,3.38,3.38,0,0,0,0,1.61,3.46,3.46,0,0,0,.83,1.42,1.26,1.26,0,0,0,1.77,0,1.28,1.28,0,0,0,0-1.77l-.15-.17.19.25a2.43,2.43,0,0,1-.29-.49l.13.3a2.11,2.11,0,0,1-.14-.49l.05.33a2.44,2.44,0,0,1,0-.54l-.05.34a2.31,2.31,0,0,1,.15-.53l-.13.29a2.82,2.82,0,0,1,.31-.53l-.19.25a3,3,0,0,1,.5-.5l-.25.2a4,4,0,0,1,.34-.23,1.25,1.25,0,1,0-1.26-2.15Z"/><g class="cls-8"><path class="cls-9" d="M261.11,684.34a1.33,1.33,0,0,0-1.45-.6c-.53.13-.89.55-.8.94a1.13,1.13,0,0,0,1.21.66C260.62,685.29,261.26,684.88,261.11,684.34Z"/></g><g class="cls-8"><path class="cls-9" d="M273.43,686a1.33,1.33,0,0,0-1.45-.6c-.53.13-.89.55-.8.94a1.13,1.13,0,0,0,1.21.66C272.94,687,273.58,686.58,273.43,686Z"/></g><g class="cls-8"><path class="cls-9" d="M267.65,681.86a1.34,1.34,0,0,0-1.45-.6c-.53.14-.89.55-.8,1a1.14,1.14,0,0,0,1.21.66C267.16,682.82,267.79,682.4,267.65,681.86Z"/></g><g class="cls-8"><path class="cls-9" d="M287.69,681.39a1.33,1.33,0,0,0-1.45-.6c-.52.13-.89.55-.8.94a1.13,1.13,0,0,0,1.21.66C287.21,682.34,287.84,681.93,287.69,681.39Z"/></g><g class="cls-8"><path class="cls-9" d="M310.51,679.68a1.33,1.33,0,0,0-1.45-.6c-.53.13-.9.55-.8.94a1.13,1.13,0,0,0,1.21.66C310,680.63,310.65,680.22,310.51,679.68Z"/></g><g class="cls-8"><path class="cls-9" d="M282.3,683.84a1.34,1.34,0,0,0-1.45-.6c-.53.14-.9.56-.8,1a1.13,1.13,0,0,0,1.21.66C281.81,684.8,282.44,684.39,282.3,683.84Z"/></g><g class="cls-8"><path class="cls-9" d="M299.72,682.62a1.35,1.35,0,0,0-1.45-.6c-.53.13-.9.55-.8,1a1.13,1.13,0,0,0,1.2.66C299.23,683.58,299.86,683.16,299.72,682.62Z"/></g><g class="cls-8"><path class="cls-9" d="M308,684.51a2.31,2.31,0,0,0-2.49-1c-.92.23-1.55.95-1.39,1.63a2,2,0,0,0,2.09,1.14C307.13,686.16,308.21,685.45,308,684.51Z"/></g><g class="cls-8"><path class="cls-9" d="M274.89,682.81a.88.88,0,0,0-.94-.39c-.34.09-.58.36-.52.62a.74.74,0,0,0,.78.42C274.57,683.43,275,683.16,274.89,682.81Z"/></g><g class="cls-8"><path class="cls-9" d="M291,685.92a.88.88,0,0,0-.94-.39c-.34.09-.58.36-.52.62a.75.75,0,0,0,.79.42C290.7,686.54,291.1,686.27,291,685.92Z"/></g><g class="cls-8"><path class="cls-9" d="M304.16,679.75a.87.87,0,0,0-.94-.38c-.34.08-.58.35-.52.61a.73.73,0,0,0,.78.42C303.84,680.37,304.25,680.1,304.16,679.75Z"/></g><g class="cls-8"><path class="cls-9" d="M316.14,683.64a.87.87,0,0,0-.94-.38c-.34.08-.58.35-.52.61a.74.74,0,0,0,.79.42C315.83,684.26,316.23,684,316.14,683.64Z"/></g><path class="cls-4" d="M236.47,698.33c15.53,10,34.27,14.85,52.62,15.63a109.45,109.45,0,0,0,54-11.32A76.3,76.3,0,0,0,365.32,686c1.08-1.19-.69-3-1.77-1.76-11.25,12.48-27.2,20.19-43.33,24.15a112.89,112.89,0,0,1-55.39-.59,93.51,93.51,0,0,1-27.1-11.65c-1.36-.87-2.61,1.29-1.26,2.16Z"/><path class="cls-4" d="M293.66,708.68c15.17,0,30.78-3.69,43.73-11.74a58.56,58.56,0,0,0,9.26-7.09c1.17-1.11-.6-2.88-1.77-1.77-10.3,9.74-24.36,15.08-38.21,17.17a85.8,85.8,0,0,1-13,.93,1.25,1.25,0,0,0,0,2.5Z"/><path class="cls-4" d="M143.16,680.63a36.29,36.29,0,0,1,16,.07c1.57.36,2.24-2.05.67-2.41a39.27,39.27,0,0,0-17.36-.07c-1.57.35-.91,2.76.66,2.41Z"/><path class="cls-6" d="M281.07,699.57a158.12,158.12,0,0,0-29,10.92,15.7,15.7,0,0,0-4.82,3.22c-1.16,1.34-1.53,3.15-.35,4.48a6.73,6.73,0,0,0,4.3,1.77,20.51,20.51,0,0,0,5.07-.33,124.81,124.81,0,0,0,13.21-3,264.23,264.23,0,0,0,33.87-11.83Z"/><path class="cls-4" d="M220,669.72a9.26,9.26,0,0,0,2.84,6,1.22,1.22,0,0,0,1,.13,1.26,1.26,0,0,0,.74-.58,1.24,1.24,0,0,0,.13-1,1.48,1.48,0,0,0-.58-.75c.45.34.07,0,0-.09l-.09-.11c-.11-.14.21.27.09.11l-.17-.24a10.83,10.83,0,0,1-.74-1.23l-.17-.34c0-.1-.22-.56-.07-.15-.08-.23-.18-.46-.25-.7a5.78,5.78,0,0,1-.17-.69c0-.22,0,.32,0,.12s0-.11,0-.16,0-.23,0-.35a1.26,1.26,0,0,0-1.25-1.25,1.28,1.28,0,0,0-1.25,1.25Z"/><path class="cls-7" d="M206.11,696.82A7.07,7.07,0,0,0,202,694.6a15.74,15.74,0,0,0-5.26,0c-2.07.31-5,1.5-6.08,2.77v.06c3.71,2.49,9.47,3.28,14.2,1.94a3,3,0,0,0,1.51-.79A1.37,1.37,0,0,0,206.11,696.82Z"/><path class="cls-7" d="M191.59,697.23a5.68,5.68,0,0,0-4.19-2.9,3.08,3.08,0,0,0-2.5.35c-.58.53-.25,1.36.46,1.81a7.15,7.15,0,0,0,2.57.76,4.3,4.3,0,0,0-2.06,1.89c-.13.27-.2.6.07.81a1.53,1.53,0,0,0,1.2.07,9.13,9.13,0,0,0,5-2.85Z"/><path d="M202.51,698.25a1.25,1.25,0,0,0,0-2.5,1.25,1.25,0,0,0,0,2.5Z"/><path class="cls-7" d="M197.33,699.6a2.11,2.11,0,0,0,2,1.15,2.09,2.09,0,0,0,2-1.16"/><path class="cls-7" d="M201.26,694.75a7.5,7.5,0,0,0-4.35-1.64,1.75,1.75,0,0,0-1,.16.57.57,0,0,0-.26.66,1.73,1.73,0,0,0,.41.66"/><path class="cls-7" d="M374.45,665.54a6,6,0,0,0-3.49-1.87,13,13,0,0,0-4.44,0,10,10,0,0,0-5.13,2.33v0a15.27,15.27,0,0,0,12,1.64,2.64,2.64,0,0,0,1.28-.66A1.17,1.17,0,0,0,374.45,665.54Z"/><path class="cls-7" d="M362.2,665.88a4.83,4.83,0,0,0-3.54-2.44,2.58,2.58,0,0,0-2.11.3c-.48.45-.21,1.14.39,1.52a5.73,5.73,0,0,0,2.17.64,3.65,3.65,0,0,0-1.74,1.6c-.11.23-.17.51.06.68a1.33,1.33,0,0,0,1,.07,7.73,7.73,0,0,0,4.25-2.41Z"/><path d="M371.41,666.94a1.25,1.25,0,0,0,0-2.5,1.25,1.25,0,0,0,0,2.5Z"/><path class="cls-7" d="M367.05,667.89a2,2,0,0,0,3.38,0"/><path class="cls-7" d="M370.36,663.8a6.29,6.29,0,0,0-3.67-1.39,1.52,1.52,0,0,0-.86.13.51.51,0,0,0-.22.56,1.87,1.87,0,0,0,.35.56"/><path class="cls-10" d="M397.52,693.84A6,6,0,0,0,394,692a13.17,13.17,0,0,0-4.43,0,10,10,0,0,0-5.13,2.34v.05a15.22,15.22,0,0,0,12,1.63,2.45,2.45,0,0,0,1.27-.66A1.14,1.14,0,0,0,397.52,693.84Z"/><path class="cls-10" d="M385.27,694.18a4.83,4.83,0,0,0-3.54-2.44,2.53,2.53,0,0,0-2.11.3c-.49.44-.21,1.14.38,1.52a6.23,6.23,0,0,0,2.18.64,3.6,3.6,0,0,0-1.74,1.6c-.11.23-.17.51.06.68a1.29,1.29,0,0,0,1,.06,7.76,7.76,0,0,0,4.25-2.4Z"/><path d="M394.48,695.24a1.25,1.25,0,0,0,0-2.5,1.25,1.25,0,0,0,0,2.5Z"/><path class="cls-10" d="M390.11,696.19a1.79,1.79,0,0,0,1.7,1,1.75,1.75,0,0,0,1.69-1"/><path class="cls-10" d="M393.43,692.1a6.3,6.3,0,0,0-3.68-1.39,1.49,1.49,0,0,0-.85.13.51.51,0,0,0-.22.56,1.54,1.54,0,0,0,.35.56"/><path class="cls-6" d="M180,647.92a6,6,0,0,0-3.49-1.87,13,13,0,0,0-4.44,0,10,10,0,0,0-5.13,2.34v0a15.3,15.3,0,0,0,12,1.63,2.56,2.56,0,0,0,1.28-.66A1.17,1.17,0,0,0,180,647.92Z"/><path class="cls-6" d="M167.76,648.27a4.84,4.84,0,0,0-3.54-2.45,2.62,2.62,0,0,0-2.11.3c-.48.45-.21,1.15.39,1.52a5.92,5.92,0,0,0,2.17.65,3.6,3.6,0,0,0-1.74,1.6.52.52,0,0,0,.06.68,1.33,1.33,0,0,0,1,.06,7.73,7.73,0,0,0,4.25-2.41Z"/><path d="M177,649.33a1.25,1.25,0,0,0,0-2.5,1.25,1.25,0,0,0,0,2.5Z"/><path class="cls-6" d="M172.61,650.27a2,2,0,0,0,3.38,0"/><path class="cls-6" d="M175.92,646.18a6.35,6.35,0,0,0-3.67-1.38,1.52,1.52,0,0,0-.86.13.5.5,0,0,0-.22.56,1.56,1.56,0,0,0,.35.55"/><path class="cls-1" d="M209.39,663.62a6,6,0,0,0-3.5-1.87,13.23,13.23,0,0,0-4.44,0,10,10,0,0,0-5.12,2.34v.05a15.2,15.2,0,0,0,12,1.63,2.45,2.45,0,0,0,1.28-.66A1.16,1.16,0,0,0,209.39,663.62Z"/><path class="cls-1" d="M197.13,664a4.79,4.79,0,0,0-3.53-2.44,2.53,2.53,0,0,0-2.11.3c-.49.44-.21,1.14.38,1.52a6.11,6.11,0,0,0,2.18.64,3.63,3.63,0,0,0-1.75,1.6c-.11.23-.17.51.06.68a1.31,1.31,0,0,0,1,.06,7.79,7.79,0,0,0,4.25-2.4Z"/><path d="M206.35,665a1.25,1.25,0,0,0,0-2.5,1.25,1.25,0,0,0,0,2.5Z"/><path class="cls-1" d="M202,666a1.79,1.79,0,0,0,1.7,1,1.76,1.76,0,0,0,1.69-1"/><path class="cls-1" d="M205.3,661.88a6.32,6.32,0,0,0-3.68-1.39,1.48,1.48,0,0,0-.85.13.49.49,0,0,0-.22.56,1.65,1.65,0,0,0,.34.56"/><path class="cls-11" d="M276.3,670.51a6,6,0,0,0-3.5-1.87,13,13,0,0,0-4.44,0,10,10,0,0,0-5.12,2.34v0a15.28,15.28,0,0,0,12,1.63,2.56,2.56,0,0,0,1.28-.66A1.18,1.18,0,0,0,276.3,670.51Z"/><path class="cls-11" d="M264,670.86a4.81,4.81,0,0,0-3.54-2.45,2.58,2.58,0,0,0-2.11.3c-.48.45-.2,1.14.39,1.52a5.92,5.92,0,0,0,2.18.65,3.61,3.61,0,0,0-1.75,1.59c-.11.23-.17.51.06.68a1.35,1.35,0,0,0,1,.07,7.8,7.8,0,0,0,4.25-2.41Z"/><path d="M273.26,671.91a1.25,1.25,0,0,0,0-2.5,1.25,1.25,0,0,0,0,2.5Z"/><path class="cls-11" d="M268.89,672.86a2,2,0,0,0,3.39,0"/><path class="cls-11" d="M272.21,668.77a6.25,6.25,0,0,0-3.68-1.38,1.48,1.48,0,0,0-.85.12.49.49,0,0,0-.22.57,1.53,1.53,0,0,0,.34.55"/><path class="cls-12" d="M270,723.74a6,6,0,0,0-3.5-1.87,13,13,0,0,0-4.44,0,10,10,0,0,0-5.12,2.33v.06a15.28,15.28,0,0,0,12,1.63,2.64,2.64,0,0,0,1.28-.66A1.18,1.18,0,0,0,270,723.74Z"/><path class="cls-12" d="M257.69,724.09a4.81,4.81,0,0,0-3.54-2.45,2.58,2.58,0,0,0-2.11.3c-.48.45-.2,1.14.39,1.52a5.73,5.73,0,0,0,2.18.64,3.63,3.63,0,0,0-1.75,1.6c-.11.23-.17.51.06.68a1.35,1.35,0,0,0,1,.07,7.8,7.8,0,0,0,4.25-2.41Z"/><path d="M266.91,725.14a1.25,1.25,0,0,0,0-2.5,1.25,1.25,0,0,0,0,2.5Z"/><path class="cls-12" d="M262.54,726.09a2,2,0,0,0,3.39,0"/><path class="cls-12" d="M265.86,722a6.32,6.32,0,0,0-3.68-1.39,1.56,1.56,0,0,0-.85.13.49.49,0,0,0-.22.57,1.53,1.53,0,0,0,.34.55"/><path class="cls-12" d="M454.46,666.2a6,6,0,0,0-3.5-1.87,12.92,12.92,0,0,0-4.43,0,10,10,0,0,0-5.13,2.34v.05a15.3,15.3,0,0,0,12,1.63,2.53,2.53,0,0,0,1.27-.66A1.16,1.16,0,0,0,454.46,666.2Z"/><path class="cls-12" d="M442.21,666.55a4.84,4.84,0,0,0-3.54-2.45,2.61,2.61,0,0,0-2.11.3c-.49.45-.21,1.14.38,1.52a6,6,0,0,0,2.18.65,3.55,3.55,0,0,0-1.74,1.6c-.11.22-.17.5.06.67a1.28,1.28,0,0,0,1,.07,7.77,7.77,0,0,0,4.25-2.41Z"/><path d="M451.42,667.6a1.25,1.25,0,0,0,0-2.5,1.25,1.25,0,0,0,0,2.5Z"/><path class="cls-12" d="M447.05,668.55a1.77,1.77,0,0,0,1.7,1,1.75,1.75,0,0,0,1.69-1"/><path class="cls-12" d="M450.37,664.46a6.29,6.29,0,0,0-3.68-1.38,1.41,1.41,0,0,0-.85.13.5.5,0,0,0-.22.56,1.43,1.43,0,0,0,.35.55"/><path class="cls-12" d="M101.89,682.64a6,6,0,0,0-3.5-1.87,13,13,0,0,0-4.44,0,10,10,0,0,0-5.12,2.34v0a15.28,15.28,0,0,0,12,1.63,2.56,2.56,0,0,0,1.28-.66A1.18,1.18,0,0,0,101.89,682.64Z"/><path class="cls-12" d="M89.63,683a4.84,4.84,0,0,0-3.54-2.45,2.58,2.58,0,0,0-2.11.3c-.48.45-.2,1.14.39,1.52a5.92,5.92,0,0,0,2.17.65,3.6,3.6,0,0,0-1.74,1.6c-.11.22-.17.5.06.67a1.35,1.35,0,0,0,1,.07,7.74,7.74,0,0,0,4.24-2.41Z"/><path d="M98.85,684a1.25,1.25,0,0,0,0-2.5,1.25,1.25,0,0,0,0,2.5Z"/><path class="cls-12" d="M94.48,685a2,2,0,0,0,3.39,0"/><path class="cls-12" d="M97.8,680.9a6.25,6.25,0,0,0-3.68-1.38,1.44,1.44,0,0,0-.86.13.48.48,0,0,0-.21.56,1.53,1.53,0,0,0,.34.55"/><path class="cls-11" d="M352.43,711.68a7.58,7.58,0,0,0-4.38-2.34,16.41,16.41,0,0,0-5.55,0c-2.18.32-5.21,1.58-6.41,2.92v.07c3.91,2.63,10,3.46,15,2a3.18,3.18,0,0,0,1.6-.83A1.46,1.46,0,0,0,352.43,711.68Z"/><path class="cls-11" d="M337.1,712.11a6,6,0,0,0-4.42-3.06,3.25,3.25,0,0,0-2.64.38c-.61.56-.26,1.43.48,1.9a7.46,7.46,0,0,0,2.72.81,4.51,4.51,0,0,0-2.18,2c-.14.28-.21.63.08.84a1.65,1.65,0,0,0,1.27.09,9.75,9.75,0,0,0,5.31-3Z"/><path d="M348.62,713.12a1.25,1.25,0,0,0,0-2.5,1.25,1.25,0,0,0,0,2.5Z"/><path class="cls-11" d="M343.16,714.62a2.23,2.23,0,0,0,2.13,1.21,2.2,2.2,0,0,0,2.11-1.22"/><path class="cls-11" d="M347.31,709.5a7.9,7.9,0,0,0-4.6-1.73,1.94,1.94,0,0,0-1.06.16.64.64,0,0,0-.28.71,2,2,0,0,0,.43.69"/><path class="cls-10" d="M356.12,603.25a10.62,10.62,0,0,0-3.1,2.06c-.26.26-.48.66-.14.87a1.37,1.37,0,0,0,.71.09,43.46,43.46,0,0,0,9.87-1.81Z"/><path class="cls-10" d="M362.52,604.74a11.17,11.17,0,0,0-5.62,4.3,2.06,2.06,0,0,0-.24,2.32c.52.72,2.19,1,2.75.27-.16.77.66,1.58,1.74,1.72a2.35,2.35,0,0,0,2.48-1.17c-.13.91,1.64,1.44,2.78,1a3.92,3.92,0,0,0,2.14-2.19,4.62,4.62,0,0,1,1.89-2.33,8.91,8.91,0,0,1,3.88-.56,54.56,54.56,0,0,0,22.11-4.72c6.55-3,11.87-7.38,15.16-12.43l.5-.65.15,0c2.35.2,4.41,1,6.69.5a10.45,10.45,0,0,0,5.69-2.85,7.77,7.77,0,0,0,1.81-6.67,6,6,0,0,0-1.94-3.36,11.21,11.21,0,0,0-6.64-2.47A16.88,16.88,0,0,0,408,578a8.62,8.62,0,0,0-4.2,6.86,5,5,0,0,1-.11,1.54,1.79,1.79,0,0,1-1.31,1.16"/><path class="cls-11" d="M396.43,586.12a48.43,48.43,0,0,0-23.51,4.32,69.62,69.62,0,0,0-11.58,7.47l-6,4.49a.56.56,0,0,0-.25.57.81.81,0,0,0,.66.55,47.81,47.81,0,0,0,16.92.36,83.16,83.16,0,0,0,16.54-4.41c5.34-1.94,10.8-4.41,13-8.45a3.14,3.14,0,0,0,.44-1.66C402.47,587,399.21,586.3,396.43,586.12Z"/><path d="M364.58,613.05a8,8,0,0,1,.46-1.51l-.12.3a8.54,8.54,0,0,1,1-1.79,1.25,1.25,0,0,0-.45-1.72,1.24,1.24,0,0,0-1-.12,1.42,1.42,0,0,0-.75.57,9.41,9.41,0,0,0-1.61,3.61,1.29,1.29,0,0,0,.13,1,1.23,1.23,0,0,0,1.71.45,1.23,1.23,0,0,0,.57-.75Z"/><path d="M360,612.4c0-.1.07-.2.12-.3l-.13.3a5.64,5.64,0,0,1,.74-1.25l-.2.26a6.57,6.57,0,0,1,.61-.68,1.25,1.25,0,0,0,.36-.88,1.29,1.29,0,0,0-.36-.89,1.27,1.27,0,0,0-.89-.36,1.31,1.31,0,0,0-.88.36,7.25,7.25,0,0,0-1.78,2.78,1.29,1.29,0,0,0,.12,1,1.25,1.25,0,0,0,1.72.45,1.39,1.39,0,0,0,.57-.75Z"/><path class="cls-13" d="M355.82,604.18c9.45.35,19-.23,28.1-3.07,7.05-2.22,15-5.61,18.84-12.31a1.25,1.25,0,0,0-2.16-1.26c-3.67,6.34-11.48,9.39-18.14,11.4-8.62,2.6-17.69,3.07-26.64,2.74-1.61-.06-1.61,2.44,0,2.5Z"/><path class="cls-13" d="M379.24,591.55a1.65,1.65,0,0,1,.32-.18l-.3.13a2.83,2.83,0,0,1,.63-.18l-.33,0a3.14,3.14,0,0,1,.81,0l-.33,0a2.55,2.55,0,0,1,.67.18l-.3-.13a1.9,1.9,0,0,1,.39.23l-.26-.2a1.54,1.54,0,0,1,.26.25l-.2-.25a1,1,0,0,1,.16.28l-.12-.3a1.34,1.34,0,0,1,.07.27l0-.33a1.6,1.6,0,0,1,0,.31l.05-.34a1.58,1.58,0,0,1-.09.31l.13-.3a1.28,1.28,0,0,1-.15.25l.2-.25-.28.28.25-.2a1.87,1.87,0,0,1-.39.22l.3-.13a2.33,2.33,0,0,1-.64.17l.34,0a3.66,3.66,0,0,1-.81,0l.33,0a2.42,2.42,0,0,1-.64-.17l.3.13a1.79,1.79,0,0,1-.38-.22l.25.19a1.44,1.44,0,0,1-.28-.27l.19.25a2,2,0,0,1-.14-.25l.12.3a1.57,1.57,0,0,1-.08-.31l0,.34a1.06,1.06,0,0,1,0-.31l-.05.33a1.38,1.38,0,0,1,.08-.27l-.13.3a1.31,1.31,0,0,1,.17-.28l-.2.25a2,2,0,0,1,.25-.25l-.25.19,0,0a1.36,1.36,0,0,0,.58-.75,1.29,1.29,0,0,0-.13-1,1.24,1.24,0,0,0-.74-.57,1.22,1.22,0,0,0-1,.12,3.12,3.12,0,0,0-.8.82,2.71,2.71,0,0,0-.22.49,1.12,1.12,0,0,0-.08.26,2.72,2.72,0,0,0,0,1.1,2.48,2.48,0,0,0,.43.86,3,3,0,0,0,1.5,1,5.13,5.13,0,0,0,.87.16,2.91,2.91,0,0,0,.59,0,3.83,3.83,0,0,0,1.64-.47,2.65,2.65,0,0,0,1.2-1.51,2.42,2.42,0,0,0-.24-1.86,2.49,2.49,0,0,0-.67-.74,3.08,3.08,0,0,0-.84-.45,2.33,2.33,0,0,0-.64-.17,3.85,3.85,0,0,0-1-.06,3.7,3.7,0,0,0-1.77.54,1.25,1.25,0,0,0-.44,1.71,1.21,1.21,0,0,0,.74.57,1.31,1.31,0,0,0,1-.12Z"/><path class="cls-13" d="M373.35,596.15a3.79,3.79,0,0,1,.34-.2,1,1,0,0,0,.18-.09c-.25.17-.17.07,0,0a2.64,2.64,0,0,1,.4-.12c.16,0,.34,0,.49-.11-.3.11-.17,0,0,0l.22,0h.45l.44,0c.27,0-.31,0-.05,0l.29.05.41.11.2.07c.13,0,.21.15,0,0,.1.07.24.11.35.18l.17.11-.09-.07.12.1.15.15c.1.11.09.21,0,0a3.87,3.87,0,0,0,.21.34c.11.22-.1-.29,0-.06a1.8,1.8,0,0,1,.05.19c0,.12,0,.27,0-.09,0,.09,0,.17,0,.26a1.09,1.09,0,0,0,0,.18c0-.32,0-.22,0-.08a1.21,1.21,0,0,1,0,.18c-.05.15-.13.16,0-.05a1.45,1.45,0,0,0-.2.34l.11-.14-.09.1-.2.21-.06,0c-.1.09-.07.07.08-.05-.05,0-.12.08-.17.1a3.9,3.9,0,0,1-.35.19c-.23.12.29-.1.05,0l-.2.07a4.27,4.27,0,0,1-.48.13l-.22,0c-.26.05.32,0,.05,0l-.44,0h-.45l-.22,0c-.35,0,.19,0,0,0a5.93,5.93,0,0,1-.83-.21c-.11,0-.24-.16,0,0l-.19-.09a2.22,2.22,0,0,0-.39-.23l.13.1-.11-.1-.21-.2,0-.05.07.09c0-.08-.11-.16-.14-.23s-.06-.24,0,.06c0-.08-.06-.16-.08-.24a1.29,1.29,0,0,0,0-.19q0,.35,0,.15a.53.53,0,0,1,0-.13c0-.06,0-.12,0-.18,0-.22-.07.34,0,0l.06-.19c.05-.2-.15.3,0,0l.1-.17c.18-.28-.14.13,0,0l.15-.15c.06-.06.33-.27,0,0a1.38,1.38,0,0,0,.58-.74,1.32,1.32,0,0,0-.13-1A1.26,1.26,0,0,0,372,594a3.56,3.56,0,0,0-1.53,2.25,3.34,3.34,0,0,0,.64,2.66,5.19,5.19,0,0,0,4.57,1.73c1.78-.15,3.64-1,4.19-2.85a3.35,3.35,0,0,0-.33-2.59,4.16,4.16,0,0,0-2.14-1.71,5.92,5.92,0,0,0-2.64-.38,5.71,5.71,0,0,0-2.7.84,1.25,1.25,0,0,0,1.26,2.16Z"/><path class="cls-13" d="M383.7,588.09c.59,3,4.19,4.3,6.89,4a7,7,0,0,0,4.17-1.72,4.29,4.29,0,0,0,1.31-4,1.26,1.26,0,0,0-1.54-.87,1.28,1.28,0,0,0-.87,1.54c.06.3,0-.14,0,.17a2.09,2.09,0,0,1,0,.25c0-.22,0,.16-.05.17s-.11.31-.07.22a2.55,2.55,0,0,1-.77.91,4.63,4.63,0,0,1-2.5.82,5.06,5.06,0,0,1-2.8-.55,3.11,3.11,0,0,1-1-.78c-.24-.28.08.15-.12-.16l-.15-.28c-.09-.17.05.24,0-.1l-.09-.35a1.25,1.25,0,0,0-1.53-.87,1.27,1.27,0,0,0-.88,1.54Z"/><path class="cls-13" d="M386.25,598.74v-.36c0-.23,0,.06,0-.08l.09-.34c0-.07.11-.26,0-.1a4.48,4.48,0,0,1,.35-.6c0-.07,0-.07,0,0l.09-.1.27-.3a4.18,4.18,0,0,1,1.11-.76l.11-.05c-.16.07.15-.06.19-.07a5.58,5.58,0,0,1,.58-.18l.57-.14.35-.06c.39-.08-.23,0,.16,0a10.31,10.31,0,0,1,1.36,0l.31,0c.09,0,.27,0,.08,0,.21,0,.42.08.63.13l.27.08c.08,0,.3.14.1,0a3,3,0,0,1,.54.32,1.26,1.26,0,0,0,1.71-.45,1.29,1.29,0,0,0-.45-1.71c-1.77-1.29-4.53-1.1-6.52-.5-2.32.7-4.53,2.69-4.44,5.3a1.25,1.25,0,0,0,2.5,0Z"/><path class="cls-13" d="M359.35,600.8c2,1.11,4.71.61,6.62-.39a4.74,4.74,0,0,0,2.33-2.63,4.64,4.64,0,0,0-.55-3.5,1.25,1.25,0,0,0-1.71-.44,1.28,1.28,0,0,0-.45,1.71l.15.31c-.11-.24,0,0,0,.1a4.31,4.31,0,0,1,.19.61s0,.09,0,.14c0-.17,0-.21,0-.11a1.13,1.13,0,0,0,0,.26c0,.1,0,.06,0-.11l0,.14a2.76,2.76,0,0,1-.08.27c0,.08,0,.06,0-.07l-.08.14a3.87,3.87,0,0,1-.21.34c.11-.16,0,0-.06.06l-.2.2c-.05,0-.28.22,0,0l-.25.17a5.45,5.45,0,0,1-.53.29s-.36.14-.1,0l-.3.11c-.22.08-.43.14-.65.2l-.56.13c-.12,0-.28,0-.06,0l-.31,0a3.69,3.69,0,0,1-1.24,0c.3.1,0,0-.11,0l-.27-.07-.15,0c.17,0-.13-.06-.17-.09a1.25,1.25,0,1,0-1.26,2.16Z"/><path d="M414,579.62h-.05a2.1,2.1,0,0,0-1.32.54,1.33,1.33,0,0,0-.39.61,1.36,1.36,0,0,0-.16.72l.06.5a1.86,1.86,0,0,0,.49.83l.37.29a2,2,0,0,0,.95.26H414a1.53,1.53,0,0,0,.73-.16,1.72,1.72,0,0,0,1-1,1.53,1.53,0,0,0,.16-.73l-.07-.5a1.9,1.9,0,0,0-.48-.82l-.38-.3a1.85,1.85,0,0,0-.95-.25Z"/><path d="M417.47,583.88a12.85,12.85,0,0,0,9.06-.07,1.29,1.29,0,0,0,.87-1.54,1.26,1.26,0,0,0-1.54-.87,10.53,10.53,0,0,1-7.73.07,1.25,1.25,0,0,0-.66,2.41Z"/><path class="cls-4" d="M372,609.43c13.95,0,29.3-4.53,38.42-15.67,1-1.24-.75-3-1.77-1.77-8.73,10.66-23.29,15-36.65,14.94a1.25,1.25,0,0,0,0,2.5Z"/><path class="cls-10" d="M407.57,600.2a15.71,15.71,0,0,0-4.29-3.89l-6.92,2.55a2.59,2.59,0,0,1-.61,3.58c-2.2,1.81-6.53,1.46-8.91,3.15a2.85,2.85,0,0,0-.59,4.41,2.49,2.49,0,0,0-1.81.63,3.08,3.08,0,0,0-.83,1.37,2.74,2.74,0,0,0,.93,3.46c1.33.81,3.34.57,5,.2a43.69,43.69,0,0,0,14.65-6.06c1.91-1.27,3.69-2.76,4.3-4.57A5.42,5.42,0,0,0,407.57,600.2Z"/><path d="M401.82,605.82l-.32.13,0,0-.08,0-.27.21,0,0a1.76,1.76,0,0,0-.24.3l0,.06c0,.1-.09.21-.13.32s0,0,0,0a1.49,1.49,0,0,0,0,.17s0,.12,0,.18v.06s0,.15,0,.17a1.41,1.41,0,0,0,0,.18s0,0,0,0h0a2.85,2.85,0,0,0,.12.31l.13.18a2.09,2.09,0,0,0,.14.17l0,0,.27.21.06,0,.33.14h0a1.7,1.7,0,0,0,.31.06c.11,0,.21,0,.32,0l.4-.06h.08l.22-.09.22-.1,0,0a2.88,2.88,0,0,0,.27-.22l.06-.05.21-.27,0,0s0,0,0,0a3.09,3.09,0,0,0,.14-.32.13.13,0,0,0,0-.06c0-.12,0-.24.05-.36v0c0-.06,0-.16,0-.18s0-.12,0-.17v-.06a1.44,1.44,0,0,0-.07-.16l-.07-.17,0,0a2.78,2.78,0,0,0-.21-.27l-.05-.06a2.28,2.28,0,0,0-.39-.28l-.37-.15-.09,0h-.05l-.37-.05h-.1l-.26,0-.25,0a.94.94,0,0,0-.43.23,1,1,0,0,0-.32.35,1,1,0,0,0-.15.46.94.94,0,0,0,0,.5l.13.3a1.21,1.21,0,0,0,.45.45l.3.13a1.23,1.23,0,0,0,.66,0l.09,0-.33,0h.23l-.33,0,.2,0-.3-.12.12.07-.25-.2.07.07-.19-.25a.43.43,0,0,1,0,.07l-.13-.3a.24.24,0,0,1,0,.08l0-.33v.07l0-.33a.19.19,0,0,1,0,.08l.13-.29a.56.56,0,0,1-.05.08l.19-.25-.08.08.26-.2-.11.06.3-.13-.16,0,.33,0h-.2l.33,0a.7.7,0,0,1-.19-.06l.3.13-.11-.06.26.19-.07-.06.19.25,0-.06.13.3a.14.14,0,0,1,0-.06l0,.33v-.08l0,.33a.19.19,0,0,1,0-.07l-.13.3a.22.22,0,0,1,.05-.08l-.2.25.07-.06-.25.19.1-.06-.3.13h0a1,1,0,0,0,.42-.23.93.93,0,0,0,.33-.35.86.86,0,0,0,.14-.46.94.94,0,0,0,0-.5l-.12-.3a1.29,1.29,0,0,0-.45-.45l-.3-.12a1.27,1.27,0,0,0-.67,0Z"/><path d="M404.44,603.3l-.07,0h0l-.33.14-.05,0-.15.12-.16.12,0,0a3.4,3.4,0,0,0-.23.3v0h0c0,.09-.09.22-.12.31s0,0,0,.05a1.55,1.55,0,0,0,0,.77v0l.13.31h0v0l.2.26.05,0,.26.2,0,0,0,0,.31.13.06,0h.06l.36,0h.16l.39,0,.06,0a1.55,1.55,0,0,0,.4-.17,1,1,0,0,0,.17-.12l.16-.13h0l.2-.26v0a2.88,2.88,0,0,0,.13-.31h0a1.2,1.2,0,0,0,.05-.38v0s0-.3,0-.34h0a1.4,1.4,0,0,0-.36-.64l-.05,0-.28-.21,0,0-.07,0-.33-.14h-.08l-.36,0h-.11l-.35,0h-.05a2.52,2.52,0,0,0-.33.14.84.84,0,0,0-.35.32,1,1,0,0,0-.23.42,1,1,0,0,0,0,.5,1,1,0,0,0,.15.47l.19.25a1.23,1.23,0,0,0,.55.32l.34,0a1.29,1.29,0,0,0,.63-.17h0l-.3.13.09,0-.33.05h.12l-.33,0,.12,0-.3-.13a.41.41,0,0,1,.11.07l-.25-.2.06.06-.19-.25,0,.05-.13-.3,0,.05-.05-.33v0l.05-.34,0,0,.13-.3,0,0,.2-.25a.1.1,0,0,1-.05,0l.26-.19-.09,0,.29-.12-.15,0,.33,0h-.18l.33,0a.35.35,0,0,1-.14,0l.3.12-.08,0,.26.19,0,0,.19.25,0-.05.13.3a.17.17,0,0,1,0-.05l.05.33a.09.09,0,0,1,0-.07l-.05.33a.14.14,0,0,1,0-.06l-.13.29.05-.07-.2.25.08-.08-.25.2a.21.21,0,0,1,.1-.06l-.3.12.11,0a.93.93,0,0,0,.43-.22,1.07,1.07,0,0,0,.32-.35,1,1,0,0,0,.15-.47,1,1,0,0,0,0-.5l-.13-.29a1.21,1.21,0,0,0-.45-.45l-.3-.13a1.23,1.23,0,0,0-.66,0Z"/><path d="M387,609.06c-.07,0-.4-.25-.34-.2-.1-.12-.12-.13-.06,0a2.39,2.39,0,0,1-.13-.21c.13.24-.07-.37,0-.06a2.16,2.16,0,0,1,0-.36c0,.23.08-.22.1-.28-.07.17.16-.23.19-.27s.24-.22.29-.26l.25-.18a15.1,15.1,0,0,1,5-1.58,10.39,10.39,0,0,0,5.1-2.21,3.37,3.37,0,0,0,.41-4.78A1.25,1.25,0,0,0,396,600.4c-.07-.08.18.36.1.16,0,.15,0,.16,0,0a1.13,1.13,0,0,1,0,.26c0-.27-.14.32-.06.14a3.37,3.37,0,0,1-.2.36,4,4,0,0,1-1.84,1.18c-1.77.65-3.68.85-5.48,1.39-1.62.48-3.52,1.28-4.29,2.9a3.25,3.25,0,0,0,1.43,4.39,1.28,1.28,0,0,0,1.71-.45,1.25,1.25,0,0,0-.45-1.71Z"/><path d="M386.49,608.87a9.26,9.26,0,0,0-2.77,1.61,4.28,4.28,0,0,0-1.45,2.35,4,4,0,0,0,3.22,4.42,9.48,9.48,0,0,0,4-.21,1.25,1.25,0,0,0-.66-2.41l-.84.17c-.05,0-.51.09-.2,0a3.15,3.15,0,0,1-.43,0,6.17,6.17,0,0,1-.86,0l-.21,0c.16,0,.17,0,0,0l-.39-.09a1.14,1.14,0,0,1-.34-.12c.16.07.18.08.06,0l-.15-.07-.28-.18.07.05-.12-.1a2.18,2.18,0,0,1-.21-.22c-.09-.1-.07-.07.05.08l-.08-.12-.15-.25c-.1-.19.1.29,0,0,0-.08,0-.17-.08-.26s0,.33,0,0a2.53,2.53,0,0,0,0-.27c0,.22,0,.26,0,.13l0-.14s0-.09,0-.14,0-.09,0,.09a1.22,1.22,0,0,0,.14-.28l.18-.26c.07-.11.06-.09-.05.06l.11-.13a5.44,5.44,0,0,1,.49-.47c.11-.09.09-.08,0,0l.14-.11a3.28,3.28,0,0,1,.31-.2,5.32,5.32,0,0,1,.66-.37l.35-.17c.12-.05.11-.05,0,0l.18-.07a1.28,1.28,0,0,0,.87-1.54,1.26,1.26,0,0,0-1.54-.87Z"/><path d="M122.44,541.68c4.1.18,8.86,1.82,11,5.57a1.26,1.26,0,0,0,2.28-.3c1.52-4.11,6.05-6.37,10.07-7.26,1.57-.34.91-2.75-.66-2.41-5,1.09-10,4-11.82,9l2.29-.3c-2.62-4.54-8.2-6.59-13.19-6.81-1.61-.07-1.61,2.43,0,2.5Z"/><path d="M130.33,529.91a6.33,6.33,0,0,1,2.61.65,5,5,0,0,1,1,.63,4.78,4.78,0,0,1,.45.45,2.12,2.12,0,0,1,.26.4,1.26,1.26,0,0,0,2.28-.3c.14-.37,0,.09.05-.11l.15-.29a2.45,2.45,0,0,1,.27-.39,5.29,5.29,0,0,1,.85-.81A7,7,0,0,1,140.9,529a1.26,1.26,0,0,0,.87-1.54,1.28,1.28,0,0,0-1.54-.87,7.65,7.65,0,0,0-5.73,4.48l2.29-.3c-1.29-2.23-4-3.25-6.46-3.36a1.26,1.26,0,0,0-1.25,1.25,1.28,1.28,0,0,0,1.25,1.25Z"/><path d="M312.46,542.93c2.52.11,5.49,1.11,6.82,3.42a1.27,1.27,0,0,0,2.29-.3c.94-2.53,3.81-3.89,6.27-4.43,1.57-.35.91-2.76-.66-2.41-3.41.74-6.77,2.79-8,6.18l2.28-.3c-1.78-3.1-5.57-4.51-9-4.66-1.61-.07-1.61,2.43,0,2.5Z"/><path class="cls-14" d="M266.78,515.87c-3.87.31-7.69.94-11.58,1.07s-8-.3-11.15-1.91l-.92,15.88s7.53,2.3,14.65,1.12,13.19-1.62,20.48-.29v-15A30.13,30.13,0,0,0,266.78,515.87Z"/><path class="cls-14" d="M254.67,525.47q6,.79,11.82,1.95"/><path d="M254.67,526.72q5.78.78,11.49,1.91a1.29,1.29,0,0,0,1.54-.88,1.25,1.25,0,0,0-.88-1.53c-4-.8-8.08-1.45-12.15-2a1.26,1.26,0,0,0-1.25,1.25,1.28,1.28,0,0,0,1.25,1.25Z"/><path class="cls-14" d="M255.85,528.59l10-4"/><path d="M256.19,529.8l10-4a1.29,1.29,0,0,0,.87-1.53,1.26,1.26,0,0,0-1.54-.88l-10,4a1.29,1.29,0,0,0-.87,1.53,1.26,1.26,0,0,0,1.54.88Z"/><path class="cls-14" d="M259.68,519.12a3.4,3.4,0,0,0-3,1.72,2.12,2.12,0,0,0,1.27,2.6,4.58,4.58,0,0,0,3.85,0,2.13,2.13,0,0,0,1.28-2.6,3.4,3.4,0,0,0-3-1.73"/><path d="M259.68,517.87a4.72,4.72,0,0,0-4.08,2.3,3.34,3.34,0,0,0,1.62,4.3,5.72,5.72,0,0,0,4.65.3,3.59,3.59,0,0,0,2.5-3.94c-.38-1.91-2.55-2.85-4.29-3a1.26,1.26,0,0,0-1.25,1.25,1.28,1.28,0,0,0,1.25,1.25l.21,0c.24,0,0,0,0,0l.4.08.39.13c.09,0,.17,0,0,0a.7.7,0,0,1,.21.11l.32.2c.15.08-.16-.15,0,0l.13.11.16.16c-.18-.17.16.2.12.21s-.08-.27,0-.08l0,.16c.06.17-.08,0,0-.1a.85.85,0,0,0,0,.16s0,.15,0,.16.08-.31,0-.1c0,.05,0,.11-.05.15-.05.22.1-.14,0,0s-.12.2-.17.29.15-.16,0,0l-.13.13-.13.12c-.1.11.07,0,.07,0s-.34.21-.42.26-.21.12,0,0l-.17.06a3,3,0,0,1-.37.11c-.08,0-.32.11-.39.08s.31,0,0,0h-.25a2.68,2.68,0,0,1-.75,0l-.15,0-.46-.13c-.06,0-.23-.06,0,0l-.16-.08a3.79,3.79,0,0,1-.34-.2s-.15-.12,0,0,0,0-.05,0L258,522c-.16-.17,0-.06,0,0s-.15-.24-.18-.29c-.13-.21,0,.06,0,.07a.6.6,0,0,1-.05-.16,1.13,1.13,0,0,0,0-.15c.08,0,0,.28,0,.09v-.15c0-.25-.08.25,0,0a.53.53,0,0,0,0-.12c0-.13-.12.22,0,0l.08-.14a.61.61,0,0,1,.07-.1c.05-.08,0-.05-.07.09,0,0,.24-.24.27-.28s-.18.13,0,0l.19-.13.42-.22s-.21.07-.07,0l.23-.08a4.6,4.6,0,0,1,.5-.13c.06,0,.24,0,0,0l.32,0a1.25,1.25,0,0,0,0-2.5Z"/><path class="cls-15" d="M230.66,542.17V626c0,3.21,5,3.22,5,0V542.17c0-3.22-5-3.22-5,0Z"/><path class="cls-15" d="M276.32,513.88V637.13c0,3.22,5,3.22,5,0V513.88c0-3.22-5-3.23-5,0Z"/><path class="cls-14" d="M223.24,646.77a17.65,17.65,0,0,1,1.09,5.91c3.46,1.07,7,2.05,10.58,2.84,23,5.07,77.94,5.57,100.29-2.8l1.59-.59,2.94-16.3,31.59-16.12-2-1.85-53.9,6.34s-.93,12.09-15.53,11.9c-12.05-.16-17.28-11.21-17.28-11.21L247,624.2v-7.59l-48.65-4.22s-.79,5.46,3.31,12.5S220.94,640.74,223.24,646.77Z"/><ellipse class="cls-14" cx="243.53" cy="641.42" rx="7.27" ry="5.19"/><path class="cls-15" d="M248.3,641.42s0,.34,0,.33.15-.6,0-.09c0,.1-.07.22-.09.32,0,.3.25-.38.06-.14s-.24.63-.38.66.41-.45.06-.09c-.12.13-.24.26-.37.38l-.28.25c.07-.06.44-.3.06,0l-.66.41c-.15.07-.83.36-.33.17-.33.12-.67.24-1,.33l-.42.09s-.71.13-.33.07-.16,0-.24,0l-.46,0c-.35,0-.7,0-1,0l-.46,0c.45.05-.05,0-.21-.06a7.37,7.37,0,0,1-.84-.21c-.19-.06-.86-.34-.38-.12-.25-.11-.48-.23-.72-.36l-.41-.26c-.25-.16-.26-.22,0,0-.2-.19-.4-.37-.59-.57-.41-.41.14.31-.14-.18l-.21-.37c-.2-.34.11.14.06.14a1.65,1.65,0,0,1-.1-.32l0-.16c-.05-.27-.05-.21,0,.17a4.85,4.85,0,0,1,0-.66c.12,0-.13.55,0,.17,0-.1.06-.22.08-.32.11-.49,0,.17-.07.13s.16-.32.19-.37.14-.19.19-.29-.34.34,0,0,.41-.37.58-.57-.36.2-.06,0c.13-.07.26-.19.4-.27s.46-.26.69-.38.43-.15,0,0c.2-.07.39-.15.6-.21a7.37,7.37,0,0,1,.84-.21l.43-.08c-.47.09-.1,0,0,0a11.23,11.23,0,0,1,2.09,0c-.51-.06,0,0,.11,0l.53.12c.35.09.68.22,1,.33-.46-.16-.14-.06,0,0l.53.28.33.21c.13.08.51.45.1,0l.65.63c.25.25,0-.06-.06-.09.09,0,.23.36.27.43a2.09,2.09,0,0,1,.15.3s-.16-.56-.05-.05l.1.4c-.05,0-.05-.65,0,0a2.5,2.5,0,0,0,5,0c-.09-3.75-3.21-6.42-6.64-7.3a11.72,11.72,0,0,0-10.55,2.27,6.65,6.65,0,0,0-.68,9.35c2.41,2.9,6.58,3.73,10.15,3.19,3.83-.58,7.62-3.35,7.72-7.51a2.52,2.52,0,0,0-2.5-2.5A2.55,2.55,0,0,0,248.3,641.42Z"/><ellipse class="cls-14" cx="275.21" cy="641.42" rx="7.27" ry="5.19"/><path class="cls-15" d="M280,641.42s0,.34,0,.33.16-.6,0-.09c0,.1-.08.22-.1.32,0,.3.25-.38.07-.14s-.25.63-.39.66.41-.45.07-.09l-.38.38L279,643c.07-.06.44-.3.06,0-.22.14-.43.28-.66.41s-.82.36-.33.17c-.33.12-.66.24-1,.33l-.42.09s-.7.13-.33.07-.16,0-.23,0l-.46,0c-.36,0-.71,0-1.06,0l-.45,0c.44.05-.05,0-.22-.06a7.93,7.93,0,0,1-.84-.21c-.18-.06-.86-.34-.38-.12-.24-.11-.48-.23-.71-.36l-.41-.26c-.25-.16-.27-.22,0,0-.2-.19-.4-.37-.59-.57-.41-.41.14.31-.14-.18l-.2-.37c-.21-.34.1.14,0,.14a2.85,2.85,0,0,1-.1-.32l0-.16c-.05-.27-.05-.21,0,.17a4.85,4.85,0,0,1,0-.66c.12,0-.13.55,0,.17l.09-.32c.11-.49-.06.17-.08.13s.17-.32.2-.37.13-.19.18-.29-.33.34,0,0a7.8,7.8,0,0,0,.58-.57c.22-.24-.36.2-.06,0,.14-.07.27-.19.4-.27a7.8,7.8,0,0,1,.7-.38c.1,0,.42-.15,0,0l.6-.21a7.93,7.93,0,0,1,.84-.21l.44-.08c-.47.09-.1,0,0,0a11.23,11.23,0,0,1,2.09,0c-.51-.06,0,0,.11,0l.53.12c.35.09.68.22,1,.33-.46-.16-.14-.06,0,0s.36.18.53.28l.33.21c.13.08.51.45.1,0l.66.63c.24.25,0-.06-.07-.09.09,0,.23.36.27.43s.17.28.15.3-.16-.56,0-.05l.1.4c-.05,0-.05-.65,0,0a2.5,2.5,0,0,0,5,0c-.08-3.75-3.2-6.42-6.64-7.3a11.71,11.71,0,0,0-10.54,2.27,6.64,6.64,0,0,0-.68,9.35c2.4,2.9,6.58,3.73,10.14,3.19,3.83-.58,7.63-3.35,7.72-7.51a2.52,2.52,0,0,0-2.5-2.5A2.55,2.55,0,0,0,280,641.42Z"/><path class="cls-14" d="M328.1,641.42c0,2.05-2.33,3.71-5.19,3.71s-5.19-1.66-5.19-3.71,2.32-3.71,5.19-3.71S328.1,639.37,328.1,641.42Z"/><path class="cls-15" d="M325.6,641.42a1.93,1.93,0,0,0,0,.24c-.06-.57.1-.53,0-.26,0,.08-.05.15-.07.23-.06.28.28-.51.12-.27a2.78,2.78,0,0,0-.28.47s.43-.47.16-.21c-.09.09-.17.19-.27.28a1,1,0,0,0-.19.17s.51-.35.18-.15c-.16.1-.31.21-.47.29l-.26.13c-.36.2.15-.08.2-.07a3.07,3.07,0,0,0-.73.23l-.3.07c-.08,0-.57.06-.14,0l-.4,0a6.26,6.26,0,0,1-.75,0l-.33,0,.35,0-.31-.06a5.26,5.26,0,0,1-.6-.15l-.29-.1c-.39-.13.15.06.19.09-.16-.11-.35-.17-.51-.26l-.3-.19c-.36-.22.05,0,.13.11a2.65,2.65,0,0,0-.42-.4c-.38-.37.25.46,0,0a2.2,2.2,0,0,0-.15-.26c-.12-.21.06-.21.11.27a.88.88,0,0,0-.07-.23c-.07-.28.08-.42,0,.2a3.84,3.84,0,0,0,0-.48c.06.57-.1.54,0,.31l.06-.22c.07-.35-.1.23-.13.26a1.71,1.71,0,0,0,.14-.27l.13-.2c.13-.25-.41.45-.12.16.13-.14.28-.27.41-.41s-.46.29-.19.15l.29-.19a4.82,4.82,0,0,1,.5-.27c.17-.09.33-.06-.2.07a3.66,3.66,0,0,0,.43-.15,5.26,5.26,0,0,1,.6-.15,1.3,1.3,0,0,0,.31-.06c-.12.13-.53,0-.18,0s.49,0,.74,0a3.21,3.21,0,0,0,.74,0c-.15.11-.56-.09-.11,0l.38.09a3.42,3.42,0,0,0,.73.23c-.28,0-.46-.21-.2-.07l.38.19.24.15.17.12-.24-.19a3.92,3.92,0,0,0,.46.45c.16.17,0,.23-.16-.21.05.1.14.2.2.31a1.36,1.36,0,0,0,.1.21c-.08-.11-.18-.6-.1-.21,0,0,.09.26.07.29s-.06-.75,0-.19a2.5,2.5,0,0,0,5,0c-.07-3-2.5-5.19-5.27-5.9a9.07,9.07,0,0,0-8.22,1.8,5.68,5.68,0,0,0-1.87,3.74,5.42,5.42,0,0,0,1.38,4c1.89,2.27,5.15,2.89,7.94,2.46,3.07-.47,6-2.76,6-6.05a2.52,2.52,0,0,0-2.5-2.5A2.55,2.55,0,0,0,325.6,641.42Z"/><path class="cls-14" d="M206.93,570.75l46.74-1a7.79,7.79,0,0,1,3.84.58,4.3,4.3,0,0,1,1.47,1.69c6.45,10.33,6.45,26.57-.78,33H208.13s6.42-6.9,5.85-18.75C213.46,575.64,206.93,570.75,206.93,570.75Z"/><path class="cls-14" d="M219.2,551.27c-.47-.59.12-1.32,1.06-1.34l22.74-.46a4.06,4.06,0,0,1,2.05.3,2.27,2.27,0,0,1,.79.91c3.34,5.35,3.46,13.64,0,17.32a1.45,1.45,0,0,1-1,.38H220.67c-.92,0-1.53-.67-1.15-1.27a15.17,15.17,0,0,0,2.2-8.78A12.12,12.12,0,0,0,219.2,551.27Z"/><path class="cls-14" d="M258.82,564.24l70.82-1.37c2,0,4.24,0,5.82.83a6.54,6.54,0,0,1,2.24,2.46c9.76,15,9.76,38.66-1.19,48.06H260.65s9.73-10.05,8.86-27.29C268.73,571.36,258.82,564.24,258.82,564.24Z"/><path class="cls-14" d="M264.6,538.53c-.52-.61.08-1.39,1.08-1.41l30.12-.61a5.46,5.46,0,0,1,2.68.39,3.19,3.19,0,0,1,1,1.18c4.37,7,4.32,17-.33,21.73a1.47,1.47,0,0,1-1,.39l-31.82.84c-1,0-1.65-.69-1.24-1.32a19.6,19.6,0,0,0,3-11.69A15.67,15.67,0,0,0,264.6,538.53Z"/><path class="cls-14" d="M369.3,617.86c-5,.58-49.16,5.31-54.2,5.89-.35,2.57-1,8-5.56,10.31a21.53,21.53,0,0,1-15.93,1.26c-5.08-1.72-10-6.5-11-10.43,0,0-23.17-.61-35.42-.5,0-2.62-.11-5.23-.17-7.85l-48.62-4.15"/><path class="cls-11" d="M369.3,615.36c-6.35.73-12.71,1.39-19.06,2.08l-26.92,2.91-8.22.9c-1,.11-2.25.69-2.41,1.83-.34,2.47-.73,4.94-2.15,6.91-1.81,2.49-5.62,3.44-8.56,3.7a16.91,16.91,0,0,1-10.65-2.22c-2.65-1.64-5.45-4.22-6.33-7.25a2.55,2.55,0,0,0-2.41-1.83q-13-.35-26-.48c-3.12,0-6.24,0-9.37,0l2.5,2.5c0-2.62-.11-5.23-.17-7.85A2.56,2.56,0,0,0,247,614l-16.47-1.41-26.12-2.23-6-.51a2.51,2.51,0,0,0-2.5,2.5,2.55,2.55,0,0,0,2.5,2.5l16.47,1.4L241,618.53l6,.51-2.5-2.5c.06,2.62.12,5.23.17,7.85a2.54,2.54,0,0,0,2.5,2.5c10.8-.09,21.59.17,32.38.42l3,.08-2.41-1.84c1.91,6.56,8.92,11.72,15.46,12.85s15.46-.07,19.38-6.14a18.75,18.75,0,0,0,2.49-7.85l-2.41,1.84c6.35-.72,12.71-1.39,19.06-2.07l26.92-2.91c2.74-.3,5.48-.59,8.22-.91a2.57,2.57,0,0,0,2.5-2.5,2.52,2.52,0,0,0-2.5-2.5Z"/><path class="cls-14" d="M278.66,607.81c20.11-6.72,37.18-18,48.14-31.8"/><path d="M279,609c14.8-5,28.92-12.57,40.42-23.24a80.91,80.91,0,0,0,8.27-8.89c1-1.24-.76-3-1.77-1.76-9.19,11.52-21.54,20.21-34.84,26.41a123.89,123.89,0,0,1-12.75,5.07c-1.51.51-.86,2.92.67,2.41Z"/><path class="cls-14" d="M314.3,596.18,320,592"/><path d="M314.93,597.25l5.68-4.22a1.4,1.4,0,0,0,.58-.75,1.28,1.28,0,0,0-.13-1,1.26,1.26,0,0,0-1.71-.45l-5.69,4.23a1.35,1.35,0,0,0-.57.74,1.25,1.25,0,0,0,1.84,1.41Z"/><path class="cls-14" d="M203.54,617.33c0,3.58,2.06,7.15,5.64,9.65"/><path class="cls-4" d="M202.29,617.33c0,4.45,2.74,8.25,6.26,10.73a1.25,1.25,0,0,0,1.26-2.16,12.91,12.91,0,0,1-3.72-4,9,9,0,0,1-1.3-4.6,1.25,1.25,0,0,0-2.5,0Z"/><path class="cls-14" d="M232.82,637.8A13.31,13.31,0,0,1,239,634"/><path class="cls-4" d="M233.71,638.68a9.78,9.78,0,0,1,1.16-1.16l.32-.27c.12-.09-.18.14,0,0l.16-.12c.25-.18.5-.35.76-.51a15.33,15.33,0,0,1,1.6-.86l.18-.08c.11,0,.2-.08,0,0l.43-.17c.31-.12.63-.23.95-.33a1.25,1.25,0,0,0-.67-2.41,14.54,14.54,0,0,0-6.71,4.16,1.25,1.25,0,1,0,1.77,1.77Z"/><path class="cls-14" d="M201.8,642.52C225,654.27,255.55,660.61,284,660.46s56.72-6.83,79.66-18.83"/><path class="cls-4" d="M200.54,644.68c19.37,9.78,40.91,15.05,62.42,17.25a191.47,191.47,0,0,0,67.47-5,164.2,164.2,0,0,0,34.48-13.14c2.85-1.49.32-5.8-2.53-4.32-19.13,10-40.51,15.68-61.95,17.68a194.23,194.23,0,0,1-65-5,155.12,155.12,0,0,1-32.35-11.74c-2.86-1.45-5.4,2.86-2.52,4.32Z"/><path class="cls-10" d="M173.91,709.2a48.52,48.52,0,0,0-9.12,4.12l4.48,11.07-8.88-8.14a34.11,34.11,0,0,0-11.33,16.3H237.2a28.32,28.32,0,0,0-7.46-12.6l-10.35,4.44,5.44-8.66a46.49,46.49,0,0,0-11.25-6,55.9,55.9,0,0,0-6.14-1.84l-4,8.49v-9.3a64.28,64.28,0,0,0-21.17,0l.79,12.25-6.49-11C175.66,708.65,174.78,708.91,173.91,709.2Z"/><path class="cls-5" d="M158.57,726.39l6.32,3.23.89.45a1.25,1.25,0,0,0,1.26-2.16l-6.33-3.23-.88-.45a1.28,1.28,0,0,0-1.71.45,1.26,1.26,0,0,0,.45,1.71Z"/><path class="cls-5" d="M170.73,715.11,180,728.17,181.3,730a1.29,1.29,0,0,0,1.71.45,1.26,1.26,0,0,0,.45-1.71l-9.26-13.06-1.31-1.84a1.29,1.29,0,0,0-1.71-.45,1.25,1.25,0,0,0-.45,1.71Z"/><path class="cls-5" d="M192.25,709.71l-1.37,16.55-.2,2.38c-.13,1.61,2.37,1.6,2.5,0l1.37-16.54.2-2.39c.13-1.6-2.37-1.59-2.5,0Z"/><path class="cls-5" d="M207.64,728.62c2.45-4.16,5-8.3,7.17-12.61a6.19,6.19,0,0,0,.5-1.12c.26-1.06-.86-2.17-1.88-1.49-1.34.88-.09,3.05,1.26,2.16.27-.18,0-.15-.92.11l-.55-.32h0l-.32-.55c0-.09.06-.84,0-.49s.14-.28,0-.12a2.14,2.14,0,0,0-.1.22c-.18.37-.37.74-.57,1.1-.58,1.09-1.18,2.17-1.79,3.24-1.33,2.36-2.69,4.69-4.05,7l-.93,1.59a1.25,1.25,0,0,0,2.16,1.26Z"/><path class="cls-5" d="M220.43,731.19l7.73-3a1.28,1.28,0,0,0,.87-1.54,1.26,1.26,0,0,0-1.54-.87l-7.72,3a1.29,1.29,0,0,0-.88,1.54,1.27,1.27,0,0,0,1.54.87Z"/><path class="cls-10" d="M376.24,710.57a46.38,46.38,0,0,0-8.66,3.9L371.84,725l-8.44-7.73a32.61,32.61,0,0,0-10.75,15.47h83.66a26.93,26.93,0,0,0-7.08-12L419.41,725l5.16-8.21a43.71,43.71,0,0,0-10.67-5.67,50.57,50.57,0,0,0-5.84-1.75l-3.81,8v-8.82a61,61,0,0,0-20.09,0l.75,11.63-6.17-10.43C377.9,710,377.06,710.29,376.24,710.57Z"/><path class="cls-5" d="M360.62,727l11.16,4.32a1.26,1.26,0,0,0,1.54-.87,1.29,1.29,0,0,0-.88-1.54l-11.16-4.33a1.25,1.25,0,0,0-1.53.88,1.28,1.28,0,0,0,.87,1.54Z"/><path class="cls-5" d="M374,718.37a49.47,49.47,0,0,0,8.11,13,1.25,1.25,0,0,0,1.77-1.77,45.78,45.78,0,0,1-7.47-11.93,1.3,1.3,0,0,0-1.54-.88,1.26,1.26,0,0,0-.87,1.54Z"/><path class="cls-5" d="M393.86,713.46q.18,8.38.37,16.76a1.25,1.25,0,0,0,2.5,0q-.19-8.38-.37-16.76a1.25,1.25,0,0,0-2.5,0Z"/><path class="cls-5" d="M412.29,717.3l-6.52,11.32a1.25,1.25,0,0,0,2.16,1.27l6.52-11.33a1.25,1.25,0,0,0-2.16-1.26Z"/><path class="cls-5" d="M418.22,731.31l9.08-1.49a1.25,1.25,0,0,0,.87-1.54,1.27,1.27,0,0,0-1.53-.87l-9.08,1.49a1.26,1.26,0,0,0-.88,1.54,1.29,1.29,0,0,0,1.54.87Z"/><path class="cls-1" d="M385,533.06,370.6,562.34a1.84,1.84,0,0,1-2,.71l-31.16-7.36s-5-.57-3.11-4.16,18.92-28.32,18.92-28.32l30.87,8.38C384.9,531.81,385.33,532.47,385,533.06Z"/><path class="cls-4" d="M383.58,529.33c0,.06-.5,1.53,1.34,2.49l-15.84,30.54-32-7.34s-3-.74-1.6-3.19S383.58,529.33,383.58,529.33Z"/><path class="cls-16" d="M351.1,556.11c0,.22-1.41,3.77-1.41,3.77l2.84-.4,2.2,1.53,1.3-3.87Z"/><path class="cls-1" d="M350.22,520.78l-15.93,30.75,31.77,7.59a3,3,0,0,0,3.27-1.14l14.09-28.07c.5-1-.23-2.06-1.62-2.39l-30.14-7.23A1.3,1.3,0,0,0,350.22,520.78Z"/><polygon class="cls-4" points="368.46 542.72 350.99 538.28 355.81 528.57 373.29 533 368.46 542.72"/><path d="M364.31,527l4.78,1.27a1.27,1.27,0,0,0,1.54-.87,1.28,1.28,0,0,0-.87-1.54L365,524.56a1.25,1.25,0,1,0-.67,2.41Z"/><path d="M337,552.61l16.51-31.32c.75-1.42-1.4-2.69-2.15-1.26l-16.52,31.31c-.75,1.43,1.41,2.69,2.16,1.27Z"/><path d="M348.75,554.85l9.12,2.13a1.27,1.27,0,0,0,1.53-.87,1.25,1.25,0,0,0-.87-1.54l-9.11-2.13a1.25,1.25,0,1,0-.67,2.41Z"/><path d="M347.68,541.68l22,5.46a1.25,1.25,0,0,0,.66-2.41l-22-5.46c-1.56-.39-2.23,2-.67,2.41Z"/><path d="M352.69,545.39l9.61,2.42a1.25,1.25,0,0,0,.66-2.41l-9.6-2.42c-1.56-.39-2.23,2-.67,2.41Z"/><path class="cls-12" d="M163.76,574.23a2.68,2.68,0,0,0-2.89-.53l-28.28,10.8-.27.09c-.68.2-4.41,1.43-2,4.45,2.23,2.75,15.33,20.28,19.74,26.18a3.67,3.67,0,0,0,4.11.85l29.23-11.91c1.42-.57,1.93-1.86,1.14-2.88Z"/><path class="cls-4" d="M181,604.11c3.83-1.4,1.66-2.85,1.66-2.85l-20-26.08c-.34,0-1.39.73-4.19-.81l-26,10.73,20.84,28.53a2.12,2.12,0,0,0,2.38.51Z"/><path class="cls-16" d="M178.76,604c.13.21,3.32,4.12,3.32,4.12l-2.88.28-1.39,2-4-4.52Z"/><path class="cls-12" d="M149,613.84l-21.26-26.16c-1-1.2-.36-2.74,1.35-3.4l26.37-10.15a3.2,3.2,0,0,1,3.49.72l20.59,25.94c.72.91.26,2.06-1,2.56l-28,10.8A1.41,1.41,0,0,1,149,613.84Z"/><polygon class="cls-4" points="156.23 582.27 140.07 588.77 147.15 597.76 163.31 591.26 156.23 582.27"/><path d="M162.39,608.38l4.41-1.84a1.37,1.37,0,0,0,.74-.58,1.24,1.24,0,0,0,.13-1,1.28,1.28,0,0,0-.58-.75,1.2,1.2,0,0,0-1-.12l-4.4,1.84a1.34,1.34,0,0,0-.75.57,1.29,1.29,0,0,0-.13,1,1.25,1.25,0,0,0,.58.75,1.2,1.2,0,0,0,1,.13Z"/><path d="M128.65,585.8c7.72,9.38,15.32,18.84,23,28.22,1,1.24,2.78-.54,1.76-1.77-7.71-9.37-15.32-18.84-23-28.22-1-1.24-2.79.54-1.77,1.77Z"/><path d="M142.33,584.08l6.26-2.37a1.29,1.29,0,0,0,.87-1.54,1.27,1.27,0,0,0-1.54-.88l-6.25,2.38a1.28,1.28,0,0,0-.88,1.54,1.27,1.27,0,0,0,1.54.87Z"/><path d="M150.73,604.26l20.35-8.06c1.48-.59.83-3-.67-2.41l-20.35,8.06c-1.47.59-.83,3,.67,2.41Z"/><path d="M154.78,600l8.88-3.55a1.3,1.3,0,0,0,.88-1.54A1.27,1.27,0,0,0,163,594l-8.89,3.55a1.3,1.3,0,0,0-.87,1.54,1.26,1.26,0,0,0,1.54.87Z"/><path class="cls-17" d="M426.35,549.29c3.82,2.36,4.82,6.27,1.73,9.07l-8.89-10.24A10.42,10.42,0,0,1,426.35,549.29Z"/><path class="cls-3" d="M358.5,575.27c.33.56,4.92,5.31,4.92,5.31l38.85-14.25-6.14-7.22Z"/><polygon class="cls-3" points="394.65 558.75 402.25 567.82 428.34 558.45 419.43 547.71 394.65 558.75"/><polygon class="cls-3" points="354.57 582.37 352.67 579.78 361.73 575.34 365.06 578.88 354.57 582.37"/><path d="M403,567l-6.57-7.66-1-1.1a1.25,1.25,0,0,0-1.77,0,1.26,1.26,0,0,0,0,1.76l6.57,7.66.95,1.1a1.25,1.25,0,0,0,1.77,0,1.26,1.26,0,0,0,0-1.76Z"/><path d="M364.19,579.79c-1.66-1.75-3.28-3.54-4.81-5.4a1.25,1.25,0,0,0-1.77,0,1.3,1.3,0,0,0,0,1.77c1.53,1.86,3.15,3.64,4.81,5.4a1.25,1.25,0,0,0,1.77-1.77Z"/><path class="cls-3" d="M354.7,582.47l-2.1-2.42-.29-.34a.65.65,0,0,1,0-.71,1.11,1.11,0,0,1,.65-.51,1.85,1.85,0,0,1,1,0,1.41,1.41,0,0,1,.71.47l2.1,2.42.29.34a.68.68,0,0,1,.05.71,1.17,1.17,0,0,1-.66.51,1.85,1.85,0,0,1-1,0,1.41,1.41,0,0,1-.71-.47Z"/><path d="M358.32,580.91l-2.88-3.4a1.27,1.27,0,0,0-1.77,0,1.3,1.3,0,0,0-.37.89,1.39,1.39,0,0,0,.37.88l2.88,3.4a1.26,1.26,0,0,0,2.14-.89,1.39,1.39,0,0,0-.37-.88Z"/><path d="M429.22,557.89,419.94,547a1.25,1.25,0,0,0-1.76,0,1.27,1.27,0,0,0,0,1.76l9.27,10.93a1.26,1.26,0,0,0,1.77,0,1.28,1.28,0,0,0,0-1.77Z"/><path class="cls-4" d="M429.83,554.53a5,5,0,0,0-.61-2.53,6.58,6.58,0,0,0-2-2,1.28,1.28,0,0,0-1-.13,1.31,1.31,0,0,0-.75.58,1.24,1.24,0,0,0-.12,1,1.42,1.42,0,0,0,.57.75l.19.14-.25-.19a5.61,5.61,0,0,1,1,1l-.2-.26a4,4,0,0,1,.5.84l-.13-.3a3.49,3.49,0,0,1,.24.88l0-.33a3.71,3.71,0,0,1,0,.67,1.25,1.25,0,0,0,2.5,0Z"/><path class="cls-4" d="M424,549.85v0a.89.89,0,0,0,.1.48,1.15,1.15,0,0,0,.66.66,1,1,0,0,0,.49.11l.33,0a1.23,1.23,0,0,0,.55-.32l.19-.25a1.31,1.31,0,0,0,.18-.63v0a.89.89,0,0,0-.11-.48.88.88,0,0,0-.25-.4,1,1,0,0,0-.41-.26.89.89,0,0,0-.48-.11l-.33,0a1.18,1.18,0,0,0-.55.32l-.2.25a1.29,1.29,0,0,0-.17.63Z"/><path class="cls-12" d="M451.87,704.58a34.44,34.44,0,0,0-6.44,6.28c-2.66,3.6-6.67,7.07-3,8.55,3.89,1.57,8.18-3.76,9.7-5.36s5.92-5.55,5.62-6.69S453.84,704.22,451.87,704.58Z"/><path d="M450.84,706.4a7.25,7.25,0,0,0,5.64,3,1.24,1.24,0,0,0,1.25-1.25,1.28,1.28,0,0,0-1.25-1.25l-.19,0s-.22,0,0,0h-.06l-.14,0c-.23,0-.46-.1-.69-.17a6.26,6.26,0,0,1-.61-.21c-.19-.07,0,0,.06,0l-.13,0-.31-.16a5.48,5.48,0,0,1-.52-.31c-.06,0-.32-.23-.15-.1l-.12-.1a4.16,4.16,0,0,1-.42-.42l-.08-.09c-.1-.12.18.25.07.08l-.17-.24a1.27,1.27,0,0,0-1.71-.45,1.28,1.28,0,0,0-.45,1.71Z"/><path class="cls-12" d="M429.54,709.41a20.45,20.45,0,0,0,3.48,5.26c2.36,2.53,4.12,5.64,6.8,4.44s-.55-5.18-1.48-6.47-3-4.74-4.14-5S429.91,708.36,429.54,709.41Z"/><path d="M430.65,711.06a6.25,6.25,0,0,0,4.72-1.65,1.25,1.25,0,0,0-1.77-1.76,3.73,3.73,0,0,1-.36.32l.25-.2a4.24,4.24,0,0,1-.95.54l.3-.12a5.88,5.88,0,0,1-1.44.38l.34-.05a5.68,5.68,0,0,1-1.09,0,1.26,1.26,0,0,0-1.25,1.25,1.28,1.28,0,0,0,1.25,1.25Z"/><path class="cls-12" d="M430.9,699.52a16.75,16.75,0,0,0,2.82,4.26c1.92,2.05,3.34,4.57,5.51,3.59s-.44-4.19-1.2-5.23-2.42-3.85-3.35-4.07S431.2,698.66,430.9,699.52Z"/><path d="M431.8,701.09a5.3,5.3,0,0,0,4-1.4,1.25,1.25,0,0,0-1.76-1.77,3.73,3.73,0,0,1-.3.26l.25-.2a3.42,3.42,0,0,1-.77.44l.3-.13a4.24,4.24,0,0,1-1.16.31l.33,0a4.32,4.32,0,0,1-.88,0,1.22,1.22,0,0,0-.88.37,1.26,1.26,0,0,0-.37.88,1.28,1.28,0,0,0,1.25,1.25Z"/><path class="cls-12" d="M438.78,698.47a29.46,29.46,0,0,0-1.68,10.11c.21,5.33-1.24,11.12,4.3,11.12,5.86,0,5.94-8.05,6.23-10.58.32-2.74,1.75-9,.39-10.19S440.7,697.15,438.78,698.47Z"/><path d="M439.28,700.88a11.31,11.31,0,0,0,8.33.78,1.25,1.25,0,0,0-.66-2.41,8.22,8.22,0,0,1-3.41.32l-.42,0c.25,0-.22,0-.27,0a8.23,8.23,0,0,1-.86-.19c-.28-.08-.55-.18-.83-.27s-.14-.06,0,0l-.21-.09-.4-.2a1.25,1.25,0,1,0-1.26,2.16Z"/><path class="cls-11" d="M195.63,629.77l-7.5,2.05-.57-1.14s-4.8,1.49-7.22-1.38-.64-6.39,2.27-7.49,4.72-1.86,8.59.28,3,2,4.09,4a5,5,0,0,1,.71,3.57"/><path d="M197,629.78c1.18-8.36-10.24-12.23-16.31-8.09a6.31,6.31,0,0,0-2.9,4.1,4.89,4.89,0,0,0,1.59,4.3c2.61,2.5,7.58,3.23,10.44.73a3.25,3.25,0,0,0-.2-5.21,4.64,4.64,0,0,0-5.42.26c-1.23,1,.54,2.8,1.76,1.77a2.16,2.16,0,0,1,2.34.09c.9.78-.6,1.61-1.24,1.82-2.09.69-5,.15-6.38-1.75s.63-3.75,2.26-4.53a9.8,9.8,0,0,1,7.41,0c2.39.89,4.63,3.15,4.24,5.89a1.29,1.29,0,0,0,.87,1.54,1.25,1.25,0,0,0,1.54-.87Z"/><path class="cls-11" d="M196.73,628.34a56.57,56.57,0,0,1-8.9,2.15,1.25,1.25,0,0,0,.66,2.41,56.57,56.57,0,0,0,8.9-2.15,1.25,1.25,0,1,0-.66-2.41Z"/><path class="cls-4" d="M191.74,623.78a8.2,8.2,0,0,0-7.78-1.23,1.25,1.25,0,1,0,.67,2.41,6.82,6.82,0,0,1,.77-.23l.46-.09c.29-.06-.13,0,.14,0s.56,0,.84,0l.48,0,.3,0,.29,0,.39.09c.25.07.49.16.73.24l0,0,.19.09.33.17.31.19c.05,0,.39.3.15.1a1.25,1.25,0,1,0,1.77-1.76Z"/><path class="cls-4" d="M192.66,627.48a1.25,1.25,0,0,0,0-2.5,1.25,1.25,0,0,0,0,2.5Z"/><path class="cls-4" d="M199.79,564.21a4,4,0,0,0-3.18-.37c-.44-1.83-1.12-3.9-3.39-4.79a7.17,7.17,0,0,0-6.51,1,6.37,6.37,0,0,0-2.39,4.74,5.28,5.28,0,0,0-4.18.12,21.87,21.87,0,0,0-3.14,2.32h23.73A3,3,0,0,0,199.79,564.21Z"/><path class="cls-4" d="M429,521.24a6.71,6.71,0,0,0-5.34-.63c-.75-3.07-1.88-6.55-5.7-8.05a12.1,12.1,0,0,0-11,1.71,10.73,10.73,0,0,0-4,8,8.85,8.85,0,0,0-7,.21,36,36,0,0,0-5.28,3.89h39.88C431.21,525.05,430.41,522.16,429,521.24Z"/><path class="cls-4" d="M143.79,512.23a6.07,6.07,0,0,0-4.85-.57c-.67-2.79-1.7-5.94-5.16-7.31a11,11,0,0,0-9.94,1.56,9.76,9.76,0,0,0-3.63,7.23,8,8,0,0,0-6.38.19,32.48,32.48,0,0,0-4.78,3.53h36.17A4.56,4.56,0,0,0,143.79,512.23Z"/><path class="cls-4" d="M249.84,547a16.29,16.29,0,0,1,.32,1.83c.11.57.85.48.9.21a14.7,14.7,0,0,1,.52-1.94c.25-.79,3.16-.36,3.27-.81s-1.42-.43-2.48-.56-.84-.57-.93-1.22-.17-1.4-.58-1.4-.65,1.74-.74,2-.1.44-.66.54a15.3,15.3,0,0,1-1.77.08s-.95,0-.95.27.52.27.75.32,1.34.21,1.7.28A.91.91,0,0,1,249.84,547Z"/><path class="cls-4" d="M205,506.1a16.29,16.29,0,0,1,.32,1.83c.11.57.86.48.91.21a14.23,14.23,0,0,1,.51-1.94c.25-.79,3.16-.36,3.27-.81s-1.42-.43-2.48-.56-.84-.57-.93-1.22-.17-1.4-.58-1.4-.65,1.74-.74,2-.09.44-.66.54a15.12,15.12,0,0,1-1.76.08s-1,0-1,.27.52.27.76.32,1.34.21,1.69.28A.91.91,0,0,1,205,506.1Z"/><path class="cls-4" d="M325.05,475.33a14.33,14.33,0,0,1,.33,1.83c.1.56.85.47.9.21a15.15,15.15,0,0,1,.52-1.95c.25-.79,3.15-.36,3.27-.81s-1.43-.43-2.48-.56-.85-.56-.94-1.22-.17-1.4-.57-1.4-.65,1.74-.74,2-.1.43-.66.54c-.35.06-1.25.07-1.77.08,0,0-1,0-1,.26s.51.28.75.32,1.34.21,1.7.29A.86.86,0,0,1,325.05,475.33Z"/><path class="cls-4" d="M397,546.84a16.29,16.29,0,0,1,.32,1.83c.11.56.86.47.91.21a14.64,14.64,0,0,1,.51-2c.25-.79,3.16-.36,3.27-.81s-1.42-.42-2.48-.56-.84-.56-.93-1.22-.17-1.4-.58-1.4-.65,1.75-.74,2-.09.43-.66.54c-.34.06-1.24.07-1.76.08,0,0-1,0-1,.26s.52.28.76.33,1.34.21,1.69.28A.91.91,0,0,1,397,546.84Z"/><path class="cls-4" d="M191.23,588.68a22.93,22.93,0,0,1,.48,2.73c.16.84,1.28.7,1.35.31a21.24,21.24,0,0,1,.78-2.9c.37-1.18,4.71-.54,4.88-1.21s-2.13-.64-3.71-.83-1.25-.85-1.39-1.83-.25-2.09-.86-2.09-1,2.6-1.11,3-.14.65-1,.81a25.52,25.52,0,0,1-2.64.11s-1.42,0-1.42.4.77.41,1.12.48,2,.32,2.54.43A1.28,1.28,0,0,1,191.23,588.68Z"/></svg>